<?xml version="1.0" standalone="no"?>
<!DOCTYPE svg PUBLIC "-//W3C//DTD SVG 1.1//EN" "http://www.w3.org/Graphics/SVG/1.1/DTD/svg11.dtd" >
<svg>
<metadata>
Created by FontForge 20090914 at Fri Feb 10 15:42:38 2023
 By www-data
Typeface &#194;&#169; (your company). 2006. All Rights Reserved
</metadata>
<defs>
<font id="ONEPIECE" horiz-adv-x="1139" >
  <font-face 
    font-family="ONE PIECE"
    font-weight="400"
    font-stretch="normal"
    units-per-em="2048"
    panose-1="2 0 0 0 0 0 0 0 0 0"
    ascent="1638"
    descent="-410"
    x-height="985.999"
    cap-height="1454"
    bbox="-355 -447.999 1996 1868"
    underline-thickness="150"
    underline-position="-142"
    unicode-range="U+0020-U+F005"
  />
<missing-glyph horiz-adv-x="1536" 
d="M256 0v1280h1024v-1280h-1024zM288 32h960v1216h-960v-1216z" />
    <glyph glyph-name=".notdef" horiz-adv-x="1536" 
d="M256 0v1280h1024v-1280h-1024zM288 32h960v1216h-960v-1216z" />
    <glyph glyph-name="space" unicode=" " horiz-adv-x="569" 
 />
    <glyph glyph-name="space" unicode="&#xa0;" horiz-adv-x="569" 
 />
    <glyph glyph-name="exclam" unicode="!" horiz-adv-x="678" 
d="M472 1321c0 -33.333 -10.999 -145.332 -32.999 -335.999s-41.333 -375 -58 -553h-78c-14.667 178 -32.834 362.333 -54.501 553s-32.5 302.667 -32.5 336c0 38 12 70 36 96s54.667 39 92 39s68 -12.833 92 -38.5s36 -57.834 36 -96.501zM481.001 115.001
c0 -37.333 -13.5 -69.166 -40.5 -95.499s-59.167 -39.5 -96.5 -39.5s-69.5 13.167 -96.5 39.5s-40.5 58.166 -40.5 95.499s13.5 69.5 40.5 96.5s59.167 40.5 96.5 40.5s69.5 -13.5 96.5 -40.5s40.5 -59.167 40.5 -96.5z" />
    <glyph glyph-name="quotedbl" unicode="&#x22;" horiz-adv-x="843" 
d="M725 1417c0 -26.667 -8.66797 -78 -26.001 -154s-36.666 -174.667 -57.999 -296h-62c-15.333 98.667 -32.5 192.667 -51.5 282s-28.5 145.333 -28.5 168c0 30.667 9.33301 57 28 79s47 33 85 33c36.667 0 64.667 -11 84 -33s29 -48.333 29 -79zM342.999 1417
c0 -26.667 -8.66797 -77.999 -26.001 -153.999s-36.666 -174.667 -57.999 -296h-61c-18 113.333 -35.833 210.166 -53.5 290.499s-26.5 133.5 -26.5 159.5c0 30.667 9.33301 57 28 79s47 33 85 33c36 0 63.667 -11 83 -33s29 -48.333 29 -79z" />
    <glyph glyph-name="numbersign" unicode="#" horiz-adv-x="1317" 
d="M1163 745h-249l-72 -251h261v-123h-296l-107 -371h-111l107 371h-217l-107 -371h-111l107 371h-214v123h249l73 251h-262v123h296l105 362h111l-105 -362h217l105 362h111l-105 -362h214v-123zM807 747h-222l-74 -255h221z" />
    <glyph glyph-name="dollar" unicode="$" horiz-adv-x="1249" 
d="M1018 580c26.667 -26 47.498 -56.333 62.498 -91s22.5 -76 22.5 -124c0 -104.667 -40 -192.5 -120 -263.5s-180.667 -110.5 -302 -118.5v-282h-82v280c-132 2.66699 -239 34.167 -321 94.5s-123 135.166 -123 224.499c0 39.333 8.66699 69.5 26 90.5
s41.666 31.5 72.999 31.5c35.333 0 63 -8.83301 83 -26.5s30 -38.5 30 -62.5c0 -18 -6.33301 -45.167 -19 -81.5s-20.667 -61.166 -24 -74.499c19.333 -34.667 52.833 -62.667 100.5 -84s105.834 -32.333 174.501 -33v506l-76.5 28c-21.667 8 -50.167 19.333 -85.5 34
c-76.667 31.333 -136.667 72.5 -180 123.5s-65 117.167 -65 198.5c0 96 40 177 120 243s175.667 100 287 102v229h82v-229c66 -1.33301 124.333 -11 175 -29s92 -40.333 124 -67s56.167 -56 72.5 -88s24.5 -63 24.5 -93s-7 -55.5 -21 -76.5s-37 -31.5 -69 -31.5
c-32.667 0 -59.834 8.33301 -81.501 25s-32.5 35.334 -32.5 56.001c0 24.667 2.66699 49.167 8 73.5l14 64.5c-2 4 -8.66699 11.167 -20 21.5s-24.666 19.833 -39.999 28.5c-16.667 9.33301 -38.667 17.666 -66 24.999s-56.666 11 -87.999 11v-464
c26 -9.33301 47.833 -17.5 65.5 -24.5l65.5 -25.5c41.333 -16 79.333 -33.5 114 -52.5s65.334 -41.833 92.001 -68.5zM598.998 775l0.000976562 440.001c-64.667 0 -119 -18.333 -163 -55s-66 -81.667 -66 -135c0 -58 13.667 -104.333 41 -139
s68.666 -63.334 123.999 -86.001l30 -12zM914.999 284.001c0 54.667 -14.166 102.165 -42.499 142.498s-76.5 73.833 -144.5 100.5c-8.66699 3.33301 -16.834 6.33301 -24.501 9l-22.5 8v-483c78 4.66699 136.5 26.834 175.5 66.501s58.5 91.834 58.5 156.501z" />
    <glyph glyph-name="percent" unicode="%" horiz-adv-x="1674" 
d="M788 1083c0 -117.333 -31.667 -208.333 -95 -273s-145 -97 -245 -97s-181.5 32.333 -244.5 97s-94.5 155.667 -94.5 273c0 110.667 30.833 200 92.5 268s144.167 102 247.5 102c102 0 184 -34 246 -102s93 -157.333 93 -268zM619 1083
c0 86.667 -14.334 157.667 -43.001 213s-71 83 -127 83c-57.333 0 -100.166 -27.667 -128.499 -83s-42.5 -126.333 -42.5 -213c0 -88.667 14.333 -160.167 43 -214.5s71 -81.5 127 -81.5s98.5 27.167 127.5 81.5s43.5 125.833 43.5 214.5zM1565 338
c0 -117.333 -31.667 -208.333 -95 -273s-145 -97 -245 -97s-181.5 32.333 -244.5 97s-94.5 155.667 -94.5 273c0 110.667 30.833 200 92.5 268s144.167 102 247.5 102c102 0 184 -34 246 -102s93 -157.333 93 -268zM1396 338c0 86.667 -14.334 157.667 -43.001 213
s-71 83 -127 83c-57.333 0 -100.166 -27.667 -128.499 -83s-42.5 -126.333 -42.5 -213c0 -88.667 14.333 -160.167 43 -214.5s71 -81.5 127 -81.5s98.5 27.167 127.5 81.5s43.5 125.833 43.5 214.5zM1499 1424l-1179 -1424h-138l1176 1424h141z" />
    <glyph glyph-name="ampersand" unicode="&#x26;" horiz-adv-x="1455" 
d="M1454 828c-39.333 -3.33301 -78.998 -11.1641 -118.998 -23.4971s-70.667 -31.833 -92 -58.5c-14 -16 -28.167 -39.667 -42.5 -71l-51.5 -111l-61 -126c-20.667 -41.333 -47.334 -82.666 -80.001 -123.999c26.667 -32 59.334 -66.833 98.001 -104.5
s71.667 -64.834 99 -81.501c26.667 -15.333 64.5 -28.333 113.5 -39s89.167 -16.667 120.5 -18v-71h-412l-149 170c-22 -24 -47.167 -48.833 -75.5 -74.5s-58.166 -47.834 -89.499 -66.501c-34.667 -20 -69.5 -35.667 -104.5 -47s-76.167 -17 -123.5 -17
c-49.333 0 -98.333 7.16699 -147 21.5s-93 37.166 -133 68.499c-38.667 30.667 -70 70 -94 118s-36 105.333 -36 172c0 82.667 21.833 157.5 65.5 224.5s125.167 138.167 244.5 213.5c-54 71.333 -96 133 -126 185s-45 110.333 -45 175c0 46 9.16699 88.167 27.5 126.5
s44.166 71.833 77.499 100.5c30.667 26 68 46.333 112 61s88.667 22 134 22c53.333 0 100.166 -8.5 140.499 -25.5s73.166 -39.167 98.499 -66.5c23.333 -25.333 41.166 -54.666 53.499 -87.999s18.5 -66.666 18.5 -99.999c0 -80 -24.833 -148.833 -74.5 -206.5
s-118.167 -109.5 -205.5 -155.5c62.667 -84.667 124 -161.834 184 -231.501l173 -205.5c44.667 71.333 79.334 138.5 104.001 201.5s37 118.5 37 166.5c0 21.333 -15.5 38.166 -46.5 50.499s-73.833 24.166 -128.5 35.499v71h535v-71zM747.002 1153
c0 68 -14.999 120.167 -44.999 156.5s-72.667 54.5 -128 54.5c-31.333 0 -57.333 -6.33301 -78 -19s-38.334 -28.667 -53.001 -48c-13.333 -18.667 -23 -38.667 -29 -60s-9 -40.333 -9 -57c0 -46 12 -92.5 36 -139.5s61.333 -103.833 112 -170.5
c68.667 38.667 118.167 80.5 148.5 125.5s45.5 97.5 45.5 157.5zM825.003 228.002l-209.5 258.499c-77.667 93.667 -139.834 172.834 -186.501 237.501c-54 -37.333 -92.167 -81.166 -114.5 -131.499s-33.5 -107.833 -33.5 -172.5c0 -90.667 25.833 -165.834 77.5 -225.501
s120.834 -89.5 207.501 -89.5c48.667 0 96.5 10.5 143.5 31.5s85.5 51.5 115.5 91.5z" />
    <glyph glyph-name="quotesingle" unicode="'" horiz-adv-x="441" 
d="M333 1417c0 -26.667 -8.66797 -77.999 -26.001 -153.999s-36.666 -174.667 -57.999 -296h-61c-18 113.333 -35.833 210.166 -53.5 290.499s-26.5 133.5 -26.5 159.5c0 30.667 9.33301 57 28 79s47 33 85 33c36 0 63.667 -11 83 -33s29 -48.333 29 -79z" />
    <glyph glyph-name="parenleft" unicode="(" horiz-adv-x="768" 
d="M701 -328c-182 22.667 -324.833 114.332 -428.5 274.999s-155.5 377 -155.5 649c0 276.667 51.833 495.834 155.5 657.501s246.5 254.5 428.5 278.5v-83c-128 -23.333 -225.333 -105 -292 -245s-100 -343.333 -100 -610c0 -254 32.667 -451.5 98 -592.5
s163.333 -223.5 294 -247.5v-82z" />
    <glyph glyph-name="parenright" unicode=")" horiz-adv-x="768" 
d="M651 596c0 -272 -51.833 -488.331 -155.5 -648.998s-246.5 -252.334 -428.5 -275.001v82c130.667 24 228.667 106.5 294 247.5s98 338.5 98 592.5c0 266.667 -33.333 470 -100 610s-164 221.667 -292 245v83c182 -24 324.833 -116.833 428.5 -278.5
s155.5 -380.834 155.5 -657.501z" />
    <glyph glyph-name="asterisk" unicode="*" horiz-adv-x="967" 
d="M882 1099c0 -24.667 -6.99805 -42.6689 -20.998 -54.002s-32 -17 -54 -17c-14.667 0 -49.834 7.16699 -105.501 21.5s-118.167 25.5 -187.5 33.5c30 -41.333 58 -75.833 84 -103.5l65 -69.5c18 -19.333 32 -36.333 42 -51s15 -30.334 15 -47.001
c0 -18 -8 -33.667 -24 -47s-33 -20 -51 -20c-12 0 -23.333 3.5 -34 10.5s-19.667 16.833 -27 29.5c-10.667 19.333 -21.167 50.333 -31.5 93s-33.166 105.334 -68.499 188.001c-32 -79.333 -54.333 -142.166 -67 -188.499s-23.667 -77.166 -33 -92.499
c-8.66699 -13.333 -17.5 -23.333 -26.5 -30s-20.5 -10 -34.5 -10c-18.667 0 -35.834 6.33301 -51.501 19s-23.5 28.667 -23.5 48c0 16 4.66699 31 14 45s23.666 31.667 42.999 53l66.5 71c27.667 30 55.167 64 82.5 102c-65.333 -6.66699 -126.166 -17.5 -182.499 -32.5
s-93.166 -22.5 -110.499 -22.5c-22 0 -40 5.5 -54 16.5s-21 29.167 -21 54.5c0 22.667 7 40.167 21 52.5s32 18.5 54 18.5c20 0 55.167 -7 105.5 -21s112.833 -24.667 187.5 -32c-26 35.333 -53.333 68.833 -82 100.5l-67 72.5c-18.667 20 -32.834 37.167 -42.501 51.5
s-14.5 29.833 -14.5 46.5c0 18 8 33.667 24 47s33 20 51 20c12 0 23.167 -3.33301 33.5 -10s19.5 -16.667 27.5 -30c9.33301 -16 21.666 -51.833 36.999 -107.5s36.333 -113.5 63 -173.5c30 68 51.833 127.5 65.5 178.5s25.167 85.167 34.5 102.5
c7.33301 12.667 16.166 22.5 26.499 29.5s21.833 10.5 34.5 10.5c18.667 0 35.834 -6.33301 51.501 -19s23.5 -28.667 23.5 -48c0 -27.333 -18.5 -59.333 -55.5 -96s-87.167 -95 -150.5 -175c72 8 134.5 18.833 187.5 32.5s88.167 20.5 105.5 20.5c22 0 40 -6 54 -18
s21 -29.667 21 -53z" />
    <glyph glyph-name="plus" unicode="+" horiz-adv-x="1317" 
d="M1173 497h-451v-451h-127v451h-451v125h451v451h127v-451h451v-125z" />
    <glyph glyph-name="comma" unicode="," horiz-adv-x="552" 
d="M429 35c0 -48 -10.833 -93.3301 -32.5 -135.997s-46.5 -79.334 -74.5 -110.001c-28.667 -32 -59 -60.333 -91 -85s-61.333 -44 -88 -58l-46 67c32 20 60.667 40 86 60s46 40 62 60c20 23.333 37 48.666 51 75.999s23 58.333 27 93h-51c-44.667 0 -79.5 11.667 -104.5 35
s-37.5 54.666 -37.5 93.999c0 28 11.333 55.167 34 81.5s53.667 39.5 93 39.5c57.333 0 100.333 -19.167 129 -57.5s43 -91.5 43 -159.5z" />
    <glyph glyph-name="hyphen" unicode="-" horiz-adv-x="766" 
d="M681 465h-596v157h596v-157z" />
    <glyph glyph-name="hyphen" unicode="&#xad;" horiz-adv-x="766" 
d="M681 465h-596v157h596v-157z" />
    <glyph glyph-name="period" unicode="." horiz-adv-x="552" 
d="M415 115c0 -37.333 -13.5 -69.166 -40.5 -95.499s-59.167 -39.5 -96.5 -39.5s-69.5 13.167 -96.5 39.5s-40.5 58.166 -40.5 95.499s13.5 69.5 40.5 96.5s59.167 40.5 96.5 40.5s69.5 -13.5 96.5 -40.5s40.5 -59.167 40.5 -96.5z" />
    <glyph glyph-name="slash" unicode="/" horiz-adv-x="960" 
d="M870 1523l-691 -1947h-130l689 1947h132z" />
    <glyph glyph-name="zero" unicode="0" horiz-adv-x="1075" 
d="M325 977v-24l18 24h344l90 -24c-56 126.667 -140.333 190 -253 190c-132.667 -66.667 -199 -122 -199 -166zM164 838l0.000976562 -48h109c15.333 -238 97.666 -365.333 246.999 -382l70 6c150 32.667 225 150 225 352v24l-18 24v24h18l55 -48h72v48l-127 23l-12 12
l-20 6l-4 6l-253 24zM455.001 786l55 -95v-71l-55 -72h-72c-27.333 0 -45.333 39.667 -54 119c16.667 79.333 58.667 119 126 119zM709.001 786l54 -95v-71l-54 -72h-73c-27.333 0 -45.333 39.667 -54 119c16.667 79.333 59 119 127 119zM546.001 548l36 -47l-36 -48l-36 48
zM895.001 1204c45.333 -61.333 80.999 -135.5 106.999 -222.5s39 -183.167 39 -288.5c0 -106 -13.167 -202.333 -39.5 -289s-62.833 -160.334 -109.5 -221.001c-45.333 -60 -97.833 -106.333 -157.5 -139s-123.167 -49 -190.5 -49c-72 0 -138.5 17.333 -199.5 52
s-113.167 83.334 -156.5 146.001c-44 60.667 -78.5 134.5 -103.5 221.5s-37.5 179.833 -37.5 278.5c0 108.667 13.167 205.5 39.5 290.5s62.5 158.5 108.5 220.5c45.333 62 98.333 109.167 159 141.5s124 48.5 190 48.5c68.667 0 133.334 -16.5 194.001 -49.5
s113 -79.833 157 -140.5zM858 287c34 53.333 58.6641 113.831 73.9971 181.498s22.666 143.5 21.999 227.5c-1.33301 86 -11 164.833 -29 236.5s-44 132.834 -78 183.501c-34 50 -76.667 89 -128 117s-110 42 -176 42c-73.333 0 -135.666 -16.167 -186.999 -48.5
s-93 -75.5 -125 -129.5c-30.667 -52 -53.167 -112.833 -67.5 -182.5s-21.166 -142.5 -20.499 -218.5c0.666992 -84.667 9.33398 -161.167 26.001 -229.5s42.334 -129.166 77.001 -182.499c33.333 -51.333 75.333 -91.666 126 -120.999s111 -44 181 -44
c66 0 125.167 14.667 177.5 44s94.833 70.666 127.5 123.999zM315.997 924.998v-9.00098l18 9h344l90 -9c-56 46.667 -139 60.334 -249 41.001c-135.333 -5.33301 -203 -16 -203 -32zM523.997 217.997c70.667 -20.667 124 18.667 160 118l-52 -15l-69 -12l-81 8l-53 19
c-2 -36 29.667 -75.333 95 -118zM626.997 422.998l36 -47l-36 -48l-36 48zM545.997 407.998l36 -47l-36 -48l-36 48zM465.997 417.998l37 -47l-37 -48l-36 48z" />
    <glyph glyph-name="one" unicode="1" horiz-adv-x="661" 
d="M600 0l-465.999 -0.000976562v71c14 1.33301 35.5 4.16602 64.5 8.49902s49.167 8.83301 60.5 13.5c14 6.66699 24.833 17.5 32.5 32.5s11.5 37.5 11.5 67.5v702l-308 -104l195 468l-8 -158c-16.667 -110.667 -4.5 -148.167 36.5 -112.5s84.5 100.834 130.5 195.501
l91 253c2 -264.667 2.33301 -426 1 -484s-2 -110 -2 -156v-593c0 -23.333 3.5 -44.166 10.5 -62.499s17.167 -31.833 30.5 -40.5c12 -7.33301 31.667 -14 59 -20s47.666 -9.33301 60.999 -10v-71z" />
    <glyph glyph-name="two" unicode="2" horiz-adv-x="691" 
d="M648 0l-536.996 0.000976562v164c10.667 25.333 25 53.5 43 84.5s40 64.5 66 100.5c14.667 21.333 32.667 45 54 71s46 54.333 74 85c29.333 33.333 52.333 63 69 89s31.334 57.667 44.001 95c9.33301 25.333 16.5 56.666 21.5 93.999s7.5 90.666 7.5 159.999
c0 100.667 -12.667 174.5 -38 221.5s-58 70.5 -98 70.5c-24.667 0 -48.167 -10.333 -70.5 -31s-43.833 -54.667 -64.5 -102c-24.667 -163.333 -18.834 -231.5 17.499 -204.5s91.166 94.833 164.499 203.5c-59.333 -210.667 -106.333 -324.5 -141 -341.5
s-81.667 -6.5 -141 31.5c-18 44.667 -30 76.5 -36 95.5s-7 49.5 -3 91.5c7.33301 55.333 15.666 101.166 24.999 137.499s27 73.833 53 112.5c29.333 40 61.666 67.667 96.999 83s71.333 23 108 23c78 0 140 -36.833 186 -110.5s69 -172.167 69 -295.5
c0 -58.667 -4.16699 -112.167 -12.5 -160.5s-21.166 -90.833 -38.499 -127.5c-20.667 -41.333 -44.667 -76.666 -72 -105.999s-69 -70 -125 -122c-32.667 -31.333 -63.334 -64.166 -92.001 -98.499s-52.334 -67.5 -71.001 -99.5h441v-214z" />
    <glyph glyph-name="three" unicode="3" horiz-adv-x="907" 
d="M433 42l-165.997 44.0039c523.333 144 697.666 368 522.999 672l39 311c-80 122 -245.333 234.667 -496 338l-70 14l230 55l-414 -23l62 -55l167 -214l-66 198l26 -11c186 -57.333 342.333 -166.333 469 -327l-45 -240l-9 -22l-171 -3c-9.33301 61.333 -22.333 92 -39 92
h-26c-8 -61.333 -20.667 -92 -38 -92l-26 -1c-42.667 46 -81.334 69 -116.001 69l-20 4l-15 -4l-29 -7c-42.667 -18.667 -63.667 -51.334 -63 -98.001c0 -78.667 34.333 -124.334 103 -137.001c51.333 0.666992 102.666 31.667 153.999 93h13
c16.667 0 29.667 -34.333 39 -103h39c8 69.333 24.667 104 50 104l159 -3l26 -13l18 -44l9 -46c46 -150.667 -125 -312.334 -513 -485.001l-2 159l-91 -204c44.667 -18.667 83 -28.334 115 -29.001zM256.003 785.004l49 -21l6 -70l-28 -33l-73 11l-25 44l24 59z" />
    <glyph glyph-name="four" unicode="4" horiz-adv-x="872" 
d="M624 493l-83 -57v-435h-116v435h-389v147l426 816h79v-838l323 92zM491 558l-27 472l-322 -481z" />
    <glyph glyph-name="five" unicode="5" horiz-adv-x="704" 
d="M583 840c27.333 -34 49.998 -78.1631 67.998 -132.496s27 -121.833 27 -202.5c0 -142 -30.333 -259.167 -91 -351.5s-137.667 -138.5 -231 -138.5c-72.667 0 -134.167 27.5 -184.5 82.5s-75.5 118.5 -75.5 190.5c2.66699 157.333 -17 306.5 -59 447.5
s27.667 48.5 209 -277.5c112.667 -142.667 146.167 -200.334 100.5 -173.001s-90.5 34.333 -134.5 21c-7.33301 -34.667 -7.5 -63 -0.5 -85s9.5 -40.667 7.5 -56c2.66699 -4.66699 7.83398 -10.834 15.501 -18.501s16.5 -15.167 26.5 -22.5
c10.667 -7.33301 24 -13.833 40 -19.5s34.333 -8.5 55 -8.5c26 0 50.833 8.66699 74.5 26s43.834 42.666 60.501 75.999c17.333 37.333 30.5 79.5 39.5 126.5s13.5 106.833 13.5 179.5c0 93.333 -16.333 170.5 -49 231.5s-75.334 91.5 -128.001 91.5
c-33.333 0 -64.333 -10 -93 -30s-54.667 -53 -78 -99l-42 26l53 714h446v-176h-395l-33 -420c18.667 21.333 43.334 42.333 74.001 63s64 31 100 31c30 0 61.333 -7.33301 94 -22s62.667 -39.334 90 -74.001z" />
    <glyph glyph-name="six" unicode="6" horiz-adv-x="777" 
d="M751 453c0 -68.667 -8.33105 -132.666 -24.998 -191.999s-39 -110 -67 -152c-32.667 -48 -68.667 -83.5 -108 -106.5s-80.333 -34.5 -123 -34.5c-49.333 0 -94 13.5 -134 40.5s-74 64.833 -102 113.5c-28 50 -49.833 111 -65.5 183s-23.5 153 -23.5 243
c0 234 47.167 431.333 141.5 592s265.5 298.667 513.5 414l-144 -623l-55 360c-84.667 -23.333 -153.334 -83.5 -206.001 -180.5s-87 -214.833 -103 -353.5c38.667 49.333 76.667 84.166 114 104.499s76.666 30.5 117.999 30.5c74 0 137.333 -42 190 -126
s79 -188.333 79 -313zM606.002 426.001c0 106 -16.499 191.166 -49.499 255.499s-77.167 96.5 -132.5 96.5c-33.333 0 -64.333 -9.16699 -93 -27.5s-56.334 -49.166 -83.001 -92.499c-0.666992 -8 -1.5 -26.167 -2.5 -54.5s-1.5 -50.833 -1.5 -67.5
c0 -153.333 17 -273.333 51 -360s79 -130 135 -130c52.667 0 95.167 33.833 127.5 101.5s48.5 160.5 48.5 278.5z" />
    <glyph glyph-name="seven" unicode="7" horiz-adv-x="687" 
d="M630 1371l-443 -1373h-78l417 1270h-244c-36 0 -59.667 -2 -71 -6s-22.333 -15 -33 -33c5.33301 0.666992 5.33301 -9.83301 0 -31.5s-18 -140.5 -38 -356.5l-133 500l39 95h584v-65z" />
    <glyph glyph-name="eight" unicode="8" horiz-adv-x="859" 
d="M812 376c0 -112 -33.832 -208.335 -101.499 -289.002s-156.5 -121 -266.5 -121c-102.667 0 -185 37 -247 111s-93 169.333 -93 286c0 86 18.333 157.833 55 215.5s90.667 106.5 162 146.5c-58.667 47.333 -102.667 99.333 -132 156s-44 120.667 -44 192
c0 108.667 32.167 199.667 96.5 273s141.5 110 231.5 110s162.833 -34.667 218.5 -104s83.5 -156.333 83.5 -261c0 -67.333 -15.333 -131.166 -46 -191.499s-76 -109.833 -136 -148.5c77.333 -47.333 133.166 -99.666 167.499 -156.999s51.5 -130 51.5 -218zM643.001 1102
c0 81.333 -16.8291 147.499 -50.4961 198.499s-76.834 76.5 -129.501 76.5s-95.834 -24.5 -129.501 -73.5s-50.5 -109.833 -50.5 -182.5c0 -70 19.167 -129.333 57.5 -178s106.166 -100.667 203.499 -156c35.333 32 60.666 74.333 75.999 127s23 115.334 23 188.001z
M672.005 328.997c0 42 -6.33203 78.834 -18.999 110.501s-30.667 60.5 -54 86.5c-22.667 25.333 -54.5 51.833 -95.5 79.5s-85.167 55.834 -132.5 84.501c-44.667 -34.667 -77.5 -78.834 -98.5 -132.501s-31.5 -114.834 -31.5 -183.501c0 -98 20.167 -177.167 60.5 -237.5
s94.166 -90.5 161.499 -90.5c64 0 114.833 26.667 152.5 80s56.5 121 56.5 203z" />
    <glyph glyph-name="nine" unicode="9" horiz-adv-x="864" 
d="M798 878c0 -116 -13.5 -225.168 -40.5 -327.501s-65.833 -192.166 -116.5 -269.499c-49.333 -76 -109 -137.667 -179 -185s-150.333 -82 -241 -104l-144 203l-82 321c214 -334 370 -428.833 468 -284.5s155.333 288.833 172 433.5c-40 -46.667 -80 -80.834 -120 -102.501
s-85 -32.5 -135 -32.5c-80 0 -149.5 42.333 -208.5 127s-88.5 191.334 -88.5 320.001c0 138 34.167 254.333 102.5 349s152.833 142 253.5 142c109.333 0 196.5 -53 261.5 -159s97.5 -249.667 97.5 -431zM642 889.999c0 156 -18.667 278.169 -56 366.502
s-86.666 132.5 -147.999 132.5c-58.667 0 -105.834 -34.167 -141.501 -102.5s-53.5 -162.5 -53.5 -282.5c0 -108 18.167 -194.667 54.5 -260s85.166 -98 146.499 -98c38.667 0 73.834 9.5 105.501 28.5s61.167 49.5 88.5 91.5c0 2.66699 0.5 8 1.5 16s1.5 19.333 1.5 34
c0 9.33301 0.166992 20.666 0.5 33.999s0.5 26.666 0.5 39.999z" />
    <glyph glyph-name="colon" unicode=":" horiz-adv-x="640" 
d="M457 853c0 -37.333 -13.5 -69.333 -40.5 -96s-59.167 -40 -96.5 -40s-69.5 13.333 -96.5 40s-40.5 58.667 -40.5 96s13.333 69.5 40 96.5s59 40.5 97 40.5s70.333 -13.5 97 -40.5s40 -59.167 40 -96.5zM457 115c0 -37.333 -13.5 -69.166 -40.5 -95.499
s-59.167 -39.5 -96.5 -39.5s-69.5 13.167 -96.5 39.5s-40.5 58.166 -40.5 95.499s13.5 69.5 40.5 96.5s59.167 40.5 96.5 40.5s69.5 -13.5 96.5 -40.5s40.5 -59.167 40.5 -96.5z" />
    <glyph glyph-name="semicolon" unicode=";" horiz-adv-x="640" 
d="M457 853c0 -37.333 -13.5 -69.333 -40.5 -96s-59.167 -40 -96.5 -40s-69.5 13.333 -96.5 40s-40.5 58.667 -40.5 96s13.333 69.5 40 96.5s59 40.5 97 40.5s70.333 -13.5 97 -40.5s40 -59.167 40 -96.5zM474 35c0 -48 -10.833 -93.165 -32.5 -135.498
s-46.5 -79.166 -74.5 -110.499c-28.667 -32 -59 -60.333 -91 -85s-61.333 -44 -88 -58l-46 67c32 20 60.5 40.167 85.5 60.5s45.833 40.166 62.5 59.499c20 23.333 37 48.666 51 75.999s23 58.333 27 93h-51c-44.667 0 -79.5 11.667 -104.5 35s-37.5 54.666 -37.5 93.999
c0 28 11.333 55.167 34 81.5s53.667 39.5 93 39.5c57.333 0 100.333 -19.167 129 -57.5s43 -91.5 43 -159.5z" />
    <glyph glyph-name="semicolon" unicode="&#x37e;" horiz-adv-x="640" 
d="M457 853c0 -37.333 -13.5 -69.333 -40.5 -96s-59.167 -40 -96.5 -40s-69.5 13.333 -96.5 40s-40.5 58.667 -40.5 96s13.333 69.5 40 96.5s59 40.5 97 40.5s70.333 -13.5 97 -40.5s40 -59.167 40 -96.5zM474 35c0 -48 -10.833 -93.165 -32.5 -135.498
s-46.5 -79.166 -74.5 -110.499c-28.667 -32 -59 -60.333 -91 -85s-61.333 -44 -88 -58l-46 67c32 20 60.5 40.167 85.5 60.5s45.833 40.166 62.5 59.499c20 23.333 37 48.666 51 75.999s23 58.333 27 93h-51c-44.667 0 -79.5 11.667 -104.5 35s-37.5 54.666 -37.5 93.999
c0 28 11.333 55.167 34 81.5s53.667 39.5 93 39.5c57.333 0 100.333 -19.167 129 -57.5s43 -91.5 43 -159.5z" />
    <glyph glyph-name="less" unicode="&#x3c;" horiz-adv-x="1317" 
d="M1118 22l-925 481v113l925 481v-137l-769 -400l769 -401v-137z" />
    <glyph glyph-name="equal" unicode="=" horiz-adv-x="1317" 
d="M1163 683h-1009v125h1009v-125zM1163 311h-1009v125h1009v-125z" />
    <glyph glyph-name="greater" unicode="&#x3e;" horiz-adv-x="1317" 
d="M1124 503l-925 -481v137l769 401l-769 400v137l925 -481v-113z" />
    <glyph glyph-name="question" unicode="?" horiz-adv-x="980" 
d="M771 1329c36.667 -38.667 63.8301 -82.167 81.4971 -130.5s26.5 -100.833 26.5 -157.5c0 -123.333 -39.333 -224 -118 -302s-186.667 -125 -324 -141v-221h-92v379c42 3.33301 83.667 10.166 125 20.499s78.333 27.166 111 50.499c34 24.667 60.5 54.5 79.5 89.5
s28.5 83.833 28.5 146.5c0 100 -21.167 176.667 -63.5 230s-104.166 80 -185.499 80c-30.667 0 -57.5 -4.5 -80.5 -13.5s-39.833 -17.5 -50.5 -25.5c3.33301 -16 7.83301 -39 13.5 -69s8.5 -53 8.5 -69c0 -24.667 -10.667 -47.167 -32 -67.5s-52.333 -30.5 -93 -30.5
c-36 0 -61.667 12.333 -77 37s-23 53.334 -23 86.001c0 26.667 7.33301 52.834 22 78.501s37.667 50.5 69 74.5c26.667 21.333 62.834 39.666 108.501 54.999s93.167 23 142.5 23c70.667 0 133.334 -11.167 188.001 -33.5s99.667 -52.166 135 -89.499zM530.996 115
c0 -37.333 -13.5 -69.166 -40.5 -95.499s-59.167 -39.5 -96.5 -39.5s-69.5 13.167 -96.5 39.5s-40.5 58.166 -40.5 95.499s13.5 69.5 40.5 96.5s59.167 40.5 96.5 40.5s69.5 -13.5 96.5 -40.5s40.5 -59.167 40.5 -96.5z" />
    <glyph glyph-name="at" unicode="@" horiz-adv-x="1902" 
d="M1530 -119c-66.667 -58 -145.83 -104.83 -237.497 -140.497s-193.834 -53.5 -306.501 -53.5c-100.667 0 -199.667 16.167 -297 48.5s-185 81.5 -263 147.5c-77.333 66 -139.666 148.167 -186.999 246.5s-71 214.166 -71 347.499c0 114 21.333 224.667 64 332
s103.667 203 183 287c76.667 82 171.5 148.167 284.5 198.5s236.167 75.5 369.5 75.5c115.333 0 215.333 -18.5 300 -55.5s154 -85.833 208 -146.5c54 -60 94.5 -129 121.5 -207s40.5 -159.333 40.5 -244c0 -162.667 -44.667 -300.167 -134 -412.5
s-202.333 -168.5 -339 -168.5c-56.667 0 -104.667 14.167 -144 42.5s-61.333 68.166 -66 119.499l-7 2c-32 -48.667 -68.5 -87.5 -109.5 -116.5s-82.5 -43.5 -124.5 -43.5c-27.333 0 -55.166 4.5 -83.499 13.5s-53.5 23.833 -75.5 44.5c-22 22 -39.5 50.667 -52.5 86
s-19.5 79 -19.5 131c0 48.667 11.167 103.167 33.5 163.5s52.5 117.833 90.5 172.5c38 55.333 87.167 103.333 147.5 144s125.5 61 195.5 61c37.333 0 70.5 -10.5 99.5 -31.5s46.833 -51.833 53.5 -92.5h6l43 112h149l-189 -538c-6 -16.667 -10.833 -35.834 -14.5 -57.501
s-5.5 -38.834 -5.5 -51.501c0 -34 8.66699 -58.833 26 -74.5s39.666 -23.5 66.999 -23.5c103.333 0 189.666 48.5 258.999 145.5s104 224.833 104 383.5c0 78.667 -12.333 151.5 -37 218.5s-62.334 126.167 -113.001 177.5c-48.667 50.667 -110 90.667 -184 120
s-158.667 44 -254 44c-90.667 0 -179 -17.667 -265 -53s-164.333 -87.333 -235 -156c-68.667 -66.667 -124.334 -149.667 -167.001 -249s-64 -211.666 -64 -336.999c0 -120.667 16.667 -226.834 50 -318.501s80.333 -168.5 141 -230.5c59.333 -60 129.333 -105 210 -135
s168 -45 262 -45c106 0 200.333 14.333 283 43s157 70.334 223 125.001zM1182 742.003c-9.33301 54 -24.3311 93.3311 -44.998 117.998s-51 37 -91 37c-42.667 0 -81.834 -17.167 -117.501 -51.5s-65.834 -75.166 -90.501 -122.499
c-26 -49.333 -46.167 -103.166 -60.5 -161.499s-21.5 -112.166 -21.5 -161.499c0 -56.667 6.83301 -100.167 20.5 -130.5s36.167 -45.5 67.5 -45.5c45.333 0 86 15.667 122 47s69.667 75.666 101 132.999zM163.006 1369l0.000976562 -95c86 0 160.667 -39.667 224 -119
l22 24v23c-14.667 63.333 -44.334 95 -89.001 95v119l-45 48c-22.667 0 -45 -31.667 -67 -95h-45zM1781.01 1471l-94 -15c13.333 -84.667 -14.334 -164 -83.001 -238l26 -19l24 4c60.667 24 87.334 58 80.001 102l118 19l40 51c-3.33301 22 -38 39.333 -104 52z
M184.007 -359.999l94.999 3c-2.66699 86 34.333 162 111 228l-25 22l-24 -1c-62.667 -17.333 -93 -48.333 -91 -93l-119 -5l-46 -46c0.666992 -22.667 33.334 -43.667 98.001 -63zM1743.01 -319.999l-20 91.999c-84 -18 -165.333 4.66699 -244 68l-17 -28l5 -23
c28.667 -58.667 64.667 -83 108 -73l26 -117l54 -36c21.333 4.66699 36.333 40.334 45 107.001z" />
    <glyph glyph-name="A" unicode="A" horiz-adv-x="786" 
d="M760 0l-279.999 0.000976562v71c24.667 3.33301 45.167 10 61.5 20s24.5 22.333 24.5 37c0 6 -0.333008 13.333 -1 22s-1.66699 16.334 -3 23.001l-56 318h-235c-8.66699 -46.667 -15.834 -87.334 -21.501 -122.001s-10.5 -66.667 -14.5 -96
c-4.66699 -28.667 -7.66699 -52 -9 -70s-2 -32.667 -2 -44c0 -26.667 9.83301 -47.334 29.5 -62.001s42.167 -23.334 67.5 -26.001v-71h-253v71c8 1.33301 18.167 5.16602 30.5 11.499s22.5 14.833 30.5 25.5c12.667 18 22.5 36.833 29.5 56.5s13.833 46.834 20.5 81.501
l111.5 600l108.5 593h38l224 -1224c4.66699 -26 10 -47 16 -63s14.333 -31.667 25 -47c7.33301 -9.33301 16.833 -17.166 28.5 -23.499s21.5 -9.83301 29.5 -10.5v-71zM488.001 579.001l-88 550l-86 -550h174z" />
    <glyph glyph-name="B" unicode="B" horiz-adv-x="730" 
d="M631 665c22 -28 40.168 -64.665 54.501 -109.998s21.5 -100.333 21.5 -165c0 -66 -7.5 -123.333 -22.5 -172s-34.833 -88.667 -59.5 -120c-23.333 -30.667 -49.833 -54 -79.5 -70s-60.5 -24 -92.5 -24h-354v71c8.66699 1.33301 21 4.16602 37 8.49902s27.667 9.5 35 15.5
c10.667 9.33301 18.334 21.833 23.001 37.5s7 35.834 7 60.501v1020c0 22.667 -2 42.667 -6 60s-12 31.333 -24 42c-10.667 10 -22.5 17.667 -35.5 23s-23.833 8.66602 -32.5 9.99902v71h345c26.667 0 52.167 -5 76.5 -15s47.833 -27.667 70.5 -53
c20.667 -23.333 37.667 -55 51 -95s20 -88.667 20 -146c0 -50 -4.83301 -94.5 -14.5 -133.5s-22.834 -72.5 -39.501 -100.5c-16.667 -26.667 -35.334 -49.167 -56.001 -67.5s-43.334 -32.5 -68.001 -42.5v-9c21.333 -4.66699 45.333 -14.834 72 -30.501
s50.334 -37.5 71.001 -65.5zM513.001 892.002c13.333 28.667 22.5 60 27.5 94s7.5 74.333 7.5 121c0 78 -11.333 139.167 -34 183.5s-58.334 66.5 -107.001 66.5c-11.333 0 -25.5 -0.5 -42.5 -1.5l-43.5 -2.5v-545h67c29.333 0 54.333 7 75 21s37.334 35 50.001 63z
M587.001 418.002c0 79.333 -14.999 144.333 -44.999 195s-72.667 76 -128 76c-22.667 0 -41.834 -0.5 -57.501 -1.5s-27.5 -1.83301 -35.5 -2.5v-470c0 -39.333 9 -69 27 -89s43.333 -30 76 -30c52.667 0 93 27.333 121 82s42 134.667 42 240z" />
    <glyph glyph-name="C" unicode="C" horiz-adv-x="807" 
d="M734 844l-214.002 -0.000976562l4 218c-3.33301 71.333 -12.166 115.333 -26.499 132s-45.166 27.334 -92.499 32.001c-28.667 -2 -49 -15.167 -61 -39.5s-16 -72.166 -12 -143.499l1 -651c2 -87.333 11.167 -139.666 27.5 -156.999s38.833 -27.666 67.5 -30.999
c31.333 8.66699 53.333 20.5 66 35.5s24.667 56.167 36 123.5l7 209l201 4l5 -55c0 -147.333 -8.33301 -250.833 -25 -310.5s-46.167 -113.667 -88.5 -162s-103.5 -72.5 -183.5 -72.5c-83.333 0 -151.833 19.667 -205.5 59s-89.334 93.666 -107.001 162.999
s-26.5 174 -26.5 314v416c0 102.667 2.66699 179.667 8 231s21.333 100.666 48 147.999s63.834 84.666 111.501 111.999s102.167 41 163.5 41c84 0 153.167 -21.167 207.5 -63.5s83.5 -95 87.5 -158s4.66699 -162.167 2 -297.5z" />
    <glyph glyph-name="D" unicode="D" horiz-adv-x="838" 
d="M800 701c0 -120.667 -11.498 -225.333 -34.498 -314s-53.167 -161.334 -90.5 -218.001s-79.333 -99 -126 -127s-95 -42 -145 -42h-300v71c10 0 22.833 1.83301 38.5 5.5s26.167 7.83398 31.5 12.501c10 8.66699 17.333 21.5 22 38.5s7 37.5 7 61.5v1024
c0 22.667 -2 43 -6 61s-11.667 32.333 -23 43c-10.667 10 -22.167 17.333 -34.5 22s-22.833 7.66699 -31.5 9v71h317c43.333 0 86.166 -13.167 128.499 -39.5s79.166 -61.833 110.499 -106.5c42 -59.333 75.167 -137 99.5 -233s36.5 -209 36.5 -339zM632.002 716.001
c0 86.667 -5.16797 165.166 -15.501 235.499s-25.5 131.5 -45.5 183.5c-19.333 49.333 -42.833 88.333 -70.5 117s-58.167 43 -91.5 43c-11.333 0 -24.166 -0.5 -38.499 -1.5s-24.833 -1.83301 -31.5 -2.5v-992c0 -55.333 7.33301 -93.666 22 -114.999s37 -32 67 -32
c34.667 0 65.167 13.667 91.5 41s47.5 65.333 63.5 114c17.333 50.667 29.833 109.5 37.5 176.5s11.5 144.5 11.5 232.5z" />
    <glyph glyph-name="E" unicode="E" horiz-adv-x="920" 
d="M711 1455c32 -0.666992 70.001 -10.667 114.001 -30l-92 -202v158c-176 -68 -320.667 -206.667 -434 -416l-26 -115v-23l-4 -30l158 -5c26 0 43.333 34.667 52 104h38c8.66699 -69.333 21.667 -104 39 -104h12c52 61.333 103.667 92 155 92
c68 -12.667 102 -58.667 102 -138c0 -46 -21.333 -78.333 -64 -97l-29 -7l-15 -3l-20 4c-34 0 -72.667 23 -116 69h-25c-17.333 0 -30.333 -30.667 -39 -92h-26c-16.667 0 -29.334 30.667 -38.001 92l-172 -1l-8 -22v-69c94 -276 233.667 -443 419 -501l27 -12l-65 199
l166 -215l61 -56l-414 -20l230 53l-70 15c-347.333 123.333 -521 329 -521 617v92c0 290 199 493.667 597 611l-166 46zM668.001 808l-24 -59l26 -44l73 -11l27 33l-6 70l-49 21z" />
    <glyph glyph-name="F" unicode="F" horiz-adv-x="846" 
d="M801 1162l-30.0059 70c-19.333 34 -41.666 58 -66.999 72s-51.333 24 -78 30c-14 2.66699 -30.167 4.66699 -48.5 6s-39.5 2 -63.5 2h-156v-571h76c32.667 -4 56.334 -4 71.001 0s31.667 12.333 51 25c19.333 21.333 32 39.333 38 54s11 41 15 79l14 23v-368l-14 31
c-13.333 20.667 -23.166 33.5 -29.499 38.5s-16.833 14.833 -31.5 29.5c-22.667 14.667 -38 24.334 -46 29.001s-28 8 -60 10l-84 -3v-519c0 -22 2.83301 -41.667 8.5 -59s15.834 -31.333 30.501 -42c6.66699 -4.66699 20.834 -10.334 42.501 -17.001
s38.167 -10.334 49.5 -11.001v-71h-403v71c13.333 1.33301 30.833 3.5 52.5 6.5s35.834 6.83301 42.501 11.5c13.333 8.66699 22.833 21.5 28.5 38.5s8.5 37.5 8.5 61.5v1026c0 22 -2.33301 41.5 -7 58.5s-14.667 30.833 -30 41.5c-12 8.66699 -27.833 16.334 -47.5 23.001
s-35.5 10.667 -47.5 12v71h730z" />
    <glyph glyph-name="G" unicode="G" horiz-adv-x="920" 
d="M853 599c-22 -16.667 -35.5049 -28.499 -40.5049 -35.499s-11.5 -16.833 -19.5 -29.5c-6.66699 -20.667 -10 -36.667 -10 -48v-54v-110c0 -80 -3 -131 -9 -153s-15 -48 -27 -78c-26 -40 -64.667 -70.667 -116 -92s-101.666 -32 -150.999 -32
c-52.667 0 -103.5 17 -152.5 51s-91.833 82.333 -128.5 145c-37.333 63.333 -66.833 140.333 -88.5 231s-32.5 192 -32.5 304c0 108 10.333 208.167 31 300.5s50.334 172.5 89.001 240.5c36.667 66.667 80.667 118.5 132 155.5s106 55.5 164 55.5
c46.667 0 87.334 -9.66699 122.001 -29s65.334 -42.666 92.001 -69.999l43 65l32 75l1 -568l-21 51l-49.5 123c-17.667 44.667 -35.834 88 -54.501 130c-19.333 42 -42.666 75.5 -69.999 100.5s-60 37.5 -98 37.5c-42 0 -79.333 -14.5 -112 -43.5s-61 -72.167 -85 -129.5
c-24 -55.333 -42.333 -124.333 -55 -207s-19 -175 -19 -277c0 -90 6.33301 -174.833 19 -254.5s31 -148.5 55 -206.5c24 -59.333 54.167 -106 90.5 -140s77.5 -51 123.5 -51c34 0 63 6 87 18s46 34 66 66c8.66699 60 14.334 104.167 17.001 132.5s4 64.833 4 109.5l-3 61
c-7.33301 42.667 -13.5 66.167 -18.5 70.5s-8.83301 12.166 -11.5 23.499l-19 36c-4 7.33301 -18.667 21.666 -44 42.999l-33 23l338 1z" />
    <glyph glyph-name="H" unicode="H" horiz-adv-x="838" 
d="M799 0l-281 -0.00195312v71l33 6c14.667 2.66699 24.667 6.66699 30 12c9.33301 8 16.333 20.167 21 36.5s7 37.5 7 63.5v505h-319v-494c0 -23.333 1.83301 -43 5.5 -59s11.167 -30 22.5 -42c5.33301 -6 14.833 -12 28.5 -18s24.5 -9.33301 32.5 -10v-71h-281v71l33 6
c14.667 2.66699 24.667 6.66699 30 12c9.33301 8 16.333 20.167 21 36.5s7 37.5 7 63.5v1024c0 21.333 -2.16699 40.833 -6.5 58.5s-11.5 31.5 -21.5 41.5c-8.66699 8.66699 -19.167 16.334 -31.5 23.001s-22.833 10.667 -31.5 12v71h281v-71
c-8.66699 -0.666992 -19.5 -3.66699 -32.5 -9s-22.5 -10.333 -28.5 -15c-11.333 -8 -18.833 -21.333 -22.5 -40s-5.5 -39 -5.5 -61v-440h319v430c0 21.333 -2.16699 40.833 -6.5 58.5s-11.5 31.5 -21.5 41.5c-8.66699 8.66699 -19.167 16.334 -31.5 23.001
s-22.833 10.667 -31.5 12v71h281v-71c-8.66699 -0.666992 -19.5 -3.66699 -32.5 -9s-22.833 -10.333 -29.5 -15c-10.667 -8 -17.834 -21.333 -21.501 -40s-5.5 -39 -5.5 -61v-1023c0 -23.333 1.83301 -43 5.5 -59s10.834 -30 21.501 -42c6 -6 15.833 -12 29.5 -18
s24.5 -9.33301 32.5 -10v-71z" />
    <glyph glyph-name="I" unicode="I" horiz-adv-x="672" 
d="M271 1454l60.999 0.00195312c52.667 0 102.667 -32 150 -96h61v-25c-63.333 7.33301 -101 -17.334 -113 -74.001l-54 -37v-44c138.667 0 224.334 -80.333 257.001 -241v-12c0 -102 -35 -170 -105 -204l30 -144h-76v-37l46 -143c-70.667 0 -106 -48 -106 -144v-132l15 -13
v-12l-15 -12l121 -84h-91l-151 72l-255 -72h-31v12c0 28.667 60.333 56.667 181 84l15 192c0 65.333 -35 105.333 -105 120l30 169c-40.667 0 -61 8 -61 24v36l31 96c-70.667 49.333 -106 113.333 -106 192c-0 125.333 80.333 209.666 241 252.999l16 12v11l4 17l-48 28
l-34 37l-8 50c-64 0 -86.667 8.33301 -68 25h78c0 34.667 30 66.667 90 96zM95.999 982.002v-65c0 -81.333 18.333 -125 55 -131h19l37 32v181c0 54.667 -12.333 82 -37 82c-49.333 -11.333 -74 -44.333 -74 -99zM438.999 1083l-21 -279.999l21 -16v-17
c71.333 15.333 107 53.666 107 114.999v82c0 59.333 -28.667 98 -86 116h-21z" />
    <glyph glyph-name="J" unicode="J" horiz-adv-x="794" 
d="M762 1348c-12.667 -0.666992 -28.333 -3.16992 -47 -7.50293s-34.667 -9.83301 -48 -16.5c-15.333 -8 -25.666 -21.333 -30.999 -40s-8 -39 -8 -61v-841c0 -44 -6 -90.667 -18 -140s-29.667 -93.333 -53 -132c-26.667 -45.333 -58.334 -80.666 -95.001 -105.999
s-78.667 -38 -126 -38c-73.333 0 -133 30.5 -179 91.5s-69 143.167 -69 246.5c0 45.333 7.83301 85.5 23.5 120.5s38.834 52.5 69.501 52.5c26.667 0 48.334 -11.167 65.001 -33.5s25 -51.833 25 -88.5c0 -21.333 -3 -42.666 -9 -63.999s-12.667 -40.333 -20 -57l-22.5 -54
c-8.33301 -20.667 -14.5 -39.334 -18.5 -56.001c9.33301 -22 24.166 -41.333 44.499 -58s47.166 -25 80.499 -25s60.5 11.167 81.5 33.5s36.5 52.166 46.5 89.499c10 34.667 17.167 77.334 21.5 128.001s6.5 107.334 6.5 170.001v751c0 23.333 -2.5 42.833 -7.5 58.5
s-15.833 29.5 -32.5 41.5c-14 10.667 -31.5 18.834 -52.5 24.501s-38.167 9.16699 -51.5 10.5v71h424v-71z" />
    <glyph glyph-name="K" unicode="K" horiz-adv-x="838" 
d="M799 0l-201.997 0.00390625c-38.667 118.667 -81.834 236.5 -129.501 353.5s-97.5 230.5 -149.5 340.5h-13v-494c0 -22 2 -41.667 6 -59s11.667 -31.333 23 -42c5.33301 -4.66699 15.333 -10.334 30 -17.001s27 -10.334 37 -11.001v-71h-299v71
c8 1.33301 19.333 3.33301 34 6s25 6.66699 31 12c10.667 8.66699 18.167 21.5 22.5 38.5s6.5 37.5 6.5 61.5v1024c0 22.667 -1.83301 42.334 -5.5 59.001s-11.5 30.334 -23.5 41.001c-8.66699 8.66699 -19.334 16.334 -32.001 23.001s-23.667 10.667 -33 12v71h299v-71
c-9.33301 -0.666992 -21.166 -3.66699 -35.499 -9s-24.833 -10.333 -31.5 -15c-11.333 -8 -19 -21.333 -23 -40s-6 -39 -6 -61v-490h10l89.5 158.5c29.667 55 56.5 109.833 80.5 164.5c26.667 60.667 46.167 109.167 58.5 145.5s18.5 68.5 18.5 96.5
c0 10 -3.16699 18.167 -9.5 24.5s-13.5 11.5 -21.5 15.5c-9.33301 4 -17.833 6.5 -25.5 7.5s-13.834 1.83301 -18.501 2.5v71h270v-71c-0.666992 0 -2.66699 -0.333008 -6 -1s-7.33301 -1.33398 -12 -2.00098s-9.33398 -2 -14.001 -4s-10.667 -4.33301 -18 -7
c-12 -5.33301 -24.333 -13.833 -37 -25.5s-23 -26.167 -31 -43.5l-109.5 -242c-37.667 -83.333 -75.167 -159.333 -112.5 -228c51.333 -114.667 93.833 -213.334 127.5 -296.001l107.5 -265c14.667 -36 29.167 -64.833 43.5 -86.5s26.833 -37.834 37.5 -48.501
c8.66699 -8.66699 19.667 -15.334 33 -20.001s24.333 -7.33398 33 -8.00098v-71z" />
    <glyph glyph-name="L" unicode="L" horiz-adv-x="838" 
d="M782 284l-0.996094 -284h-683v71c10 1.33301 24.333 3.66602 43 6.99902s31.667 7.66602 39 12.999c12 8.66699 20.833 21.334 26.5 38.001s8.5 38 8.5 64v1016c0 22.667 -2.33301 42.667 -7 60s-14 31.333 -28 42c-9.33301 8 -22.5 15.833 -39.5 23.5
s-31.167 12.167 -42.5 13.5v71h369v-71c-12 -0.666992 -27 -4 -45 -10s-31.333 -11.333 -40 -16c-14 -8 -23.5 -21.667 -28.5 -41s-7.5 -40 -7.5 -62v-953c0 -44 2.16699 -74.5 6.5 -91.5s12.5 -33.833 24.5 -50.5c18 -17.333 33.167 -28.5 45.5 -33.5
s34.5 -9.16699 66.5 -12.5c15.333 0 31.166 0.666992 47.499 2s32.166 4 47.499 8c14 4 27 7.33301 39 10s29.333 11.667 52 27c13.333 14.667 26.666 27.834 39.999 39.501s28.666 36.5 45.999 74.5z" />
    <glyph glyph-name="M" unicode="M" horiz-adv-x="1066" 
d="M1010 0l-343.001 0.000976562v71c12.667 0.666992 28.667 3 48 7s32.666 9.66699 39.999 17c11.333 12.667 19.666 27.167 24.999 43.5s8 36.833 8 61.5l-5 914v2l-215 -1093h-81l-250 1232v-28l5 -820c4 -103.333 8.66699 -171.333 14 -204s11.333 -57.334 18 -74.001
c12.667 -32.667 28.5 -50.334 47.5 -53.001s32.5 -4.33398 40.5 -5.00098v-71h-314v71c16.667 2.66699 34 7.66699 52 15s32 18.333 42 33c12.667 18.667 21.334 47.334 26.001 86.001s7 103.334 7 194.001v726c0 42 -2.66699 76.333 -8 103s-13.333 48.334 -24 65.001
c-11.333 18 -25.166 31.333 -41.499 40s-32.5 13.667 -48.5 15v71h265l222 -1064l190 890c6.66699 32.667 12.5 66.834 17.5 102.501s7.83301 59.5 8.5 71.5h253v-71c-10 -0.666992 -23 -3.66699 -39 -9s-27.667 -10.333 -35 -15c-12.667 -8 -21.167 -21.333 -25.5 -40
s-6.5 -39 -6.5 -61v-1023c0 -23.333 2.16699 -43 6.5 -59s12.833 -30 25.5 -42c6.66699 -6.66699 18.334 -12.834 35.001 -18.501s30 -8.83398 40 -9.50098v-71z" />
    <glyph glyph-name="N" unicode="N" horiz-adv-x="751" 
d="M670 1390c-17.333 -20.667 -30.666 -44.6621 -39.999 -71.9951s-20.666 -77.333 -33.999 -150c-19.333 -141.333 -30.333 -254.833 -33 -340.5s9.33301 -225.5 36 -419.5l93 -405l-178 -14l-82 207l-91 267c-28.667 -140.667 -43.834 -226.834 -45.501 -258.501
s-3.5 -55.167 -5.5 -70.5c-3.33301 -16 -4.66602 -26.5 -3.99902 -31.5s1 -15.5 1 -31.5v-71h-220l21 48c10 21.333 16.167 36.666 18.5 45.999s7.16602 22.666 14.499 39.999c7.33301 48.667 11.5 82.667 12.5 102s1.5 75.333 1.5 168v699c0 30.667 -1.33301 60 -4 88
s-7.33398 57.333 -14.001 88c-10 25.333 -20.167 47 -30.5 65s-22.166 35.333 -35.499 52l-27 23h201l61 -169l78 -226c44 96 68.167 157 72.5 183s7.5 50.667 9.5 74c0 17.333 0.666992 30.166 2 38.499s2.66602 29.166 3.99902 62.499l-14 37h251z" />
    <glyph glyph-name="O" unicode="O" horiz-adv-x="1515" 
d="M21 1417l0.000976562 -95c85.333 0 159.666 -39.667 222.999 -119l23 24v23c-15.333 63.333 -45.333 95 -90 95v119l-44 48c-22.667 0 -45 -31.667 -67 -95h-45zM467.001 1016l-0.000976562 -24l22 24h425l112 -24c-69.333 126.667 -173.666 190 -312.999 190
c-164 -66.667 -246 -122 -246 -166zM269 877l-0.000976562 -48h134c18.667 -238 120.334 -365.333 305.001 -382l87 6c185.333 32.667 278 150 278 352v24l-22 24v24h22l67 -48h90v48l-157 23l-15 12l-25 6l-5 6l-312 24zM628.999 825l67 -95v-71l-67 -72h-90
c-34 0 -56.333 39.667 -67 119c20.667 79.333 73 119 157 119zM940.999 825l67 -95v-71l-67 -72h-89c-34 0 -56.333 39.667 -67 119c20.667 79.333 72.667 119 156 119zM739.999 587l45 -47l-45 -48l-44 48zM11.999 162l0.000976562 -71c44.667 0 67 -23.667 67 -71l22 -24
h23c29.333 0 44 23.667 44 71l-22 72c39.333 10 76.666 49.333 111.999 118l-23 24h-22c-80.667 -79.333 -147.667 -119 -201 -119zM1171 1243c56.667 -61.333 100.829 -135.5 132.496 -222.5s47.5 -183.167 47.5 -288.5c0 -106 -16.167 -202.333 -48.5 -289
s-77.166 -160.334 -134.499 -221.001c-56 -60 -120.833 -106.333 -194.5 -139s-152.167 -49 -235.5 -49c-88.667 0 -170.667 17.333 -246 52s-140 83.334 -194 146.001c-54 60.667 -96.5 134.5 -127.5 221.5s-46.5 179.833 -46.5 278.5c0 108.667 16.333 205.5 49 290.5
s77.334 158.5 134.001 220.5s122.167 109.167 196.5 141.5s152.5 48.5 234.5 48.5c84.667 0 164.334 -16.5 239.001 -49.5s139.334 -79.833 194.001 -140.5zM1126 326c42 53.333 72.333 113.831 91 181.498s27.667 143.5 27 227.5
c-1.33301 86 -13.166 164.833 -35.499 236.5s-54.5 132.834 -96.5 183.501c-42.667 50 -95.5 89 -158.5 117s-135.167 42 -216.5 42c-90.667 0 -167.667 -16.167 -231 -48.5s-115 -75.5 -155 -129.5c-37.333 -52 -64.833 -112.833 -82.5 -182.5s-26.167 -142.5 -25.5 -218.5
c0.666992 -84.667 11.167 -161.167 31.5 -229.5s52.166 -129.166 95.499 -182.499c41.333 -51.333 93.333 -91.666 156 -120.999s137 -44 223 -44c81.333 0 154.5 14.667 219.5 44s117.5 70.666 157.5 123.999zM1217 237.998l2 23l27 21
c70.667 -40.667 109.667 -81.334 117 -122.001l78 18c50.667 -3.33301 74.667 -20 72 -50l-2 -23l-27 -21c-50.667 3.33301 -77.667 -17.667 -81 -63l-76 5c4.66699 54.667 -32 125.334 -110 212.001zM1217 237.998l2 23l27 21c70.667 -40.667 109.667 -81.334 117 -122.001
l78 18c50.667 -3.33301 74.667 -20 72 -50l-2 -23l-27 -21c-50.667 3.33301 -77.667 -17.667 -81 -63l-76 5c4.66699 54.667 -32 125.334 -110 212.001zM1480 1288l3 70.999c-46 2 -68.333 26.667 -67 74l-22 25l-23 1c-30.667 0.666992 -46.667 -22.666 -48 -69.999l20 -72
c-41.333 -8.66699 -81.333 -46.667 -120 -114l23 -25l22 -1c86 76 156.667 113 212 111zM455.995 963.997v-9.00098l22 9h425l112 -9c-69.333 46.667 -172 60.334 -308 41.001c-167.333 -5.33301 -251 -16 -251 -32zM712.995 256.996c87.333 -20.667 153.333 18.667 198 118
l-64 -15l-85 -12l-101 8l-65 19c-2.66699 -36 36.333 -75.333 117 -118zM839.995 461.997l45 -47l-45 -48l-44 48zM739.995 446.997l45 -47l-45 -48l-44 48zM641.995 456.997l45 -47l-45 -48l-44 48z" />
    <glyph glyph-name="P" unicode="P" horiz-adv-x="760" 
d="M107 1400l37 -31v-1239l-37 -130h224v342c0 41.333 99.667 62 299 62l75 93l-5 796l-145 107h-448zM427 1244l136 -80v-529l-50 -64l-107 -22l-67 55v566z" />
    <glyph glyph-name="Q" unicode="Q" horiz-adv-x="1593" 
d="M1095 1306c45.333 -65.333 80.8369 -144.165 106.504 -236.498s38.5 -194.5 38.5 -306.5c0 -89.333 -8.33301 -172 -25 -248s-40.667 -144 -72 -204c-29.333 -57.333 -64.333 -107.333 -105 -150s-86.334 -76.334 -137.001 -101.001
c1.33301 -73.333 20.5 -139.166 57.5 -197.499s77.167 -87.5 120.5 -87.5c40 0 70.333 1.83301 91 5.5s38 7.16699 52 10.5v-79c-22 -8.66699 -49.333 -17.834 -82 -27.501s-78 -14.5 -136 -14.5c-32.667 0 -64.5 6.5 -95.5 19.5s-59.167 33.833 -84.5 62.5
s-46.333 65 -63 109s-27.334 98 -32.001 162c-69.333 3.33301 -133.5 23.833 -192.5 61.5s-109.833 89.167 -152.5 154.5c-42.667 66 -75.834 143.5 -99.501 232.5s-35.5 186.167 -35.5 291.5c0 115.333 13.167 218.166 39.5 308.499s62.5 168.5 108.5 234.5
c45.333 65.333 98.166 115.333 158.499 150s123.5 52 189.5 52c68 0 132.333 -17.667 193 -53s113 -85 157 -149zM959.004 340.001c25.333 52.667 43.665 112.671 54.998 180.004s17 142.666 17 225.999c0 85.333 -6.33301 163.666 -19 234.999s-31.667 132 -57 182
c-24.667 50 -55.667 88.833 -93 116.5s-80.333 41.5 -129 41.5c-54 0 -100 -16 -138 -48s-69 -75 -93 -129c-22 -51.333 -38.667 -111.5 -50 -180.5s-17 -141.5 -17 -217.5c0 -84.667 6 -160.834 18 -228.501s30.333 -127.834 55 -180.501
c24.667 -51.333 55.5 -91.5 92.5 -120.5s81.167 -43.5 132.5 -43.5c48.667 0 92.334 14.667 131.001 44s70.334 70.333 95.001 123zM50.0029 1465v-95c110 0 205.667 -39.667 287 -119l29 24v23c-19.333 63.333 -57.666 95 -114.999 95v119l-58 48
c-28.667 0 -57.334 -31.667 -86.001 -95h-57zM32.0029 166.005v-71c57.333 0 86 -23.667 86 -71l29 -24h28c38.667 0 58 23.667 58 71l-29 72c50.667 10 98.667 49.333 144 118l-29 24h-29c-103.333 -79.333 -189.333 -119 -258 -119zM1148 255.005l3 23l35 21
c90 -40.667 140 -81.334 150 -122.001l99 18c65.333 -3.33301 96.333 -20 93 -50l-3 -23l-34 -21c-65.333 3.33301 -100.333 -17.667 -105 -63l-97 5c6 54.667 -41 125.334 -141 212.001zM1457 1362l3.99902 70.999c-59.333 2 -87.666 26.667 -84.999 74l-29 25l-29 1
c-39.333 0.666992 -60.333 -22.666 -63 -69.999l26 -72c-52.667 -8.66699 -103.667 -46.667 -153 -114l28 -25l30 -1c110 76 200.333 113 271 111z" />
    <glyph glyph-name="R" unicode="R" horiz-adv-x="773" 
d="M107 1400l37 -31v-1239l-37 -130h224v342c0 41.333 99.667 62 299 62l75 93l-5 796l-145 107h-448zM427 1244l136 -80v-529l-50 -64l-107 -22l-67 55v566zM427 387l112 -314l-43 -20v-56l251 -1l-6 52l-56 28l-126 322z" />
    <glyph glyph-name="S" unicode="S" horiz-adv-x="876" 
d="M764 651c22.667 -33.333 39.3291 -69.8369 49.9961 -109.504s16 -85.834 16 -138.501c0 -125.333 -35 -228.666 -105 -309.999s-156.667 -122 -260 -122c-48 0 -95.833 9.83301 -143.5 29.5s-89.167 43.5 -124.5 71.5l-32 -73h-60l-1 458l36 -66
c24 -46 43.333 -84.833 58 -116.5s36.667 -63.5 66 -95.5c27.333 -34 58.5 -62.667 93.5 -86s75.833 -35 122.5 -35c34.667 0 65 6 91 18s47 29 63 51s27.833 47.833 35.5 77.5s11.5 63.834 11.5 102.501c0 56.667 -12 109.5 -36 158.5s-60 86.167 -108 111.5l-112.5 57.5
c-42.333 21 -78.833 40.833 -109.5 59.5c-60 36 -106.833 83.167 -140.5 141.5s-50.5 134.5 -50.5 228.5c0 54 8.33301 104.333 25 151s40.334 88.334 71.001 125.001c29.333 34.667 63.833 61.834 103.5 81.501s81.167 29.5 124.5 29.5c49.333 0 93.5 -10 132.5 -30
s74.5 -43.333 106.5 -70l31 68h61v-383l-48 86c-25.333 46.667 -41.833 74.834 -49.5 84.501s-20.167 26.5 -37.5 50.5c-29.333 25.333 -59.666 49.5 -90.999 72.5s-69.666 34.5 -114.999 34.5c-47.333 0 -88 -20.333 -122 -61s-51 -90.334 -51 -149.001
c0 -61.333 10.833 -112.166 32.5 -152.499s53.167 -73.5 94.5 -99.5c36.667 -23.333 72.834 -43.5 108.501 -60.5s70.167 -35.167 103.5 -54.5c30 -17.333 59 -37 87 -59s52.333 -47.667 73 -77z" />
    <glyph glyph-name="T" unicode="T" horiz-adv-x="876" 
d="M778 1110l-11.998 33.0039c-4 12.667 -8.83301 25.167 -14.5 37.5s-18.5 32.833 -38.5 61.5c-20.667 37.333 -37.334 59 -50.001 65s-26.667 13.333 -42 22c-12 2.66699 -24.667 5 -38 7s-36 -3.66699 -68 -17l-17 -36l-1 -1081c0 -22 2.5 -42.167 7.5 -60.5
s14.167 -32.5 27.5 -42.5c6.66699 -4.66699 20.667 -11 42 -19s37.666 -12.333 48.999 -13v-71h-372v71c10 1.33301 25.667 4 47 8s36 9 44 15c12.667 8.66699 21.834 21.167 27.501 37.5s8.5 38.166 8.5 65.499v1064l-22 46c-26.667 16 -46.5 25.167 -59.5 27.5
s-27.167 1.83301 -42.5 -1.5c-12.667 -2.66699 -25.834 -7.83398 -39.501 -15.501s-30.5 -25.834 -50.5 -54.501c-12 -32.667 -21 -54.334 -27 -65.001s-15 -31 -27 -61l-19 -34l2 316h688z" />
    <glyph glyph-name="U" unicode="U" horiz-adv-x="954" 
d="M891 1348c-10.667 -0.666992 -26 -4.66504 -46 -11.998s-36.333 -18.333 -49 -33c-12.667 -15.333 -21.5 -47 -26.5 -95s-7.5 -106.667 -7.5 -176v-617c0 -78.667 -9.16699 -147 -27.5 -205s-42.166 -105.667 -71.499 -143c-30 -36 -61.333 -61.833 -94 -77.5
s-63.667 -23.5 -93 -23.5c-48 0 -90.667 11.167 -128 33.5s-68.666 52.5 -93.999 90.5s-44.333 81.5 -57 130.5s-19 100.167 -19 153.5v839c0 23.333 -2.16699 42.833 -6.5 58.5s-12.833 30.167 -25.5 43.5c-9.33301 9.33301 -21.333 16.833 -36 22.5
s-26.667 9.16699 -36 10.5v71h331v-71c-10.667 -0.666992 -23.834 -3.66699 -39.501 -9s-27.5 -10.333 -35.5 -15c-12.667 -8 -21 -21.333 -25 -40s-6 -39 -6 -61v-784c0 -38 2.33301 -77.833 7 -119.5s13.667 -80.5 27 -116.5c14.667 -36.667 34.5 -66.667 59.5 -90
s59.5 -35 103.5 -35c40.667 0 70.667 13 90 39s39.666 67 60.999 123c9.33301 48 15.666 85.833 18.999 113.5s8.33301 76.167 15 145.5l4 525c-8.66699 126 -14.167 198.667 -16.5 218s-7.16602 39.666 -14.499 60.999c-11.333 16 -25.833 27.167 -43.5 33.5
s-32.5 10.166 -44.5 11.499v71h325v-71z" />
    <glyph glyph-name="V" unicode="V" horiz-adv-x="885" 
d="M837 1348c-10 -0.666992 -21.9951 -4.49902 -35.9951 -11.499s-25.667 -15.5 -35 -25.5c-13.333 -14 -23.833 -32 -31.5 -54s-15.167 -48 -22.5 -78l-115.5 -495.5l-158.5 -701.5h-47l-159.5 746l-104.5 485c-4.66699 20.667 -10.834 38.834 -18.501 54.501
s-17.834 30.5 -30.501 44.5c-10 11.333 -21.333 19.833 -34 25.5s-24.334 9.16699 -35.001 10.5v71h336v-71c-28.667 -2.66699 -52.834 -7.66699 -72.501 -15s-29.5 -20.333 -29.5 -39c0 -7.33301 0.833008 -16 2.5 -26s3.16699 -18 4.5 -24l68.5 -319.5l135.5 -630.5
l100 437c38 168 63.333 283.333 76 346c12.667 60.667 20 102.667 22 126s3 42.333 3 57c0 15.333 -3.83301 28.166 -11.5 38.499s-18.167 19.166 -31.5 26.499c-12.667 6.66699 -25.334 11.667 -38.001 15s-26 6 -40 8v71h303v-71z" />
    <glyph glyph-name="W" unicode="W" horiz-adv-x="1049" 
d="M1010 1348c-8 -0.666992 -17.498 -4.5 -28.498 -11.5s-21.167 -16.167 -30.5 -27.5c-12 -14.667 -21.5 -31.5 -28.5 -50.5s-13.167 -45.5 -18.5 -79.5l-83 -539.5l-101 -657.5h-46l-178 1092l-187 -1092h-44l-102 726.5l-71 504.5c-2.66699 20.667 -7 39 -13 55
s-14 30.667 -24 44c-8 11.333 -17.667 19.833 -29 25.5s-21.333 9.16699 -30 10.5v71h289v-71c-25.333 -2.66699 -46.833 -7.66699 -64.5 -15s-26.5 -19.666 -26.5 -36.999c0 -6.66699 0.5 -15.5 1.5 -26.5s1.83301 -19.833 2.5 -26.5
c7.33301 -58.667 20.666 -155.5 39.999 -290.5l87 -606.5l177 1053h48l179 -1076l61 433.5c17.333 123.667 31.666 229.5 42.999 317.5c8 62 13 104.5 15 127.5s3 42.5 3 58.5c0 22.667 -7.66699 41.667 -23 57s-40.333 25.666 -75 30.999v71h257v-71z" />
    <glyph glyph-name="X" unicode="X" horiz-adv-x="842" 
d="M777 0l-351.001 -0.00195312v71c28.667 1.33301 52 6.5 70 15.5s27 22.833 27 41.5c0 10 -4.16699 30.667 -12.5 62s-18.833 66.333 -31.5 105l-50 150.5l-58 165.5l-105.5 -279.5c-39.667 -109 -59.5 -173.167 -59.5 -192.5c0 -22 5.33301 -38.167 16 -48.5
s34.334 -16.833 71.001 -19.5v-71h-280v71c9.33301 1.33301 21.166 3.83301 35.499 7.5s25.833 9.83398 34.5 18.501c18.667 18.667 33.5 38.834 44.5 60.501s22.167 47.167 33.5 76.5l87 219.5l94 239.5l-78.5 215.5l-101.5 279.5c-15.333 42 -27.333 71.667 -36 89
s-20.334 32.333 -35.001 45c-8 7.33301 -19.5 13.166 -34.5 17.499s-27.167 7.16602 -36.5 8.49902v71h348v-71c-20.667 -1.33301 -42 -6.16602 -64 -14.499s-33 -21.166 -33 -38.499c0 -12.667 4.5 -34.834 13.5 -66.501s19.5 -65.5 31.5 -101.5l41 -124l55 -157
c40 102 74.5 194 103.5 276s43.5 135.333 43.5 160c0 21.333 -6.66699 37 -20 47s-35.666 16.333 -66.999 19v71h280v-71c-8.66699 -0.666992 -20.167 -3.16699 -34.5 -7.5s-26.166 -10.5 -35.499 -18.5c-18.667 -16.667 -32.5 -34.667 -41.5 -54s-20.833 -47.333 -35.5 -84
l-78.5 -193.5l-85.5 -220.5l94 -259l100 -277c10.667 -30 23 -58.5 37 -85.5s25.667 -45.5 35 -55.5c8 -9.33301 19.167 -15.166 33.5 -17.499s26.5 -3.83301 36.5 -4.5v-71z" />
    <glyph glyph-name="Y" unicode="Y" horiz-adv-x="851" 
d="M807 1348c-6.66699 -0.666992 -17.167 -5.16211 -31.5 -13.4951s-24.833 -16.5 -31.5 -24.5c-14.667 -16 -24.834 -28.333 -30.501 -37s-16.167 -31.334 -31.5 -68.001c-30.667 -73.333 -58.834 -147.666 -84.501 -222.999l-96.5 -287
c-14.667 -42.667 -24.334 -77 -29.001 -103s-7 -63.667 -7 -113v-271c0 -24 2.83301 -44.833 8.5 -62.5s15.5 -31.834 29.5 -42.501c8 -5.33301 22.5 -11.833 43.5 -19.5s37.833 -11.834 50.5 -12.501v-71h-388v71c10.667 1.33301 27 3.83301 49 7.5s37.333 8.5 46 14.5
c14 10 23.5 23.667 28.5 41s7.5 38.666 7.5 63.999v345c0 10.667 -3.66699 30.167 -11 58.5s-16.333 59.833 -27 94.5l-78 251l-74 231c-13.333 38 -25 66.667 -35 86s-21.333 36.333 -34 51c-9.33301 10 -20.5 17.667 -33.5 23s-24.833 8.66602 -35.5 9.99902v71h354v-71
c-40 -1.33301 -68.167 -6 -84.5 -14s-24.5 -19.333 -24.5 -34c0 -4 1.16699 -11 3.5 -21s5.83301 -22.667 10.5 -38c4.66699 -17.333 10.5 -37.166 17.5 -59.499l20.5 -64.5l56 -177.5l75 -230.5l140 394.5c32 94.333 48 150.833 48 169.5
c0 15.333 -3.16699 27.666 -9.5 36.999s-15.166 16.666 -26.499 21.999s-23.666 8.83301 -36.999 10.5s-25.666 3.5 -36.999 5.5v71h289v-71z" />
    <glyph glyph-name="Z" unicode="Z" horiz-adv-x="730" 
d="M681 353l-21.999 -353.001h-632v35l466 1215v56c-19.333 28.667 -42 44.5 -68 47.5s-67.333 5.16699 -124 6.5c-59.333 -28.667 -98.5 -51.167 -117.5 -67.5s-40.833 -41.5 -65.5 -75.5l-42 -82l6 284h590v-35l-444 -1197l-8 -64c24 -26 62.333 -40.167 115 -42.5
s104 4.5 154 20.5c53.333 27.333 89.666 50.833 108.999 70.5s38 56.834 56 111.501z" />
    <glyph glyph-name="bracketleft" unicode="[" horiz-adv-x="768" 
d="M701 -310h-533v1829h533v-91h-355v-1646h355v-92z" />
    <glyph glyph-name="backslash" unicode="\" horiz-adv-x="960" 
d="M911 -424h-130l-691 1947h132z" />
    <glyph glyph-name="bracketright" unicode="]" horiz-adv-x="768" 
d="M600 -310h-533v92h355v1646h-355v91h533v-1829z" />
    <glyph glyph-name="asciicircum" unicode="^" horiz-adv-x="1317" 
d="M1126 796h-145l-321 524l-324 -524h-145l412 660h113z" />
    <glyph glyph-name="underscore" unicode="_" horiz-adv-x="1317" 
d="M1322 -282h-1327v101h1327v-101z" />
    <glyph glyph-name="grave" unicode="`" horiz-adv-x="1024" 
d="M739 1142l-38.001 -31.9971l-184 143.5c-54 41 -94 72.167 -120 93.5c-25.333 21.333 -43.166 38.666 -53.499 51.999s-15.5 33.666 -15.5 60.999c0 19.333 7.66699 37.166 23 53.499s35 24.5 59 24.5c26 0 48.333 -6 67 -18s38.667 -35.333 60 -70l80 -125.5z" />
    <glyph glyph-name="a" unicode="a" horiz-adv-x="579" 
d="M536 18c-15.333 -11.333 -28.833 -20.502 -40.5 -27.502s-24.834 -10.5 -39.501 -10.5c-26 0 -46.5 12.167 -61.5 36.5s-24.833 59.833 -29.5 106.5h-3c-21.333 -48 -44.166 -84.667 -68.499 -110s-53.833 -38 -88.5 -38c-36.667 0 -66.667 22.667 -90 68
s-35 104.666 -35 177.999c0 38 2.66699 72 8 102s13.333 57 24 81c8 20 18.667 37.833 32 53.5s26 28.167 38 37.5c14.667 11.333 44.667 32.333 90 63s75.666 54.667 90.999 72v99c0 8.66699 -0.833008 25.334 -2.5 50.001s-5.5 48 -11.5 70
c-6.66699 24.667 -16 46.167 -28 64.5s-29 27.5 -51 27.5c-15.333 0 -29.333 -5.16699 -42 -15.5s-21.667 -21.166 -27 -32.499c0 -13.333 1.5 -33 4.5 -59s4.5 -50 4.5 -72c0 -23.333 -5.16699 -44.666 -15.5 -63.999s-24.833 -29 -43.5 -29
c-16 0 -27.833 11.833 -35.5 35.5s-11.5 50.167 -11.5 79.5c0 30.667 5.33301 60 16 88s24.334 53 41.001 75c14.667 18.667 32.5 34.5 53.5 47.5s41.5 19.5 61.5 19.5c28 0 52.167 -3.83301 72.5 -11.5s39.166 -24.167 56.499 -49.5
c16.667 -24.667 29.334 -58.167 38.001 -100.5s13 -96.833 13 -163.5c0 -95.333 -0.5 -179.833 -1.5 -253.5s-1.5 -154.167 -1.5 -241.5c0 -26 2.16699 -46.667 6.5 -62s11.166 -28.333 20.499 -39c4.66699 -6 12.334 -9.33301 23.001 -10s21.667 -1 33 -1v-64zM316 473.998
c-26.667 -13.333 -50.001 -26.332 -70.001 -38.999s-38.333 -28.334 -55 -47.001c-16 -18 -28.5 -39.167 -37.5 -63.5s-13.5 -53.5 -13.5 -87.5c0 -43.333 6.83301 -75.333 20.5 -96s30.834 -31 51.501 -31c22 0 41.5 9 58.5 27s31.167 39.667 42.5 65z" />
    <glyph glyph-name="b" unicode="b" horiz-adv-x="691" 
d="M641 494c0 -148 -28.1689 -272.332 -84.502 -372.999s-121.833 -151 -196.5 -151c-32 0 -63.833 8.33301 -95.5 25s-61.5 39 -89.5 67l-44 -115l-38 14c2 49.333 3.5 108.666 4.5 177.999s1.5 136.333 1.5 201v976c0 22.667 -3.16699 45.334 -9.5 68.001
s-14.5 39 -24.5 49c-7.33301 8.66699 -20 15.167 -38 19.5s-32.333 7.16602 -43 8.49902v64l218 23l9 -15v-650l4 -2c24.667 44 51.834 77 81.501 99s58.834 33 87.501 33c73.333 0 134.5 -48 183.5 -144s73.5 -221 73.5 -375zM508.998 492.001
c0 41.333 -2.49609 83.333 -7.49609 126s-13.167 80 -24.5 112c-10.667 32 -24.834 58 -42.501 78s-38.834 30 -63.501 30c-22 0 -41.5 -7.66699 -58.5 -23s-32.167 -36 -45.5 -62v-479c2 -13.333 5.83301 -28.833 11.5 -46.5s13.167 -34.5 22.5 -50.5
s20.166 -28.833 32.499 -38.5s27.166 -14.5 44.499 -14.5c39.333 0 71 32.833 95 98.5s36 155.5 36 269.5z" />
    <glyph glyph-name="c" unicode="c" horiz-adv-x="643" 
d="M560 556l-135 -4.99902v181c-8.66699 68.667 -22.834 106.167 -42.501 112.5s-42.167 11.166 -67.5 14.499c-25.333 -2.66699 -40.833 -13.834 -46.5 -33.501s-9.5 -53.5 -11.5 -101.5v-470c5.33301 -56.667 13 -91.167 23 -103.5s24.667 -21.833 44 -28.5
c26 8.66699 46.333 20.5 61 35.5s27.667 56.167 39 123.5l4 118l163 -9v-39c0 -104.667 -6 -179 -18 -223s-38.5 -82.333 -79.5 -115s-91.833 -49 -152.5 -49c-62.667 0 -114.167 13.833 -154.5 41.5s-67.166 66.334 -80.499 116.001s-20 123.834 -20 222.501v296
c0 73.333 2 128.166 6 164.499s16.167 71.5 36.5 105.5s48.333 60.667 84 80s76.5 29 122.5 29c63.333 0 115.333 -15 156 -45s61.5 -67.5 62.5 -112.5s2.83301 -114.833 5.5 -209.5z" />
    <glyph glyph-name="d" unicode="d" horiz-adv-x="825" 
d="M786 18l-226.999 -22.002l-10 14v91l-6 2c-22.667 -38.667 -50.834 -70.167 -84.501 -94.5s-68.5 -36.5 -104.5 -36.5c-36.667 0 -72.334 12.333 -107.001 37s-64.667 59.667 -90 105c-26 46 -46.667 101 -62 165s-23 134.667 -23 212
c0 71.333 8.16699 138.666 24.5 201.999s38.833 119 67.5 167c26.667 44 59.5 79.333 98.5 106s78.833 40 119.5 40c30.667 0 60.667 -5.83301 90 -17.5s54.333 -26.5 75 -44.5v341c0 27.333 -3 52.5 -9 75.5s-14.667 40.5 -26 52.5c-12 12.667 -28.5 21.834 -49.5 27.501
s-43.5 9.83398 -67.5 12.501v61l266 23l10 -15v-1321c0 -22.667 3 -42.167 9 -58.5s14.667 -30.166 26 -41.499c8.66699 -8 20.834 -13 36.501 -15s30.167 -3.33301 43.5 -4v-64zM547.001 188.998l0.000976562 573c-3.33301 17.333 -9 36 -17 56s-18 38.333 -30 55
c-12.667 16 -27.5 29.5 -44.5 40.5s-37.167 16.5 -60.5 16.5c-26 0 -50.167 -10.167 -72.5 -30.5s-42.166 -49.833 -59.499 -88.5c-16 -37.333 -28.833 -84.5 -38.5 -141.5s-14.5 -120.5 -14.5 -190.5c0 -55.333 3.5 -105.666 10.5 -150.999s18.833 -87.666 35.5 -126.999
c16 -36.667 36 -66.334 60 -89.001s52.333 -34 85 -34c35.333 0 64.666 11.667 87.999 35s42.666 48.666 57.999 75.999z" />
    <glyph glyph-name="e" unicode="e" horiz-adv-x="639" 
d="M593 227c-24.667 -77.333 -57.6719 -138.834 -99.0049 -184.501s-88.666 -68.5 -141.999 -68.5c-47.333 0 -88.666 13.667 -123.999 41s-64.666 64.666 -87.999 111.999c-22.667 46.667 -39.667 101.334 -51 164.001s-17 129 -17 199c0 62.667 6 124.167 18 184.5
s29.667 114.5 53 162.5c22.667 46.667 50.834 84.167 84.501 112.5s71.167 42.5 112.5 42.5c42.667 0 79.334 -11.167 110.001 -33.5s55.667 -52.5 75 -90.5c18 -36.667 31.5 -79.834 40.5 -129.501s13.5 -103.5 13.5 -161.5v-65h-389
c0 -63.333 3.66699 -120.666 11 -171.999s19 -96.666 35 -135.999c15.333 -38 35.5 -67.833 60.5 -89.5s54.833 -32.5 89.5 -32.5c35.333 0 65.833 13.5 91.5 40.5s50.167 75.833 73.5 146.5zM461.995 594.999c0 36 -1.99902 74.999 -5.99902 116.999s-10 77 -18 105
c-9.33301 30 -21.833 54.5 -37.5 73.5s-36.167 28.5 -61.5 28.5c-41.333 0 -75.833 -28.667 -103.5 -86s-42.834 -136.666 -45.501 -237.999h272z" />
    <glyph glyph-name="f" unicode="f" horiz-adv-x="569" 
d="M509 1434c0 -30.667 -5 -56.333 -15 -77s-25 -31 -45 -31c-12.667 0 -24 4.33301 -34 13s-19 20.334 -27 35.001s-15.5 31.5 -22.5 50.5s-13.167 34.167 -18.5 45.5c-27.333 -2 -48.666 -33.333 -63.999 -94s-23 -157.334 -23 -290.001v-101h158v-96h-158v-710
c0 -24 2.83301 -43.333 8.5 -58s14.5 -25.667 26.5 -33c10 -6 23.333 -10.833 40 -14.5s31 -6.16699 43 -7.5v-66h-323v66c9.33301 1.33301 19.166 2.66602 29.499 3.99902s19.166 4 26.499 8c11.333 6 19.833 16.5 25.5 31.5s8.5 34.833 8.5 59.5v720h-121v96h121v63
c0 150.667 24 272.667 72 366s108.333 140 181 140c36.667 0 64.334 -11.667 83.001 -35s28 -51.666 28 -84.999z" />
    <glyph glyph-name="g" unicode="g" horiz-adv-x="789" 
d="M660 102c18.667 -25.333 33.499 -54.001 44.499 -86.001s16.5 -71.667 16.5 -119s-7.33301 -91.833 -22 -133.5s-36.667 -77.834 -66 -108.501c-32 -31.333 -69.833 -55.666 -113.5 -72.999s-97.834 -26 -162.501 -26c-105.333 0 -184.166 21.833 -236.499 65.5
s-78.5 107.5 -78.5 191.5c0 68 18.833 121.667 56.5 161s85.834 60.666 144.501 63.999v14c-14.667 6 -29.5 13.5 -44.5 22.5s-27.833 19.5 -38.5 31.5c-12 14 -21.833 30.5 -29.5 49.5s-11.5 42.5 -11.5 70.5c0 35.333 8.83301 67.833 26.5 97.5s44.5 55.167 80.5 76.5v15
c-45.333 30 -80.5 68.5 -105.5 115.5s-37.5 101.5 -37.5 163.5c0 93.333 24.667 170 74 230s112.333 90 189 90c21.333 0 42.333 -3 63 -9s42 -13.667 64 -23h243v-96h-164v-6c17.333 -28.667 30.333 -60.334 39 -95.001s13 -68.667 13 -102
c0 -86.667 -24.833 -160 -74.5 -220s-107.5 -90 -173.5 -90h-86c-10.667 -5.33301 -21.834 -15 -33.501 -29s-17.5 -33 -17.5 -57c0 -24.667 4.83301 -43.5 14.5 -56.5s21.834 -21.833 36.501 -26.5c13.333 -5.33301 29 -8.66602 47 -9.99902s36.667 -2.33301 56 -3
c20.667 -0.666992 49.167 -2.66699 85.5 -6s61.833 -5.33301 76.5 -6c22 -1.33301 43.833 -8.66602 65.5 -21.999s41.5 -31.666 59.5 -54.999zM468.999 686.999c0 78 -11.167 140.167 -33.5 186.5s-53.5 69.5 -93.5 69.5c-22.667 0 -41.834 -6.5 -57.501 -19.5
s-28.5 -31.5 -38.5 -55.5c-9.33301 -22 -16 -48.5 -20 -79.5s-6 -62.833 -6 -95.5c0 -74 11.5 -134.333 34.5 -181s52.5 -70 88.5 -70c40.667 0 71.834 23.167 93.501 69.5s32.5 104.833 32.5 175.5zM604.999 -140.001c0 37.333 -6.16504 67.998 -18.498 91.998
s-30.833 40.333 -55.5 49c-13.333 2.66699 -40.5 5.66699 -81.5 9s-88.5 5 -142.5 5c-50.667 -14 -86.834 -37.5 -108.501 -70.5s-32.5 -75.5 -32.5 -127.5c0 -23.333 3.66699 -45.666 11 -66.999s19.666 -41 36.999 -59c16 -17.333 38 -31.5 66 -42.5s62 -16.5 102 -16.5
c69.333 0 123.833 18.833 163.5 56.5s59.5 94.834 59.5 171.501z" />
    <glyph glyph-name="h" unicode="h" horiz-adv-x="790" 
d="M751 0h-317v66c10 1.33301 21.167 2.66602 33.5 3.99902s22.166 4 29.499 8c12.667 6 21.834 16.5 27.501 31.5s8.5 34.5 8.5 58.5v507c0 70 -10.667 124 -32 162s-47.666 57 -78.999 57c-22.667 0 -43.667 -5.5 -63 -16.5s-36.666 -24.5 -51.999 -40.5
c-15.333 -16.667 -26.833 -33.334 -34.5 -50.001s-13.834 -30.667 -18.501 -42v-567c0 -22.667 3 -41.334 9 -56.001s15 -26 27 -34c10 -6.66699 20.167 -11.667 30.5 -15s21.5 -5.66602 33.5 -6.99902v-66h-317v66c10 1.33301 20.5 2.83301 31.5 4.5
s20.167 4.16699 27.5 7.5c12 6 21 16.5 27 31.5s9 34.5 9 58.5v1148c0 22.667 -3.33301 45.334 -10 68.001s-15.334 39.667 -26.001 51c-8 8.66699 -22 14.834 -42 18.501s-36 6.16699 -48 7.5v64l239 23l9 -15v-688h3l39.5 58.5c11.667 17 27.167 34.833 46.5 53.5
c16.667 16 36.167 29.333 58.5 40s47.5 16 75.5 16c58 0 102.5 -27.833 133.5 -83.5s46.5 -135.834 46.5 -240.501v-513c0 -23.333 2.66699 -42.166 8 -56.499s14.333 -25.5 27 -33.5c10 -6 19 -10.5 27 -13.5s18.667 -5.16699 32 -6.5v-66z" />
    <glyph glyph-name="i" unicode="i" horiz-adv-x="455" 
d="M200 1510l41.999 0.00195312c36.667 0 71.334 -33.333 104.001 -100h42v-25c-44 7.33301 -70 -18.667 -78 -78l-47 -39v-85c90 5.33301 152.333 -64.334 187 -209.001v-12c0 -106 -24.333 -176.667 -73 -212l21 -149h-52v-38l31 -149c-48.667 0 -73 -49.667 -73 -149
v-137l11 -13v-12l-11 -13l84 -87h-63l-104 75l-177 -75h-21v12c0 30.667 41.667 60 125 88l11 199c0 67.333 -24.333 108.666 -73 123.999l21 175c-28 0 -42 8.33301 -42 25v37l21 100c-48.667 50.667 -73 117 -73 199c0 130 62 205.667 186 227l11 33l-1 29l-5 15l-44 29
l-23 38l-6 52c-44 0 -59.667 8.33301 -47 25h54c0 36.667 20.667 70 62 100zM54.999 1021v-67.999c0 -84 17 -129.333 51 -136h17l33 34v187c0 56.667 -12 75.667 -36 57c-43.333 7.33301 -65 -17.334 -65 -74.001zM311.999 1081l-14.001 -251l16 -17v-17
c55.333 15.333 83 55 83 119l5 35c-3.33301 94.667 -25.666 139.667 -66.999 135z" />
    <glyph glyph-name="j" unicode="j" horiz-adv-x="474" 
d="M441 56c0 -73.333 -7.83496 -142.165 -23.502 -206.498s-36.167 -117.5 -61.5 -159.5c-28 -44.667 -59.333 -78.834 -94 -102.501s-73 -35.5 -115 -35.5c-43.333 0 -76 11.833 -98 35.5s-33 51.5 -33 83.5c0 28.667 5.83301 53.834 17.5 75.501s28.834 32.5 51.501 32.5
c14.667 0 27.834 -4.33301 39.501 -13s21.834 -20 30.501 -34c8 -12 16 -26.833 24 -44.5l23 -51.5c37.333 0 63.833 30.667 79.5 92s23.5 159.666 23.5 294.999v742c0 21.333 -3.66699 41.833 -11 61.5s-17.333 35.5 -30 47.5
c-7.33301 7.33301 -25.833 14.666 -55.5 21.999s-51.834 12 -66.501 14v62l289 22l10 -14v-924zM451.998 1384c0 -38 -9.16699 -71.167 -27.5 -99.5s-40.833 -42.5 -67.5 -42.5c-24.667 0 -46.167 13.5 -64.5 40.5s-27.5 57.833 -27.5 92.5c0 36.667 9.16699 68.667 27.5 96
s39.833 41 64.5 41c28 0 50.833 -12.833 68.5 -38.5s26.5 -55.5 26.5 -89.5z" />
    <glyph glyph-name="k" unicode="k" horiz-adv-x="665" 
d="M624 0l-166.001 -0.00195312l-92.5 242c-33 86 -67.5 169.667 -103.5 251l-45 -77v-234c0 -24 2.33301 -43.833 7 -59.5s12.334 -27.167 23.001 -34.5c9.33301 -6.66699 18 -11.667 26 -15s17.333 -5.66602 28 -6.99902v-66h-269v66
c8.66699 1.33301 17.667 2.83301 27 4.5s17 4.16699 23 7.5c10.667 6 18.5 16.5 23.5 31.5s7.5 34.5 7.5 58.5v1146c0 24.667 -2.83301 47.834 -8.5 69.501s-13.167 38.167 -22.5 49.5c-7.33301 10.667 -19.333 17.667 -36 21s-30 5.66602 -40 6.99902v64l203 23l8 -15
v-1043l93.5 167.5c33.667 59.667 61.834 112.834 84.501 159.501c3.33301 6 6.66602 13.833 9.99902 23.5s5 17.5 5 23.5c0 18 -8 31.333 -24 40s-31.333 14.667 -46 18v64h241v-62c-31.333 -16.667 -58.833 -37.5 -82.5 -62.5s-41.834 -47.5 -54.501 -67.5
c-9.33301 -13.333 -22.166 -35 -38.499 -65s-38.833 -69.333 -67.5 -118c30 -67.333 64 -148 102 -242l83 -204c16.667 -39.333 31.5 -65 44.5 -77s31.833 -19.333 56.5 -22v-66z" />
    <glyph glyph-name="l" unicode="l" horiz-adv-x="455" 
d="M351 0l-315.999 -0.000976562v66c10.667 1.33301 21.667 2.83301 33 4.5s20.666 4.16699 27.999 7.5c12 6 21.167 16.5 27.5 31.5s9.5 34.5 9.5 58.5v1142c0 24 -3.5 46.5 -10.5 67.5s-15.833 37.5 -26.5 49.5c-8 8 -22.5 15.333 -43.5 22s-37.833 10.667 -50.5 12v64
l243 23l10 -15v-1353c0 -23.333 2.83301 -42.5 8.5 -57.5s14.834 -26.5 27.501 -34.5c9.33301 -6.66699 18.666 -11.667 27.999 -15s20 -5.66602 32 -6.99902v-66z" />
    <glyph glyph-name="m" unicode="m" horiz-adv-x="1058" 
d="M1001 0l-266.002 -0.00195312v66l25 4c8.66699 1.33301 16.334 4 23.001 8c10.667 6 18.5 16.5 23.5 31.5s7.5 34.5 7.5 58.5v509c0 69.333 -8.83301 122.833 -26.5 160.5s-39.5 56.5 -65.5 56.5c-18 0 -35 -5 -51 -15s-30.667 -24 -44 -42
c-10.667 -14.667 -19.667 -30.5 -27 -47.5s-12.666 -31.167 -15.999 -42.5v-569c0 -23.333 2.16699 -42.5 6.5 -57.5s11.833 -26.5 22.5 -34.5c8.66699 -6 16.334 -10.5 23.001 -13.5s15.667 -5.16699 27 -6.5v-66h-261v66l25 4c8 1.33301 15.333 4 22 8
c10 6 17.5 16.5 22.5 31.5s7.5 34.5 7.5 58.5v509c0 69.333 -8.66699 122.833 -26 160.5s-39.333 56.5 -66 56.5c-18 0 -35 -5.16699 -51 -15.5s-30.667 -24.5 -44 -42.5c-10.667 -14.667 -19.667 -31.167 -27 -49.5s-12.666 -32.166 -15.999 -41.499v-565
c0 -22.667 2.5 -41.667 7.5 -57s12.833 -27 23.5 -35c7.33301 -6.66699 15.166 -11.667 23.499 -15s17.5 -5.66602 27.5 -6.99902v-66h-266v66l26.5 4c9 1.33301 16.833 4 23.5 8c10.667 6 18.5 16.5 23.5 31.5s7.5 34.5 7.5 58.5v613c0 21.333 -2.66699 40.5 -8 57.5
s-13 31.5 -23 43.5c-6.66699 8 -15.167 14.5 -25.5 19.5s-21.166 8.16699 -32.499 9.5v65l183 22l8 -14v-141h3l34 59c13.333 22.667 25.666 41 36.999 55c13.333 16 29.666 29.333 48.999 40s40.333 16 63 16c35.333 0 65.666 -17.167 90.999 -51.5
s43.666 -75.833 54.999 -124.5l35 61.5c10 17.667 23.333 36.5 40 56.5c14 17.333 30.5 31.333 49.5 42s40.167 16 63.5 16c46.667 0 83.334 -27.333 110.001 -82s40 -138.667 40 -252v-501c0 -23.333 2.33301 -42.5 7 -57.5s12.334 -26.5 23.001 -34.5
c8.66699 -6 17 -10.5 25 -13.5s17.333 -5.16699 28 -6.5v-66z" />
    <glyph glyph-name="n" unicode="n" horiz-adv-x="769" 
d="M698 0l-279.998 0.00195312v66c9.33301 1.33301 19.166 2.66602 29.499 3.99902s19.166 4 26.499 8c10.667 6 18.667 16.5 24 31.5s8 34.5 8 58.5v507c0 70 -9.66699 124 -29 162s-42.666 57 -69.999 57c-20 0 -38.5 -5.5 -55.5 -16.5s-32.167 -24.5 -45.5 -40.5
c-12.667 -15.333 -22.834 -31.833 -30.501 -49.5s-13.167 -31.834 -16.5 -42.501v-567c0 -22.667 2.66699 -41.334 8 -56.001s13.333 -26 24 -34c8.66699 -6.66699 17.667 -11.667 27 -15s19 -5.66602 29 -6.99902v-66h-280v66l28 4c9.33301 1.33301 17.333 4 24 8
c11.333 6 19.5 16.5 24.5 31.5s7.5 34.5 7.5 58.5v609c0 22.667 -2.66699 43.5 -8 62.5s-13.333 34.5 -24 46.5c-7.33301 8 -16 13.833 -26 17.5s-20.667 6.16699 -32 7.5v65l190 22l8 -14v-139h3l35 57.5c14 22.333 27 40.5 39 54.5c14 16 31 29.333 51 40s42.333 16 67 16
c54.667 0 95.167 -29.5 121.5 -88.5s39.5 -137.5 39.5 -235.5v-513c0 -23.333 2.33301 -42.166 7 -56.499s12.667 -25.5 24 -33.5c9.33301 -6.66699 17.333 -11.334 24 -14.001s16 -4.66699 28 -6v-66z" />
    <glyph glyph-name="o" unicode="o" 
d="M36 7l-0.000976562 -58c34 0 51 -19.333 51 -58l18 -20h17c22.667 0 34 19.667 34 59l-17 58c30 8 58.333 40.333 85 97l-17 19h-17c-61.333 -64.667 -112.666 -97 -153.999 -97zM1037 503c0 -69.333 -10.999 -137.5 -32.999 -204.5s-53.333 -123.833 -94 -170.5
c-46 -53.333 -99.333 -93 -160 -119s-128.667 -39 -204 -39c-62.667 0 -122.334 11.833 -179.001 35.5s-107 58.167 -151 103.5c-43.333 44.667 -77.833 99.167 -103.5 163.5s-38.5 136.5 -38.5 216.5c0 154 44.833 280 134.5 378s207.167 147 352.5 147
c138 0 251.833 -46.5 341.5 -139.5s134.5 -216.833 134.5 -371.5zM830 501c0 50 -5.00098 102.832 -15.001 158.499s-25 102.834 -45 141.501c-21.333 41.333 -49.333 74.5 -84 99.5s-77 37.5 -127 37.5c-51.333 0 -95.166 -12.667 -131.499 -38s-65.833 -60 -88.5 -104
c-21.333 -40.667 -36.333 -87 -45 -139s-13 -102.333 -13 -151c0 -64 5.16699 -123.167 15.5 -177.5s26.833 -102.833 49.5 -145.5s51.167 -76.167 85.5 -100.5s76.833 -36.5 127.5 -36.5c83.333 0 149.333 40.333 198 121s73 192 73 334zM139.999 1089l-57.998 -8
c5.33301 -34 -11.334 -53.667 -50.001 -59l-17 -20l2 -17c3.33301 -22.667 24.333 -31 63 -25l55 25c13.333 -28.667 49.666 -52 108.999 -70l17 19l-3 17c-72.667 51.333 -112 97.333 -118 138zM853.001 39.999l0.000976562 17l19 17c56 -27.333 88.333 -56 97 -86l58 16
c38.667 -0.666992 58 -12 58 -34v-17l-20 -17c-38.667 0.666992 -58.334 -16.333 -59.001 -51l-58 1c0.666992 40.667 -31 92 -95 154zM935.002 879.999l-17 2l-15 21c32.667 53.333 64.667 82.333 96 87l-11 60c4 38.667 17.333 57 40 55l17 -2l15 -22
c-4 -38.667 11 -59.667 45 -63l-7 -58c-40.667 4.66699 -95 -22 -163 -80z" />
    <glyph glyph-name="p" unicode="p" horiz-adv-x="720" 
d="M593 869c23.333 -46.667 41.499 -100.834 54.499 -162.501s19.5 -132.167 19.5 -211.5c0 -78 -7.66699 -149.167 -23 -213.5s-36 -119.166 -62 -164.499c-26.667 -46 -56.167 -81.333 -88.5 -106s-66.833 -37 -103.5 -37c-35.333 0 -64.333 6.66699 -87 20s-41 29 -55 47
h-5v-296c0 -24 2.66699 -44 8 -60s14 -27.667 26 -35c9.33301 -6 22.833 -11.833 40.5 -17.5s32.167 -8.83398 43.5 -9.50098v-67h-328v67c12 1.33301 23.833 3 35.5 5s22.167 5.33301 31.5 10c12 6.66699 20.333 18.334 25 35.001s7 36.334 7 59.001v1049
c0 20 -3 39.333 -9 58s-13.667 33.667 -23 45c-7.33301 8 -17.333 14.167 -30 18.5s-25 7.16602 -37 8.49902v65l200 22l9 -12v-111l4 -2c20.667 40 46.334 73.333 77.001 100s61 40 91 40c36.667 0 70.167 -13 100.5 -39s56.5 -61 78.5 -105zM495.999 160
c16 41.333 27.6689 89.334 35.002 144.001s11 115.667 11 183c0 49.333 -3.16699 99.666 -9.5 150.999s-16.166 96 -29.499 134c-13.333 38.667 -31 70 -53 94s-48.333 36 -79 36c-29.333 0 -54.333 -10.833 -75 -32.5s-38.334 -47.5 -53.001 -77.5v-583
c3.33301 -18 9.16602 -36.667 17.499 -56s17.166 -36 26.499 -50c12.667 -16.667 26.167 -30.167 40.5 -40.5s31.833 -15.5 52.5 -15.5c22 0 43.333 9.83301 64 29.5s38 47.5 52 83.5z" />
    <glyph glyph-name="q" unicode="q" horiz-adv-x="854" 
d="M812 -444l-365.001 0.000976562v67c14.667 1.33301 28.834 3 42.501 5s25.834 5.33301 36.501 10c14 6.66699 23.833 18.334 29.5 35.001s8.5 36.334 8.5 59.001v364l-4 2c-7.33301 -12 -17.833 -25.833 -31.5 -41.5s-27.834 -28.5 -42.501 -38.5
c-18 -14 -35.5 -24.833 -52.5 -32.5s-38.167 -11.5 -63.5 -11.5c-40.667 0 -79.167 12.5 -115.5 37.5s-67.833 60.5 -94.5 106.5c-27.333 45.333 -48.833 101.166 -64.5 167.499s-23.5 139.166 -23.5 218.499c0 75.333 9.16699 143.833 27.5 205.5s42.5 115.5 72.5 161.5
c28.667 43.333 63.167 77.833 103.5 103.5s80.166 38.5 119.499 38.5c30 0 56.5 -4.16699 79.5 -12.5s42.833 -18.166 59.5 -29.499c14 -8.66699 28 -19.834 42 -33.501s24 -22.834 30 -27.501l58 130l39 -8c-1.33301 -49.333 -3.5 -110 -6.5 -182s-4.5 -135 -4.5 -189v-912
c0 -23.333 2.83301 -43.5 8.5 -60.5s15.167 -29.833 28.5 -38.5c11.333 -6.66699 25.333 -12.5 42 -17.5s30.334 -8.16699 41.001 -9.5v-67zM563.999 183.001l-0.000976562 589c-4 16.667 -10.333 35.167 -19 55.5s-19 38.166 -31 53.499
c-12.667 16 -28.167 29.333 -46.5 40s-39.5 16 -63.5 16c-53.333 0 -98.166 -40.333 -134.499 -121s-54.5 -191.667 -54.5 -333c0 -56 3.5 -106.667 10.5 -152s19.167 -87.666 36.5 -126.999c16.667 -37.333 37.5 -67.166 62.5 -89.499s56.5 -33.5 94.5 -33.5
c33.333 0 61.5 10.167 84.5 30.5s43.167 44.166 60.5 71.499z" />
    <glyph glyph-name="r" unicode="r" horiz-adv-x="652" 
d="M593 859c0 -34 -5.83203 -64.167 -17.499 -90.5s-29.5 -39.5 -53.5 -39.5c-26 0 -45.833 9.66699 -59.5 29s-20.5 40.666 -20.5 63.999c0 14.667 0.833008 28 2.5 40s3.16699 24 4.5 36c-21.333 0 -46.666 -12.667 -75.999 -38s-54 -61.333 -74 -108v-574
c0 -23.333 3 -42.333 9 -57s15.667 -25.667 29 -33c12 -6.66699 27.167 -11.667 45.5 -15s34.166 -5.66602 47.499 -6.99902v-66h-361v66l33 4c11.333 1.33301 21 4 29 8c13.333 6 23 16.5 29 31.5s9 34.5 9 58.5v609c0 20.667 -3.33301 41 -10 61s-16 36 -28 48
c-8.66699 8 -19 13.833 -31 17.5s-25 6.16699 -39 7.5v65l228 22l10 -14v-139h3c28.667 54 60.667 95 96 123s67.333 42 96 42c29.333 0 53.166 -13.667 71.499 -41s27.5 -64 27.5 -110z" />
    <glyph glyph-name="s" unicode="s" horiz-adv-x="544" 
d="M455 483c16 -24 28.3311 -51.6631 36.998 -82.9961s13 -69.666 13 -114.999c0 -91.333 -20 -166 -60 -224s-92 -87 -156 -87c-34 0 -65.167 10.333 -93.5 31s-48.5 39.667 -60.5 57l-12 -65h-44l-6 343h41c2.66699 -26 9.16699 -56.333 19.5 -91s22.833 -66 37.5 -94
c14.667 -29.333 32.834 -54 54.501 -74s45.834 -30 72.501 -30c37.333 0 66.166 14.5 86.499 43.5s30.5 70.5 30.5 124.5c0 28 -3.16699 52.167 -9.5 72.5s-15.833 38.166 -28.5 53.499c-13.333 15.333 -29.333 29.166 -48 41.499s-39.667 24.5 -63 36.5
c-18 9.33301 -38.333 22.166 -61 38.499s-42 35.5 -58 57.5c-17.333 23.333 -31.5 52 -42.5 86s-16.5 74 -16.5 120c0 80.667 17.667 149 53 205s82.666 84 141.999 84c22.667 0 45.834 -5 69.501 -15s42.834 -22 57.501 -36l14 52h42l9 -317h-41
c-8 70.667 -25.667 128.167 -53 172.5s-60.333 66.5 -99 66.5c-32.667 0 -58.167 -13.667 -76.5 -41s-27.5 -60.333 -27.5 -99c0 -30 3 -55 9 -75s15.333 -37 28 -51c11.333 -13.333 26 -25.833 44 -37.5s40 -24.834 66 -39.501c26 -14 50.5 -30.333 73.5 -49
s41.833 -39.334 56.5 -62.001z" />
    <glyph glyph-name="t" unicode="t" horiz-adv-x="569" 
d="M509 43c-32 -18 -62.333 -33.166 -91 -45.499s-64 -18.5 -106 -18.5c-61.333 0 -104.5 20.833 -129.5 62.5s-37.5 100.5 -37.5 176.5v668h-132v96h135v307h135v-307h210v-96h-208v-551c0 -41.333 1 -75.833 3 -103.5s7.33301 -51.834 16 -72.501
c8 -19.333 19.833 -34 35.5 -44s37.167 -15 64.5 -15c12 0 30 1.5 54 4.5s41 6.83301 51 11.5v-73z" />
    <glyph glyph-name="u" unicode="u" horiz-adv-x="907" 
d="M852 18l-239.998 -22l-11 14v125h-4c-12 -16.667 -25.5 -34.5 -40.5 -53.5s-32.167 -36.167 -51.5 -51.5c-22.667 -18 -44.5 -31.667 -65.5 -41s-50.5 -14 -88.5 -14c-65.333 0 -115 28.5 -149 85.5s-51 139.833 -51 248.5v472c0 24 -3.33301 44.167 -10 60.5
s-16.667 30.5 -30 42.5c-8.66699 8 -19.834 13.833 -33.501 17.5s-27.834 6.16699 -42.501 7.5v65l246 24l11 -14v-685c0 -71.333 12 -125 36 -161s52.667 -54 86 -54c27.333 0 51.666 5.66699 72.999 17s39.333 24.666 54 39.999c13.333 14 25 28.833 35 44.5
s18 30.167 24 43.5v559c0 22 -3.5 41.5 -10.5 58.5s-16.833 31.5 -29.5 43.5c-8.66699 8 -21.834 12.833 -39.501 14.5s-37.5 3.16699 -59.5 4.5v65l267 24l11 -14v-783c0 -22.667 3.5 -42 10.5 -58s16.833 -29.667 29.5 -41
c8.66699 -7.33301 19.334 -12.166 32.001 -14.499s26.334 -3.83301 41.001 -4.5v-65z" />
    <glyph glyph-name="v" unicode="v" horiz-adv-x="661" 
d="M640 925c-18 -5.33301 -34.833 -16.166 -50.5 -32.499s-29.5 -45.166 -41.5 -86.499l-71.5 -279.5l-77.5 -305.5c-8 -30.667 -16.333 -67 -25 -109l-25 -121h-46l-103 428.5l-98 396.5c-8 30.667 -20.667 54.5 -38 71.5s-35 27.833 -53 32.5v66h269v-70
c-11.333 -0.666992 -26 -4.83398 -44 -12.501s-27 -18.167 -27 -31.5c0 -2 1 -7.16699 3 -15.5s4 -17.833 6 -28.5l69 -285l72 -295l53.5 214l69.5 286l11 50.5c3.33301 15.667 5 31.5 5 47.5c0 11.333 -3.16699 21.5 -9.5 30.5s-14.166 16.833 -23.499 23.5
c-8.66699 6.66699 -17.334 11.667 -26.001 15s-16 5.66602 -22 6.99902v64h223v-61z" />
    <glyph glyph-name="w" unicode="w" horiz-adv-x="1010" 
d="M970 922c-17.333 -2.66699 -36.335 -14.3301 -57.002 -34.9971s-35.667 -51.667 -45 -93l-59 -278.5l-63 -295.5l-23 -112c-8 -40 -15 -78.333 -21 -115h-54l-167 726l-169 -726h-51l-93 440.5l-80 380.5c-6.66699 31.333 -19.5 56 -38.5 74s-37.167 28.667 -54.5 32v66
h277v-70c-13.333 -0.666992 -28.166 -4.33398 -44.499 -11.001s-24.5 -17.667 -24.5 -33c0 -2.66699 0.833008 -8.33398 2.5 -17.001l5.5 -28l45.5 -234.5l65.5 -336.5l159 710h61l162 -700l54 259.5c18 83.667 33.667 162.167 47 235.5
c2.66699 17.333 5.33398 33.166 8.00098 47.499s4 28.5 4 42.5c0 12 -3.33301 22.667 -10 32s-14.667 17 -24 23c-8.66699 5.33301 -18 9.33301 -28 12s-17 4 -21 4v64h236v-64z" />
    <glyph glyph-name="x" unicode="x" horiz-adv-x="717" 
d="M685 0l-301.001 0.00195312v66c20 3.33301 37 6.66602 51 9.99902s21 12 21 26c0 6 -2.33301 15.333 -7 28l-13 35l-46 104.5l-71 156.5l-63.5 -126.5l-61.5 -130.5c-3.33301 -6.66699 -6.66602 -15 -9.99902 -25s-5 -18 -5 -24c0 -14.667 6.33301 -26.834 19 -36.501
s31.667 -16.167 57 -19.5v-64h-243v62c30 13.333 54.333 29.5 73 48.5s35.667 42.5 51 70.5l58 110c24.667 46.667 56.334 110 95.001 190l-83 178.5l-81 175.5c-11.333 25.333 -24.5 45.833 -39.5 61.5s-35.833 23.5 -62.5 23.5v66h286v-66
c-14.667 0 -28.834 -1.33301 -42.501 -4s-20.5 -8.66699 -20.5 -18c0 -6 1.33301 -12.667 4 -20s6 -15.333 10 -24l46 -105l66 -150l55 112l57 122l5 17.5c2 7 3 13.833 3 20.5c0 14 -7.66699 25.167 -23 33.5s-30 14.166 -44 17.499v64h243v-62
c-34.667 -13.333 -61.5 -29.166 -80.5 -47.499s-35.167 -39.5 -48.5 -63.5l-52.5 -101l-84.5 -168l98 -210l77 -169c12.667 -29.333 27 -52.5 43 -69.5s37.667 -26.833 65 -29.5v-66z" />
    <glyph glyph-name="y" unicode="y" horiz-adv-x="733" 
d="M-7 -322c0 33.333 6.16309 60.499 18.4961 81.499s27.833 31.5 46.5 31.5c14.667 0 27.334 -4 38.001 -12s20.334 -18.333 29.001 -31c6.66699 -10 13.834 -23.667 21.501 -41l18.5 -43c23.333 18 51 65 83 141s55 142.667 69 200l-118.5 424l-111.5 387
c-8.66699 30.667 -23.334 54.5 -44.001 71.5s-41.334 27.833 -62.001 32.5v66h311v-70c-14 -0.666992 -30.667 -4.83398 -50 -12.501s-29 -18.167 -29 -31.5l4 -15c2.66699 -10 4.66699 -19.667 6 -29l80.5 -285.5l83.5 -298.5l64.5 221.5l75.5 270.5
c2.66699 12.667 7 30.167 13 52.5s9 41.5 9 57.5c0 17.333 -10.333 33.5 -31 48.5s-40.667 24.167 -60 27.5v64h253v-62c-14 -3.33301 -32.167 -14.833 -54.5 -34.5s-39.166 -47.5 -50.499 -83.5l-146 -503c-42.667 -151.333 -75 -262.666 -97 -333.999
c-29.333 -93.333 -55.333 -166.166 -78 -218.499s-44.667 -93.5 -66 -123.5c-21.333 -28 -40.666 -46.833 -57.999 -56.5s-35.333 -14.5 -54 -14.5c-35.333 0 -63.166 12.333 -83.499 37s-30.5 53 -30.5 85z" />
    <glyph glyph-name="z" unicode="z" horiz-adv-x="639" 
d="M574 0l-519.002 -0.000976562v53l363 852h-90c-37.333 0 -66.666 -1 -87.999 -3s-41 -8.66699 -59 -20c-12 -7.33301 -23.333 -28.333 -34 -63s-20 -80 -28 -136h-39v303h490v-41l-369 -864c16 -0.666992 33.333 -1.16699 52 -1.5s38.667 -0.5 60 -0.5
c17.333 0 35.5 0.333008 54.5 1s43.167 2.33398 72.5 5.00098c17.333 1.33301 30.5 10.333 39.5 27s15.833 35.667 20.5 57c4.66699 19.333 10.334 46 17.001 80s12.667 67 18 99h39v-348z" />
    <glyph glyph-name="braceleft" unicode="{" horiz-adv-x="881" 
d="M814 -333c-70 0 -132.999 4.83008 -188.999 14.4971s-103 27.834 -141 54.501c-38.667 27.333 -67.834 63.833 -87.501 109.5s-29.5 106.167 -29.5 181.5c0 40 2.5 83.167 7.5 129.5s7.5 87.833 7.5 124.5c0 48 -7 87.833 -21 119.5s-34.667 57.167 -62 76.5
c-26.667 19.333 -59.667 33.333 -99 42s-82 14.667 -128 18v129c46.667 4 90.167 10.833 130.5 20.5s72.833 23.5 97.5 41.5c28.667 20.667 49.5 46.834 62.5 78.501s19.5 70.167 19.5 115.5c0 38 -2.5 80 -7.5 126s-7.5 89 -7.5 129c0 69.333 9.83301 127.666 29.5 174.999
s48.834 85 87.501 113c38 27.333 85.333 46.166 142 56.499s119.334 15.5 188.001 15.5v-82c-26.667 -1.33301 -57.667 -4.83301 -93 -10.5s-63.333 -14.167 -84 -25.5c-24 -13.333 -43.5 -34.5 -58.5 -63.5s-22.5 -68.167 -22.5 -117.5v-234c0 -70 -8.33301 -128 -25 -174
s-41.334 -83.333 -74.001 -112c-30 -26.667 -65.667 -47.834 -107 -63.501s-87.333 -28.167 -138 -37.5v-31c48 -9.33301 93.167 -21.666 135.5 -36.999s78.833 -36.666 109.5 -63.999c31.333 -28 55.666 -65 72.999 -111s26 -104.333 26 -175v-233
c0 -47.333 7 -85.666 21 -114.999s34 -51.666 60 -66.999c24.667 -14 53.5 -23.333 86.5 -28s63.167 -7.66699 90.5 -9v-80z" />
    <glyph glyph-name="bar" unicode="|" horiz-adv-x="768" 
d="M448 -424h-127v1947h127v-1947z" />
    <glyph glyph-name="braceright" unicode="}" horiz-adv-x="881" 
d="M809 537c-46 -3.33301 -88.832 -9.49805 -128.499 -18.498s-72.5 -22.833 -98.5 -41.5c-27.333 -19.333 -48 -44.833 -62 -76.5s-21 -71.5 -21 -119.5c0 -36.667 2.5 -78.167 7.5 -124.5s7.5 -89.5 7.5 -129.5c0 -75.333 -9.83301 -135.833 -29.5 -181.5
s-48.834 -82.167 -87.501 -109.5c-37.333 -26 -84.166 -44 -140.499 -54s-119.5 -15 -189.5 -15v80c27.333 1.33301 57.666 4.33301 90.999 9s62 14 86 28c26 15.333 46 37.666 60 66.999s21 67.666 21 114.999v233c0 70.667 8.66699 129 26 175s41.666 83 72.999 111
c30.667 27.333 67.167 48.666 109.5 63.999s87.5 27.666 135.5 36.999v31c-50.667 9.33301 -96.667 21.833 -138 37.5s-77 36.834 -107 63.501c-32.667 28.667 -57.334 66 -74.001 112s-25 104 -25 174v234c0 49.333 -7.5 88.5 -22.5 117.5s-34.5 50.167 -58.5 63.5
c-20.667 11.333 -48.667 19.833 -84 25.5s-66.333 9.16699 -93 10.5v82c68.667 0 131.334 -5.16699 188.001 -15.5s104 -29.166 142 -56.499c38.667 -28 67.834 -65.667 87.501 -113s29.5 -105.666 29.5 -174.999c0 -40 -2.5 -83 -7.5 -129s-7.5 -88 -7.5 -126
c0 -45.333 6.5 -83.833 19.5 -115.5s33.833 -57.834 62.5 -78.501c24.667 -17.333 57.167 -31 97.5 -41s83.833 -17 130.5 -21v-129z" />
    <glyph glyph-name="asciitilde" unicode="~" horiz-adv-x="1317" 
d="M1187 714c-9.33301 -24.667 -24.835 -55.5 -46.502 -92.5s-45.834 -68.833 -72.501 -95.5c-32.667 -32.667 -67.167 -58.5 -103.5 -77.5s-75.833 -28.5 -118.5 -28.5c-48 0 -92 7.16699 -132 21.5s-76.667 29.833 -110 46.5c-34 17.333 -67.5 33 -100.5 47
s-66.167 21 -99.5 21c-44.667 0 -81.5 -15.333 -110.5 -46s-57.5 -74 -85.5 -130l-78 31c8.66699 25.333 24.167 56 46.5 92s46.833 68 73.5 96c26 28 59.167 52.667 99.5 74s80.833 32 121.5 32c49.333 0 93.833 -7.16699 133.5 -21.5s76.5 -29.833 110.5 -46.5l98.5 -47.5
c29.667 -13.667 62.834 -20.5 99.501 -20.5c46.667 0 84.834 16.333 114.501 49s56.834 75 81.501 127z" />
    <glyph glyph-name="exclamdown" unicode="&#xa1;" horiz-adv-x="678" 
d="M481 1309c0 -37.333 -13.5 -69.166 -40.5 -95.499s-59.167 -39.5 -96.5 -39.5s-69.5 13.167 -96.5 39.5s-40.5 58.166 -40.5 95.499s13.5 69.5 40.5 96.5s59.167 40.5 96.5 40.5s69.5 -13.5 96.5 -40.5s40.5 -59.167 40.5 -96.5zM472 103c0 -38 -11.999 -70 -35.999 -96
s-54.667 -39 -92 -39s-68 12.833 -92 38.5s-36 57.834 -36 96.501c0 43.333 10.667 154.166 32 332.499s39.666 363.833 54.999 556.5h78c15.333 -161.333 34.333 -340.333 57 -537s34 -314 34 -352z" />
    <glyph glyph-name="cent" unicode="&#xa2;" horiz-adv-x="1137" 
d="M1040 234c-39.333 -66.667 -93.166 -124.168 -161.499 -172.501s-144.166 -75.166 -227.499 -80.499v-280h-82v281c-136.667 12 -242.167 65.5 -316.5 160.5s-111.5 213.833 -111.5 356.5c0 128.667 39.667 241.834 119 339.501s182.333 154.834 309 171.501v265h82v-260
c97.333 -0.666992 178.666 -24.5 243.999 -71.5s98 -109.833 98 -188.5c0 -40.667 -8.83301 -72 -26.5 -94s-44.167 -33 -79.5 -33c-43.333 0 -74.5 10 -93.5 30s-28.5 42.333 -28.5 67c0 30 4.83301 60.667 14.5 92s15.167 54.666 16.5 69.999
c-11.333 17.333 -30.333 30.666 -57 39.999s-56 15 -88 17v-856c3.33301 0 6.33301 -0.166992 9 -0.5s6.33398 -0.5 11.001 -0.5c69.333 0 128.166 16.167 176.499 48.5s93.166 80.5 134.499 144.5zM569 99.999l0.00195312 838.999
c-29.333 -7.33301 -57.333 -21.166 -84 -41.499s-50.334 -47.166 -71.001 -80.499s-37.5 -76.5 -50.5 -129.5s-19.5 -113.167 -19.5 -180.5c0 -106.667 19.667 -195.334 59 -266.001s94.666 -117.667 165.999 -141z" />
    <glyph glyph-name="sterling" unicode="&#xa3;" horiz-adv-x="1274" 
d="M299 177l866.001 0.000976562v-177h-1048v148c46 15.333 83.5 39.666 112.5 72.999s51.167 72 66.5 116c14.667 40.667 25 85.5 31 134.5s9 98.833 9 149.5h-167v96h167l-9 120c-4 53.333 -6 97.333 -6 132c0 141.333 42.167 257.833 126.5 349.5
s193.833 137.5 328.5 137.5c58.667 0 110.167 -9 154.5 -27s80.833 -40.333 109.5 -67c29.333 -28 52 -59.5 68 -94.5s24 -70.833 24 -107.5c0 -33.333 -8 -62.5 -24 -87.5s-42.667 -37.5 -80 -37.5c-39.333 0 -70.333 9.83301 -93 29.5s-34 42.167 -34 67.5
c0 29.333 4.16699 59.666 12.5 90.999s14.166 54.333 17.499 69c-8.66699 18.667 -27 37.334 -55 56.001s-62.667 28 -104 28c-23.333 0 -48.5 -3.33301 -75.5 -10s-54.167 -21 -81.5 -43c-26 -21.333 -47.333 -51.666 -64 -90.999s-25 -89 -25 -149
c0 -42.667 1.66699 -101.834 5 -177.501s5 -138.5 5 -188.5h396v-96h-396c0 -90.667 -20 -173.167 -60 -247.5s-99 -136.833 -177 -187.5v-9z" />
    <glyph glyph-name="currency" unicode="&#xa4;" 
 />
    <glyph glyph-name="yen" unicode="&#xa5;" horiz-adv-x="1259" 
d="M1282 1348c-11.333 -0.666992 -29.332 -5.16309 -53.999 -13.4961s-42.334 -16.5 -53.001 -24.5c-26 -16 -43.833 -28.167 -53.5 -36.5s-27.5 -31.166 -53.5 -68.499c-75.333 -112 -134.166 -204.5 -176.499 -277.5l-165.5 -284.5v-83h393v-96h-393v-257
c0 -24 4.33301 -44.833 13 -62.5s23.667 -31.834 45 -42.501c12 -5.33301 34.167 -11.666 66.5 -18.999s58.5 -11.333 78.5 -12v-71h-610v71c16 1.33301 40.833 3.66602 74.5 6.99902s57.167 8 70.5 14c19.333 8.66699 33.666 21.5 42.999 38.5s14 39.167 14 66.5v267h-393
v96h393v64c-58 117.333 -107.333 212.666 -148 285.999l-150 268c-22 38 -41.5 66.667 -58.5 86s-36.5 36.333 -58.5 51c-16 10 -35.167 17.667 -57.5 23s-42.5 8.66602 -60.5 9.99902v71h579v-71c-64.667 -2.66699 -108.667 -7.33398 -132 -14.001s-35 -18 -35 -34
c0 -7.33301 5.66699 -22.666 17 -45.999s31 -61 59 -113l87.5 -159.5l124.5 -223.5l202.5 340c59 100 88.5 158.333 88.5 175c0 15.333 -5 27.666 -15 36.999s-23.667 16.666 -41 21.999c-18 5.33301 -35.667 8.83301 -53 10.5l-60 5.5v71h472v-71z" />
    <glyph glyph-name="brokenbar" unicode="&#xa6;" horiz-adv-x="532" 
 />
    <glyph glyph-name="section" unicode="&#xa7;" horiz-adv-x="1024" 
d="M903 634c0 -66.667 -22.3291 -128.836 -66.9961 -186.503s-105.667 -100.834 -183 -129.501c73.333 -31.333 126.333 -69 159 -113s49 -95.333 49 -154c0 -43.333 -9.33301 -84 -28 -122s-45.334 -70.667 -80.001 -98c-37.333 -28.667 -79.333 -50.667 -126 -66
s-103.334 -23 -170.001 -23c-60.667 0 -109.834 5.83301 -147.501 17.5s-67.834 26.5 -90.501 44.5s-38.5 36.667 -47.5 56s-13.5 37.333 -13.5 54c0 29.333 8.5 53.5 25.5 72.5s41.5 28.5 73.5 28.5c22.667 0 41.667 -6.33301 57 -19s28 -27.334 38 -44.001
c10.667 -16.667 21 -37 31 -61s19 -44.667 27 -62c10.667 -2.66699 22.167 -5 34.5 -7s28.5 -3 48.5 -3c60.667 0 111.834 18.5 153.501 55.5s62.5 78.833 62.5 125.5c0 40.667 -17.167 80.167 -51.5 118.5s-110.166 79.833 -227.499 124.5
c-112.667 44 -192.334 94.5 -239.001 151.5s-70 124.167 -70 201.5c0 63.333 19.667 121 59 173s100 95.667 182 131c-71.333 34 -123.166 71.5 -155.499 112.5s-48.5 90.5 -48.5 148.5c0 41.333 8.66699 79.333 26 114s43.666 65.667 78.999 93
c32.667 26 75 46.833 127 62.5s108.667 23.5 170 23.5c60 0 109.667 -6.16699 149 -18.5s69.666 -27.166 90.999 -44.499s36.333 -36.166 45 -56.499s13 -38.5 13 -54.5c0 -30.667 -8.66699 -54.834 -26 -72.501s-41.666 -26.5 -72.999 -26.5
c-21.333 0 -39.666 6 -54.999 18s-28.666 27 -39.999 45c-12.667 20.667 -22.834 40.667 -30.501 60s-16.834 40.333 -27.501 63c-9.33301 2.66699 -22 5 -38 7s-31 3 -45 3c-61.333 0 -111.833 -17.333 -151.5 -52s-59.5 -77 -59.5 -127c0 -27.333 7 -51.166 21 -71.499
s34 -39.166 60 -56.499c26 -18 61.5 -36.833 106.5 -56.5l118.5 -50.5c99.333 -41.333 171.666 -89.166 216.999 -143.499s68 -116.166 68 -185.499zM748.004 586.998c0 58.667 -25.833 110.666 -77.5 155.999s-126.5 85 -224.5 119
c-61.333 -25.333 -105.333 -57.166 -132 -95.499s-40 -81.833 -40 -130.5c0 -65.333 25.167 -119.333 75.5 -162s127.833 -85 232.5 -127c61.333 34.667 104.333 71.5 129 110.5s37 82.167 37 129.5z" />
    <glyph glyph-name="dieresis" unicode="&#xa8;" horiz-adv-x="1024" 
d="M845 1364c0 -34 -11.5 -63 -34.5 -87s-50.833 -36 -83.5 -36s-60.5 12 -83.5 36s-34.5 53 -34.5 87s11.5 63 34.5 87s50.833 36 83.5 36s60.5 -12 83.5 -36s34.5 -53 34.5 -87zM415 1364c0 -34 -11.5 -63 -34.5 -87s-50.833 -36 -83.5 -36s-60.5 12 -83.5 36
s-34.5 53 -34.5 87s11.5 63 34.5 87s50.833 36 83.5 36s60.5 -12 83.5 -36s34.5 -53 34.5 -87z" />
    <glyph glyph-name="copyright" unicode="&#xa9;" horiz-adv-x="1929" 
d="M1849 602c0 -244 -86.5 -452.167 -259.5 -624.5s-381.5 -258.5 -625.5 -258.5s-452.333 86.167 -625 258.5s-259 380.5 -259 624.5s86.333 452.167 259 624.5s381 258.5 625 258.5s452.5 -86.167 625.5 -258.5s259.5 -380.5 259.5 -624.5zM1750 602
c0 216.667 -76.333 403.334 -229 560.001s-338.334 235 -557.001 235s-404.167 -78.333 -556.5 -235s-228.5 -343.334 -228.5 -560.001s76.167 -403.334 228.5 -560.001s337.833 -235 556.5 -235s404.334 78.333 557.001 235s229 343.334 229 560.001zM1375 404
c-14 -34.667 -32.5029 -70 -55.5029 -106s-49.833 -67 -80.5 -93c-34.667 -29.333 -71.667 -52.333 -111 -69s-88 -25 -146 -25c-71.333 0 -137.166 11 -197.499 33s-112.5 54.333 -156.5 97c-43.333 42 -76.833 92.667 -100.5 152s-35.5 125.666 -35.5 198.999
c0 70 12.667 135.333 38 196s61.333 114 108 160c44.667 44 99.5 79 164.5 105s134.5 39 208.5 39c38.667 0 79.5 -6.66699 122.5 -20s75.167 -28 96.5 -44l45 66h59l5 -363h-54c-13.333 40 -27.166 76.167 -41.499 108.5s-34.166 62.833 -59.499 91.5
c-23.333 26.667 -52 48 -86 64s-76 24 -126 24c-80 0 -145.5 -37.167 -196.5 -111.5s-76.5 -176.166 -76.5 -305.499c0 -122 30.833 -218.5 92.5 -289.5s138.834 -106.5 231.501 -106.5c67.333 0 124.666 17.833 171.999 53.5s88 92.167 122 169.5z" />
    <glyph glyph-name="ordfeminine" unicode="&#xaa;" horiz-adv-x="1024" 
d="M933 648c-26 -8.66699 -49.835 -16.0039 -71.502 -22.0039s-45.167 -9 -70.5 -9c-43.333 0 -77.833 10.5 -103.5 31.5s-42.167 50.5 -49.5 88.5h-5c-36.667 -38.667 -76.667 -69 -120 -91s-93 -33 -149 -33c-59.333 0 -108.833 19 -148.5 57s-59.5 85.667 -59.5 143
c0 34 4.66699 64 14 90s22 48.667 38 68c16 17.333 34.333 31.166 55 41.499s42 19.833 64 28.5c46.667 18.667 100.834 37.5 162.501 56.5s110.167 37.833 145.5 56.5v55c0 6.66699 -1.83301 20.334 -5.5 41.001s-10.167 39.334 -19.5 56.001
c-10.667 20 -26.667 37.5 -48 52.5s-49.666 22.5 -84.999 22.5c-22 0 -43.167 -4.16699 -63.5 -12.5s-35.5 -17.5 -45.5 -27.5c1.33301 -10 4.16602 -25.167 8.49902 -45.5s6.5 -37.833 6.5 -52.5c0 -19.333 -10.333 -36.166 -31 -50.499s-46.334 -21.5 -77.001 -21.5
c-29.333 0 -50.166 10.167 -62.499 30.5s-18.5 42.166 -18.5 65.499c0 50.667 32 94.334 96 131.001s129.667 55 197 55c44.667 0 85.5 -3.5 122.5 -10.5s69.167 -19.833 96.5 -38.5c28.667 -20 50.834 -46.667 66.501 -80s23.5 -78 23.5 -134
c0 -77.333 -0.833008 -144.166 -2.5 -200.499s-2.5 -120.166 -2.5 -191.499c0 -20 3.83301 -36.333 11.5 -49s19.5 -23.334 35.5 -32.001c10 -5.33301 23.833 -8.16602 41.5 -8.49902s35.5 -0.5 53.5 -0.5v-60zM635.998 1075
c-51.333 -15.333 -92.832 -28.502 -124.499 -39.502s-63.167 -25.833 -94.5 -44.5c-26.667 -16 -47.667 -35.667 -63 -59s-23 -50.666 -23 -81.999c0 -44 10.667 -76.333 32 -97s49.666 -31 84.999 -31c45.333 0 82.333 8.83301 111 26.5s53 37.834 73 60.501z" />
    <glyph glyph-name="guillemotleft" unicode="&#xab;" horiz-adv-x="1190" 
d="M997 160l-49 -40l-355 332c-6 5.33301 -14.5 14.333 -25.5 27s-16.5 29 -16.5 49s5.5 36.333 16.5 49s20.5 23 28.5 31l352 329l49 -41l-259 -367zM616 160l-48.999 -40l-355 332c-6 5.33301 -14.5 14.333 -25.5 27s-16.5 29 -16.5 49s5.16699 36 15.5 48
s20.166 22.667 29.499 32l352 329l49 -41l-259 -367z" />
    <glyph glyph-name="logicalnot" unicode="&#xac;" horiz-adv-x="1317" 
d="M1163 76h-132v451h-887v125h1019v-576z" />
    <glyph glyph-name="registered" unicode="&#xae;" horiz-adv-x="1929" 
d="M1849 602c0 -244 -86.5 -452.167 -259.5 -624.5s-381.5 -258.5 -625.5 -258.5s-452.333 86.167 -625 258.5s-259 380.5 -259 624.5s86.333 452.167 259 624.5s381 258.5 625 258.5s452.5 -86.167 625.5 -258.5s259.5 -380.5 259.5 -624.5zM1750 602
c0 216.667 -76.333 403.334 -229 560.001s-338.334 235 -557.001 235s-404.167 -78.333 -556.5 -235s-228.5 -343.334 -228.5 -560.001s76.167 -403.334 228.5 -560.001s337.833 -235 556.5 -235s404.334 78.333 557.001 235s229 343.334 229 560.001zM1542 145
l-287 -0.000976562c-63.333 89.333 -118.333 163.833 -165 223.5l-143 180.5h-105v-262c0 -14.667 2.83301 -28.167 8.5 -40.5s16.834 -21.5 33.501 -27.5c7.33301 -2.66699 22.666 -5.83398 45.999 -9.50098s41 -5.83398 53 -6.50098v-58h-439v58
c12 1.33301 28.333 3.33301 49 6s36 6 46 10c14.667 6 25.167 14.667 31.5 26s9.5 25.333 9.5 42v642c0 16 -2.33301 29.833 -7 41.5s-16 20.5 -34 26.5c-14 4.66699 -30 8.83398 -48 12.501s-33.667 6.16699 -47 7.5v58h492c37.333 0 74 -4 110 -12s68.667 -20.667 98 -38
c28.667 -17.333 52 -40.166 70 -68.499s27 -62.5 27 -102.5c0 -72.667 -19.833 -129.667 -59.5 -171s-98.167 -72.666 -175.5 -93.999l136.5 -166.5l99.5 -123.5c18.667 -23.333 37 -40.666 55 -51.999s35.333 -19.666 52 -24.999
c13.333 -4.66699 29.333 -8.83398 48 -12.501s33.667 -5.83398 45 -6.50098v-58zM1155 833.999c0 55.333 -16.667 97.333 -50 126s-82.333 43 -147 43h-116v-378h87c69.333 0 124.333 18.333 165 55s61 88 61 154z" />
    <glyph glyph-name="macron" unicode="&#xaf;" horiz-adv-x="1131" 
 />
    <glyph glyph-name="degree" unicode="&#xb0;" horiz-adv-x="859" 
d="M755 1128c0 -91.333 -30.5 -168.333 -91.5 -231s-139.167 -94 -234.5 -94c-96 0 -174.167 31.667 -234.5 95s-90.5 140 -90.5 230c0 94 31 171.667 93 233s139.333 92 232 92c95.333 0 173.5 -31.333 234.5 -94s91.5 -139.667 91.5 -231zM607 1120
c0 83.333 -16.332 147.167 -48.999 191.5s-76 66.5 -130 66.5c-54.667 0 -97.667 -22.333 -129 -67s-47 -104.667 -47 -180c0 -78 15.667 -139.667 47 -185s75.666 -68 132.999 -68c44.667 0 85 20.5 121 61.5s54 101.167 54 180.5z" />
    <glyph glyph-name="plusminus" unicode="&#xb1;" horiz-adv-x="1317" 
d="M1168 0h-1019v125h446v402h-446v125h446v451h127v-451h446v-125h-446v-402h446v-125z" />
    <glyph glyph-name="uni00B2" unicode="&#xb2;" horiz-adv-x="682" 
 />
    <glyph glyph-name="uni00B3" unicode="&#xb3;" horiz-adv-x="682" 
 />
    <glyph glyph-name="acute" unicode="&#xb4;" horiz-adv-x="1024" 
d="M696 1460c0 -25.333 -5.83105 -46.001 -17.498 -62.001s-28.834 -33 -51.501 -51l-130.5 -102l-173.5 -135l-38 32l125.5 187.5l76.5 120.5c20.667 34 40.667 57.167 60 69.5s41.666 18.5 66.999 18.5c24 0 43.667 -8.16699 59 -24.5s23 -34.166 23 -53.499z" />
    <glyph glyph-name="mu" unicode="&#xb5;" horiz-adv-x="1160" 
d="M1133 19c-31.333 -11.333 -59.166 -20.4951 -83.499 -27.4951s-51.5 -10.5 -81.5 -10.5c-51.333 0 -94.166 13 -128.499 39s-55.833 64.333 -64.5 115h-6l-57.5 -58c-21.667 -21.333 -42.834 -38 -63.501 -50c-27.333 -16 -54 -28 -80 -36s-64 -12 -114 -12
c-38.667 0 -75.667 8 -111 24s-61.666 35 -78.999 57h-6v-58c0 -45.333 8.83301 -106 26.5 -182s26.5 -130 26.5 -162c0 -32.667 -10.333 -57.834 -31 -75.501s-43.334 -26.5 -68.001 -26.5c-26.667 0 -48.5 9 -65.5 27s-25.5 42.333 -25.5 73c0 39.333 6 90.666 18 153.999
s20 112 24 146c4.66699 36.667 7.83398 69.5 9.50098 98.5s2.5 56.167 2.5 81.5v850h189v-677c0 -69.333 15.5 -122.833 46.5 -160.5s70.167 -56.5 117.5 -56.5c36.667 0 69.5 5.33301 98.5 16s52.5 23 70.5 37c16.667 13.333 31.667 27.666 45 42.999
s23.666 29.666 30.999 42.999v755h189v-784c0 -28.667 4.33301 -51.334 13 -68.001s23 -30 43 -40c11.333 -6 27.666 -9.33301 48.999 -10s43.333 -1 66 -1v-64z" />
    <glyph glyph-name="paragraph" unicode="&#xb6;" horiz-adv-x="1024" 
d="M1000 1345h-110.999v-1561h-103v1561h-160v-1561h-103v922c-128.667 0 -231.5 30.833 -308.5 92.5s-115.5 148.5 -115.5 260.5c0 108 35.667 195 107 261s163.666 99 276.999 99h517v-74z" />
    <glyph glyph-name="periodcentered" unicode="&#xb7;" horiz-adv-x="572" 
d="M425 559c0 -37.333 -13.5 -69.166 -40.5 -95.499s-59.167 -39.5 -96.5 -39.5s-69.5 13.167 -96.5 39.5s-40.5 58.166 -40.5 95.499s13.5 69.5 40.5 96.5s59.167 40.5 96.5 40.5s69.5 -13.5 96.5 -40.5s40.5 -59.167 40.5 -96.5z" />
    <glyph glyph-name="periodcentered" unicode="&#x2219;" horiz-adv-x="572" 
d="M425 559c0 -37.333 -13.5 -69.166 -40.5 -95.499s-59.167 -39.5 -96.5 -39.5s-69.5 13.167 -96.5 39.5s-40.5 58.166 -40.5 95.499s13.5 69.5 40.5 96.5s59.167 40.5 96.5 40.5s69.5 -13.5 96.5 -40.5s40.5 -59.167 40.5 -96.5z" />
    <glyph glyph-name="cedilla" unicode="&#xb8;" horiz-adv-x="682" 
 />
    <glyph glyph-name="uni00B9" unicode="&#xb9;" horiz-adv-x="682" 
 />
    <glyph glyph-name="ordmasculine" unicode="&#xba;" horiz-adv-x="1024" 
d="M908 1038c0 -123.333 -36.333 -226.168 -109 -308.501s-171 -123.5 -295 -123.5c-107.333 0 -198.833 39.333 -274.5 118s-113.5 179.667 -113.5 303c0 124.667 37 226.834 111 306.501s170.667 119.5 290 119.5c116 0 210.167 -38.667 282.5 -116s108.5 -177 108.5 -299
zM673 784.998c16 31.333 28.335 68.5 37.002 111.5s13 89.5 13 139.5c0 42 -3.5 83.667 -10.5 125s-18.5 78 -34.5 110c-16.667 32.667 -38.334 58.834 -65.001 78.501s-59.334 29.5 -98.001 29.5c-40.667 0 -75 -10.167 -103 -30.5s-50.333 -47.5 -67 -81.5
c-16.667 -32 -28.334 -68.833 -35.001 -110.5s-10 -80.5 -10 -116.5c0 -50 4 -96.333 12 -139s20.667 -80.334 38 -113.001s39.5 -58.834 66.5 -78.501s59.5 -29.5 97.5 -29.5c36 0 67.333 9.33301 94 28s48.334 44.334 65.001 77.001z" />
    <glyph glyph-name="guillemotright" unicode="&#xbb;" horiz-adv-x="1190" 
d="M1020 528c0 -21.333 -5.66699 -38.167 -17 -50.5s-19.666 -20.833 -24.999 -25.5l-355 -332l-49 40l259 369l-259 367l49 41l352 -329c7.33301 -6.66699 16.666 -17.5 27.999 -32.5s17 -30.833 17 -47.5zM639 527.999c0 -21.333 -5.66895 -38.167 -17.002 -50.5
s-19.666 -20.833 -24.999 -25.5l-355 -332l-49 40l259 369l-259 367l49 41l352 -329c6.66699 -6 15.834 -16.167 27.501 -30.5s17.5 -30.833 17.5 -49.5z" />
    <glyph glyph-name="onequarter" unicode="&#xbc;" horiz-adv-x="1708" 
 />
    <glyph glyph-name="onehalf" unicode="&#xbd;" horiz-adv-x="1708" 
 />
    <glyph glyph-name="threequarters" unicode="&#xbe;" horiz-adv-x="1708" 
 />
    <glyph glyph-name="questiondown" unicode="&#xbf;" horiz-adv-x="980" 
d="M723 1311c0 -37.333 -13.5 -69.5 -40.5 -96.5s-59.167 -40.5 -96.5 -40.5s-69.5 13.5 -96.5 40.5s-40.5 59.167 -40.5 96.5s13.5 69.166 40.5 95.499s59.167 39.5 96.5 39.5s69.5 -13.167 96.5 -39.5s40.5 -58.166 40.5 -95.499zM874 205
c0 -26.667 -7.33301 -52.833 -22 -78.5s-37.667 -50.5 -69 -74.5c-27.333 -20.667 -63.666 -38.834 -108.999 -54.501s-92.666 -23.5 -141.999 -23.5c-70.667 0 -133.167 11 -187.5 33s-99.5 52 -135.5 90c-36.667 38.667 -63.834 82.167 -81.501 130.5
s-26.5 100.833 -26.5 157.5c0 123.333 39.333 224 118 302s186.667 125 324 141v221h92v-379c-42 -3.33301 -83.667 -10.166 -125 -20.499s-78.333 -27.166 -111 -50.499c-34 -24.667 -60.5 -54.5 -79.5 -89.5s-28.5 -83.833 -28.5 -146.5c0 -100 21.167 -176.667 63.5 -230
s104.166 -80 185.499 -80c30.667 0 57.5 4.5 80.5 13.5s39.833 17.5 50.5 25.5c-3.33301 16 -7.83301 39 -13.5 69s-8.5 53 -8.5 69c0 24.667 10.667 47.167 32 67.5s52.333 30.5 93 30.5c36 0 61.667 -12.333 77 -37s23 -53.334 23 -86.001z" />
    <glyph glyph-name="Agrave" unicode="&#xc0;" horiz-adv-x="1374" 
d="M1421 0l-591.002 0.000976562v71c52 3.33301 95.167 10 129.5 20s51.5 22.333 51.5 37c0 6 -0.666992 13.333 -2 22s-3.33301 16.334 -6 23.001l-118 318h-497c-18.667 -46.667 -33.834 -87.334 -45.501 -122.001l-31.5 -96c-8.66699 -28.667 -14.667 -52 -18 -70
s-5 -32.667 -5 -44c0 -26.667 21 -47.334 63 -62.001s89.333 -23.334 142 -26.001v-71h-534v71c17.333 1.33301 39 5.16602 65 11.499s47.333 14.833 64 25.5c26.667 18 47.334 36.833 62.001 56.5s29 46.834 43 81.501l236 600l230 593h80l473 -1224
c10 -26 21.333 -47 34 -63s30.334 -31.667 53.001 -47c15.333 -9.33301 35.333 -17.166 60 -23.499s45.334 -9.83301 62.001 -10.5v-71zM848.998 580.001l-215 550l-211 -550h426zM938.998 1546l-31 -39.001l-209.5 102l-136.5 66
c-32.667 16.667 -56.167 32.834 -70.5 48.501s-21.5 37.167 -21.5 64.5c0 23.333 8.33301 42.5 25 57.5s39 22.5 67 22.5c20 0 38.5 -4.5 55.5 -13.5s36.833 -25.5 59.5 -49.5l103.5 -105.5z" />
    <glyph glyph-name="Aacute" unicode="&#xc1;" horiz-adv-x="1366" 
 />
    <glyph glyph-name="Acircumflex" unicode="&#xc2;" horiz-adv-x="1366" 
 />
    <glyph glyph-name="Atilde" unicode="&#xc3;" horiz-adv-x="1374" 
d="M1421 0l-591.002 0.000976562v71c52 3.33301 95.167 10 129.5 20s51.5 22.333 51.5 37c0 6 -0.666992 13.333 -2 22s-3.33301 16.334 -6 23.001l-118 318h-497c-18.667 -46.667 -33.834 -87.334 -45.501 -122.001l-31.5 -96c-8.66699 -28.667 -14.667 -52 -18 -70
s-5 -32.667 -5 -44c0 -26.667 21 -47.334 63 -62.001s89.333 -23.334 142 -26.001v-71h-534v71c17.333 1.33301 39 5.16602 65 11.499s47.333 14.833 64 25.5c26.667 18 47.334 36.833 62.001 56.5s29 46.834 43 81.501l236 600l230 593h80l473 -1224
c10 -26 21.333 -47 34 -63s30.334 -31.667 53.001 -47c15.333 -9.33301 35.333 -17.166 60 -23.499s45.334 -9.83301 62.001 -10.5v-71zM848.998 580.001l-215 550l-211 -550h426zM1087 1825c-6.66699 -25.333 -16.665 -51.333 -29.998 -78s-31.666 -53 -54.999 -79
c-24 -26 -49.167 -46.833 -75.5 -62.5s-57.833 -23.5 -94.5 -23.5c-38 0 -71.333 5.5 -100 16.5s-53.334 22.5 -74.001 34.5c-23.333 13.333 -45.5 25.333 -66.5 36s-44.167 16 -69.5 16c-20.667 0 -36.167 -2.66699 -46.5 -8s-21.166 -14.333 -32.499 -27
c-10.667 -12 -21.334 -27.833 -32.001 -47.5l-30 -53.5l-58 25c6.66699 21.333 18 47 34 77s33.333 56.333 52 79c20 24 44.333 44.5 73 61.5s58.667 25.5 90 25.5c37.333 0 69.5 -5.5 96.5 -16.5s51.833 -22.833 74.5 -35.5l64 -36c17.333 -10 38.666 -15 63.999 -15
c26.667 0 48.167 3.16699 64.5 9.5s29.166 15.166 38.499 26.499c10.667 12.667 19.5 26.334 26.5 41.001s15.5 33.667 25.5 57z" />
    <glyph glyph-name="Adieresis" unicode="&#xc4;" horiz-adv-x="1374" 
d="M1421 0l-591.002 0.000976562v71c52 3.33301 95.167 10 129.5 20s51.5 22.333 51.5 37c0 6 -0.666992 13.333 -2 22s-3.33301 16.334 -6 23.001l-118 318h-497c-18.667 -46.667 -33.834 -87.334 -45.501 -122.001l-31.5 -96c-8.66699 -28.667 -14.667 -52 -18 -70
s-5 -32.667 -5 -44c0 -26.667 21 -47.334 63 -62.001s89.333 -23.334 142 -26.001v-71h-534v71c17.333 1.33301 39 5.16602 65 11.499s47.333 14.833 64 25.5c26.667 18 47.334 36.833 62.001 56.5s29 46.834 43 81.501l236 600l230 593h80l473 -1224
c10 -26 21.333 -47 34 -63s30.334 -31.667 53.001 -47c15.333 -9.33301 35.333 -17.166 60 -23.499s45.334 -9.83301 62.001 -10.5v-71zM848.998 580.001l-215 550l-211 -550h426zM1038 1718c0 -34 -11.5 -63 -34.5 -87s-50.833 -36 -83.5 -36s-60.5 12 -83.5 36
s-34.5 53 -34.5 87s11.5 63 34.5 87s50.833 36 83.5 36s60.5 -12 83.5 -36s34.5 -53 34.5 -87zM587.998 1718c0 -34 -11.5 -63 -34.5 -87s-50.833 -36 -83.5 -36s-60.5 12 -83.5 36s-34.5 53 -34.5 87s11.5 63 34.5 87s50.833 36 83.5 36s60.5 -12 83.5 -36
s34.5 -53 34.5 -87z" />
    <glyph glyph-name="Aring" unicode="&#xc5;" horiz-adv-x="1374" 
d="M1421 0l-591.001 0.000976562v71c52 3.33301 95.167 10 129.5 20s51.5 22.333 51.5 37c0 6 -0.666992 13.333 -2 22s-3.33301 16.334 -6 23.001l-118 318h-497c-18.667 -46.667 -33.834 -87.334 -45.501 -122.001l-31.5 -96c-8.66699 -28 -14.667 -51.167 -18 -69.5
s-5 -33.166 -5 -44.499c0 -26.667 21 -47.334 63 -62.001s89.333 -23.334 142 -26.001v-71h-534v71c17.333 1.33301 39.166 5.16602 65.499 11.499s47.5 14.833 63.5 25.5c26.667 18 47.334 36.833 62.001 56.5s29 46.834 43 81.501l226.5 577l234.5 602
c-67.333 8 -120 31.833 -158 71.5s-57 89.5 -57 149.5c0 65.333 25 118.666 75 159.999s111 62 183 62c74.667 0 136.334 -20.167 185.001 -60.5s73 -94.166 73 -161.499c0 -57.333 -19.333 -106.333 -58 -147s-89.667 -65 -153 -73l468 -1211c10 -26 21.333 -47 34 -63
s30.334 -31.667 53.001 -47c14.667 -10 34.5 -18 59.5 -24s45.833 -9.33301 62.5 -10v-71zM848.999 580.001l-215 550l-211 -550h426zM828.999 1646c0 45.333 -11.1699 83 -33.5029 113s-55.166 45 -98.499 45c-42 0 -74.5 -14.333 -97.5 -43s-34.5 -67 -34.5 -115
c0 -46 11.333 -84.333 34 -115s55.334 -46 98.001 -46s75.334 15.167 98.001 45.5s34 68.833 34 115.5z" />
    <glyph glyph-name="AE" unicode="&#xc6;" horiz-adv-x="1988" 
d="M1941 418l-26.9902 -417.995h-1168v71c16 1.33301 40.833 3.83301 74.5 7.5s57.167 8.5 70.5 14.5c21.333 10 36.166 23 44.499 39s12.5 36.333 12.5 61v409h-480c-28.667 -47.333 -55.5 -93.833 -80.5 -139.5s-57.833 -109.834 -98.5 -192.501
c-8.66699 -16.667 -16 -33.667 -22 -51s-9 -33.666 -9 -48.999c0 -30 14.167 -53.167 42.5 -69.5s70.166 -26.166 125.499 -29.499v-71h-523v71c18.667 1.33301 40.834 5.66602 66.501 12.999s46.834 15.666 63.501 24.999c23.333 13.333 45.166 31.833 65.499 55.5
s38.833 50.167 55.5 79.5l303 529l309 553c-16.667 6 -42.334 10.833 -77.001 14.5s-65.667 6.16699 -93 7.5v71h1238v-342h-75c-12.667 50.667 -41.334 104.5 -86.001 161.5s-87 88.167 -127 93.5c-20.667 2.66699 -45.334 4.66699 -74.001 6s-61.334 2 -98.001 2h-213
v-564h150c50.667 0 88.167 4.83301 112.5 14.5s45.166 25.834 62.499 48.501c14.667 19.333 27.167 45.166 37.5 77.499s17.166 62.833 20.499 91.5h75v-555h-75c-2.66699 32 -9.83398 65.833 -21.501 101.5s-23.834 61.5 -36.501 77.5c-20.667 26 -44 43 -70 51
s-61 12 -105 12h-150v-426c0 -42.667 3 -76.334 9 -101.001s17.667 -43.334 35 -56.001c18 -12.667 41.833 -20.834 71.5 -24.501s72.167 -5.5 127.5 -5.5h85.5c35 0 64.167 1.33301 87.5 4c27.333 3.33301 53.166 8.16602 77.499 14.499s42.166 15.833 53.499 28.5
c30.667 32 62.834 80.5 96.501 145.5s55.167 112.833 64.5 143.5h72zM948.01 690.005v641h-77l-354 -641h431z" />
    <glyph glyph-name="Ccedilla" unicode="&#xc7;" horiz-adv-x="1315" 
d="M669 -30c-74 6 -145.168 25.3389 -213.501 58.0059s-129.166 77 -182.499 133c-59.333 62.667 -106.666 139.167 -141.999 229.5s-53 192.166 -53 305.499s17.333 216.166 52 308.499s82.667 171.833 144 238.5c60.667 66 132.334 117 215.001 153s171 54 265 54
c70 0 133.333 -8.66699 190 -26s110.667 -41.666 162 -72.999l41 68h80l9 -506h-82c-10.667 49.333 -26.667 102.833 -48 160.5s-46.333 106.5 -75 146.5c-32 45.333 -70 80.833 -114 106.5s-94.333 38.5 -151 38.5c-64.667 0 -124.834 -14.333 -180.501 -43
s-103.834 -71 -144.501 -127c-38.667 -54 -69 -122.667 -91 -206s-33 -176.333 -33 -279c0 -90.667 11.5 -173.834 34.5 -249.501s55.833 -142.167 98.5 -199.5c42.667 -56.667 93.167 -101 151.5 -133s123.5 -48 195.5 -48c54 0 103.667 8.5 149 25.5
s84.666 39.5 117.999 67.5c33.333 29.333 62.666 62.666 87.999 99.999s46 78 62 122l75 -36c-54.667 -136 -127.5 -234.167 -218.5 -294.5s-198.5 -92.5 -322.5 -96.5v-67c30 0 57 -1.83301 81 -5.5s48.333 -11.834 73 -24.501c22.667 -10.667 41 -25.834 55 -45.501
s21 -44.167 21 -73.5c0 -38.667 -10.667 -71.334 -32 -98.001s-51 -47.334 -89 -62.001c-36.667 -13.333 -77.334 -22.666 -122.001 -27.999s-96.667 -8 -156 -8v72c27.333 0 57 0.333008 89 1s59.333 3.66699 82 9c26.667 6 47.334 15.167 62.001 27.5s22 29.833 22 52.5
c0 16 -5 29.167 -15 39.5s-23.333 18.166 -40 23.499c-13.333 4.66699 -31.166 7.83398 -53.499 9.50098s-41.166 2.5 -56.499 2.5v177z" />
    <glyph glyph-name="Egrave" unicode="&#xc8;" horiz-adv-x="1366" 
 />
    <glyph glyph-name="Eacute" unicode="&#xc9;" horiz-adv-x="1338" 
d="M691 250l0.998047 -249.999h-595l28 23c12 20 19.667 35 23 45s7 18.333 11 25c6 20 9.5 35.5 10.5 46.5s1.5 28.833 1.5 53.5v1020c0 22 -0.666992 41.667 -2 59s-4.33301 32.666 -9 45.999c-6.66699 11.333 -11.667 22.5 -15 33.5s-14 24.833 -32 41.5l-27 23l574 3
v-234l-37 64c-23.333 35.333 -41.666 58.333 -54.999 69s-40.333 18.334 -81 23.001c-44.667 0.666992 -79.334 -1 -104.001 -5s-48.667 -17.667 -72 -41l-14 -50v-469h94c30.667 0 50.334 2.33301 59.001 7s25.334 12.667 50.001 24c15.333 12 26.833 23.833 34.5 35.5
s14.167 25.834 19.5 42.501l6 32v-312l-13 26c-16 15.333 -27 26.666 -33 33.999l-30 35c-13.333 3.33301 -24.833 8 -34.5 14s-30.167 10 -61.5 12h-91v-457c0 -42.667 2.16699 -72.834 6.5 -90.501s12.833 -35.834 25.5 -54.501c10.667 -11.333 25.334 -22.5 44.001 -33.5
s43 -17.167 73 -18.5c36 -0.666992 59.833 -0.166992 71.5 1.5s27.167 2.83398 46.5 3.50098c15.333 5.33301 25.5 9.83301 30.5 13.5s12.833 12.167 23.5 25.5c14.667 14 26.667 27.5 36 40.5s19.666 33.167 30.999 60.5zM835.998 1675l-136.5 -66.5l-209.5 -101.5l-31 39
l148.5 143.5l113.5 115.5c21.333 22.667 40.833 38.834 58.5 48.501s36.5 14.5 56.5 14.5c25.333 0 47 -7.66699 65 -23s27 -34.333 27 -57c0 -28.667 -8.66699 -51.334 -26 -68.001s-39.333 -31.667 -66 -45z" />
    <glyph glyph-name="Ecircumflex" unicode="&#xca;" horiz-adv-x="1366" 
 />
    <glyph glyph-name="Edieresis" unicode="&#xcb;" horiz-adv-x="1366" 
 />
    <glyph glyph-name="Igrave" unicode="&#xcc;" horiz-adv-x="569" 
 />
    <glyph glyph-name="Iacute" unicode="&#xcd;" horiz-adv-x="569" 
 />
    <glyph glyph-name="Icircumflex" unicode="&#xce;" horiz-adv-x="569" 
 />
    <glyph glyph-name="Idieresis" unicode="&#xcf;" horiz-adv-x="569" 
 />
    <glyph glyph-name="Eth" unicode="&#xd0;" horiz-adv-x="1479" 
 />
    <glyph glyph-name="Ntilde" unicode="&#xd1;" horiz-adv-x="934" 
d="M670 1390c-17.333 -20.667 -30.666 -44.6621 -39.999 -71.9951s-20.666 -77.333 -33.999 -150c-19.333 -141.333 -30.333 -254.833 -33 -340.5s9.33301 -225.5 36 -419.5l93 -405l-178 -14l-82 207l-91 267c-28.667 -140.667 -43.834 -226.834 -45.501 -258.501
s-3.5 -55.167 -5.5 -70.5c-3.33301 -16 -4.66602 -26.5 -3.99902 -31.5s1 -15.5 1 -31.5v-71h-220l21 48c10 21.333 16.167 36.666 18.5 45.999s7.16602 22.666 14.499 39.999c7.33301 48.667 11.5 82.667 12.5 102s1.5 75.333 1.5 168v699c0 30.667 -1.33301 60 -4 88
s-7.33398 57.333 -14.001 88c-10 25.333 -20.167 47 -30.5 65s-22.166 35.333 -35.499 52l-27 23h201l61 -169l78 -226c44 96 68.167 157 72.5 183s7.5 50.667 9.5 74c0 17.333 0.666992 30.166 2 38.499s2.66602 29.166 3.99902 62.499l-14 37h251zM831 1818
c-6.66699 -25.333 -16.665 -51.333 -29.998 -78s-31.666 -53 -54.999 -79c-24 -26 -49.167 -46.833 -75.5 -62.5s-57.833 -23.5 -94.5 -23.5c-38 0 -71.333 5.5 -100 16.5s-53.334 22.5 -74.001 34.5c-23.333 13.333 -45.5 25.333 -66.5 36s-44.167 16 -69.5 16
c-20.667 0 -36.167 -2.66699 -46.5 -8s-21.166 -14.333 -32.499 -27c-10.667 -12 -21.334 -27.833 -32.001 -47.5l-30 -53.5l-58 25c6.66699 21.333 18 47 34 77s33.333 56.333 52 79c20 24 44.333 44.5 73 61.5s58.667 25.5 90 25.5c37.333 0 69.5 -5.5 96.5 -16.5
s51.833 -22.833 74.5 -35.5l64 -36c17.333 -10 38.666 -15 63.999 -15c26.667 0 48.167 3.16699 64.5 9.5s29.166 15.166 38.499 26.499c10.667 12.667 19.5 26.334 26.5 41.001s15.5 33.667 25.5 57z" />
    <glyph glyph-name="Ograve" unicode="&#xd2;" horiz-adv-x="1593" 
 />
    <glyph glyph-name="Oacute" unicode="&#xd3;" horiz-adv-x="1593" 
 />
    <glyph glyph-name="Ocircumflex" unicode="&#xd4;" horiz-adv-x="1593" 
 />
    <glyph glyph-name="Otilde" unicode="&#xd5;" horiz-adv-x="1524" 
d="M1244 1251c62.667 -65.333 111.668 -144.165 147.001 -236.498s53 -194.5 53 -306.5c0 -112.667 -18 -215 -54 -307s-86 -170.333 -150 -235c-62 -64 -134 -113.333 -216 -148s-169.333 -52 -262 -52c-98.667 0 -189.834 18.5 -273.501 55.5s-155.5 88.5 -215.5 154.5
c-60 64.667 -107.167 143.167 -141.5 235.5s-51.5 191.166 -51.5 296.499c0 115.333 18 218.166 54 308.499s85.667 168.5 149 234.5c62.667 65.333 135.5 115.333 218.5 150s169.833 52 260.5 52c94 0 182.667 -17.667 266 -53s155.333 -85 216 -149zM1095 312.001
c37.333 48.667 64.5 103.998 81.5 165.998s25.5 131.333 25.5 208c0 78.667 -9.5 150.834 -28.5 216.501s-46.833 121.834 -83.5 168.501c-36.667 45.333 -82.667 80.833 -138 106.5s-118.666 38.5 -189.999 38.5c-80 0 -148 -14.833 -204 -44.5
s-101.667 -69.167 -137 -118.5c-33.333 -47.333 -58.166 -102.833 -74.499 -166.5s-24.5 -130.5 -24.5 -200.5c0 -78 8.66699 -148.167 26 -210.5s44.666 -117.833 81.999 -166.5c36 -47.333 81.333 -84.333 136 -111s120 -40 196 -40c71.333 0 135.666 13.5 192.999 40.5
s104 64.833 140 113.5zM1144 1835c-6.66699 -25.333 -16.665 -51.333 -29.998 -78s-31.666 -53 -54.999 -79c-24 -26 -49.167 -46.833 -75.5 -62.5s-57.833 -23.5 -94.5 -23.5c-38 0 -71.333 5.5 -100 16.5s-53.334 22.5 -74.001 34.5c-23.333 13.333 -45.5 25.333 -66.5 36
s-44.167 16 -69.5 16c-20.667 0 -36.167 -2.66699 -46.5 -8s-21.166 -14.333 -32.499 -27c-10.667 -12 -21.334 -27.833 -32.001 -47.5l-30 -53.5l-58 25c6.66699 21.333 18 47 34 77s33.333 56.333 52 79c20 24 44.333 44.5 73 61.5s58.667 25.5 90 25.5
c37.333 0 69.5 -5.5 96.5 -16.5s51.833 -22.833 74.5 -35.5l64 -36c17.333 -10 38.666 -15 63.999 -15c26.667 0 48.167 3.16699 64.5 9.5s29.166 15.166 38.499 26.499c10.667 12.667 19.5 26.334 26.5 41.001s15.5 33.667 25.5 57z" />
    <glyph glyph-name="Odieresis" unicode="&#xd6;" horiz-adv-x="1524" 
d="M1244 1251c62.667 -65.333 111.668 -144.165 147.001 -236.498s53 -194.5 53 -306.5c0 -112.667 -18 -215 -54 -307s-86 -170.333 -150 -235c-62 -64 -134 -113.333 -216 -148s-169.333 -52 -262 -52c-98.667 0 -189.834 18.5 -273.501 55.5s-155.5 88.5 -215.5 154.5
c-60 64.667 -107.167 143.167 -141.5 235.5s-51.5 191.166 -51.5 296.499c0 115.333 18 218.166 54 308.499s85.667 168.5 149 234.5c62.667 65.333 135.5 115.333 218.5 150s169.833 52 260.5 52c94 0 182.667 -17.667 266 -53s155.333 -85 216 -149zM1095 312.001
c37.333 48.667 64.5 103.998 81.5 165.998s25.5 131.333 25.5 208c0 78.667 -9.5 150.834 -28.5 216.501s-46.833 121.834 -83.5 168.501c-36.667 45.333 -82.667 80.833 -138 106.5s-118.666 38.5 -189.999 38.5c-80 0 -148 -14.833 -204 -44.5
s-101.667 -69.167 -137 -118.5c-33.333 -47.333 -58.166 -102.833 -74.499 -166.5s-24.5 -130.5 -24.5 -200.5c0 -78 8.66699 -148.167 26 -210.5s44.666 -117.833 81.999 -166.5c36 -47.333 81.333 -84.333 136 -111s120 -40 196 -40c71.333 0 135.666 13.5 192.999 40.5
s104 64.833 140 113.5zM1105 1730c0 -34 -11.5 -63 -34.5 -87s-50.833 -36 -83.5 -36s-60.5 12 -83.5 36s-34.5 53 -34.5 87s11.5 63 34.5 87s50.833 36 83.5 36s60.5 -12 83.5 -36s34.5 -53 34.5 -87zM655.001 1730c0 -34 -11.5 -63 -34.5 -87s-50.833 -36 -83.5 -36
s-60.5 12 -83.5 36s-34.5 53 -34.5 87s11.5 63 34.5 87s50.833 36 83.5 36s60.5 -12 83.5 -36s34.5 -53 34.5 -87z" />
    <glyph glyph-name="multiply" unicode="&#xd7;" horiz-adv-x="1196" 
 />
    <glyph glyph-name="Oslash" unicode="&#xd8;" horiz-adv-x="1524" 
d="M1444 708c0 -114 -18.501 -217.168 -55.501 -309.501s-86.5 -170.166 -148.5 -233.499c-62 -64 -134 -113.333 -216 -148s-169.333 -52 -262 -52c-85.333 0 -164.666 14.333 -237.999 43s-138.333 67.667 -195 117l-174 -210l-64 50l181 215
c-60 66 -107 144.5 -141 235.5s-51 188.5 -51 292.5c0 115.333 18 218.166 54 308.499s85.667 168.5 149 234.5c62.667 66 135.667 116.333 219 151s170 52 260 52c81.333 0 158.833 -13.833 232.5 -41.5s140.5 -67.5 200.5 -119.5l151 183l65 -52l-158 -188
c58.667 -65.333 105.167 -142.166 139.5 -230.499s51.5 -187.5 51.5 -297.5zM1098 1176c-38.667 62 -86 109 -142 141s-120.667 48 -194 48c-79.333 0 -147 -17.833 -203 -53.5s-102.667 -85.5 -140 -149.5c-33.333 -57.333 -58.333 -125.833 -75 -205.5
s-25 -162.5 -25 -248.5c0 -77.333 5.5 -149.333 16.5 -216s27.5 -125.667 49.5 -177zM1098 243.999c36.667 61.333 63.667 130.333 81 207s26 162.334 26 257.001c0 76 -5.33301 147.5 -16 214.5s-27 126.833 -49 179.5l-714 -859
c36 -58.667 82.167 -104.834 138.5 -138.501s122.166 -50.5 197.499 -50.5c72.667 0 137.334 16.167 194.001 48.5s104 79.5 142 141.5z" />
    <glyph glyph-name="Ugrave" unicode="&#xd9;" horiz-adv-x="1479" 
 />
    <glyph glyph-name="Uacute" unicode="&#xda;" horiz-adv-x="1479" 
 />
    <glyph glyph-name="Ucircumflex" unicode="&#xdb;" horiz-adv-x="1479" 
 />
    <glyph glyph-name="Udieresis" unicode="&#xdc;" horiz-adv-x="1549" 
d="M891 1348c-10.667 -0.666992 -26 -4.66504 -46 -11.998s-36.333 -18.333 -49 -33c-12.667 -15.333 -21.5 -47 -26.5 -95s-7.5 -106.667 -7.5 -176v-617c0 -78.667 -9.16699 -147 -27.5 -205s-42.166 -105.667 -71.499 -143c-30 -36 -61.333 -61.833 -94 -77.5
s-63.667 -23.5 -93 -23.5c-48 0 -90.667 11.167 -128 33.5s-68.666 52.5 -93.999 90.5s-44.333 81.5 -57 130.5s-19 100.167 -19 153.5v839c0 23.333 -2.16699 42.833 -6.5 58.5s-12.833 30.167 -25.5 43.5c-9.33301 9.33301 -21.333 16.833 -36 22.5
s-26.667 9.16699 -36 10.5v71h331v-71c-10.667 -0.666992 -23.834 -3.66699 -39.501 -9s-27.5 -10.333 -35.5 -15c-12.667 -8 -21 -21.333 -25 -40s-6 -39 -6 -61v-784c0 -38 2.33301 -77.833 7 -119.5s13.667 -80.5 27 -116.5c14.667 -36.667 34.5 -66.667 59.5 -90
s59.5 -35 103.5 -35c40.667 0 70.667 13 90 39s39.666 67 60.999 123c9.33301 48 15.666 85.833 18.999 113.5s8.33301 76.167 15 145.5l4 525c-8.66699 126 -14.167 198.667 -16.5 218s-7.16602 39.666 -14.499 60.999c-11.333 16 -25.833 27.167 -43.5 33.5
s-32.5 10.166 -44.5 11.499v71h325v-71zM1158 1730c0 -34 -11.5 -63 -34.5 -87s-50.833 -36 -83.5 -36s-60.5 12 -83.5 36s-34.5 53 -34.5 87s11.5 63 34.5 87s50.833 36 83.5 36s60.5 -12 83.5 -36s34.5 -53 34.5 -87zM708 1730c0 -34 -11.5 -63 -34.5 -87
s-50.833 -36 -83.5 -36s-60.5 12 -83.5 36s-34.5 53 -34.5 87s11.5 63 34.5 87s50.833 36 83.5 36s60.5 -12 83.5 -36s34.5 -53 34.5 -87z" />
    <glyph glyph-name="Yacute" unicode="&#xdd;" horiz-adv-x="1366" 
 />
    <glyph glyph-name="Thorn" unicode="&#xde;" horiz-adv-x="1366" 
 />
    <glyph glyph-name="germandbls" unicode="&#xdf;" horiz-adv-x="1123" 
d="M928 806c33.333 -34.667 61.001 -77.4961 83.001 -128.496s33 -110.833 33 -179.5c0 -150 -41.667 -272.333 -125 -367s-186.333 -142 -309 -142c-21.333 0 -43 1 -65 3s-40.667 4.66699 -56 8v81c15.333 -3.33301 30.666 -5.83301 45.999 -7.5s29.666 -2.5 42.999 -2.5
c46 0 86 11.333 120 34s60.333 53 79 91c20 39.333 34.667 84.166 44 134.499s14 108.166 14 173.499c0 115.333 -24.833 208.666 -74.5 279.999s-120.167 107 -211.5 107h-20v85h36c26 0 52.833 5 80.5 15s52.5 25.333 74.5 46c23.333 22.667 41.833 50.667 55.5 84
s20.5 73 20.5 119c0 75.333 -16.667 133.166 -50 173.499s-77.666 60.5 -132.999 60.5c-78 0 -135.5 -35.833 -172.5 -107.5s-55.5 -173.834 -55.5 -306.501v-1060h-326v66l47 4.5c17.333 1.66699 31.666 4.5 42.999 8.5c16.667 6 29 16.833 37 32.5s12 36.167 12 61.5v833
c0 91.333 7 168.833 21 232.5s48.333 124.834 103 183.501c44.667 48 93.334 81.333 146.001 100s104.334 28 155.001 28c47.333 0 90.5 -5.5 129.5 -16.5s75.833 -29.5 110.5 -55.5c32.667 -24.667 58.667 -55.667 78 -93s29 -83.666 29 -138.999
c0 -50 -9.16699 -93.833 -27.5 -131.5s-40.833 -68.5 -67.5 -92.5s-55.5 -43 -86.5 -57s-59.5 -22.333 -85.5 -25v-9c35.333 -7.33301 73.166 -21.333 113.499 -42s77.5 -48.334 111.5 -83.001z" />
    <glyph glyph-name="agrave" unicode="&#xe0;" horiz-adv-x="1032" 
d="M536 18c-15.333 -11.333 -28.833 -20.502 -40.5 -27.502s-24.834 -10.5 -39.501 -10.5c-26 0 -46.5 12.167 -61.5 36.5s-24.833 59.833 -29.5 106.5h-3c-21.333 -48 -44.166 -84.667 -68.499 -110s-53.833 -38 -88.5 -38c-36.667 0 -66.667 22.667 -90 68
s-35 104.666 -35 177.999c0 38 2.66699 72 8 102s13.333 57 24 81c8 20 18.667 37.833 32 53.5s26 28.167 38 37.5c14.667 11.333 44.667 32.333 90 63s75.666 54.667 90.999 72v99c0 8.66699 -0.833008 25.334 -2.5 50.001s-5.5 48 -11.5 70
c-6.66699 24.667 -16 46.167 -28 64.5s-29 27.5 -51 27.5c-15.333 0 -29.333 -5.16699 -42 -15.5s-21.667 -21.166 -27 -32.499c0 -13.333 1.5 -33 4.5 -59s4.5 -50 4.5 -72c0 -23.333 -5.16699 -44.666 -15.5 -63.999s-24.833 -29 -43.5 -29
c-16 0 -27.833 11.833 -35.5 35.5s-11.5 50.167 -11.5 79.5c0 30.667 5.33301 60 16 88s24.334 53 41.001 75c14.667 18.667 32.5 34.5 53.5 47.5s41.5 19.5 61.5 19.5c28 0 52.167 -3.83301 72.5 -11.5s39.166 -24.167 56.499 -49.5
c16.667 -24.667 29.334 -58.167 38.001 -100.5s13 -96.833 13 -163.5c0 -95.333 -0.5 -179.833 -1.5 -253.5s-1.5 -154.167 -1.5 -241.5c0 -26 2.16699 -46.667 6.5 -62s11.166 -28.333 20.499 -39c4.66699 -6 12.334 -9.33301 23.001 -10s21.667 -1 33 -1v-64zM316 473.998
c-26.667 -13.333 -50.001 -26.332 -70.001 -38.999s-38.333 -28.334 -55 -47.001c-16 -18 -28.5 -39.167 -37.5 -63.5s-13.5 -53.5 -13.5 -87.5c0 -43.333 6.83301 -75.333 20.5 -96s30.834 -31 51.501 -31c22 0 41.5 9 58.5 27s31.167 39.667 42.5 65zM693.999 1142
l-38.001 -31.9971l-184 143.5c-54 41 -94 72.167 -120 93.5c-25.333 21.333 -43.166 38.666 -53.499 51.999s-15.5 33.666 -15.5 60.999c0 19.333 7.66699 37.166 23 53.499s35 24.5 59 24.5c26 0 48.333 -6 67 -18s38.667 -35.333 60 -70l80 -125.5z" />
    <glyph glyph-name="aacute" unicode="&#xe1;" horiz-adv-x="1032" 
d="M536 18c-15.333 -11.333 -28.833 -20.502 -40.5 -27.502s-24.834 -10.5 -39.501 -10.5c-26 0 -46.5 12.167 -61.5 36.5s-24.833 59.833 -29.5 106.5h-3c-21.333 -48 -44.166 -84.667 -68.499 -110s-53.833 -38 -88.5 -38c-36.667 0 -66.667 22.667 -90 68
s-35 104.666 -35 177.999c0 38 2.66699 72 8 102s13.333 57 24 81c8 20 18.667 37.833 32 53.5s26 28.167 38 37.5c14.667 11.333 44.667 32.333 90 63s75.666 54.667 90.999 72v99c0 8.66699 -0.833008 25.334 -2.5 50.001s-5.5 48 -11.5 70
c-6.66699 24.667 -16 46.167 -28 64.5s-29 27.5 -51 27.5c-15.333 0 -29.333 -5.16699 -42 -15.5s-21.667 -21.166 -27 -32.499c0 -13.333 1.5 -33 4.5 -59s4.5 -50 4.5 -72c0 -23.333 -5.16699 -44.666 -15.5 -63.999s-24.833 -29 -43.5 -29
c-16 0 -27.833 11.833 -35.5 35.5s-11.5 50.167 -11.5 79.5c0 30.667 5.33301 60 16 88s24.334 53 41.001 75c14.667 18.667 32.5 34.5 53.5 47.5s41.5 19.5 61.5 19.5c28 0 52.167 -3.83301 72.5 -11.5s39.166 -24.167 56.499 -49.5
c16.667 -24.667 29.334 -58.167 38.001 -100.5s13 -96.833 13 -163.5c0 -95.333 -0.5 -179.833 -1.5 -253.5s-1.5 -154.167 -1.5 -241.5c0 -26 2.16699 -46.667 6.5 -62s11.166 -28.333 20.499 -39c4.66699 -6 12.334 -9.33301 23.001 -10s21.667 -1 33 -1v-64zM316 473.998
c-26.667 -13.333 -50.001 -26.332 -70.001 -38.999s-38.333 -28.334 -55 -47.001c-16 -18 -28.5 -39.167 -37.5 -63.5s-13.5 -53.5 -13.5 -87.5c0 -43.333 6.83301 -75.333 20.5 -96s30.834 -31 51.501 -31c22 0 41.5 9 58.5 27s31.167 39.667 42.5 65zM737.999 1460
c0 -25.333 -5.83105 -46.001 -17.498 -62.001s-28.834 -33 -51.501 -51l-130.5 -102l-173.5 -135l-38 32l125.5 187.5l76.5 120.5c20.667 34 40.667 57.167 60 69.5s41.666 18.5 66.999 18.5c24 0 43.667 -8.16699 59 -24.5s23 -34.166 23 -53.499z" />
    <glyph glyph-name="acircumflex" unicode="&#xe2;" horiz-adv-x="1032" 
d="M536 18c-15.333 -11.333 -28.833 -20.502 -40.5 -27.502s-24.834 -10.5 -39.501 -10.5c-26 0 -46.5 12.167 -61.5 36.5s-24.833 59.833 -29.5 106.5h-3c-21.333 -48 -44.166 -84.667 -68.499 -110s-53.833 -38 -88.5 -38c-36.667 0 -66.667 22.667 -90 68
s-35 104.666 -35 177.999c0 38 2.66699 72 8 102s13.333 57 24 81c8 20 18.667 37.833 32 53.5s26 28.167 38 37.5c14.667 11.333 44.667 32.333 90 63s75.666 54.667 90.999 72v99c0 8.66699 -0.833008 25.334 -2.5 50.001s-5.5 48 -11.5 70
c-6.66699 24.667 -16 46.167 -28 64.5s-29 27.5 -51 27.5c-15.333 0 -29.333 -5.16699 -42 -15.5s-21.667 -21.166 -27 -32.499c0 -13.333 1.5 -33 4.5 -59s4.5 -50 4.5 -72c0 -23.333 -5.16699 -44.666 -15.5 -63.999s-24.833 -29 -43.5 -29
c-16 0 -27.833 11.833 -35.5 35.5s-11.5 50.167 -11.5 79.5c0 30.667 5.33301 60 16 88s24.334 53 41.001 75c14.667 18.667 32.5 34.5 53.5 47.5s41.5 19.5 61.5 19.5c28 0 52.167 -3.83301 72.5 -11.5s39.166 -24.167 56.499 -49.5
c16.667 -24.667 29.334 -58.167 38.001 -100.5s13 -96.833 13 -163.5c0 -95.333 -0.5 -179.833 -1.5 -253.5s-1.5 -154.167 -1.5 -241.5c0 -26 2.16699 -46.667 6.5 -62s11.166 -28.333 20.499 -39c4.66699 -6 12.334 -9.33301 23.001 -10s21.667 -1 33 -1v-64zM316 473.998
c-26.667 -13.333 -50.001 -26.332 -70.001 -38.999s-38.333 -28.334 -55 -47.001c-16 -18 -28.5 -39.167 -37.5 -63.5s-13.5 -53.5 -13.5 -87.5c0 -43.333 6.83301 -75.333 20.5 -96s30.834 -31 51.501 -31c22 0 41.5 9 58.5 27s31.167 39.667 42.5 65zM816.999 1156
l-47.999 -32.001l-279 273l-275 -273l-48 32l237 347c11.333 16.667 22.166 28.334 32.499 35.001s29.5 10 57.5 10c26.667 0 45 -3.5 55 -10.5s19.667 -17.167 29 -30.5z" />
    <glyph glyph-name="atilde" unicode="&#xe3;" horiz-adv-x="1032" 
d="M536 18c-15.333 -11.333 -28.833 -20.502 -40.5 -27.502s-24.834 -10.5 -39.501 -10.5c-26 0 -46.5 12.167 -61.5 36.5s-24.833 59.833 -29.5 106.5h-3c-21.333 -48 -44.166 -84.667 -68.499 -110s-53.833 -38 -88.5 -38c-36.667 0 -66.667 22.667 -90 68
s-35 104.666 -35 177.999c0 38 2.66699 72 8 102s13.333 57 24 81c8 20 18.667 37.833 32 53.5s26 28.167 38 37.5c14.667 11.333 44.667 32.333 90 63s75.666 54.667 90.999 72v99c0 8.66699 -0.833008 25.334 -2.5 50.001s-5.5 48 -11.5 70
c-6.66699 24.667 -16 46.167 -28 64.5s-29 27.5 -51 27.5c-15.333 0 -29.333 -5.16699 -42 -15.5s-21.667 -21.166 -27 -32.499c0 -13.333 1.5 -33 4.5 -59s4.5 -50 4.5 -72c0 -23.333 -5.16699 -44.666 -15.5 -63.999s-24.833 -29 -43.5 -29
c-16 0 -27.833 11.833 -35.5 35.5s-11.5 50.167 -11.5 79.5c0 30.667 5.33301 60 16 88s24.334 53 41.001 75c14.667 18.667 32.5 34.5 53.5 47.5s41.5 19.5 61.5 19.5c28 0 52.167 -3.83301 72.5 -11.5s39.166 -24.167 56.499 -49.5
c16.667 -24.667 29.334 -58.167 38.001 -100.5s13 -96.833 13 -163.5c0 -95.333 -0.5 -179.833 -1.5 -253.5s-1.5 -154.167 -1.5 -241.5c0 -26 2.16699 -46.667 6.5 -62s11.166 -28.333 20.499 -39c4.66699 -6 12.334 -9.33301 23.001 -10s21.667 -1 33 -1v-64zM316 473.998
c-26.667 -13.333 -50.001 -26.332 -70.001 -38.999s-38.333 -28.334 -55 -47.001c-16 -18 -28.5 -39.167 -37.5 -63.5s-13.5 -53.5 -13.5 -87.5c0 -43.333 6.83301 -75.333 20.5 -96s30.834 -31 51.501 -31c22 0 41.5 9 58.5 27s31.167 39.667 42.5 65zM887.999 1467
c-6.66699 -25.333 -16.665 -51.333 -29.998 -78s-31.666 -53 -54.999 -79c-24 -26 -49.167 -46.833 -75.5 -62.5s-57.833 -23.5 -94.5 -23.5c-38 0 -71.333 5.5 -100 16.5s-53.334 22.5 -74.001 34.5c-23.333 13.333 -45.5 25.333 -66.5 36s-44.167 16 -69.5 16
c-20.667 0 -36.167 -2.66699 -46.5 -8s-21.166 -14.333 -32.499 -27c-10.667 -12 -21.334 -27.833 -32.001 -47.5l-30 -53.5l-58 25c6.66699 21.333 18 47 34 77s33.333 56.333 52 79c20 24 44.333 44.5 73 61.5s58.667 25.5 90 25.5c37.333 0 69.5 -5.5 96.5 -16.5
s51.833 -22.833 74.5 -35.5l64 -36c17.333 -10 38.666 -15 63.999 -15c26.667 0 48.167 3.16699 64.5 9.5s29.166 15.166 38.499 26.499c10.667 12.667 19.5 26.334 26.5 41.001s15.5 33.667 25.5 57z" />
    <glyph glyph-name="adieresis" unicode="&#xe4;" horiz-adv-x="1032" 
d="M536 18c-15.333 -11.333 -28.833 -20.502 -40.5 -27.502s-24.834 -10.5 -39.501 -10.5c-26 0 -46.5 12.167 -61.5 36.5s-24.833 59.833 -29.5 106.5h-3c-21.333 -48 -44.166 -84.667 -68.499 -110s-53.833 -38 -88.5 -38c-36.667 0 -66.667 22.667 -90 68
s-35 104.666 -35 177.999c0 38 2.66699 72 8 102s13.333 57 24 81c8 20 18.667 37.833 32 53.5s26 28.167 38 37.5c14.667 11.333 44.667 32.333 90 63s75.666 54.667 90.999 72v99c0 8.66699 -0.833008 25.334 -2.5 50.001s-5.5 48 -11.5 70
c-6.66699 24.667 -16 46.167 -28 64.5s-29 27.5 -51 27.5c-15.333 0 -29.333 -5.16699 -42 -15.5s-21.667 -21.166 -27 -32.499c0 -13.333 1.5 -33 4.5 -59s4.5 -50 4.5 -72c0 -23.333 -5.16699 -44.666 -15.5 -63.999s-24.833 -29 -43.5 -29
c-16 0 -27.833 11.833 -35.5 35.5s-11.5 50.167 -11.5 79.5c0 30.667 5.33301 60 16 88s24.334 53 41.001 75c14.667 18.667 32.5 34.5 53.5 47.5s41.5 19.5 61.5 19.5c28 0 52.167 -3.83301 72.5 -11.5s39.166 -24.167 56.499 -49.5
c16.667 -24.667 29.334 -58.167 38.001 -100.5s13 -96.833 13 -163.5c0 -95.333 -0.5 -179.833 -1.5 -253.5s-1.5 -154.167 -1.5 -241.5c0 -26 2.16699 -46.667 6.5 -62s11.166 -28.333 20.499 -39c4.66699 -6 12.334 -9.33301 23.001 -10s21.667 -1 33 -1v-64zM316 473.998
c-26.667 -13.333 -50.001 -26.332 -70.001 -38.999s-38.333 -28.334 -55 -47.001c-16 -18 -28.5 -39.167 -37.5 -63.5s-13.5 -53.5 -13.5 -87.5c0 -43.333 6.83301 -75.333 20.5 -96s30.834 -31 51.501 -31c22 0 41.5 9 58.5 27s31.167 39.667 42.5 65zM825.999 1364
c0 -34 -11.5 -63 -34.5 -87s-50.833 -36 -83.5 -36s-60.5 12 -83.5 36s-34.5 53 -34.5 87s11.5 63 34.5 87s50.833 36 83.5 36s60.5 -12 83.5 -36s34.5 -53 34.5 -87zM395.999 1364c0 -34 -11.5 -63 -34.5 -87s-50.833 -36 -83.5 -36s-60.5 12 -83.5 36s-34.5 53 -34.5 87
s11.5 63 34.5 87s50.833 36 83.5 36s60.5 -12 83.5 -36s34.5 -53 34.5 -87z" />
    <glyph glyph-name="aring" unicode="&#xe5;" horiz-adv-x="1032" 
d="M536 18c-15.333 -11.333 -28.833 -20.502 -40.5 -27.502s-24.834 -10.5 -39.501 -10.5c-26 0 -46.5 12.167 -61.5 36.5s-24.833 59.833 -29.5 106.5h-3c-21.333 -48 -44.166 -84.667 -68.499 -110s-53.833 -38 -88.5 -38c-36.667 0 -66.667 22.667 -90 68
s-35 104.666 -35 177.999c0 38 2.66699 72 8 102s13.333 57 24 81c8 20 18.667 37.833 32 53.5s26 28.167 38 37.5c14.667 11.333 44.667 32.333 90 63s75.666 54.667 90.999 72v99c0 8.66699 -0.833008 25.334 -2.5 50.001s-5.5 48 -11.5 70
c-6.66699 24.667 -16 46.167 -28 64.5s-29 27.5 -51 27.5c-15.333 0 -29.333 -5.16699 -42 -15.5s-21.667 -21.166 -27 -32.499c0 -13.333 1.5 -33 4.5 -59s4.5 -50 4.5 -72c0 -23.333 -5.16699 -44.666 -15.5 -63.999s-24.833 -29 -43.5 -29
c-16 0 -27.833 11.833 -35.5 35.5s-11.5 50.167 -11.5 79.5c0 30.667 5.33301 60 16 88s24.334 53 41.001 75c14.667 18.667 32.5 34.5 53.5 47.5s41.5 19.5 61.5 19.5c28 0 52.167 -3.83301 72.5 -11.5s39.166 -24.167 56.499 -49.5
c16.667 -24.667 29.334 -58.167 38.001 -100.5s13 -96.833 13 -163.5c0 -95.333 -0.5 -179.833 -1.5 -253.5s-1.5 -154.167 -1.5 -241.5c0 -26 2.16699 -46.667 6.5 -62s11.166 -28.333 20.499 -39c4.66699 -6 12.334 -9.33301 23.001 -10s21.667 -1 33 -1v-64zM316 473.998
c-26.667 -13.333 -50.001 -26.332 -70.001 -38.999s-38.333 -28.334 -55 -47.001c-16 -18 -28.5 -39.167 -37.5 -63.5s-13.5 -53.5 -13.5 -87.5c0 -43.333 6.83301 -75.333 20.5 -96s30.834 -31 51.501 -31c22 0 41.5 9 58.5 27s31.167 39.667 42.5 65zM750.999 1337
c0 -65.333 -23.6689 -118.833 -71.002 -160.5s-109.666 -62.5 -186.999 -62.5c-78 0 -140.5 20.333 -187.5 61s-70.5 94.667 -70.5 162c0 65.333 25 118.666 75 159.999s111 62 183 62c74.667 0 136.334 -20.167 185.001 -60.5s73 -94.166 73 -161.499zM624.997 1337
c0 45.333 -11.1699 83.001 -33.5029 113.001s-55.166 45 -98.499 45c-42 0 -74.5 -14.333 -97.5 -43s-34.5 -67 -34.5 -115c0 -46 11.333 -84 34 -114s55.334 -45 98.001 -45s75.334 14.667 98.001 44s34 67.666 34 114.999z" />
    <glyph glyph-name="ae" unicode="&#xe6;" horiz-adv-x="1509" 
d="M1468 233c-38.667 -82 -91.834 -145.669 -159.501 -191.002s-142.5 -68 -224.5 -68c-84.667 0 -156.334 15.167 -215.001 45.5s-111 77.833 -157 142.5h-6c-51.333 -66.667 -105.833 -114.667 -163.5 -144s-125.5 -44 -203.5 -44
c-75.333 0 -137.166 22.167 -185.499 66.5s-72.5 104.166 -72.5 179.499c0 40.667 5.66699 76.5 17 107.5s26.666 58.167 45.999 81.5c18.667 22 40.167 40.333 64.5 55s49.166 27.334 74.499 38.001c92 36.667 163.333 62.334 214 77.001l145 43v107
c0 9.33301 -1.83301 25.666 -5.5 48.999s-11.5 47.333 -23.5 72c-12 24 -29.5 45.167 -52.5 63.5s-53.833 27.5 -92.5 27.5c-33.333 0 -63.166 -5.16699 -89.499 -15.5s-44.833 -21.166 -55.5 -32.499c0 -13.333 3.16699 -33 9.5 -59s9.5 -50 9.5 -72
c0 -23.333 -10.5 -44.666 -31.5 -63.999s-50.167 -29 -87.5 -29c-33.333 0 -57.833 11.833 -73.5 35.5s-23.5 50.167 -23.5 79.5c0 32 10.667 61.5 32 88.5s49 51.5 83 73.5c30.667 20 67.834 36.333 111.501 49s83.5 19 119.5 19c66.667 0 127 -8.33301 181 -25
s97.333 -48.667 130 -96c34 35.333 75.833 64.333 125.5 87s101.167 34 154.5 34c69.333 0 128 -11.167 176 -33.5s86.667 -51.833 116 -88.5c30.667 -37.333 53 -80.166 67 -128.499s21 -100.5 21 -156.5v-58h-618c0 -152 24.833 -267.5 74.5 -346.5
s126.834 -118.5 231.501 -118.5c69.333 0 124 17.167 164 51.5s74.333 81.166 103 140.499zM1246 630.998c0 26.667 -2.66504 60.668 -7.99805 102.001s-13.666 74.666 -24.999 99.999c-14 30.667 -33.833 56 -59.5 76s-59.834 30 -102.501 30
c-66.667 0 -120.834 -30.167 -162.501 -90.5s-62.834 -132.833 -63.501 -217.5h421zM644.002 193.999l0.000976562 342.998c-53.333 -10.667 -100.333 -23 -141 -37s-79 -33.333 -115 -58c-34 -23.333 -60.333 -51 -79 -83s-28 -69 -28 -111
c0 -55.333 13.167 -96.166 39.5 -122.499s61.166 -39.5 104.499 -39.5c50.667 0 94 10.833 130 32.5s65.667 46.834 89 75.501z" />
    <glyph glyph-name="ccedilla" unicode="&#xe7;" horiz-adv-x="930" 
d="M459 -22c-121.333 15.333 -216.17 69.3389 -284.503 162.006s-102.5 211.667 -102.5 357c0 69.333 10.833 134.166 32.5 194.499s53.167 115.166 94.5 164.499c39.333 47.333 88.666 85.5 147.999 114.5s124 43.5 194 43.5c96.667 0 175.334 -23.167 236.001 -69.5
s91 -109.5 91 -189.5c0 -33.333 -8 -62.833 -24 -88.5s-42.333 -38.5 -79 -38.5c-39.333 0 -69.833 10 -91.5 30s-32.5 42.333 -32.5 67c0 30 4 60.833 12 92.5s12.667 54.834 14 69.501c-12 20.667 -29.833 34.5 -53.5 41.5s-49.167 10.5 -76.5 10.5
c-32 0 -62.5 -6.83301 -91.5 -20.5s-57.167 -38.834 -84.5 -75.501c-24.667 -33.333 -44.667 -78.333 -60 -135s-23 -124.334 -23 -203.001c0 -124 27.5 -225.167 82.5 -303.5s127.167 -117.5 216.5 -117.5c64.667 0 118.834 15.667 162.501 47s84.167 78.333 121.5 141
l64 -42c-42.667 -76.667 -99.167 -138 -169.5 -184s-142.833 -70 -217.5 -72v-73c30 0 57 -1.83301 81 -5.5s48.333 -11.834 73 -24.501c22.667 -10.667 41 -25.834 55 -45.501s21 -44.167 21 -73.5c0 -38.667 -10.667 -71.334 -32 -98.001s-51 -47.334 -89 -62.001
c-36.667 -13.333 -77.334 -22.666 -122.001 -27.999s-96.667 -8 -156 -8v72c27.333 0 57 0.333008 89 1s59.333 3.66699 82 9c26.667 6 47.334 15.167 62.001 27.5s22 29.833 22 52.5c0 16 -5 29.167 -15 39.5s-23.333 18.166 -40 23.499
c-13.333 4.66699 -31.166 7.83398 -53.499 9.50098s-41.166 2.5 -56.499 2.5v185z" />
    <glyph glyph-name="egrave" unicode="&#xe8;" horiz-adv-x="990" 
d="M593 227c-24.667 -77.333 -57.6719 -138.834 -99.0049 -184.501s-88.666 -68.5 -141.999 -68.5c-47.333 0 -88.666 13.667 -123.999 41s-64.666 64.666 -87.999 111.999c-22.667 46.667 -39.667 101.334 -51 164.001s-17 129 -17 199c0 62.667 6 124.167 18 184.5
s29.667 114.5 53 162.5c22.667 46.667 50.834 84.167 84.501 112.5s71.167 42.5 112.5 42.5c42.667 0 79.334 -11.167 110.001 -33.5s55.667 -52.5 75 -90.5c18 -36.667 31.5 -79.834 40.5 -129.501s13.5 -103.5 13.5 -161.5v-65h-389
c0 -63.333 3.66699 -120.666 11 -171.999s19 -96.666 35 -135.999c15.333 -38 35.5 -67.833 60.5 -89.5s54.833 -32.5 89.5 -32.5c35.333 0 65.833 13.5 91.5 40.5s50.167 75.833 73.5 146.5zM461.995 594.999c0 36 -1.99902 74.999 -5.99902 116.999s-10 77 -18 105
c-9.33301 30 -21.833 54.5 -37.5 73.5s-36.167 28.5 -61.5 28.5c-41.333 0 -75.833 -28.667 -103.5 -86s-42.834 -136.666 -45.501 -237.999h272zM694.996 1142l-38.001 -31.9971l-184 143.5c-54 41 -94 72.167 -120 93.5c-25.333 21.333 -43.166 38.666 -53.499 51.999
s-15.5 33.666 -15.5 60.999c0 19.333 7.66699 37.166 23 53.499s35 24.5 59 24.5c26 0 48.333 -6 67 -18s38.667 -35.333 60 -70l80 -125.5z" />
    <glyph glyph-name="eacute" unicode="&#xe9;" horiz-adv-x="990" 
d="M593 227c-24.667 -77.333 -57.6719 -138.834 -99.0049 -184.501s-88.666 -68.5 -141.999 -68.5c-47.333 0 -88.666 13.667 -123.999 41s-64.666 64.666 -87.999 111.999c-22.667 46.667 -39.667 101.334 -51 164.001s-17 129 -17 199c0 62.667 6 124.167 18 184.5
s29.667 114.5 53 162.5c22.667 46.667 50.834 84.167 84.501 112.5s71.167 42.5 112.5 42.5c42.667 0 79.334 -11.167 110.001 -33.5s55.667 -52.5 75 -90.5c18 -36.667 31.5 -79.834 40.5 -129.501s13.5 -103.5 13.5 -161.5v-65h-389
c0 -63.333 3.66699 -120.666 11 -171.999s19 -96.666 35 -135.999c15.333 -38 35.5 -67.833 60.5 -89.5s54.833 -32.5 89.5 -32.5c35.333 0 65.833 13.5 91.5 40.5s50.167 75.833 73.5 146.5zM461.995 594.999c0 36 -1.99902 74.999 -5.99902 116.999s-10 77 -18 105
c-9.33301 30 -21.833 54.5 -37.5 73.5s-36.167 28.5 -61.5 28.5c-41.333 0 -75.833 -28.667 -103.5 -86s-42.834 -136.666 -45.501 -237.999h272zM762.996 1460c0 -25.333 -5.83105 -46.001 -17.498 -62.001s-28.834 -33 -51.501 -51l-130.5 -102l-173.5 -135l-38 32
l125.5 187.5l76.5 120.5c20.667 34 40.667 57.167 60 69.5s41.666 18.5 66.999 18.5c24 0 43.667 -8.16699 59 -24.5s23 -34.166 23 -53.499z" />
    <glyph glyph-name="ecircumflex" unicode="&#xea;" horiz-adv-x="990" 
d="M593 227c-24.667 -77.333 -57.6719 -138.834 -99.0049 -184.501s-88.666 -68.5 -141.999 -68.5c-47.333 0 -88.666 13.667 -123.999 41s-64.666 64.666 -87.999 111.999c-22.667 46.667 -39.667 101.334 -51 164.001s-17 129 -17 199c0 62.667 6 124.167 18 184.5
s29.667 114.5 53 162.5c22.667 46.667 50.834 84.167 84.501 112.5s71.167 42.5 112.5 42.5c42.667 0 79.334 -11.167 110.001 -33.5s55.667 -52.5 75 -90.5c18 -36.667 31.5 -79.834 40.5 -129.501s13.5 -103.5 13.5 -161.5v-65h-389
c0 -63.333 3.66699 -120.666 11 -171.999s19 -96.666 35 -135.999c15.333 -38 35.5 -67.833 60.5 -89.5s54.833 -32.5 89.5 -32.5c35.333 0 65.833 13.5 91.5 40.5s50.167 75.833 73.5 146.5zM461.995 594.999c0 36 -1.99902 74.999 -5.99902 116.999s-10 77 -18 105
c-9.33301 30 -21.833 54.5 -37.5 73.5s-36.167 28.5 -61.5 28.5c-41.333 0 -75.833 -28.667 -103.5 -86s-42.834 -136.666 -45.501 -237.999h272zM846.996 1150l-47.999 -32.001l-279 273l-275 -273l-48 32l237 347c11.333 16.667 22.166 28.334 32.499 35.001
s29.5 10 57.5 10c26.667 0 45 -3.5 55 -10.5s19.667 -17.167 29 -30.5z" />
    <glyph glyph-name="edieresis" unicode="&#xeb;" horiz-adv-x="990" 
d="M593 227c-24.667 -77.333 -57.6719 -138.834 -99.0049 -184.501s-88.666 -68.5 -141.999 -68.5c-47.333 0 -88.666 13.667 -123.999 41s-64.666 64.666 -87.999 111.999c-22.667 46.667 -39.667 101.334 -51 164.001s-17 129 -17 199c0 62.667 6 124.167 18 184.5
s29.667 114.5 53 162.5c22.667 46.667 50.834 84.167 84.501 112.5s71.167 42.5 112.5 42.5c42.667 0 79.334 -11.167 110.001 -33.5s55.667 -52.5 75 -90.5c18 -36.667 31.5 -79.834 40.5 -129.501s13.5 -103.5 13.5 -161.5v-65h-389
c0 -63.333 3.66699 -120.666 11 -171.999s19 -96.666 35 -135.999c15.333 -38 35.5 -67.833 60.5 -89.5s54.833 -32.5 89.5 -32.5c35.333 0 65.833 13.5 91.5 40.5s50.167 75.833 73.5 146.5zM461.995 594.999c0 36 -1.99902 74.999 -5.99902 116.999s-10 77 -18 105
c-9.33301 30 -21.833 54.5 -37.5 73.5s-36.167 28.5 -61.5 28.5c-41.333 0 -75.833 -28.667 -103.5 -86s-42.834 -136.666 -45.501 -237.999h272zM861.996 1364c0 -34 -11.5 -63 -34.5 -87s-50.833 -36 -83.5 -36s-60.5 12 -83.5 36s-34.5 53 -34.5 87s11.5 63 34.5 87
s50.833 36 83.5 36s60.5 -12 83.5 -36s34.5 -53 34.5 -87zM431.996 1364c0 -34 -11.5 -63 -34.5 -87s-50.833 -36 -83.5 -36s-60.5 12 -83.5 36s-34.5 53 -34.5 87s11.5 63 34.5 87s50.833 36 83.5 36s60.5 -12 83.5 -36s34.5 -53 34.5 -87z" />
    <glyph glyph-name="igrave" unicode="&#xec;" horiz-adv-x="600" 
d="M551 0l-477 -0.00195312v66l47.5 4c16.333 1.33301 30.5 4 42.5 8c18.667 6 32.5 16.5 41.5 31.5s13.5 34.5 13.5 58.5v609c0 21.333 -4.83301 40.833 -14.5 58.5s-23.167 32.5 -40.5 44.5c-12.667 8 -31 14.833 -55 20.5s-46 9.16699 -66 10.5v65l348 22l14 -14v-804
c0 -23.333 4.5 -42.666 13.5 -57.999s23.167 -26.666 42.5 -33.999c14.667 -6 29 -10.833 43 -14.5s29.667 -6.16699 47 -7.5v-66zM452 1142l-38.001 -31.9971l-184 143.5c-54 41 -94 72.167 -120 93.5c-25.333 21.333 -43.166 38.666 -53.499 51.999
s-15.5 33.666 -15.5 60.999c0 19.333 7.66699 37.166 23 53.499s35 24.5 59 24.5c26 0 48.333 -6 67 -18s38.667 -35.333 60 -70l80 -125.5z" />
    <glyph glyph-name="iacute" unicode="&#xed;" horiz-adv-x="600" 
d="M551 0l-477 -0.00195312v66l47.5 4c16.333 1.33301 30.5 4 42.5 8c18.667 6 32.5 16.5 41.5 31.5s13.5 34.5 13.5 58.5v609c0 21.333 -4.83301 40.833 -14.5 58.5s-23.167 32.5 -40.5 44.5c-12.667 8 -31 14.833 -55 20.5s-46 9.16699 -66 10.5v65l348 22l14 -14v-804
c0 -23.333 4.5 -42.666 13.5 -57.999s23.167 -26.666 42.5 -33.999c14.667 -6 29 -10.833 43 -14.5s29.667 -6.16699 47 -7.5v-66zM511 1460c0 -25.333 -5.83105 -46.001 -17.498 -62.001s-28.834 -33 -51.501 -51l-130.5 -102l-173.5 -135l-38 32l125.5 187.5l76.5 120.5
c20.667 34 40.667 57.167 60 69.5s41.666 18.5 66.999 18.5c24 0 43.667 -8.16699 59 -24.5s23 -34.166 23 -53.499z" />
    <glyph glyph-name="icircumflex" unicode="&#xee;" horiz-adv-x="600" 
d="M551 0l-477 -0.00195312v66l47.5 4c16.333 1.33301 30.5 4 42.5 8c18.667 6 32.5 16.5 41.5 31.5s13.5 34.5 13.5 58.5v609c0 21.333 -4.83301 40.833 -14.5 58.5s-23.167 32.5 -40.5 44.5c-12.667 8 -31 14.833 -55 20.5s-46 9.16699 -66 10.5v65l348 22l14 -14v-804
c0 -23.333 4.5 -42.666 13.5 -57.999s23.167 -26.666 42.5 -33.999c14.667 -6 29 -10.833 43 -14.5s29.667 -6.16699 47 -7.5v-66zM560 1150l-48 -28.999l-244 270l-240 -270l-48 29l202 343c7.33301 13.333 17.333 24.833 30 34.5s32.667 14.5 60 14.5
c29.333 0 49.5 -5.33301 60.5 -16s18.833 -20.334 23.5 -29.001z" />
    <glyph glyph-name="idieresis" unicode="&#xef;" horiz-adv-x="600" 
d="M551 0l-477 -0.00195312v66l47.5 4c16.333 1.33301 30.5 4 42.5 8c18.667 6 32.5 16.5 41.5 31.5s13.5 34.5 13.5 58.5v609c0 21.333 -4.83301 40.833 -14.5 58.5s-23.167 32.5 -40.5 44.5c-12.667 8 -31 14.833 -55 20.5s-46 9.16699 -66 10.5v65l348 22l14 -14v-804
c0 -23.333 4.5 -42.666 13.5 -57.999s23.167 -26.666 42.5 -33.999c14.667 -6 29 -10.833 43 -14.5s29.667 -6.16699 47 -7.5v-66zM566 1364c0 -34 -11 -63 -33 -87s-49.333 -36 -82 -36s-60 12 -82 36s-33 53 -33 87s11 63 33 87s49.333 36 82 36s60 -12 82 -36
s33 -53 33 -87zM216 1364c0 -34 -11 -63 -33 -87s-49.333 -36 -82 -36s-60 12 -82 36s-33 53 -33 87s11 63 33 87s49.333 36 82 36s60 -12 82 -36s33 -53 33 -87z" />
    <glyph glyph-name="eth" unicode="&#xf0;" 
 />
    <glyph glyph-name="ntilde" unicode="&#xf1;" horiz-adv-x="1210" 
d="M698 0l-279.998 0.00195312v66c9.33301 1.33301 19.166 2.66602 29.499 3.99902s19.166 4 26.499 8c10.667 6 18.667 16.5 24 31.5s8 34.5 8 58.5v507c0 70 -9.66699 124 -29 162s-42.666 57 -69.999 57c-20 0 -38.5 -5.5 -55.5 -16.5s-32.167 -24.5 -45.5 -40.5
c-12.667 -15.333 -22.834 -31.833 -30.501 -49.5s-13.167 -31.834 -16.5 -42.501v-567c0 -22.667 2.66699 -41.334 8 -56.001s13.333 -26 24 -34c8.66699 -6.66699 17.667 -11.667 27 -15s19 -5.66602 29 -6.99902v-66h-280v66l28 4c9.33301 1.33301 17.333 4 24 8
c11.333 6 19.5 16.5 24.5 31.5s7.5 34.5 7.5 58.5v609c0 22.667 -2.66699 43.5 -8 62.5s-13.333 34.5 -24 46.5c-7.33301 8 -16 13.833 -26 17.5s-20.667 6.16699 -32 7.5v65l190 22l8 -14v-139h3l35 57.5c14 22.333 27 40.5 39 54.5c14 16 31 29.333 51 40s42.333 16 67 16
c54.667 0 95.167 -29.5 121.5 -88.5s39.5 -137.5 39.5 -235.5v-513c0 -23.333 2.33301 -42.166 7 -56.499s12.667 -25.5 24 -33.5c9.33301 -6.66699 17.333 -11.334 24 -14.001s16 -4.66699 28 -6v-66zM986.002 1467c-6.66699 -25.333 -16.665 -51.333 -29.998 -78
s-31.666 -53 -54.999 -79c-24 -26 -49.167 -46.833 -75.5 -62.5s-57.833 -23.5 -94.5 -23.5c-38 0 -71.333 5.5 -100 16.5s-53.334 22.5 -74.001 34.5c-23.333 13.333 -45.5 25.333 -66.5 36s-44.167 16 -69.5 16c-20.667 0 -36.167 -2.66699 -46.5 -8
s-21.166 -14.333 -32.499 -27c-10.667 -12 -21.334 -27.833 -32.001 -47.5l-30 -53.5l-58 25c6.66699 21.333 18 47 34 77s33.333 56.333 52 79c20 24 44.333 44.5 73 61.5s58.667 25.5 90 25.5c37.333 0 69.5 -5.5 96.5 -16.5s51.833 -22.833 74.5 -35.5l64 -36
c17.333 -10 38.666 -15 63.999 -15c26.667 0 48.167 3.16699 64.5 9.5s29.166 15.166 38.499 26.499c10.667 12.667 19.5 26.334 26.5 41.001s15.5 33.667 25.5 57z" />
    <glyph glyph-name="ograve" unicode="&#xf2;" horiz-adv-x="1104" 
d="M1033 503c0 -69.333 -10.999 -137.5 -32.999 -204.5s-53.333 -123.833 -94 -170.5c-46 -53.333 -99.333 -93 -160 -119s-128.667 -39 -204 -39c-62.667 0 -122.334 11.833 -179.001 35.5s-107 58.167 -151 103.5c-43.333 44.667 -77.833 99.167 -103.5 163.5
s-38.5 136.5 -38.5 216.5c0 154 44.833 280 134.5 378s207.167 147 352.5 147c138 0 251.833 -46.5 341.5 -139.5s134.5 -216.833 134.5 -371.5zM826.001 501c0 50 -5.00098 102.832 -15.001 158.499s-25 102.834 -45 141.501c-21.333 41.333 -49.333 74.5 -84 99.5
s-77 37.5 -127 37.5c-51.333 0 -95.166 -12.667 -131.499 -38s-65.833 -60 -88.5 -104c-21.333 -40.667 -36.333 -87 -45 -139s-13 -102.333 -13 -151c0 -64 5.16699 -123.167 15.5 -177.5s26.833 -102.833 49.5 -145.5s51.167 -76.167 85.5 -100.5
s76.833 -36.5 127.5 -36.5c83.333 0 149.333 40.333 198 121s73 192 73 334zM786 1142l-38.001 -31.9971l-184 143.5c-54 41 -94 72.167 -120 93.5c-25.333 21.333 -43.166 38.666 -53.499 51.999s-15.5 33.666 -15.5 60.999c0 19.333 7.66699 37.166 23 53.499
s35 24.5 59 24.5c26 0 48.333 -6 67 -18s38.667 -35.333 60 -70l80 -125.5z" />
    <glyph glyph-name="oacute" unicode="&#xf3;" horiz-adv-x="1104" 
d="M1033 503c0 -69.333 -10.999 -137.5 -32.999 -204.5s-53.333 -123.833 -94 -170.5c-46 -53.333 -99.333 -93 -160 -119s-128.667 -39 -204 -39c-62.667 0 -122.334 11.833 -179.001 35.5s-107 58.167 -151 103.5c-43.333 44.667 -77.833 99.167 -103.5 163.5
s-38.5 136.5 -38.5 216.5c0 154 44.833 280 134.5 378s207.167 147 352.5 147c138 0 251.833 -46.5 341.5 -139.5s134.5 -216.833 134.5 -371.5zM826.001 501c0 50 -5.00098 102.832 -15.001 158.499s-25 102.834 -45 141.501c-21.333 41.333 -49.333 74.5 -84 99.5
s-77 37.5 -127 37.5c-51.333 0 -95.166 -12.667 -131.499 -38s-65.833 -60 -88.5 -104c-21.333 -40.667 -36.333 -87 -45 -139s-13 -102.333 -13 -151c0 -64 5.16699 -123.167 15.5 -177.5s26.833 -102.833 49.5 -145.5s51.167 -76.167 85.5 -100.5
s76.833 -36.5 127.5 -36.5c83.333 0 149.333 40.333 198 121s73 192 73 334zM743 1460c0 -25.333 -5.83105 -46.001 -17.498 -62.001s-28.834 -33 -51.501 -51l-130.5 -102l-173.5 -135l-38 32l125.5 187.5l76.5 120.5c20.667 34 40.667 57.167 60 69.5
s41.666 18.5 66.999 18.5c24 0 43.667 -8.16699 59 -24.5s23 -34.166 23 -53.499z" />
    <glyph glyph-name="ocircumflex" unicode="&#xf4;" horiz-adv-x="1104" 
d="M1033 503c0 -69.333 -10.999 -137.5 -32.999 -204.5s-53.333 -123.833 -94 -170.5c-46 -53.333 -99.333 -93 -160 -119s-128.667 -39 -204 -39c-62.667 0 -122.334 11.833 -179.001 35.5s-107 58.167 -151 103.5c-43.333 44.667 -77.833 99.167 -103.5 163.5
s-38.5 136.5 -38.5 216.5c0 154 44.833 280 134.5 378s207.167 147 352.5 147c138 0 251.833 -46.5 341.5 -139.5s134.5 -216.833 134.5 -371.5zM826.001 501c0 50 -5.00098 102.832 -15.001 158.499s-25 102.834 -45 141.501c-21.333 41.333 -49.333 74.5 -84 99.5
s-77 37.5 -127 37.5c-51.333 0 -95.166 -12.667 -131.499 -38s-65.833 -60 -88.5 -104c-21.333 -40.667 -36.333 -87 -45 -139s-13 -102.333 -13 -151c0 -64 5.16699 -123.167 15.5 -177.5s26.833 -102.833 49.5 -145.5s51.167 -76.167 85.5 -100.5
s76.833 -36.5 127.5 -36.5c83.333 0 149.333 40.333 198 121s73 192 73 334zM884 1150l-47.999 -32.001l-279 273l-275 -273l-48 32l237 347c11.333 16.667 22.166 28.334 32.499 35.001s29.5 10 57.5 10c26.667 0 45 -3.5 55 -10.5s19.667 -17.167 29 -30.5z" />
    <glyph glyph-name="otilde" unicode="&#xf5;" horiz-adv-x="1104" 
d="M1033 503c0 -69.333 -10.999 -137.5 -32.999 -204.5s-53.333 -123.833 -94 -170.5c-46 -53.333 -99.333 -93 -160 -119s-128.667 -39 -204 -39c-62.667 0 -122.334 11.833 -179.001 35.5s-107 58.167 -151 103.5c-43.333 44.667 -77.833 99.167 -103.5 163.5
s-38.5 136.5 -38.5 216.5c0 154 44.833 280 134.5 378s207.167 147 352.5 147c138 0 251.833 -46.5 341.5 -139.5s134.5 -216.833 134.5 -371.5zM826.001 501c0 50 -5.00098 102.832 -15.001 158.499s-25 102.834 -45 141.501c-21.333 41.333 -49.333 74.5 -84 99.5
s-77 37.5 -127 37.5c-51.333 0 -95.166 -12.667 -131.499 -38s-65.833 -60 -88.5 -104c-21.333 -40.667 -36.333 -87 -45 -139s-13 -102.333 -13 -151c0 -64 5.16699 -123.167 15.5 -177.5s26.833 -102.833 49.5 -145.5s51.167 -76.167 85.5 -100.5
s76.833 -36.5 127.5 -36.5c83.333 0 149.333 40.333 198 121s73 192 73 334zM941 1467c-6.66699 -25.333 -16.665 -51.333 -29.998 -78s-31.666 -53 -54.999 -79c-24 -26 -49.167 -46.833 -75.5 -62.5s-57.833 -23.5 -94.5 -23.5c-38 0 -71.333 5.5 -100 16.5
s-53.334 22.5 -74.001 34.5c-23.333 13.333 -45.5 25.333 -66.5 36s-44.167 16 -69.5 16c-20.667 0 -36.167 -2.66699 -46.5 -8s-21.166 -14.333 -32.499 -27c-10.667 -12 -21.334 -27.833 -32.001 -47.5l-30 -53.5l-58 25c6.66699 21.333 18 47 34 77s33.333 56.333 52 79
c20 24 44.333 44.5 73 61.5s58.667 25.5 90 25.5c37.333 0 69.5 -5.5 96.5 -16.5s51.833 -22.833 74.5 -35.5l64 -36c17.333 -10 38.666 -15 63.999 -15c26.667 0 48.167 3.16699 64.5 9.5s29.166 15.166 38.499 26.499c10.667 12.667 19.5 26.334 26.5 41.001
s15.5 33.667 25.5 57z" />
    <glyph glyph-name="odieresis" unicode="&#xf6;" horiz-adv-x="1104" 
d="M1033 503c0 -69.333 -10.999 -137.5 -32.999 -204.5s-53.333 -123.833 -94 -170.5c-46 -53.333 -99.333 -93 -160 -119s-128.667 -39 -204 -39c-62.667 0 -122.334 11.833 -179.001 35.5s-107 58.167 -151 103.5c-43.333 44.667 -77.833 99.167 -103.5 163.5
s-38.5 136.5 -38.5 216.5c0 154 44.833 280 134.5 378s207.167 147 352.5 147c138 0 251.833 -46.5 341.5 -139.5s134.5 -216.833 134.5 -371.5zM826.001 501c0 50 -5.00098 102.832 -15.001 158.499s-25 102.834 -45 141.501c-21.333 41.333 -49.333 74.5 -84 99.5
s-77 37.5 -127 37.5c-51.333 0 -95.166 -12.667 -131.499 -38s-65.833 -60 -88.5 -104c-21.333 -40.667 -36.333 -87 -45 -139s-13 -102.333 -13 -151c0 -64 5.16699 -123.167 15.5 -177.5s26.833 -102.833 49.5 -145.5s51.167 -76.167 85.5 -100.5
s76.833 -36.5 127.5 -36.5c83.333 0 149.333 40.333 198 121s73 192 73 334zM892 1364c0 -34 -11.5 -63 -34.5 -87s-50.833 -36 -83.5 -36s-60.5 12 -83.5 36s-34.5 53 -34.5 87s11.5 63 34.5 87s50.833 36 83.5 36s60.5 -12 83.5 -36s34.5 -53 34.5 -87zM462 1364
c0 -34 -11.5 -63 -34.5 -87s-50.833 -36 -83.5 -36s-60.5 12 -83.5 36s-34.5 53 -34.5 87s11.5 63 34.5 87s50.833 36 83.5 36s60.5 -12 83.5 -36s34.5 -53 34.5 -87z" />
    <glyph glyph-name="divide" unicode="&#xf7;" horiz-adv-x="1317" 
d="M788 966c0 -35.333 -12.667 -65.666 -38 -90.999s-55.666 -38 -90.999 -38s-65.666 12.667 -90.999 38s-38 55.666 -38 90.999s12.667 65.333 38 90s55.666 37 90.999 37s65.666 -12.333 90.999 -37s38 -54.667 38 -90zM1173 497h-1029v125h1029v-125zM788 153
c0 -35.333 -12.667 -65.333 -38 -90s-55.666 -37 -90.999 -37s-65.666 12.333 -90.999 37s-38 54.667 -38 90s12.667 65.666 38 90.999s55.666 38 90.999 38s65.666 -12.667 90.999 -38s38 -55.666 38 -90.999z" />
    <glyph glyph-name="oslash" unicode="&#xf8;" horiz-adv-x="1104" 
d="M1033 503c0 -69.333 -10.998 -137.5 -32.998 -204.5s-53.333 -123.833 -94 -170.5c-46 -53.333 -99.333 -93 -160 -119s-128.667 -39 -204 -39c-52.667 0 -103.334 9 -152.001 27s-93.667 44 -135 78l-84.5 -104l-41.5 -52l-58 43l133 163
c-40.667 45.333 -73.167 98.166 -97.5 158.499s-36.5 128.833 -36.5 205.5c0 154 44.833 280 134.5 378s207.167 147 352.5 147c58.667 0 111.667 -8.33301 159 -25s90.666 -40.667 129.999 -72l111 141l58 -44l-118 -145c42.667 -46 76 -100.167 100 -162.5
s36 -130.166 36 -203.499zM763.002 815c-22 38.667 -49.167 68.834 -81.5 90.501s-74.5 32.5 -126.5 32.5c-54 0 -99.167 -13.167 -135.5 -39.5s-65.5 -60.5 -87.5 -102.5c-21.333 -40.667 -36.5 -87 -45.5 -139s-13.5 -102.333 -13.5 -151c0 -46 2.83301 -91.333 8.5 -136
s14.167 -85.334 25.5 -122.001zM763.002 180c23.333 44.667 40.333 92.667 51 144s16 110.333 16 177c0 42 -2.66699 84.667 -8 128s-14 83 -26 119l-456 -569c22.667 -41.333 51 -73.833 85 -97.5s77.333 -35.5 130 -35.5c46.667 0 87.5 12.167 122.5 36.5
s63.5 56.833 85.5 97.5z" />
    <glyph glyph-name="ugrave" unicode="&#xf9;" horiz-adv-x="1178" 
d="M852 18l-239.998 -22l-11 14v125h-4c-12 -16.667 -25.5 -34.5 -40.5 -53.5s-32.167 -36.167 -51.5 -51.5c-22.667 -18 -44.5 -31.667 -65.5 -41s-50.5 -14 -88.5 -14c-65.333 0 -115 28.5 -149 85.5s-51 139.833 -51 248.5v472c0 24 -3.33301 44.167 -10 60.5
s-16.667 30.5 -30 42.5c-8.66699 8 -19.834 13.833 -33.501 17.5s-27.834 6.16699 -42.501 7.5v65l246 24l11 -14v-685c0 -71.333 12 -125 36 -161s52.667 -54 86 -54c27.333 0 51.666 5.66699 72.999 17s39.333 24.666 54 39.999c13.333 14 25 28.833 35 44.5
s18 30.167 24 43.5v559c0 22 -3.5 41.5 -10.5 58.5s-16.833 31.5 -29.5 43.5c-8.66699 8 -21.834 12.833 -39.501 14.5s-37.5 3.16699 -59.5 4.5v65l267 24l11 -14v-783c0 -22.667 3.5 -42 10.5 -58s16.833 -29.667 29.5 -41
c8.66699 -7.33301 19.334 -12.166 32.001 -14.499s26.334 -3.83301 41.001 -4.5v-65zM769.002 1142l-38.001 -31.9971l-184 143.5c-54 41 -94 72.167 -120 93.5c-25.333 21.333 -43.166 38.666 -53.499 51.999s-15.5 33.666 -15.5 60.999c0 19.333 7.66699 37.166 23 53.499
s35 24.5 59 24.5c26 0 48.333 -6 67 -18s38.667 -35.333 60 -70l80 -125.5z" />
    <glyph glyph-name="uacute" unicode="&#xfa;" horiz-adv-x="1178" 
d="M852 18l-239.998 -22l-11 14v125h-4c-12 -16.667 -25.5 -34.5 -40.5 -53.5s-32.167 -36.167 -51.5 -51.5c-22.667 -18 -44.5 -31.667 -65.5 -41s-50.5 -14 -88.5 -14c-65.333 0 -115 28.5 -149 85.5s-51 139.833 -51 248.5v472c0 24 -3.33301 44.167 -10 60.5
s-16.667 30.5 -30 42.5c-8.66699 8 -19.834 13.833 -33.501 17.5s-27.834 6.16699 -42.501 7.5v65l246 24l11 -14v-685c0 -71.333 12 -125 36 -161s52.667 -54 86 -54c27.333 0 51.666 5.66699 72.999 17s39.333 24.666 54 39.999c13.333 14 25 28.833 35 44.5
s18 30.167 24 43.5v559c0 22 -3.5 41.5 -10.5 58.5s-16.833 31.5 -29.5 43.5c-8.66699 8 -21.834 12.833 -39.501 14.5s-37.5 3.16699 -59.5 4.5v65l267 24l11 -14v-783c0 -22.667 3.5 -42 10.5 -58s16.833 -29.667 29.5 -41
c8.66699 -7.33301 19.334 -12.166 32.001 -14.499s26.334 -3.83301 41.001 -4.5v-65zM808.002 1460c0 -25.333 -5.83105 -46.001 -17.498 -62.001s-28.834 -33 -51.501 -51l-130.5 -102l-173.5 -135l-38 32l125.5 187.5l76.5 120.5c20.667 34 40.667 57.167 60 69.5
s41.666 18.5 66.999 18.5c24 0 43.667 -8.16699 59 -24.5s23 -34.166 23 -53.499z" />
    <glyph glyph-name="ucircumflex" unicode="&#xfb;" horiz-adv-x="1178" 
d="M852 18l-239.998 -22l-11 14v125h-4c-12 -16.667 -25.5 -34.5 -40.5 -53.5s-32.167 -36.167 -51.5 -51.5c-22.667 -18 -44.5 -31.667 -65.5 -41s-50.5 -14 -88.5 -14c-65.333 0 -115 28.5 -149 85.5s-51 139.833 -51 248.5v472c0 24 -3.33301 44.167 -10 60.5
s-16.667 30.5 -30 42.5c-8.66699 8 -19.834 13.833 -33.501 17.5s-27.834 6.16699 -42.501 7.5v65l246 24l11 -14v-685c0 -71.333 12 -125 36 -161s52.667 -54 86 -54c27.333 0 51.666 5.66699 72.999 17s39.333 24.666 54 39.999c13.333 14 25 28.833 35 44.5
s18 30.167 24 43.5v559c0 22 -3.5 41.5 -10.5 58.5s-16.833 31.5 -29.5 43.5c-8.66699 8 -21.834 12.833 -39.501 14.5s-37.5 3.16699 -59.5 4.5v65l267 24l11 -14v-783c0 -22.667 3.5 -42 10.5 -58s16.833 -29.667 29.5 -41
c8.66699 -7.33301 19.334 -12.166 32.001 -14.499s26.334 -3.83301 41.001 -4.5v-65zM898.002 1150l-47.999 -32.001l-279 273l-275 -273l-48 32l237 347c11.333 16.667 22.166 28.334 32.499 35.001s29.5 10 57.5 10c26.667 0 45 -3.5 55 -10.5s19.667 -17.167 29 -30.5z
" />
    <glyph glyph-name="udieresis" unicode="&#xfc;" horiz-adv-x="1178" 
d="M852 18l-239.998 -22l-11 14v125h-4c-12 -16.667 -25.5 -34.5 -40.5 -53.5s-32.167 -36.167 -51.5 -51.5c-22.667 -18 -44.5 -31.667 -65.5 -41s-50.5 -14 -88.5 -14c-65.333 0 -115 28.5 -149 85.5s-51 139.833 -51 248.5v472c0 24 -3.33301 44.167 -10 60.5
s-16.667 30.5 -30 42.5c-8.66699 8 -19.834 13.833 -33.501 17.5s-27.834 6.16699 -42.501 7.5v65l246 24l11 -14v-685c0 -71.333 12 -125 36 -161s52.667 -54 86 -54c27.333 0 51.666 5.66699 72.999 17s39.333 24.666 54 39.999c13.333 14 25 28.833 35 44.5
s18 30.167 24 43.5v559c0 22 -3.5 41.5 -10.5 58.5s-16.833 31.5 -29.5 43.5c-8.66699 8 -21.834 12.833 -39.501 14.5s-37.5 3.16699 -59.5 4.5v65l267 24l11 -14v-783c0 -22.667 3.5 -42 10.5 -58s16.833 -29.667 29.5 -41
c8.66699 -7.33301 19.334 -12.166 32.001 -14.499s26.334 -3.83301 41.001 -4.5v-65zM906.002 1364c0 -34 -11.5 -63 -34.5 -87s-50.833 -36 -83.5 -36s-60.5 12 -83.5 36s-34.5 53 -34.5 87s11.5 63 34.5 87s50.833 36 83.5 36s60.5 -12 83.5 -36s34.5 -53 34.5 -87z
M476.002 1364c0 -34 -11.5 -63 -34.5 -87s-50.833 -36 -83.5 -36s-60.5 12 -83.5 36s-34.5 53 -34.5 87s11.5 63 34.5 87s50.833 36 83.5 36s60.5 -12 83.5 -36s34.5 -53 34.5 -87z" />
    <glyph glyph-name="yacute" unicode="&#xfd;" horiz-adv-x="1024" 
 />
    <glyph glyph-name="thorn" unicode="&#xfe;" 
 />
    <glyph glyph-name="ydieresis" unicode="&#xff;" horiz-adv-x="1008" 
d="M-7 -322c0 33.333 6.16309 60.499 18.4961 81.499s27.833 31.5 46.5 31.5c14.667 0 27.334 -4 38.001 -12s20.334 -18.333 29.001 -31c6.66699 -10 13.834 -23.667 21.501 -41l18.5 -43c23.333 18 51 65 83 141s55 142.667 69 200l-118.5 424l-111.5 387
c-8.66699 30.667 -23.334 54.5 -44.001 71.5s-41.334 27.833 -62.001 32.5v66h311v-70c-14 -0.666992 -30.667 -4.83398 -50 -12.501s-29 -18.167 -29 -31.5l4 -15c2.66699 -10 4.66699 -19.667 6 -29l80.5 -285.5l83.5 -298.5l64.5 221.5l75.5 270.5
c2.66699 12.667 7 30.167 13 52.5s9 41.5 9 57.5c0 17.333 -10.333 33.5 -31 48.5s-40.667 24.167 -60 27.5v64h253v-62c-14 -3.33301 -32.167 -14.833 -54.5 -34.5s-39.166 -47.5 -50.499 -83.5l-146 -503c-42.667 -151.333 -75 -262.666 -97 -333.999
c-29.333 -93.333 -55.333 -166.166 -78 -218.499s-44.667 -93.5 -66 -123.5c-21.333 -28 -40.666 -46.833 -57.999 -56.5s-35.333 -14.5 -54 -14.5c-35.333 0 -63.166 12.333 -83.499 37s-30.5 53 -30.5 85zM875.996 1364c0 -34 -11.5 -63 -34.5 -87s-50.833 -36 -83.5 -36
s-60.5 12 -83.5 36s-34.5 53 -34.5 87s11.5 63 34.5 87s50.833 36 83.5 36s60.5 -12 83.5 -36s34.5 -53 34.5 -87zM445.996 1364c0 -34 -11.5 -63 -34.5 -87s-50.833 -36 -83.5 -36s-60.5 12 -83.5 36s-34.5 53 -34.5 87s11.5 63 34.5 87s50.833 36 83.5 36
s60.5 -12 83.5 -36s34.5 -53 34.5 -87z" />
    <glyph glyph-name="Amacron" unicode="&#x100;" horiz-adv-x="1366" 
 />
    <glyph glyph-name="amacron" unicode="&#x101;" 
 />
    <glyph glyph-name="Abreve" unicode="&#x102;" horiz-adv-x="1366" 
 />
    <glyph glyph-name="abreve" unicode="&#x103;" 
 />
    <glyph glyph-name="Aogonek" unicode="&#x104;" horiz-adv-x="1366" 
 />
    <glyph glyph-name="aogonek" unicode="&#x105;" 
 />
    <glyph glyph-name="Cacute" unicode="&#x106;" horiz-adv-x="1479" 
 />
    <glyph glyph-name="cacute" unicode="&#x107;" horiz-adv-x="1024" 
 />
    <glyph glyph-name="Ccircumflex" unicode="&#x108;" horiz-adv-x="1479" 
 />
    <glyph glyph-name="ccircumflex" unicode="&#x109;" horiz-adv-x="1024" 
 />
    <glyph glyph-name="Cdotaccent" unicode="&#x10a;" horiz-adv-x="1479" 
 />
    <glyph glyph-name="cdotaccent" unicode="&#x10b;" horiz-adv-x="1024" 
 />
    <glyph glyph-name="Ccaron" unicode="&#x10c;" horiz-adv-x="1479" 
 />
    <glyph glyph-name="ccaron" unicode="&#x10d;" horiz-adv-x="1024" 
 />
    <glyph glyph-name="Dcaron" unicode="&#x10e;" horiz-adv-x="1479" 
 />
    <glyph glyph-name="dcaron" unicode="&#x10f;" horiz-adv-x="1259" 
 />
    <glyph glyph-name="Dcroat" unicode="&#x110;" horiz-adv-x="1479" 
 />
    <glyph glyph-name="dcroat" unicode="&#x111;" 
 />
    <glyph glyph-name="Emacron" unicode="&#x112;" horiz-adv-x="1366" 
 />
    <glyph glyph-name="emacron" unicode="&#x113;" 
 />
    <glyph glyph-name="Ebreve" unicode="&#x114;" horiz-adv-x="1366" 
 />
    <glyph glyph-name="ebreve" unicode="&#x115;" 
 />
    <glyph glyph-name="Edotaccent" unicode="&#x116;" horiz-adv-x="1366" 
 />
    <glyph glyph-name="edotaccent" unicode="&#x117;" 
 />
    <glyph glyph-name="Eogonek" unicode="&#x118;" horiz-adv-x="1366" 
 />
    <glyph glyph-name="eogonek" unicode="&#x119;" 
 />
    <glyph glyph-name="Ecaron" unicode="&#x11a;" horiz-adv-x="1366" 
 />
    <glyph glyph-name="ecaron" unicode="&#x11b;" 
 />
    <glyph glyph-name="Gcircumflex" unicode="&#x11c;" horiz-adv-x="1593" 
 />
    <glyph glyph-name="gcircumflex" unicode="&#x11d;" 
 />
    <glyph glyph-name="Gbreve" unicode="&#x11e;" horiz-adv-x="1593" 
 />
    <glyph glyph-name="gbreve" unicode="&#x11f;" 
 />
    <glyph glyph-name="Gdotaccent" unicode="&#x120;" horiz-adv-x="1593" 
 />
    <glyph glyph-name="gdotaccent" unicode="&#x121;" 
 />
    <glyph glyph-name="Gcommaaccent" unicode="&#x122;" horiz-adv-x="1593" 
 />
    <glyph glyph-name="gcommaaccent" unicode="&#x123;" 
 />
    <glyph glyph-name="Hcircumflex" unicode="&#x124;" horiz-adv-x="1479" 
 />
    <glyph glyph-name="hcircumflex" unicode="&#x125;" 
 />
    <glyph glyph-name="Hbar" unicode="&#x126;" horiz-adv-x="1479" 
 />
    <glyph glyph-name="hbar" unicode="&#x127;" 
 />
    <glyph glyph-name="Itilde" unicode="&#x128;" horiz-adv-x="569" 
 />
    <glyph glyph-name="itilde" unicode="&#x129;" horiz-adv-x="569" 
 />
    <glyph glyph-name="Imacron" unicode="&#x12a;" horiz-adv-x="569" 
 />
    <glyph glyph-name="imacron" unicode="&#x12b;" horiz-adv-x="569" 
 />
    <glyph glyph-name="Ibreve" unicode="&#x12c;" horiz-adv-x="569" 
 />
    <glyph glyph-name="ibreve" unicode="&#x12d;" horiz-adv-x="569" 
 />
    <glyph glyph-name="Iogonek" unicode="&#x12e;" horiz-adv-x="569" 
 />
    <glyph glyph-name="iogonek" unicode="&#x12f;" horiz-adv-x="455" 
 />
    <glyph glyph-name="Idotaccent" unicode="&#x130;" horiz-adv-x="569" 
 />
    <glyph glyph-name="dotlessi" unicode="&#x131;" horiz-adv-x="569" 
 />
    <glyph glyph-name="IJ" unicode="&#x132;" horiz-adv-x="1505" 
 />
    <glyph glyph-name="ij" unicode="&#x133;" horiz-adv-x="909" 
 />
    <glyph glyph-name="Jcircumflex" unicode="&#x134;" horiz-adv-x="1024" 
 />
    <glyph glyph-name="jcircumflex" unicode="&#x135;" horiz-adv-x="455" 
 />
    <glyph glyph-name="Kcommaaccent" unicode="&#x136;" horiz-adv-x="1366" 
 />
    <glyph glyph-name="kcommaaccent" unicode="&#x137;" horiz-adv-x="1024" 
 />
    <glyph glyph-name="kgreenlandic" unicode="&#x138;" horiz-adv-x="1024" 
 />
    <glyph glyph-name="Lacute" unicode="&#x139;" 
 />
    <glyph glyph-name="lacute" unicode="&#x13a;" horiz-adv-x="455" 
 />
    <glyph glyph-name="Lcommaaccent" unicode="&#x13b;" 
 />
    <glyph glyph-name="lcommaaccent" unicode="&#x13c;" horiz-adv-x="455" 
 />
    <glyph glyph-name="Lcaron" unicode="&#x13d;" 
 />
    <glyph glyph-name="lcaron" unicode="&#x13e;" horiz-adv-x="597" 
 />
    <glyph glyph-name="Ldot" unicode="&#x13f;" 
 />
    <glyph glyph-name="ldot" unicode="&#x140;" horiz-adv-x="684" 
 />
    <glyph glyph-name="Lslash" unicode="&#x141;" 
 />
    <glyph glyph-name="lslash" unicode="&#x142;" horiz-adv-x="455" 
 />
    <glyph glyph-name="Nacute" unicode="&#x143;" horiz-adv-x="1479" 
 />
    <glyph glyph-name="nacute" unicode="&#x144;" 
 />
    <glyph glyph-name="Ncommaaccent" unicode="&#x145;" horiz-adv-x="1479" 
 />
    <glyph glyph-name="ncommaaccent" unicode="&#x146;" 
 />
    <glyph glyph-name="Ncaron" unicode="&#x147;" horiz-adv-x="1479" 
 />
    <glyph glyph-name="ncaron" unicode="&#x148;" 
 />
    <glyph glyph-name="napostrophe" unicode="&#x149;" horiz-adv-x="1237" 
 />
    <glyph glyph-name="Eng" unicode="&#x14a;" horiz-adv-x="1481" 
 />
    <glyph glyph-name="eng" unicode="&#x14b;" 
 />
    <glyph glyph-name="Omacron" unicode="&#x14c;" horiz-adv-x="1593" 
 />
    <glyph glyph-name="omacron" unicode="&#x14d;" 
 />
    <glyph glyph-name="Obreve" unicode="&#x14e;" horiz-adv-x="1593" 
 />
    <glyph glyph-name="obreve" unicode="&#x14f;" 
 />
    <glyph glyph-name="Ohungarumlaut" unicode="&#x150;" horiz-adv-x="1593" 
 />
    <glyph glyph-name="ohungarumlaut" unicode="&#x151;" 
 />
    <glyph glyph-name="OE" unicode="&#x152;" horiz-adv-x="2044" 
d="M1003 87v1244c-27.333 1.33301 -55.5 2.5 -84.5 3.5s-52.5 1.5 -70.5 1.5c-77.333 0 -147 -11.5 -209 -34.5s-117.333 -60.167 -166 -111.5c-46.667 -48.667 -83.5 -112.667 -110.5 -192s-40.5 -173 -40.5 -281c0 -189.333 49.833 -342.5 149.5 -459.5
s230.5 -175.5 392.5 -175.5c18 0 38.833 0.5 62.5 1.5s49.167 2.16699 76.5 3.5zM1216 269c0 -41.333 3.00586 -74.8301 9.00586 -100.497s17.667 -44.5 35 -56.5c18 -12.667 41.833 -20.834 71.5 -24.501s72.167 -5.5 127.5 -5.5h85.5c35 0 64.167 1.33301 87.5 4
c27.333 3.33301 53.166 8.33301 77.499 15s42.166 16 53.499 28c30.667 32 62.834 80.5 96.501 145.5s55.167 112.833 64.5 143.5h72l-27 -418h-1154c-142 0 -272.833 33.167 -392.5 99.5s-208.167 155.166 -265.5 266.499c-24 46.667 -42.833 99.334 -56.5 158.001
s-20.5 123.667 -20.5 195c0 118.667 22 222.167 66 310.5s103 161.833 177 220.5c72 57.333 154.333 99.833 247 127.5s186 41.5 280 41.5h1039v-342h-75c-12.667 50 -41.334 103.667 -86.001 161s-87 88.666 -127 93.999c-20.667 2.66699 -45.334 4.66699 -74.001 6
s-61.334 2 -98.001 2h-213v-564h150c48 0 84 4.16699 108 12.5s46.333 25.166 67 50.499c14.667 19.333 27.167 45.166 37.5 77.499s17.166 62.833 20.499 91.5h75v-555h-75c-2.66699 32 -9.83398 65.833 -21.501 101.5s-23.834 61.5 -36.501 77.5
c-19.333 24.667 -42.166 41.334 -68.499 50.001s-61.833 13 -106.5 13h-150v-426z" />
    <glyph glyph-name="oe" unicode="&#x153;" horiz-adv-x="1672" 
d="M1631 233c-38.667 -82 -91.835 -145.665 -159.502 -190.998s-142.5 -68 -224.5 -68c-75.333 0 -144.666 17.167 -207.999 51.5s-114.333 82.166 -153 143.499c-41.333 -61.333 -92.166 -109.833 -152.499 -145.5s-128.166 -53.5 -203.499 -53.5
c-60 0 -117.833 11.833 -173.5 35.5s-104.834 58.167 -147.501 103.5c-42.667 44.667 -76.5 99.167 -101.5 163.5s-37.5 136.5 -37.5 216.5c0 73.333 10.333 141.333 31 204s52 118.667 94 168c40 47.333 90.167 84.666 150.5 111.999s128.166 41 203.499 41
c76 0 144.333 -19.167 205 -57.5s107.334 -83.166 140.001 -134.499c35.333 56 81.833 102 139.5 138s121.167 54 190.5 54s127.5 -10.833 174.5 -32.5s86.167 -51.5 117.5 -89.5c30.667 -37.333 53.334 -81.5 68.001 -132.5s22 -105.5 22 -163.5v-72h-624
c2 -147.333 29.167 -257.5 81.5 -330.5s129.166 -109.5 230.499 -109.5c69.333 0 124 17.167 164 51.5s74.333 81.166 103 140.499zM1410 608.002c0 38.667 -2 77.167 -6 115.5s-13.333 73.833 -28 106.5c-14 32 -34.167 58.167 -60.5 78.5s-60.833 30.5 -103.5 30.5
c-68 0 -123.333 -32.167 -166 -96.5s-64 -142.5 -64 -234.5h428zM787.999 490.002c0 56 -3.66504 112 -10.998 168s-20 104 -38 144c-18.667 41.333 -44.334 74.5 -77.001 99.5s-73.667 37.5 -123 37.5c-51.333 0 -93.833 -13.167 -127.5 -39.5
s-60.834 -60.833 -81.501 -103.5c-19.333 -40 -33.166 -86 -41.499 -138s-12.5 -103 -12.5 -153c0 -66 5.16699 -126.667 15.5 -182s25.5 -103 45.5 -143c21.333 -42 48.5 -75 81.5 -99s73.167 -36 120.5 -36c79.333 0 140.666 36.5 183.999 109.5s65 184.833 65 335.5z" />
    <glyph glyph-name="Racute" unicode="&#x154;" horiz-adv-x="1479" 
 />
    <glyph glyph-name="racute" unicode="&#x155;" horiz-adv-x="682" 
 />
    <glyph glyph-name="Rcommaaccent" unicode="&#x156;" horiz-adv-x="1479" 
 />
    <glyph glyph-name="rcommaaccent" unicode="&#x157;" horiz-adv-x="682" 
 />
    <glyph glyph-name="Rcaron" unicode="&#x158;" horiz-adv-x="1479" 
 />
    <glyph glyph-name="rcaron" unicode="&#x159;" horiz-adv-x="682" 
 />
    <glyph glyph-name="Sacute" unicode="&#x15a;" horiz-adv-x="1366" 
 />
    <glyph glyph-name="sacute" unicode="&#x15b;" horiz-adv-x="1024" 
 />
    <glyph glyph-name="Scircumflex" unicode="&#x15c;" horiz-adv-x="1366" 
 />
    <glyph glyph-name="scircumflex" unicode="&#x15d;" horiz-adv-x="1024" 
 />
    <glyph glyph-name="Scedilla" unicode="&#x15e;" horiz-adv-x="1366" 
 />
    <glyph glyph-name="scedilla" unicode="&#x15f;" horiz-adv-x="1024" 
 />
    <glyph glyph-name="Scaron" unicode="&#x160;" horiz-adv-x="1366" 
 />
    <glyph glyph-name="scaron" unicode="&#x161;" horiz-adv-x="1024" 
 />
    <glyph glyph-name="Tcommaaccent" unicode="&#x162;" horiz-adv-x="1251" 
 />
    <glyph glyph-name="tcommaaccent" unicode="&#x163;" horiz-adv-x="569" 
 />
    <glyph glyph-name="Tcaron" unicode="&#x164;" horiz-adv-x="1251" 
 />
    <glyph glyph-name="tcaron" unicode="&#x165;" horiz-adv-x="768" 
 />
    <glyph glyph-name="Tbar" unicode="&#x166;" horiz-adv-x="1251" 
 />
    <glyph glyph-name="tbar" unicode="&#x167;" horiz-adv-x="569" 
 />
    <glyph glyph-name="Utilde" unicode="&#x168;" horiz-adv-x="1479" 
 />
    <glyph glyph-name="utilde" unicode="&#x169;" 
 />
    <glyph glyph-name="Umacron" unicode="&#x16a;" horiz-adv-x="1479" 
 />
    <glyph glyph-name="umacron" unicode="&#x16b;" 
 />
    <glyph glyph-name="Ubreve" unicode="&#x16c;" horiz-adv-x="1479" 
 />
    <glyph glyph-name="ubreve" unicode="&#x16d;" 
 />
    <glyph glyph-name="Uring" unicode="&#x16e;" horiz-adv-x="1479" 
 />
    <glyph glyph-name="uring" unicode="&#x16f;" 
 />
    <glyph glyph-name="Uhungarumlaut" unicode="&#x170;" horiz-adv-x="1479" 
 />
    <glyph glyph-name="uhungarumlaut" unicode="&#x171;" 
 />
    <glyph glyph-name="Uogonek" unicode="&#x172;" horiz-adv-x="1479" 
 />
    <glyph glyph-name="uogonek" unicode="&#x173;" 
 />
    <glyph glyph-name="Wcircumflex" unicode="&#x174;" horiz-adv-x="1933" 
 />
    <glyph glyph-name="wcircumflex" unicode="&#x175;" horiz-adv-x="1479" 
 />
    <glyph glyph-name="Ycircumflex" unicode="&#x176;" horiz-adv-x="1366" 
 />
    <glyph glyph-name="ycircumflex" unicode="&#x177;" horiz-adv-x="1024" 
 />
    <glyph glyph-name="Ydieresis" unicode="&#x178;" horiz-adv-x="1260" 
d="M751 1348c-6.66699 -0.666992 -17.167 -5.16211 -31.5 -13.4951s-24.833 -16.5 -31.5 -24.5c-14.667 -16 -24.834 -28.333 -30.501 -37s-16.167 -31.334 -31.5 -68.001c-30.667 -73.333 -58.834 -147.666 -84.501 -222.999l-96.5 -287
c-14.667 -42.667 -24.334 -77 -29.001 -103s-7 -63.667 -7 -113v-271c0 -24 2.83301 -44.833 8.5 -62.5s15.5 -31.834 29.5 -42.501c8 -5.33301 22.5 -11.833 43.5 -19.5s37.833 -11.834 50.5 -12.501v-71h-388v71c10.667 1.33301 27 3.83301 49 7.5s37.333 8.5 46 14.5
c14 10 23.5 23.667 28.5 41s7.5 38.666 7.5 63.999v345c0 10.667 -3.66699 30.167 -11 58.5s-16.333 59.833 -27 94.5l-78 251l-74 231c-13.333 38 -25 66.667 -35 86s-21.333 36.333 -34 51c-9.33301 10 -20.5 17.667 -33.5 23s-24.833 8.66602 -35.5 9.99902v71h354v-71
c-40 -1.33301 -68.167 -6 -84.5 -14s-24.5 -19.333 -24.5 -34c0 -4 1.16699 -11 3.5 -21s5.83301 -22.667 10.5 -38c4.66699 -17.333 10.5 -37.166 17.5 -59.499l20.5 -64.5l56 -177.5l75 -230.5l140 394.5c32 94.333 48 150.833 48 169.5
c0 15.333 -3.16699 27.666 -9.5 36.999s-15.166 16.666 -26.499 21.999s-23.666 8.83301 -36.999 10.5s-25.666 3.5 -36.999 5.5v71h289v-71zM1012 1730c0 -34 -11.5 -63 -34.5 -87s-50.833 -36 -83.5 -36s-60.5 12 -83.5 36s-34.5 53 -34.5 87s11.5 63 34.5 87
s50.833 36 83.5 36s60.5 -12 83.5 -36s34.5 -53 34.5 -87zM562 1730c0 -34 -11.5 -63 -34.5 -87s-50.833 -36 -83.5 -36s-60.5 12 -83.5 36s-34.5 53 -34.5 87s11.5 63 34.5 87s50.833 36 83.5 36s60.5 -12 83.5 -36s34.5 -53 34.5 -87z" />
    <glyph glyph-name="Zacute" unicode="&#x179;" horiz-adv-x="1251" 
 />
    <glyph glyph-name="zacute" unicode="&#x17a;" horiz-adv-x="1024" 
 />
    <glyph glyph-name="Zdotaccent" unicode="&#x17b;" horiz-adv-x="1251" 
 />
    <glyph glyph-name="zdotaccent" unicode="&#x17c;" horiz-adv-x="1024" 
 />
    <glyph glyph-name="Zcaron" unicode="&#x17d;" horiz-adv-x="1251" 
 />
    <glyph glyph-name="zcaron" unicode="&#x17e;" horiz-adv-x="1024" 
 />
    <glyph glyph-name="longs" unicode="&#x17f;" horiz-adv-x="455" 
 />
    <glyph glyph-name="florin" unicode="&#x192;" horiz-adv-x="1063" 
d="M1054 1164c0 -32 -8.16797 -57.4961 -24.501 -76.4961s-40.5 -28.5 -72.5 -28.5s-61.833 13.667 -89.5 41s-55.5 72 -83.5 134c-55.333 -8.66699 -100 -43.5 -134 -104.5s-58.667 -157.833 -74 -290.5l-14 -121h257v-96h-266c-6.66699 -70 -13.667 -138.667 -21 -206
s-16 -133 -26 -197c-18.667 -119.333 -44 -215.5 -76 -288.5s-70 -132.167 -114 -177.5c-40 -40 -84.667 -70.333 -134 -91s-101.333 -31 -156 -31c-64 0 -113.667 13.5 -149 40.5s-53 60.167 -53 99.5c0 30 8.33301 55 25 75s40.667 30 72 30s60.833 -13 88.5 -39
s55.834 -70.667 84.501 -134c54 7.33301 97.167 43.666 129.5 108.999s57.833 160.666 76.5 285.999c15.333 105.333 27.666 200.666 36.999 285.999s17.666 164.666 24.999 237.999h-204v96h213c12.667 112 34 204.333 64 277s71.667 136.667 125 192
c38.667 40 82.334 69.833 131.001 89.5s102.334 29.5 161.001 29.5c62.667 0 112 -13.667 148 -41s54 -61 54 -101z" />
    <glyph glyph-name="Aringacute" unicode="&#x1fa;" horiz-adv-x="1366" 
 />
    <glyph glyph-name="aringacute" unicode="&#x1fb;" 
 />
    <glyph glyph-name="AEacute" unicode="&#x1fc;" horiz-adv-x="2048" 
 />
    <glyph glyph-name="aeacute" unicode="&#x1fd;" horiz-adv-x="1821" 
 />
    <glyph glyph-name="Oslashacute" unicode="&#x1fe;" horiz-adv-x="1593" 
 />
    <glyph glyph-name="oslashacute" unicode="&#x1ff;" horiz-adv-x="1251" 
 />
    <glyph glyph-name="circumflex" unicode="&#x2c6;" horiz-adv-x="682" 
 />
    <glyph glyph-name="caron" unicode="&#x2c7;" horiz-adv-x="682" 
 />
    <glyph glyph-name="uni02C9" unicode="&#x2c9;" horiz-adv-x="682" 
 />
    <glyph glyph-name="breve" unicode="&#x2d8;" horiz-adv-x="682" 
 />
    <glyph glyph-name="dotaccent" unicode="&#x2d9;" horiz-adv-x="682" 
 />
    <glyph glyph-name="ring" unicode="&#x2da;" horiz-adv-x="682" 
 />
    <glyph glyph-name="ogonek" unicode="&#x2db;" horiz-adv-x="682" 
 />
    <glyph glyph-name="tilde" unicode="&#x2dc;" horiz-adv-x="682" 
 />
    <glyph glyph-name="hungarumlaut" unicode="&#x2dd;" horiz-adv-x="682" 
 />
    <glyph glyph-name="tonos" unicode="&#x384;" horiz-adv-x="682" 
 />
    <glyph glyph-name="dieresistonos" unicode="&#x385;" horiz-adv-x="682" 
 />
    <glyph glyph-name="Alphatonos" unicode="&#x386;" horiz-adv-x="1367" 
 />
    <glyph glyph-name="anoteleia" unicode="&#x387;" horiz-adv-x="569" 
 />
    <glyph glyph-name="Epsilontonos" unicode="&#x388;" horiz-adv-x="1606" 
 />
    <glyph glyph-name="Etatonos" unicode="&#x389;" horiz-adv-x="1716" 
 />
    <glyph glyph-name="Iotatonos" unicode="&#x38a;" horiz-adv-x="786" 
 />
    <glyph glyph-name="Omicrontonos" unicode="&#x38c;" horiz-adv-x="1586" 
 />
    <glyph glyph-name="Upsilontonos" unicode="&#x38e;" horiz-adv-x="1752" 
 />
    <glyph glyph-name="Omegatonos" unicode="&#x38f;" horiz-adv-x="1541" 
 />
    <glyph glyph-name="iotadieresistonos" unicode="&#x390;" horiz-adv-x="455" 
 />
    <glyph glyph-name="Alpha" unicode="&#x391;" horiz-adv-x="1366" 
 />
    <glyph glyph-name="Beta" unicode="&#x392;" horiz-adv-x="1366" 
 />
    <glyph glyph-name="Gamma" unicode="&#x393;" horiz-adv-x="1128" 
 />
    <glyph glyph-name="uni0394" unicode="&#x394;" horiz-adv-x="1368" 
 />
    <glyph glyph-name="Epsilon" unicode="&#x395;" horiz-adv-x="1366" 
 />
    <glyph glyph-name="Zeta" unicode="&#x396;" horiz-adv-x="1251" 
 />
    <glyph glyph-name="Eta" unicode="&#x397;" horiz-adv-x="1479" 
 />
    <glyph glyph-name="Theta" unicode="&#x398;" horiz-adv-x="1593" 
 />
    <glyph glyph-name="Iota" unicode="&#x399;" horiz-adv-x="569" 
 />
    <glyph glyph-name="Kappa" unicode="&#x39a;" horiz-adv-x="1366" 
 />
    <glyph glyph-name="Lambda" unicode="&#x39b;" horiz-adv-x="1368" 
 />
    <glyph glyph-name="Mu" unicode="&#x39c;" horiz-adv-x="1706" 
 />
    <glyph glyph-name="Nu" unicode="&#x39d;" horiz-adv-x="1479" 
 />
    <glyph glyph-name="Xi" unicode="&#x39e;" horiz-adv-x="1331" 
 />
    <glyph glyph-name="Omicron" unicode="&#x39f;" horiz-adv-x="1593" 
 />
    <glyph glyph-name="Pi" unicode="&#x3a0;" horiz-adv-x="1479" 
 />
    <glyph glyph-name="Rho" unicode="&#x3a1;" horiz-adv-x="1366" 
 />
    <glyph glyph-name="Sigma" unicode="&#x3a3;" horiz-adv-x="1266" 
 />
    <glyph glyph-name="Tau" unicode="&#x3a4;" horiz-adv-x="1251" 
 />
    <glyph glyph-name="Upsilon" unicode="&#x3a5;" horiz-adv-x="1366" 
 />
    <glyph glyph-name="Phi" unicode="&#x3a6;" horiz-adv-x="1634" 
 />
    <glyph glyph-name="Chi" unicode="&#x3a7;" horiz-adv-x="1366" 
 />
    <glyph glyph-name="Psi" unicode="&#x3a8;" horiz-adv-x="1711" 
 />
    <glyph glyph-name="uni03A9" unicode="&#x3a9;" horiz-adv-x="1531" 
 />
    <glyph glyph-name="Iotadieresis" unicode="&#x3aa;" horiz-adv-x="569" 
 />
    <glyph glyph-name="Upsilondieresis" unicode="&#x3ab;" horiz-adv-x="1366" 
 />
    <glyph glyph-name="alphatonos" unicode="&#x3ac;" horiz-adv-x="1184" 
 />
    <glyph glyph-name="epsilontonos" unicode="&#x3ad;" horiz-adv-x="913" 
 />
    <glyph glyph-name="etatonos" unicode="&#x3ae;" 
 />
    <glyph glyph-name="iotatonos" unicode="&#x3af;" horiz-adv-x="455" 
 />
    <glyph glyph-name="upsilondieresistonos" unicode="&#x3b0;" horiz-adv-x="1120" 
 />
    <glyph glyph-name="alpha" unicode="&#x3b1;" horiz-adv-x="1184" 
 />
    <glyph glyph-name="beta" unicode="&#x3b2;" horiz-adv-x="1178" 
 />
    <glyph glyph-name="gamma" unicode="&#x3b3;" horiz-adv-x="1024" 
 />
    <glyph glyph-name="delta" unicode="&#x3b4;" horiz-adv-x="1140" 
 />
    <glyph glyph-name="epsilon" unicode="&#x3b5;" horiz-adv-x="913" 
 />
    <glyph glyph-name="zeta" unicode="&#x3b6;" horiz-adv-x="903" 
 />
    <glyph glyph-name="eta" unicode="&#x3b7;" 
 />
    <glyph glyph-name="theta" unicode="&#x3b8;" 
 />
    <glyph glyph-name="iota" unicode="&#x3b9;" horiz-adv-x="455" 
 />
    <glyph glyph-name="kappa" unicode="&#x3ba;" horiz-adv-x="1024" 
 />
    <glyph glyph-name="lambda" unicode="&#x3bb;" horiz-adv-x="1024" 
 />
    <glyph glyph-name="uni03BC" unicode="&#x3bc;" horiz-adv-x="1180" 
 />
    <glyph glyph-name="nu" unicode="&#x3bd;" horiz-adv-x="1024" 
 />
    <glyph glyph-name="xi" unicode="&#x3be;" horiz-adv-x="917" 
 />
    <glyph glyph-name="omicron" unicode="&#x3bf;" 
 />
    <glyph glyph-name="pi" unicode="&#x3c0;" horiz-adv-x="1413" 
 />
    <glyph glyph-name="rho" unicode="&#x3c1;" horiz-adv-x="1165" 
 />
    <glyph glyph-name="sigma1" unicode="&#x3c2;" horiz-adv-x="987" 
 />
    <glyph glyph-name="sigma" unicode="&#x3c3;" horiz-adv-x="1264" 
 />
    <glyph glyph-name="tau" unicode="&#x3c4;" horiz-adv-x="809" 
 />
    <glyph glyph-name="upsilon" unicode="&#x3c5;" horiz-adv-x="1120" 
 />
    <glyph glyph-name="phi" unicode="&#x3c6;" horiz-adv-x="1328" 
 />
    <glyph glyph-name="chi" unicode="&#x3c7;" horiz-adv-x="1075" 
 />
    <glyph glyph-name="psi" unicode="&#x3c8;" horiz-adv-x="1460" 
 />
    <glyph glyph-name="omega" unicode="&#x3c9;" horiz-adv-x="1599" 
 />
    <glyph glyph-name="iotadieresis" unicode="&#x3ca;" horiz-adv-x="455" 
 />
    <glyph glyph-name="upsilondieresis" unicode="&#x3cb;" horiz-adv-x="1120" 
 />
    <glyph glyph-name="omicrontonos" unicode="&#x3cc;" 
 />
    <glyph glyph-name="upsilontonos" unicode="&#x3cd;" horiz-adv-x="1120" 
 />
    <glyph glyph-name="omegatonos" unicode="&#x3ce;" horiz-adv-x="1599" 
 />
    <glyph glyph-name="afii10023" unicode="&#x401;" horiz-adv-x="1367" 
 />
    <glyph glyph-name="afii10051" unicode="&#x402;" horiz-adv-x="1771" 
 />
    <glyph glyph-name="afii10052" unicode="&#x403;" horiz-adv-x="1109" 
 />
    <glyph glyph-name="afii10053" unicode="&#x404;" horiz-adv-x="1472" 
 />
    <glyph glyph-name="afii10054" unicode="&#x405;" horiz-adv-x="1366" 
 />
    <glyph glyph-name="afii10055" unicode="&#x406;" horiz-adv-x="569" 
 />
    <glyph glyph-name="afii10056" unicode="&#x407;" horiz-adv-x="569" 
 />
    <glyph glyph-name="afii10057" unicode="&#x408;" horiz-adv-x="1024" 
 />
    <glyph glyph-name="afii10058" unicode="&#x409;" horiz-adv-x="2165" 
 />
    <glyph glyph-name="afii10059" unicode="&#x40a;" horiz-adv-x="2069" 
 />
    <glyph glyph-name="afii10060" unicode="&#x40b;" horiz-adv-x="1749" 
 />
    <glyph glyph-name="afii10061" unicode="&#x40c;" horiz-adv-x="1193" 
 />
    <glyph glyph-name="afii10062" unicode="&#x40e;" horiz-adv-x="1301" 
 />
    <glyph glyph-name="afii10145" unicode="&#x40f;" horiz-adv-x="1472" 
 />
    <glyph glyph-name="afii10017" unicode="&#x410;" horiz-adv-x="1366" 
 />
    <glyph glyph-name="afii10018" unicode="&#x411;" horiz-adv-x="1344" 
 />
    <glyph glyph-name="afii10019" unicode="&#x412;" horiz-adv-x="1366" 
 />
    <glyph glyph-name="afii10020" unicode="&#x413;" horiz-adv-x="1109" 
 />
    <glyph glyph-name="afii10021" unicode="&#x414;" horiz-adv-x="1387" 
 />
    <glyph glyph-name="afii10022" unicode="&#x415;" horiz-adv-x="1366" 
 />
    <glyph glyph-name="afii10024" unicode="&#x416;" horiz-adv-x="1891" 
 />
    <glyph glyph-name="afii10025" unicode="&#x417;" horiz-adv-x="1237" 
 />
    <glyph glyph-name="afii10026" unicode="&#x418;" horiz-adv-x="1472" 
 />
    <glyph glyph-name="afii10027" unicode="&#x419;" horiz-adv-x="1472" 
 />
    <glyph glyph-name="afii10028" unicode="&#x41a;" horiz-adv-x="1193" 
 />
    <glyph glyph-name="afii10029" unicode="&#x41b;" horiz-adv-x="1344" 
 />
    <glyph glyph-name="afii10030" unicode="&#x41c;" horiz-adv-x="1706" 
 />
    <glyph glyph-name="afii10031" unicode="&#x41d;" horiz-adv-x="1479" 
 />
    <glyph glyph-name="afii10032" unicode="&#x41e;" horiz-adv-x="1593" 
 />
    <glyph glyph-name="afii10033" unicode="&#x41f;" horiz-adv-x="1472" 
 />
    <glyph glyph-name="afii10034" unicode="&#x420;" horiz-adv-x="1366" 
 />
    <glyph glyph-name="afii10035" unicode="&#x421;" horiz-adv-x="1479" 
 />
    <glyph glyph-name="afii10036" unicode="&#x422;" horiz-adv-x="1251" 
 />
    <glyph glyph-name="afii10037" unicode="&#x423;" horiz-adv-x="1301" 
 />
    <glyph glyph-name="afii10038" unicode="&#x424;" horiz-adv-x="1557" 
 />
    <glyph glyph-name="afii10039" unicode="&#x425;" horiz-adv-x="1366" 
 />
    <glyph glyph-name="afii10040" unicode="&#x426;" horiz-adv-x="1515" 
 />
    <glyph glyph-name="afii10041" unicode="&#x427;" horiz-adv-x="1365" 
 />
    <glyph glyph-name="afii10042" unicode="&#x428;" horiz-adv-x="1877" 
 />
    <glyph glyph-name="afii10043" unicode="&#x429;" horiz-adv-x="1920" 
 />
    <glyph glyph-name="afii10044" unicode="&#x42a;" horiz-adv-x="1621" 
 />
    <glyph glyph-name="afii10045" unicode="&#x42b;" horiz-adv-x="1813" 
 />
    <glyph glyph-name="afii10046" unicode="&#x42c;" horiz-adv-x="1344" 
 />
    <glyph glyph-name="afii10047" unicode="&#x42d;" horiz-adv-x="1472" 
 />
    <glyph glyph-name="afii10048" unicode="&#x42e;" horiz-adv-x="2069" 
 />
    <glyph glyph-name="afii10049" unicode="&#x42f;" horiz-adv-x="1479" 
 />
    <glyph glyph-name="afii10065" unicode="&#x430;" 
 />
    <glyph glyph-name="afii10066" unicode="&#x431;" horiz-adv-x="1173" 
 />
    <glyph glyph-name="afii10067" unicode="&#x432;" horiz-adv-x="1088" 
 />
    <glyph glyph-name="afii10068" unicode="&#x433;" horiz-adv-x="747" 
 />
    <glyph glyph-name="afii10069" unicode="&#x434;" horiz-adv-x="1195" 
 />
    <glyph glyph-name="afii10070" unicode="&#x435;" 
 />
    <glyph glyph-name="afii10072" unicode="&#x436;" horiz-adv-x="1370" 
 />
    <glyph glyph-name="afii10073" unicode="&#x437;" horiz-adv-x="939" 
 />
    <glyph glyph-name="afii10074" unicode="&#x438;" horiz-adv-x="1144" 
 />
    <glyph glyph-name="afii10075" unicode="&#x439;" horiz-adv-x="1144" 
 />
    <glyph glyph-name="afii10076" unicode="&#x43a;" horiz-adv-x="896" 
 />
    <glyph glyph-name="afii10077" unicode="&#x43b;" horiz-adv-x="1195" 
 />
    <glyph glyph-name="afii10078" unicode="&#x43c;" horiz-adv-x="1408" 
 />
    <glyph glyph-name="afii10079" unicode="&#x43d;" horiz-adv-x="1131" 
 />
    <glyph glyph-name="afii10080" unicode="&#x43e;" 
 />
    <glyph glyph-name="afii10081" unicode="&#x43f;" horiz-adv-x="1109" 
 />
    <glyph glyph-name="afii10082" unicode="&#x440;" 
 />
    <glyph glyph-name="afii10083" unicode="&#x441;" horiz-adv-x="1024" 
 />
    <glyph glyph-name="afii10084" unicode="&#x442;" horiz-adv-x="938" 
 />
    <glyph glyph-name="afii10085" unicode="&#x443;" horiz-adv-x="1024" 
 />
    <glyph glyph-name="afii10086" unicode="&#x444;" horiz-adv-x="1685" 
 />
    <glyph glyph-name="afii10087" unicode="&#x445;" horiz-adv-x="1024" 
 />
    <glyph glyph-name="afii10088" unicode="&#x446;" horiz-adv-x="1173" 
 />
    <glyph glyph-name="afii10089" unicode="&#x447;" horiz-adv-x="1067" 
 />
    <glyph glyph-name="afii10090" unicode="&#x448;" horiz-adv-x="1643" 
 />
    <glyph glyph-name="afii10091" unicode="&#x449;" horiz-adv-x="1685" 
 />
    <glyph glyph-name="afii10092" unicode="&#x44a;" horiz-adv-x="1280" 
 />
    <glyph glyph-name="afii10093" unicode="&#x44b;" horiz-adv-x="1472" 
 />
    <glyph glyph-name="afii10094" unicode="&#x44c;" horiz-adv-x="1067" 
 />
    <glyph glyph-name="afii10095" unicode="&#x44d;" horiz-adv-x="1045" 
 />
    <glyph glyph-name="afii10096" unicode="&#x44e;" horiz-adv-x="1536" 
 />
    <glyph glyph-name="afii10097" unicode="&#x44f;" horiz-adv-x="1109" 
 />
    <glyph glyph-name="afii10071" unicode="&#x451;" 
 />
    <glyph glyph-name="afii10099" unicode="&#x452;" 
 />
    <glyph glyph-name="afii10100" unicode="&#x453;" horiz-adv-x="747" 
 />
    <glyph glyph-name="afii10101" unicode="&#x454;" horiz-adv-x="1045" 
 />
    <glyph glyph-name="afii10102" unicode="&#x455;" horiz-adv-x="1024" 
 />
    <glyph glyph-name="afii10103" unicode="&#x456;" horiz-adv-x="455" 
 />
    <glyph glyph-name="afii10104" unicode="&#x457;" horiz-adv-x="569" 
 />
    <glyph glyph-name="afii10105" unicode="&#x458;" horiz-adv-x="455" 
 />
    <glyph glyph-name="afii10106" unicode="&#x459;" horiz-adv-x="1856" 
 />
    <glyph glyph-name="afii10107" unicode="&#x45a;" horiz-adv-x="1664" 
 />
    <glyph glyph-name="afii10108" unicode="&#x45b;" 
 />
    <glyph glyph-name="afii10109" unicode="&#x45c;" horiz-adv-x="896" 
 />
    <glyph glyph-name="afii10110" unicode="&#x45e;" horiz-adv-x="1024" 
 />
    <glyph glyph-name="afii10193" unicode="&#x45f;" horiz-adv-x="1131" 
 />
    <glyph glyph-name="afii10050" unicode="&#x490;" horiz-adv-x="1001" 
 />
    <glyph glyph-name="afii10098" unicode="&#x491;" horiz-adv-x="842" 
 />
    <glyph glyph-name="Wgrave" unicode="&#x1e80;" horiz-adv-x="1933" 
 />
    <glyph glyph-name="wgrave" unicode="&#x1e81;" horiz-adv-x="1479" 
 />
    <glyph glyph-name="Wacute" unicode="&#x1e82;" horiz-adv-x="1933" 
 />
    <glyph glyph-name="wacute" unicode="&#x1e83;" horiz-adv-x="1479" 
 />
    <glyph glyph-name="Wdieresis" unicode="&#x1e84;" horiz-adv-x="1933" 
 />
    <glyph glyph-name="wdieresis" unicode="&#x1e85;" horiz-adv-x="1479" 
 />
    <glyph glyph-name="Ygrave" unicode="&#x1ef2;" horiz-adv-x="1366" 
 />
    <glyph glyph-name="ygrave" unicode="&#x1ef3;" horiz-adv-x="1024" 
 />
    <glyph glyph-name="endash" unicode="&#x2013;" horiz-adv-x="1317" 
d="M1215 497h-1113v125h1113v-125z" />
    <glyph glyph-name="emdash" unicode="&#x2014;" horiz-adv-x="1755" 
d="M1653 497h-1551v125h1551v-125z" />
    <glyph glyph-name="afii00208" unicode="&#x2015;" horiz-adv-x="2048" 
 />
    <glyph glyph-name="underscoredbl" unicode="&#x2017;" horiz-adv-x="1131" 
 />
    <glyph glyph-name="quoteleft" unicode="&#x2018;" horiz-adv-x="464" 
d="M372 1466c-31.333 -18 -56.668 -33.502 -76.001 -46.502s-39 -30.167 -59 -51.5c-18.667 -19.333 -33 -40.166 -43 -62.499s-17 -50.833 -21 -85.5h48c41.333 0 73.833 -10.167 97.5 -30.5s35.5 -50.166 35.5 -89.499c0 -28 -10.5 -54.167 -31.5 -78.5
s-49.833 -36.5 -86.5 -36.5c-57.333 0 -98.333 18.833 -123 56.5s-37 87.167 -37 148.5c0 43.333 9.33301 82.833 28 118.5s41.334 67.5 68.001 95.5c27.333 28.667 56.333 53 87 73l77 49z" />
    <glyph glyph-name="quoteright" unicode="&#x2019;" horiz-adv-x="464" 
d="M388 1325c0 -44 -9.50195 -84.165 -28.502 -120.498s-41.833 -67.833 -68.5 -94.5c-26.667 -27.333 -56 -51.833 -88 -73.5s-57.667 -37.5 -77 -47.5l-34 59c27.333 16 53.5 32.5 78.5 49.5s44.167 33.167 57.5 48.5c18 20 32.333 40.833 43 62.5
s17.334 50.167 20.001 85.5h-48c-42 0 -74.667 10.667 -98 32s-35 51 -35 89c0 27.333 10.667 53.166 32 77.499s50.333 36.5 87 36.5c56.667 0 97.334 -18.833 122.001 -56.5s37 -86.834 37 -147.501z" />
    <glyph glyph-name="quotesinglbase" unicode="&#x201a;" horiz-adv-x="464" 
d="M388 33c0 -44 -9.50195 -84.165 -28.502 -120.498s-41.833 -67.833 -68.5 -94.5c-26.667 -27.333 -56 -51.833 -88 -73.5s-57.667 -37.5 -77 -47.5l-34 59c27.333 16 53.5 32.5 78.5 49.5s44.167 33.167 57.5 48.5c18 20 32.333 40.833 43 62.5
s17.334 50.167 20.001 85.5h-48c-42 0 -74.667 10.667 -98 32s-35 51 -35 89c0 27.333 10.667 53.166 32 77.499s50.333 36.5 87 36.5c56.667 0 97.334 -18.833 122.001 -56.5s37 -86.834 37 -147.501z" />
    <glyph glyph-name="quotereversed" unicode="&#x201b;" horiz-adv-x="455" 
 />
    <glyph glyph-name="quotedblleft" unicode="&#x201c;" horiz-adv-x="840" 
d="M375 1466c-31.333 -18 -56.668 -33.501 -76.001 -46.501s-39 -30.167 -59 -51.5c-18.667 -20 -33 -41 -43 -63s-17 -50.333 -21 -85h48c41.333 0 73.833 -10.167 97.5 -30.5s35.5 -50.166 35.5 -89.499c0 -28 -10.5 -54.167 -31.5 -78.5s-49.833 -36.5 -86.5 -36.5
c-57.333 0 -98.333 18.833 -123 56.5s-37 87.167 -37 148.5c0 43.333 9.33301 82.833 28 118.5s41.334 67.5 68.001 95.5c27.333 28.667 56.333 53 87 73l77 49zM744.998 1466c-31.333 -18 -56.668 -33.499 -76.001 -46.499s-39 -30.167 -59 -51.5
c-19.333 -20.667 -33.833 -41.834 -43.5 -63.501s-16.5 -49.834 -20.5 -84.501h48c41.333 0 73.833 -10.167 97.5 -30.5s35.5 -50.166 35.5 -89.499c0 -28 -10.5 -54.167 -31.5 -78.5s-49.833 -36.5 -86.5 -36.5c-57.333 0 -98.333 18.833 -123 56.5s-37 87.167 -37 148.5
c0 43.333 9.33301 82.833 28 118.5s41.334 67.5 68.001 95.5c27.333 28.667 56.333 53 87 73l77 49z" />
    <glyph glyph-name="quotedblright" unicode="&#x201d;" horiz-adv-x="840" 
d="M391 1325c0 -44 -9.66895 -84.165 -29.002 -120.498s-42 -67.833 -68 -94.5c-26.667 -27.333 -56 -51.833 -88 -73.5s-57.667 -37.5 -77 -47.5l-34 59c27.333 16 53.5 32.5 78.5 49.5s44.167 33.167 57.5 48.5c18 20 32.333 40.833 43 62.5s17.334 50.167 20.001 85.5
h-48c-42 0 -74.667 10.667 -98 32s-35 51 -35 89c0 27.333 10.667 53.166 32 77.499s50.333 36.5 87 36.5c56.667 0 97.334 -18.833 122.001 -56.5s37 -86.834 37 -147.501zM760.998 1325c0 -44 -9.66895 -84.165 -29.002 -120.498s-42 -67.833 -68 -94.5
c-26.667 -27.333 -56 -51.833 -88 -73.5s-57.667 -37.5 -77 -47.5l-34 59c27.333 16 53.5 32.5 78.5 49.5s44.167 33.167 57.5 48.5c18 20 32.333 40.833 43 62.5s17.334 50.167 20.001 85.5h-48c-42 0 -74.667 10.667 -98 32s-35 51 -35 89
c0 27.333 10.667 53.166 32 77.499s50.333 36.5 87 36.5c56.667 0 97.334 -18.833 122.001 -56.5s37 -86.834 37 -147.501z" />
    <glyph glyph-name="quotedblbase" unicode="&#x201e;" horiz-adv-x="840" 
d="M391 33c0 -44 -9.66895 -84.165 -29.002 -120.498s-42 -67.833 -68 -94.5c-26.667 -27.333 -56 -51.833 -88 -73.5s-57.667 -37.5 -77 -47.5l-34 59c27.333 16 53.5 32.5 78.5 49.5s44.167 33.167 57.5 48.5c18 20 32.333 40.833 43 62.5s17.334 50.167 20.001 85.5h-48
c-42 0 -74.667 10.667 -98 32s-35 51 -35 89c0 27.333 10.667 53.166 32 77.499s50.333 36.5 87 36.5c56.667 0 97.334 -18.833 122.001 -56.5s37 -86.834 37 -147.501zM760.998 33.002c0 -44 -9.66895 -84.165 -29.002 -120.498s-42 -67.833 -68 -94.5
c-26.667 -27.333 -56 -51.833 -88 -73.5s-57.667 -37.5 -77 -47.5l-34 59c27.333 16 53.5 32.5 78.5 49.5s44.167 33.167 57.5 48.5c18 20 32.333 40.833 43 62.5s17.334 50.167 20.001 85.5h-48c-42 0 -74.667 10.667 -98 32s-35 51 -35 89
c0 27.333 10.667 53.166 32 77.499s50.333 36.5 87 36.5c56.667 0 97.334 -18.833 122.001 -56.5s37 -86.834 37 -147.501z" />
    <glyph glyph-name="dagger" unicode="&#x2020;" horiz-adv-x="967" 
d="M864 1068c0 -22.667 -7.00195 -40.167 -21.002 -52.5s-32 -18.5 -54 -18.5c-16.667 0 -52.667 6.5 -108 19.5s-113 22.833 -173 29.5c10 -164.667 20.5 -326.167 31.5 -484.5s16.5 -247.5 16.5 -267.5c0 -22 -5.5 -40 -16.5 -54s-29.167 -21 -54.5 -21
c-22.667 0 -40.167 7 -52.5 21s-18.5 32 -18.5 54c0 14.667 3.66699 78.167 11 190.5s18.333 299.5 33 561.5c-65.333 -6.66699 -124.166 -16.5 -176.499 -29.5s-87.166 -19.5 -104.499 -19.5c-22 0 -40 6 -54 18s-21 29.667 -21 53c0 24.667 7 42.667 21 54s32 17 54 17
c20 0 56.167 -7.33301 108.5 -22s109.833 -25 172.5 -31c-8 71.333 -17.667 134 -29 188s-17 89.333 -17 106c0 22 6.33301 40 19 54s30.667 21 54 21c24.667 0 43 -7 55 -21s18 -32 18 -54c0 -18 -6.5 -55 -19.5 -111s-23.167 -117 -30.5 -183
c72 8 132.5 18.833 181.5 32.5s82.167 20.5 99.5 20.5c22 0 40 -5.5 54 -16.5s21 -29.167 21 -54.5z" />
    <glyph glyph-name="daggerdbl" unicode="&#x2021;" horiz-adv-x="967" 
d="M864 596c0 -24.667 -6.99805 -42.667 -20.998 -54s-32 -17 -54 -17c-16.667 0 -52.667 7.16699 -108 21.5s-113 24.833 -173 31.5c6.66699 -66 16.667 -127 30 -183s20 -93 20 -111c0 -22 -5.83301 -40 -17.5 -54s-30.167 -21 -55.5 -21c-22.667 0 -40.5 7 -53.5 21
s-19.5 32 -19.5 54c0 20.667 5.66699 55.334 17 104.001s21 112 29 190c-74 -9.33301 -135 -20.5 -183 -33.5s-80.667 -19.5 -98 -19.5c-22 0 -40 5.5 -54 16.5s-21 29.167 -21 54.5c0 22.667 7 40.167 21 52.5s32 18.5 54 18.5c20 0 53.167 -6.16699 99.5 -18.5
s106.833 -22.5 181.5 -30.5c-2.66699 36 -7.33398 69.333 -14.001 100s-11.334 63.334 -14.001 98.001v32c2 34 6.66699 66.667 14 98s12 64.666 14 99.999c-65.333 -6.66699 -124.166 -16.5 -176.499 -29.5s-87.166 -19.5 -104.499 -19.5c-22 0 -40 6 -54 18
s-21 29.667 -21 53c0 24.667 7 42.667 21 54s32 17 54 17c17.333 0 49.5 -6.5 96.5 -19.5s108.5 -24.167 184.5 -33.5c-8 71.333 -17.667 134 -29 188s-17 89.333 -17 106c0 22 6.33301 40 19 54s30.667 21 54 21c24.667 0 43 -7 55 -21s18 -32 18 -54
c0 -18 -6.5 -55 -19.5 -111s-23.167 -117 -30.5 -183c72 8 132.5 18.833 181.5 32.5s82.167 20.5 99.5 20.5c22 0 40 -5.5 54 -16.5s21 -29.167 21 -54.5c0 -22.667 -7 -40.167 -21 -52.5s-32 -18.5 -54 -18.5c-16.667 0 -52.667 6.5 -108 19.5s-113 22.833 -173 29.5
c2 -36 6.66699 -69.5 14 -100.5s12 -63.5 14 -97.5v-32c-2.66699 -34.667 -7.33398 -67.334 -14.001 -98.001s-11.334 -64 -14.001 -100c72 8 132.5 18.167 181.5 30.5s82.167 18.5 99.5 18.5c22 0 40 -6 54 -18s21 -29.667 21 -53z" />
    <glyph glyph-name="bullet" unicode="&#x2022;" horiz-adv-x="804" 
d="M666 599c0 -72.667 -25.833 -134.834 -77.5 -186.501s-113.834 -77.5 -186.501 -77.5s-134.834 25.833 -186.501 77.5s-77.5 113.834 -77.5 186.501s25.833 134.834 77.5 186.501s113.834 77.5 186.501 77.5s134.834 -25.833 186.501 -77.5s77.5 -113.834 77.5 -186.501z
" />
    <glyph glyph-name="ellipsis" unicode="&#x2026;" horiz-adv-x="1653" 
d="M1512 109c0 -35.333 -13 -65.666 -39 -90.999s-56.667 -38 -92 -38s-66 12.667 -92 38s-39 55.666 -39 90.999s12.833 66 38.5 92s56.5 39 92.5 39s66.833 -13 92.5 -39s38.5 -56.667 38.5 -92zM961 109c0 -36 -13.167 -66.499 -39.5 -91.499s-56.833 -37.5 -91.5 -37.5
c-35.333 0 -66 12.667 -92 38s-39 55.666 -39 90.999s12.833 66 38.5 92s56.5 39 92.5 39c35.333 0 66 -13 92 -39s39 -56.667 39 -92zM410 109.001c0 -36 -13.167 -66.499 -39.5 -91.499s-56.833 -37.5 -91.5 -37.5c-35.333 0 -66 12.667 -92 38s-39 55.666 -39 90.999
s12.833 66 38.5 92s56.5 39 92.5 39c35.333 0 66 -13 92 -39s39 -56.667 39 -92z" />
    <glyph glyph-name="perthousand" unicode="&#x2030;" horiz-adv-x="2048" 
 />
    <glyph glyph-name="minute" unicode="&#x2032;" horiz-adv-x="384" 
 />
    <glyph glyph-name="second" unicode="&#x2033;" horiz-adv-x="725" 
 />
    <glyph glyph-name="guilsinglleft" unicode="&#x2039;" horiz-adv-x="850" 
d="M641 160l-48.998 -40l-375 332c-6.66699 6 -15.334 15.167 -26.001 27.5s-16 28.5 -16 48.5s5.16699 36.167 15.5 48.5s20.166 22.833 29.499 31.5l372 329l49 -41l-269 -367z" />
    <glyph glyph-name="guilsinglright" unicode="&#x203a;" horiz-adv-x="850" 
d="M675 528c0 -21.333 -5.49902 -38 -16.499 -50s-19.5 -20.667 -25.5 -26l-375 -332l-49 40l269 369l-269 367l49 41l372 -329c7.33301 -6 16.666 -16.667 27.999 -32s17 -31.333 17 -48z" />
    <glyph glyph-name="exclamdbl" unicode="&#x203c;" horiz-adv-x="1024" 
 />
    <glyph glyph-name="uni203E" unicode="&#x203e;" horiz-adv-x="682" 
 />
    <glyph glyph-name="fraction" unicode="&#x2044;" horiz-adv-x="166" 
d="M519 1419l-739 -1419h-135l737 1419h137z" />
    <glyph glyph-name="fraction" unicode="&#x2215;" horiz-adv-x="166" 
d="M519 1419l-739 -1419h-135l737 1419h137z" />
    <glyph glyph-name="uni207F" unicode="&#x207f;" horiz-adv-x="747" 
 />
    <glyph glyph-name="franc" unicode="&#x20a3;" 
 />
    <glyph glyph-name="lira" unicode="&#x20a4;" 
 />
    <glyph glyph-name="peseta" unicode="&#x20a7;" horiz-adv-x="2240" 
 />
    <glyph glyph-name="Euro" unicode="&#x20ac;" horiz-adv-x="1170" 
d="M1005 228l-86.0029 -87l-188 184c-20.667 -12.667 -43.5 -22.834 -68.5 -30.501s-50.833 -11.5 -77.5 -11.5c-24 0 -49 3.83301 -75 11.5s-49 17.834 -69 30.501l-189 -186l-85 90l184 186c-13.333 20.667 -23.666 43.834 -30.999 69.501s-11 50.5 -11 74.5
c0 28 3.5 53.333 10.5 76s17.5 45.334 31.5 68.001l-184 189l88 86l186 -185c16.667 11.333 39.667 21.166 69 29.499s54.333 12.5 75 12.5c26.667 0 52.834 -4 78.501 -12s47.834 -17.667 66.501 -29l185 184l90 -85l-186 -190c13.333 -20.667 23.833 -43.834 31.5 -69.501
s11.5 -50.5 11.5 -74.5c0 -26 -4.16699 -52 -12.5 -78s-18.5 -48 -30.5 -66zM746.997 559c0 45.333 -15.833 84.168 -47.5 116.501s-69.834 48.5 -114.501 48.5s-82.834 -16 -114.501 -48s-47.5 -71 -47.5 -117c0 -44.667 15.833 -83.334 47.5 -116.001
s69.834 -49 114.501 -49s82.834 16 114.501 48s47.5 71 47.5 117z" />
    <glyph glyph-name="afii61248" unicode="&#x2105;" horiz-adv-x="1813" 
 />
    <glyph glyph-name="afii61289" unicode="&#x2113;" horiz-adv-x="662" 
 />
    <glyph glyph-name="afii61352" unicode="&#x2116;" horiz-adv-x="2197" 
 />
    <glyph glyph-name="trademark" unicode="&#x2122;" horiz-adv-x="1930" 
d="M1856 733h-346.003v52c10.667 0 25.834 0.833008 45.501 2.5s32.834 4.16699 39.501 7.5c10.667 7.33301 18 13.333 22 18s6 12 6 22v451h-15l-244 -531h-32l-237 541h-15v-364c0 -35.333 2.16699 -62.166 6.5 -80.499s11.833 -32.166 22.5 -41.499
c8.66699 -5.33301 23.334 -10.833 44.001 -16.5s38.667 -8.5 54 -8.5v-52h-315v50c10.667 2 26.5 4.5 47.5 7.5s36.833 8.16699 47.5 15.5c11.333 8.66699 19 20.667 23 36s6 44 6 86v347c0 16 -2.5 29.333 -7.5 40s-12.167 20 -21.5 28c-10 8 -22.5 13.833 -37.5 17.5
s-32.167 6.16699 -51.5 7.5v51h278l211 -472l176 387c7.33301 16.667 12.833 32.5 16.5 47.5s6.5 27.5 8.5 37.5h268v-51c-11.333 -0.666992 -25.833 -2.33398 -43.5 -5.00098s-30.167 -5.33398 -37.5 -8.00098c-10 -2 -16.333 -6.66699 -19 -14s-4 -14.666 -4 -21.999v-484
c0 -9.33301 1.33301 -16.833 4 -22.5s9 -10.834 19 -15.501c6.66699 -2 18.167 -4.5 34.5 -7.5s31.833 -4.5 46.5 -4.5v-52zM775.997 1221l-47.9971 0.000976562c-6.66699 22 -20.167 49.5 -40.5 82.5s-40.166 51.5 -59.499 55.5c-14.667 1.33301 -29 2.33301 -43 3
s-25.667 1 -35 1h-49v-524c0 -9.33301 1.5 -17.166 4.5 -23.499s9.83301 -11.833 20.5 -16.5c6.66699 -2 19 -4.83301 37 -8.5s34.667 -5.5 50 -5.5v-52h-353v52c13.333 0 29.666 1.16699 48.999 3.5s32 4.5 38 6.5c10 3.33301 16.667 8.66602 20 15.999s5 14.666 5 21.999
v530h-49c-10 0 -23.333 -0.5 -40 -1.5s-29.334 -1.83301 -38.001 -2.5c-20.667 -3.33301 -40.834 -21.833 -60.501 -55.5s-32.834 -61.167 -39.501 -82.5h-48v198h679v-198z" />
    <glyph glyph-name="Omega" unicode="&#x2126;" horiz-adv-x="1595" 
d="M1101 179l223.004 0.000976562c46 0 86.667 22.167 122 66.5s63.666 91.833 84.999 142.5l62 -22l-117 -366h-563v68l120.5 176.5c39.667 59.667 70.834 114.834 93.501 165.501c27.333 59.333 47.666 116.333 60.999 171s20 121.334 20 200.001
c0 55.333 -5.83301 119.5 -17.5 192.5s-31.167 136.167 -58.5 189.5c-36.667 69.333 -82.667 120.166 -138 152.499s-120.333 48.5 -195 48.5c-76.667 0 -142.834 -17.667 -198.501 -53s-99.834 -85 -132.501 -149c-27.333 -52.667 -47 -113.167 -59 -181.5
s-18 -134.833 -18 -199.5c0 -70 6.66699 -134.667 20 -194s34 -119 62 -179c25.333 -54.667 54.333 -106.834 87 -156.501l126 -183.5v-68h-563l-117 366l62 22c10 -23.333 21.5 -46.833 34.5 -70.5s28.5 -46.167 46.5 -67.5c17.333 -21.333 36 -38.5 56 -51.5
s43.333 -19.5 70 -19.5h223v33l-140.5 163.5c-45.667 55 -82.5 106.833 -110.5 155.5c-30.667 52.667 -54.5 108.167 -71.5 166.5s-25.5 123.5 -25.5 195.5c0 156 63.167 288.333 189.5 397s279.5 163 459.5 163s333.333 -54.333 460 -163s190 -241 190 -397
c0 -70.667 -8.5 -135.834 -25.5 -195.501s-40.5 -115.167 -70.5 -166.5c-30.667 -52 -67.334 -103.833 -110.001 -155.5s-90 -106.167 -142 -163.5v-33z" />
    <glyph glyph-name="estimated" unicode="&#x212e;" horiz-adv-x="1229" 
 />
    <glyph glyph-name="oneeighth" unicode="&#x215b;" horiz-adv-x="1708" 
 />
    <glyph glyph-name="threeeighths" unicode="&#x215c;" horiz-adv-x="1708" 
 />
    <glyph glyph-name="fiveeighths" unicode="&#x215d;" horiz-adv-x="1708" 
 />
    <glyph glyph-name="seveneighths" unicode="&#x215e;" horiz-adv-x="1708" 
 />
    <glyph glyph-name="arrowleft" unicode="&#x2190;" horiz-adv-x="2048" 
 />
    <glyph glyph-name="arrowup" unicode="&#x2191;" horiz-adv-x="1024" 
 />
    <glyph glyph-name="arrowright" unicode="&#x2192;" horiz-adv-x="2048" 
 />
    <glyph glyph-name="arrowdown" unicode="&#x2193;" horiz-adv-x="1024" 
 />
    <glyph glyph-name="arrowboth" unicode="&#x2194;" horiz-adv-x="2048" 
 />
    <glyph glyph-name="arrowupdn" unicode="&#x2195;" horiz-adv-x="1024" 
 />
    <glyph glyph-name="arrowupdnbse" unicode="&#x21a8;" horiz-adv-x="1024" 
 />
    <glyph glyph-name="partialdiff" unicode="&#x2202;" horiz-adv-x="1180" 
d="M728 238c28 49.333 52.5 105.834 73.5 169.501s35.167 117.5 42.5 161.5c-2 30 -7.33301 57.833 -16 83.5s-23 49.834 -43 72.501c-18.667 22 -42.167 39.333 -70.5 52s-61.833 19 -100.5 19c-86.667 0 -163.5 -47.167 -230.5 -141.5s-100.5 -204.5 -100.5 -330.5
c0 -38.667 2.83301 -73.834 8.5 -105.501s16.167 -60.834 31.5 -87.501c14.667 -25.333 34.5 -45.5 59.5 -60.5s55.833 -22.5 92.5 -22.5c52 0 99.5 18 142.5 54s79.833 81.333 110.5 136zM459 1329c0.666992 -13.333 2.16504 -29.834 4.49805 -49.501s3.5 -39.5 3.5 -59.5
c-0.666992 -36 -9.16699 -64.667 -25.5 -86s-45.833 -32 -88.5 -32c-35.333 0 -61.833 10.833 -79.5 32.5s-26.5 46.834 -26.5 75.501c0 26 8.16699 53.167 24.5 81.5s38.833 54.166 67.5 77.499c30 25.333 68.5 46.166 115.5 62.499s100.167 24.5 159.5 24.5
c83.333 0 154.5 -15.333 213.5 -46s107.833 -72 146.5 -124c38 -52 65.833 -111.333 83.5 -178s26.5 -136.667 26.5 -210c0 -91.333 -12 -192 -36 -302s-60.667 -209.333 -110 -298c-62 -111.333 -132.167 -194.166 -210.5 -248.499s-162.833 -81.5 -253.5 -81.5
c-123.333 0 -218.666 38.333 -285.999 115s-101 177.334 -101 302.001c0 138.667 47.833 261.334 143.5 368.001s201.5 160 317.5 160c82 0 149.5 -15.5 202.5 -46.5s94.5 -75.833 124.5 -134.5c3.33301 29.333 5.83301 58.333 7.5 87s2.5 62 2.5 100
c0 57.333 -4.66699 115.666 -14 174.999s-23.666 108.333 -42.999 147c-20.667 42.667 -48.667 76 -84 100s-79.333 36 -132 36c-36 0 -66.5 -5 -91.5 -15s-45.5 -21 -61.5 -33z" />
    <glyph glyph-name="Delta" unicode="&#x2206;" horiz-adv-x="1369" 
d="M1350 0h-1331v50l646 1389h78l607 -1389v-50zM1068 172l-434 995l-455 -995h889z" />
    <glyph glyph-name="product" unicode="&#x220f;" horiz-adv-x="1709" 
d="M1616 1419v-90h-205v-1543c0 -23.333 3.83301 -43 11.5 -59s22.834 -30 45.501 -42c11.333 -6 31.5 -12 60.5 -18s51.833 -9.33301 68.5 -10v-71h-589v71l69.5 6c30.333 2.66699 51.166 6.66699 62.499 12c20 8 34.667 20.167 44 36.5s14 37.5 14 63.5v1554h-687v-1543
c0 -23.333 3.83301 -43 11.5 -59s22.834 -30 45.501 -42c11.333 -6 31.5 -12 60.5 -18s51.833 -9.33301 68.5 -10v-71h-589v71l69.5 6c30.333 2.66699 51.166 6.66699 62.499 12c20 8 34.667 20.167 44 36.5s14 37.5 14 63.5v1554h-200v90h1518z" />
    <glyph glyph-name="summation" unicode="&#x2211;" horiz-adv-x="1444" 
d="M33 1419h1190l43 -401h-70c-29.333 72.667 -71 140.5 -125 203.5s-103.333 99.167 -148 108.5c-20 4 -46 6.66699 -78 8s-64.667 2 -98 2h-434l580 -761v-27l-659 -787h797c35.333 0 68 8.5 98 25.5s56.333 38.833 79 65.5c24 28 45.333 59.333 64 94s34 66.667 46 96
l67 -21l-118 -439h-1246v49l696 839l-684 900v45z" />
    <glyph glyph-name="minus" unicode="&#x2212;" horiz-adv-x="1196" 
 />
    <glyph glyph-name="radical" unicode="&#x221a;" horiz-adv-x="1370" 
d="M1430 1704l-753 -1830h-67l-383 936h-184v93h360l288 -723l622 1524h117z" />
    <glyph glyph-name="infinity" unicode="&#x221e;" horiz-adv-x="1468" 
d="M1392 564c0 -117.333 -33.5 -216.167 -100.5 -296.5s-146.833 -120.5 -239.5 -120.5c-65.333 0 -125.333 20.167 -180 60.5s-104.334 100.5 -149.001 180.5c-37.333 -82 -82.666 -142.5 -135.999 -181.5s-111 -58.5 -173 -58.5c-99.333 0 -180.5 38.167 -243.5 114.5
s-94.5 176.5 -94.5 300.5c0 120.667 33.667 220.334 101 299.001s147 118 239 118c64.667 0 124.167 -19.667 178.5 -59s104.5 -100 150.5 -182c35.333 79.333 79.833 139.166 133.5 179.499s112.167 60.5 175.5 60.5c100 0 181.333 -38.333 244 -115s94 -176.667 94 -300z
M1306 560.999c0 74.667 -22.167 134 -66.5 178s-102.5 66 -174.5 66c-67.333 0 -125.333 -11 -174 -33s-85.667 -54.667 -111 -98c52 -123.333 100.167 -212.333 144.5 -267s100.833 -82 169.5 -82c66 0 117.833 22.333 155.5 67s56.5 101 56.5 169zM688 452.999
c-52.667 126 -101.501 215.667 -146.501 269s-100.833 80 -167.5 80c-66 0 -117.833 -22.333 -155.5 -67s-56.5 -100.334 -56.5 -167.001c0 -75.333 22.333 -135.166 67 -179.499s102.667 -66.5 174 -66.5c64.667 0 122.334 11.333 173.001 34s88 55 112 97z" />
    <glyph glyph-name="orthogonal" unicode="&#x221f;" horiz-adv-x="2005" 
 />
    <glyph glyph-name="intersection" unicode="&#x2229;" horiz-adv-x="1472" 
 />
    <glyph glyph-name="integral" unicode="&#x222b;" horiz-adv-x="1023" 
d="M420 955c0 107.333 8.50586 200.002 25.5059 278.002s45.5 140.667 85.5 188c32 38.667 71.5 69.667 118.5 93s91.833 35 134.5 35c41.333 0 75.666 -5.5 102.999 -16.5s49 -23.833 65 -38.5c18 -16.667 31 -34.167 39 -52.5s12 -36.833 12 -55.5
c0 -26 -7.83301 -47.833 -23.5 -65.5s-38.834 -26.5 -69.501 -26.5c-48 0 -80.167 17.167 -96.5 51.5s-24.5 76.5 -24.5 126.5c-4 0.666992 -6.83301 1.16699 -8.5 1.5s-3.16699 0.833008 -4.5 1.5s-3.66602 1 -6.99902 1h-13c-30.667 0 -56 -10.667 -76 -32
s-36 -50.333 -48 -87c-11.333 -36 -19 -78.833 -23 -128.5s-6 -96.834 -6 -141.501v-937c0 -101.333 -7.5 -191.5 -22.5 -270.5s-44.5 -144.167 -88.5 -195.5c-35.333 -41.333 -74.833 -73 -118.5 -95s-88.5 -33 -134.5 -33c-40 0 -73.5 5 -100.5 15s-49.5 23.333 -67.5 40
c-16.667 15.333 -29.334 32.5 -38.001 51.5s-13 37.833 -13 56.5c0 23.333 7.66699 44.5 23 63.5s38.666 28.5 69.999 28.5c44 0 75.167 -15.667 93.5 -47s27.5 -75 27.5 -131c3.33301 -0.666992 6.16602 -1.33398 8.49902 -2.00098s4.16602 -1 5.49902 -1
s3.16602 -0.166992 5.49902 -0.5s6.83301 -0.5 13.5 -0.5c32 0 58.167 11.167 78.5 33.5s35.5 50.833 45.5 85.5c11.333 38 19 78.833 23 122.5s6 94.5 6 152.5v932z" />
    <glyph glyph-name="approxequal" unicode="&#x2248;" horiz-adv-x="1317" 
d="M1166 527c-12 -33.333 -27.6689 -65.499 -47.002 -96.499s-42 -59.167 -68 -84.5c-30 -29.333 -61.667 -53 -95 -71s-72.666 -27 -117.999 -27s-87.166 6.16699 -125.499 18.5s-73.833 26.166 -106.5 41.499c-28 13.333 -60 26.833 -96 40.5s-68 20.5 -96 20.5
c-46.667 0 -82.834 -14.833 -108.501 -44.5s-52.167 -70.167 -79.5 -121.5l-75 31c10 28 24.667 57.667 44 89s43 61 71 89c25.333 26 57.333 48.5 96 67.5s77.334 28.5 116.001 28.5c48 0 91 -6.33301 129 -19s73.333 -26.667 106 -42l94.5 -42
c28.333 -12 60.166 -18 95.499 -18c44.667 0 80.834 16 108.501 48s54.167 73 79.5 123zM1166 909.001c-12 -33.333 -27.6689 -65.499 -47.002 -96.499s-42 -59.167 -68 -84.5c-30 -29.333 -61.667 -53 -95 -71s-72.666 -27 -117.999 -27s-87.166 6.16699 -125.499 18.5
s-73.833 26.166 -106.5 41.499c-28 13.333 -60 26.833 -96 40.5s-68 20.5 -96 20.5c-46.667 0 -82.834 -14.833 -108.501 -44.5s-52.167 -70.167 -79.5 -121.5l-75 31c10 28 24.667 57.667 44 89s43 61 71 89c25.333 26 57.333 48.5 96 67.5s77.334 28.5 116.001 28.5
c48 0 91 -6.33301 129 -19s73.333 -26.667 106 -42l94.5 -42c28.333 -12 60.166 -18 95.499 -18c44.667 0 80.834 16 108.501 48s54.167 73 79.5 123z" />
    <glyph glyph-name="notequal" unicode="&#x2260;" horiz-adv-x="1317" 
d="M1163 311h-517l-90 -311h-117l90 311h-375v125h412l71 247h-483v125h517l90 311h117l-90 -311h375v-125h-412l-70 -247h482v-125z" />
    <glyph glyph-name="equivalence" unicode="&#x2261;" horiz-adv-x="1195" 
 />
    <glyph glyph-name="lessequal" unicode="&#x2264;" horiz-adv-x="1317" 
d="M1136 201l-955 391v115l955 391v-138l-774 -310l774 -311v-138zM1136 125v-125h-955v125h955z" />
    <glyph glyph-name="greaterequal" unicode="&#x2265;" horiz-adv-x="1317" 
d="M1136 592l-955 -391v138l774 311l-774 310v138l955 -391v-115zM1136 0h-955v125h955v-125z" />
    <glyph glyph-name="house" unicode="&#x2302;" horiz-adv-x="1237" 
 />
    <glyph glyph-name="revlogicalnot" unicode="&#x2310;" horiz-adv-x="1196" 
 />
    <glyph glyph-name="integraltp" unicode="&#x2320;" horiz-adv-x="1237" 
 />
    </font>
</defs>
</svg>
