<?xml version="1.0" standalone="no"?>
<!DOCTYPE svg PUBLIC "-//W3C//DTD SVG 1.1//EN" "http://www.w3.org/Graphics/SVG/1.1/DTD/svg11.dtd" >
<svg>
<metadata>
Created by FontForge 20090914 at Fri Feb 10 15:54:01 2023
 By www-data
Copyright (c) 2006 by Steve Fererra. All rights reserved. Cyrillic by AA
</metadata>
<defs>
<font id="PiecesofEightCyrillicAA" horiz-adv-x="833" >
  <font-face 
    font-family="Pieces of Eight Cyrillic AA"
    font-weight="400"
    font-stretch="normal"
    units-per-em="1000"
    panose-1="0 0 0 0 0 0 0 0 0 0"
    ascent="750"
    descent="-250"
    x-height="452.003"
    cap-height="684.001"
    bbox="-301 -191 1287.89 888.344"
    underline-thickness="50"
    underline-position="-50"
    unicode-range="U+0020-U+2122"
  />
<missing-glyph horiz-adv-x="391" 
 />
    <glyph glyph-name=".notdef" horiz-adv-x="391" 
 />
    <glyph glyph-name="space" unicode=" " horiz-adv-x="391" 
 />
    <glyph glyph-name="exclam" unicode="!" horiz-adv-x="319" 
d="M80 721c-5.33301 26.667 -9.66699 56.666 -13 89.999l39 -12c87.333 -51.333 132.833 -118.666 136.5 -201.999s-1.5 -178.333 -15.5 -285c-14.667 -4 -24.667 -33 -30 -87l-3 -20l-2 -5l-5 2c-13.333 3.33301 -18 10.666 -14 21.999c2.66699 49.333 5 90.333 7 123
c4 195.333 -24.667 333.333 -86 414l41 -261c28 -119.333 35.667 -213.666 23 -282.999l-1 -1c-2 -6.66699 -9 -12.667 -21 -18v1c-2 0 -1.33301 8.33301 2 25c6.66699 84.667 -0.333008 162.667 -21 234zM163.999 204.999l12.998 -9.00195c22.667 -6 35 -6.66699 37 -2
c5.33301 -1.33301 10.666 3.33398 15.999 14.001v19l1 4c3.33301 2.66699 11 2.66699 23 0c4.66699 -6 3.33398 -19 -3.99902 -39l-3 -7c-12 -14 -22 -20 -30 -18c-13.333 -3.33301 -25.666 -32.333 -36.999 -87l-45 10l-1 72c-7.33301 -3.33301 -22.666 -8 -45.999 -14
c-4.66699 -9.33301 -8.33398 -13.333 -11.001 -12h-2c-8 10 -11.333 19 -10 27l1 1c2.66699 6.66699 12 11.334 28 14.001c14.667 -4 36.334 5 65.001 27h5zM114.997 2.99707l14 25l23 21l36 -21v-25h-3l-11 -26l-18 -5l-25 5z" />
    <glyph glyph-name="quotedbl" unicode="&#x22;" horiz-adv-x="341" 
d="M80 734l12 22l21 18l32 -18v-22h-4l-9 -23l-61 -64l-16 19zM207 734l12 22l21 18l31 -18v-22h-3l-9 -23l-61 -64l-16 19z" />
    <glyph glyph-name="numbersign" unicode="#" horiz-adv-x="1000" 
d="M494 838l0.00195312 -2l-28 -78l-27 -45c0 -2.66699 -2.66699 -4 -8 -4l-8 -20c78 -20 138.667 -42 182 -66c32.667 -19.333 67.667 -46.666 105 -81.999c45.333 -45.333 76 -68 92 -68c21.333 -10.667 50.666 -16 87.999 -16h6c27.333 0 55.333 2 84 6
c0 -3.33301 -9 -7.33301 -27 -12v-2l31 -4v-4h-16c-12 0 -23 -5 -33 -15h2c6.66699 4 16.334 6.66699 29.001 8v-4c-5.33301 0 -18.333 -10 -39 -30c17.333 11.333 33 17.333 47 18l14 -4v-2c-23.333 0 -48.666 -13.667 -75.999 -41c25.333 10.667 44 16 56 16l20 -6v-2
c-19.333 0 -49.333 -17.667 -90 -53l-16 -12h-2v-2h2c42 28 72 42 90 42l10 -2v-2c-14.667 0 -34.334 -12.667 -59.001 -38h-2v-1h2l35 5l18 -4v-1c-24.667 0 -51.334 -9.33301 -80.001 -28v-2l16 -4l25 4v-2c-16.667 -12.667 -38 -19 -64 -19v-2l19 -2h2
c20 0 39.667 5.66699 59 17h4c-8.66699 -12 -25.667 -24.333 -51 -37c-21.333 -6 -46 -10.333 -74 -13v-2c18 -9.33301 32.667 -14 44 -14l53 10c-13.333 -14.667 -31 -25 -53 -31v-2h2c17.333 1.33301 39.666 12.333 66.999 33v-2c-16 -20.667 -37.667 -37 -65 -49
c-46.667 -19.333 -78.334 -29 -95.001 -29v-2l39 -6c0 -6.66699 -27.333 -11.334 -82 -14.001c-77.333 0 -135.333 33.333 -174 100c-36 49.333 -66.667 80.666 -92 93.999c-42.667 26 -96 39 -160 39h-49c-18 0 -27 -4 -27 -12l-219 -424c-6.66699 0 -10 1.33301 -10 4
l412 799l-4 4v2c5.33301 0 8 4.33301 8 13c6.66699 18.667 13.334 32.334 20.001 41.001zM410.002 670l-130.999 -256h2c68 90 106.333 155.667 115 197c5.33301 12 10.666 31 15.999 57v2h-2zM599.003 430l0.000976562 -12c8 -10.667 12 -18 12 -22
c-3.33301 -8.66699 -6 -13 -8 -13h-2l4 17l-6 4c-8 -12.667 -12 -23 -12 -31c5.33301 -34 21.666 -51 48.999 -51c24 0 40.333 10.667 49 32h-4v1l-17 -11v2l7 13h22c12.667 0 19.667 10 21 30c13.333 16.667 20 32.667 20 48c-8 57.333 -27.667 86 -59 86
c-28 0 -49.333 -26 -64 -78c-8 -2.66699 -12 -7.66699 -12 -15zM636.004 445c13.333 -0.666992 20 -3.33301 20 -8c0 -12.667 -6.66699 -19 -20 -19c-11.333 0 -17 3.33301 -17 10c2 11.333 7.66699 17 17 17zM679.004 420.001l8 0.000976562c7.33301 -6 12 -13.333 14 -22
v-2c0 -6.66699 -2.66699 -11 -8 -13h-6c-9.33301 5.33301 -14 11.666 -14 18.999v6c1.33301 8 3.33301 12 6 12zM515.004 391.002v-6l2 2h10l-4 -14c4 -10.667 10 -16 18 -16l11 2l30 -43v-2h-2c-30 6 -45 11.333 -45 16s-4 10 -12 16h-12
c-3.33301 0 -5.33301 -2.66699 -6 -8h-2c-2.66699 0 -4.33398 3.33301 -5.00098 10c-4 0 -6.66699 -7.33301 -8 -22c2.66699 -11.333 6 -17 10 -17l15 2c32 -4 58 -8.66699 78 -14c14.667 -36 22 -62 22 -78l-4 -26c19.333 0 36.333 9.33301 51 28h-14v4
c4.66699 0 8 5 10 15c0 8 -4.66699 12 -14 12l-12 -4l-23 47h2l55 -12v-8c0 -7.33301 3.66699 -11 11 -11h6c6 0 12 3.66699 18 11l4 -9h2c10 6.66699 15 17 15 31c-1.33301 5.33301 -4.66602 9.33301 -9.99902 12c-10 -4 -19.667 -6 -29 -6h-12c-47.333 2 -71.333 5 -72 9
c-25.333 42.667 -42.333 74.667 -51 96l-6 2c-9.33301 0 -18.333 -6.33301 -27 -19zM652.004 400.002l2 -2v-5c0 -7.33301 -2.66699 -12 -8 -14c-5.33301 1.33301 -8 5.33301 -8 12zM611.004 381.002h6v-4l-4 -8h-6v8zM617.004 371.002h8c0 -6.66699 -2 -10.667 -6 -12h-4v2
zM626.004 363.002l8 0.000976562c0 -6.66699 -2 -10.334 -6 -11.001h-3v2zM640.004 357.003h2l4 -3l-4 -8h-6v8zM652.004 355.003h6v-1l-2 -10h-4l-4 4z" />
    <glyph glyph-name="dollar" unicode="$" horiz-adv-x="1178" 
d="M914 689l8.00391 11.002l8 10c25.333 38.667 44.333 64 57 76l-2 3v13c11.333 16 24.333 24 39 24h8c34.667 -5.33301 53 -25 55 -59c-18 -20 -34.333 -25.333 -49 -16c-13.333 -14 -35.666 -47 -66.999 -99l32 -70c16.667 -44.667 9.66699 -61.334 -21 -50.001
c-24.667 24 -41.834 37.333 -51.501 40s-16.834 4.33398 -21.501 5.00098c-46.667 -65.333 -78 -114.333 -94 -147v-2c5.33301 -22.667 2.66602 -46.334 -8.00098 -71.001l3 -3v-2l-16 -105l5 -37c-16 -11.333 -29 -29.666 -39 -54.999c-12.667 0 -20.667 -14.667 -24 -44
c124 -106 226 -179.333 306 -220c68 -38.667 109.333 -58 124 -58v-2c-10.667 -10.667 -27.334 -16 -50.001 -16c-66 0 -166.333 28 -301 84c0 3.33301 -8 7.66602 -24 12.999c-4 8.66699 -31 30.667 -81 66c-38 -44 -76.333 -73.667 -115 -89h-3c-42 0 -74 8.66699 -96 26
l-63 65c-38 -35.333 -96.667 -67.666 -176 -96.999c-91.333 -27.333 -158.333 -41 -201 -41c-22.667 0 -37.667 6 -45 18c101.333 31.333 230.333 112.333 387 243v5l3 37c-1.33301 10 -14.333 27.333 -39 52l-5 19l5 23l-13 68v68c-7.33301 0 -10 22 -8 66l-73 110
c-10 -4 -18.667 -15.333 -26 -34c2 -14 12.333 -29 31 -45c8.66699 -12 13 -23.333 13 -34c-2 -15.333 -9.66699 -23 -23 -23c-12.667 0 -29.334 14.667 -50.001 44c-56.667 29.333 -95 53.666 -115 72.999c-32 28 -48 68.333 -48 121c0 75.333 30 124 90 146l10 3
c13.333 0 27.333 -8.66699 42 -26v-11l-3 -2v-3l61 -76c15.333 10.667 23 27.334 23 50.001v2l-2 -2h-6c-18.667 0 -30.667 17.333 -36 52c2 7.33301 6.33301 12.666 13 15.999h2c32 0 59 -44.667 81 -134v-18c0 -20.667 -4.33301 -39 -13 -55l74 -89
c34.667 66 95.667 99 183 99c91.333 0 160 -31.333 206 -94l89 110c-5.33301 13.333 -10.666 23.166 -15.999 29.499l-30 36.5c3.33301 14.667 18.666 18.667 45.999 12zM873.004 632.002c14 20 25.998 30.668 35.998 32.001
c8.66699 -0.666992 15.834 -3.83398 21.501 -9.50098s9.83398 -13.167 12.501 -22.5c0 -5.33301 -8 -19.333 -24 -42c22.667 -10.667 43.667 -24.334 63 -41.001s19 -9.66699 -1 21l-30 46v8c0 26 -22.667 44.667 -68 56c-24 10 -39 14.333 -45 13
s-7.33301 -3.83301 -4 -7.5l12 -13l15.5 -17c5.66699 -6.33301 9.5 -14.166 11.5 -23.499zM1040 797.003v-3c5.33301 0 8 -9.66699 8 -29h2l3 24l-11 8h-2zM1000 792.003l6 -6l8 8h-6zM61.002 650.003c0 -22.667 3.33203 -34.002 9.99902 -34.002l6 5l-6 13l3 3h3v-5h2v2
l-2 11h5l-3 13v13h5l-5 44h5c0 -8 2 -12 6 -12c0 13.333 2.66699 20 8 20l2 -2l-5 -47v-3c0 -19.333 14 -50.666 42 -93.999v-16c-2 -5.33301 -7.33301 -8 -16 -8l-2 3h-3v-3l3 -13l-3 -2l-13 5c10.667 -16 48 -40.333 112 -73c18 -28 34 -42 48 -42c10 0 15 4.33301 15 13
c0 14.667 -12 32 -36 52l-6 16h-2v-3l2 -7l-2 -3l-19 13c0 -3.33301 13.333 -14.666 40 -33.999c8.66699 -10 13 -20.667 13 -32l-11 -7c-10 0 -19.333 8.33301 -28 25l5 6c-3.33301 0 -5 4.33301 -5 13c-8.66699 3.33301 -16.667 11 -24 23l-8 -2l-45 52v8l14 -13h2
c-2.66699 8 -8 14 -16 18v-5c-3.33301 0 -5.66602 7 -6.99902 21c-26.667 32 -40 71.333 -40 118v18c4 45.333 19 68 45 68l26 -5c0 4 -8.66699 6.66699 -26 8c-46 0 -75.667 -41 -89 -123v-16zM239.001 781.001l-0.000976562 -8.00098c0 -10.667 6 -20.334 18 -29.001h6
l8 8v3l-8 -5h-11l-8 15v6l3 2v3l-3 2l6 6h10c8 0 16.667 -16.667 26 -50v-19c0 -12 -13 -32.667 -39 -62c-14 -18 -21 -36.333 -21 -55v-8l8 -52h2c4.66699 2 11.667 10.667 21 26c-15.333 22.667 -23 36.334 -23 41.001l8 11l-8 10v3h2l16 -8v3c0 3.33301 -2.66699 5 -8 5
l-2 3v2l2 3l11 -5v2l-8 3l3 3v2l2 -2h3l2 2h3c12.667 -3.33301 28.334 -15.666 47.001 -36.999c5.33301 12.667 8 26.667 8 42c0 54.667 -17.333 101 -52 139l-11 3c-8.66699 -1.33301 -13 -4 -13 -8zM975 760v-3h10l15 8l3 -2l3 15h-16zM132 771l-8 -11l2 -18h3
c0 17.333 2.66699 26 8 26v3h-5zM163 768l8 -8l5 5zM171 752l2 -16l3 3h3l13 -8h10v3l-15 18h-16zM948 723h10c10 12.667 18 19 24 19l-5 5h-8zM113 692c11.333 -60.667 30.667 -105 58 -133c3.33301 0 5 -2.66699 5 -8l13 -8l-2 13v5c0 23.333 4.33301 50.333 13 81l-66 84
c-14 -12 -21 -23.333 -21 -34zM194.001 715c6.66699 0 14.667 -5.99902 24 -17.999h11l-24 26c-7.33301 -2.66699 -11 -5.33398 -11 -8.00098zM935.001 703.001l12.999 -11c0 5.33301 2 8 6 8l-3 3v2l7 10h-4c-11.333 -4.66699 -17.666 -8.66699 -18.999 -12zM218 689.001
l8 -10l-3 -8l8 -5l11 13c-9.33301 6.66699 -17.333 10 -24 10zM948 668.001v-2c6.66699 -13.333 10 -27.333 10 -42h3v21h6v-5c0 -20 3.33301 -33 10 -39v-3l21 -36c-12.667 42.667 -25 73.667 -37 93h-5c-1.33301 8.66699 -4 13 -8 13zM229 647.001l-8 -18h-6v8h-2
c-10.667 -20 -16 -46 -16 -78h5l-2 13v2c6.66699 6 10 19 10 39v6h5v-21h3c0 16 4.33301 31.667 13 47v2h-2zM778 503.001c2.66699 -6.66699 5.33301 -10 8 -10c66 92.667 103.333 139 112 139h14l10 -11v-2l-5 -6l-13 3l-8 -11h2l6 6v-3
c-12.667 -22 -27.667 -37.667 -45 -47l-7 -13h-6v5c-25.333 -26 -44.333 -49.667 -57 -71c0.666992 -4 5 -7.33301 13 -10c0 2.66699 6 7 18 13v-3c0 -3.33301 -6 -7.33301 -18 -12c6.66699 -8 10 -14.333 10 -19c50.667 78.667 91.667 137 123 175
c-10.667 14 -21 21 -31 21c-8.66699 0 -48 -45.333 -118 -136zM241.999 601.001c20.667 -24.667 55.333 -73.665 104 -146.998c12.667 9.33301 20.667 19.666 24 30.999l-39 42v-5h-6l-10 16c-8 0 -22 14.667 -42 44v2l8 -4v2l-10 8l-14 -3l-2 3v5l10 10h10
c10.667 0 31 -21.667 61 -65c24.667 -28.667 37 -45.334 37 -50.001h2l5 11l-102 120c-14.667 0 -26.667 -6.66699 -36 -20zM65.998 611.003v-3l5 -5v2zM379.998 478.003v-3.00098l74 31c52.667 10.667 91.667 16 117 16h8c28.667 0 91.667 -9.66699 189 -29
c0 -3.33301 3.33301 -5 10 -5c-14 28.667 -36.667 52.334 -68 71.001c-40 24 -80 36 -120 36h-42c-72.667 0 -128.667 -39 -168 -117zM97.998 577.002v-3l2 -2v-3l8 3v5h-10zM172.998 543.002l27 -32l8 3l-32 29h-3zM228.998 522.002v-3l2 -8h3v3l-3 8h-2zM510.998 396.002
h3h-3zM476.998 391.002v-3h11v3h-11zM432.998 378.002v-3h28c0 7.33301 4.66699 11 14 11v2h-6c-15.333 -6.66699 -27.333 -10 -36 -10zM447.998 367.002l-31 -0.00195312l2 -2l-2 -13v-8h-5c-3.33301 17.333 -7 26 -11 26h-10c10 -18 15 -32 15 -42v-5l-15 -47h-5l-3 2h-3
l6 19c0 20.667 -5.33301 35.334 -16 44.001v8c16 -2 24 -9.66699 24 -23h2v7l-13 37h-18v-68l21 -52h2c0 10 2 15 6 15l4 -31l3 2h8c10 -18.667 25.667 -28 47 -28l13 2v-2l-5 -5h-10c-33.333 0 -50 9.33301 -50 28h-3c0 -15.333 -6 -23 -18 -23
c-6.66699 2.66699 -10 5.33398 -10 8.00098l7 13l-3 7c-2 0 -6 -7.66699 -12 -23c0 -3.33301 16.333 -19 49 -47c0 -4 3.66699 -8.33301 11 -13l23 5c24.667 -6.66699 37 -18 37 -34l-3 -16c13.333 -12 38 -18 74 -18l15 -10l55 18l3 3v2h8v-8h5c0 6.66699 1.66699 10 5 10
l3 -7c6 4.66699 11.333 7 16 7l-6 35c4.66699 13.333 10 21 16 23l53 -10c0 7.33301 7.66699 12.333 23 15l39 56v5h-2l-21 -11c-5.33301 2.66699 -10 22.667 -14 60l3 3h3l5 -10h6c16.667 29.333 25 50 25 62v24h-21c-7.33301 -47.333 -12.333 -71 -15 -71
c-18 29.333 -27 50.333 -27 63l3 13l-207 18c-24 -8.66699 -51 -13 -81 -13zM746.998 359l-5 -18c2 -8.66699 4.66699 -13 8 -13l10 31h-13zM568.998 307h13l16 -15v-3h-3l-21 13l-16 -13l-5 5zM565.998 286l3 -2v-8c0 -13.333 -2.66699 -20.333 -8 -21h-5
c2.66699 20.667 6 31 10 31zM594.998 286l3 -2l-3 -3l3 -18v-11h-6l-2 13v16zM782.998 255l-2 -21h5v21h-3zM741.998 229h2v-8c-10.667 -16 -22.667 -24 -36 -24c-23.333 4 -35 8.33301 -35 13v3l27 -5c14.667 0 28.667 7 42 21zM578.998 226
c26.667 -6 40 -30.334 40 -73.001c-1.33301 -5.33301 -9.33301 -11.666 -24 -18.999l-18 -26h-3v14c4.66699 8 10.667 12 18 12v3c-11.333 0 -17.333 7 -18 21h-5c0 -9.33301 -3.66699 -15.333 -11 -18h-2c-14 0 -23.667 5 -29 15c0 21.333 8.66699 42.333 26 63z
M418.998 141.999l3 -8h3v8h-6zM413.998 131.999l-2 -16l7 -99h6l5 18l-3 3v2l3 8l-13 84h-3zM544.998 133.999h11c6.66699 -2.66699 10 -8.66699 10 -18v-2h-3l-18 18v2zM426.998 123.999v-2.00098c10.667 -44.667 16 -81.667 16 -111h-3l3 -2v-3l-3 -3
c0 -11.333 18.667 -32 56 -62c0 -14.667 16.333 -26 49 -34l21 5l8 -8h16c62 28.667 96 56.667 102 84l-5 18l21 99v3h-3c0 -15.333 -13 -40.666 -39 -75.999c-31.333 -27.333 -49 -41 -53 -41l-13 2l-29 -5l-10 5l-16 -5c-35.333 12.667 -59.666 30 -72.999 52
c0 7.33301 -2.66699 11 -8 11l-8 -8c-6.66699 0.666992 -15.334 27.667 -26.001 81h-3zM662.998 89.998v-5l5 5v5zM717.998 94.998c-6.66699 -22.667 -10 -39.333 -10 -50v-7c0.666992 -23.333 4 -35 10 -35c5.33301 2 8 7.66699 8 17l-8 49l5 26h-5zM495.998 92.999l2 -11
h2v11h-4zM735.998 92.999l-3 -53.001c0 -18 9 -35.333 27 -52c17.333 -20.667 26 -34.667 26 -42v-5c-16 16 -38.667 31.667 -68 47l-3 -3v-2l71 -50l8 3l5 -5l5 5c0.666992 -2.66699 17.334 -9 50.001 -19c0 -4.66699 3.33301 -9 10 -13h6l13 3
c20 -21.333 43.667 -32 71 -32c0 -2.66699 4.33301 -4 13 -4l5 -6l3 3h4c23.333 -4 35 -8.66699 35 -14l2 3h3c20.667 -4.66699 31 -9.66699 31 -15h-5l-21 8l-3 -3v-3c27.333 -8.66699 63.333 -13 108 -13h8v2c-16.667 3.33301 -69.334 29.666 -158.001 78.999v-2l45 -27
v-5h-8c-21.333 0 -37.666 5.33301 -48.999 16l2 2v3c-48.667 12.667 -73 21.334 -73 26.001s3.33301 7.33398 10 8.00098l3 -2h5v2c-39.333 22 -96.666 68.333 -171.999 139h5c83.333 -70 127.666 -105 132.999 -105c21.333 -20.667 39 -31 53 -31
c7.33301 -12.667 18.666 -19 33.999 -19h2v3c-44 24 -121.667 81.667 -233 173zM618.998 89.998l-3 -10l3 -3v-3l-6 -18h11l5 21l-3 13h-7zM651.998 84.998v-5h6v10zM207.998 -54.002l-0.000976562 -2h7c6.66699 0 19 6.66699 37 20c10.667 0 25.334 9.66699 44.001 29
c18.667 7.33301 54.667 36.333 108 87v7h-3c-82 -68 -146.333 -115 -193 -141zM523.997 86.998l-3.00098 -21c2.66699 -6.66699 5.33398 -10 8.00098 -10l3 3l-3 18v10h-5zM510.996 79.998v-8l6 -6v19zM557.996 81.998l-5 -23v-8l16 2l-3 27zM602.996 81.998l-5 -26h5
c5.33301 1.33301 8 8.33301 8 21zM633.996 81.998v-16l5 6v5zM576.996 76.998v-24l10 -2l5 21v2c0 4 -2.66699 6 -8 6zM262.996 -41.002l-0.000976562 -2.00195h2l10 2l6 -7c0 -5.33301 -24.333 -14.333 -73 -27l2 -2v-3c-11.333 -10.667 -27.666 -16 -48.999 -16h-9v6
c29.333 16 44.333 25.333 45 28c-42 -26.667 -94.333 -52.667 -157 -78v-3h13c39.333 0 73.333 4.66699 102 14l-5 4l-24 -7c0 6.66699 23.667 15.334 71 26.001h3l2 -3c16.667 8.66699 35 14 55 16c16 8 28.333 16.667 37 26l13 -2h5c11.333 14 25.333 21 42 21l3 -3
c0 4 4.33301 6.66699 13 8v-3l-3 -2v-3h10c0 8 5.66699 16 17 24l-3 2v3l23 31c-5.33301 8.66699 -8 17.334 -8 26.001h3l-5 34c-64.667 -57.333 -111.667 -94 -141 -110zM644.995 39.9961l2 -13h5l3 13v3h-3zM484.995 34.9961l3 -3h2v8zM492.995 37.9961v-3l3 -11h4l3 11z
M502.995 23.9961l3 -7h5v13zM432.995 26.9961l-6 -21l8 3v18h-2zM526.995 16.9961l2 -18h6l2 2h3l-5 21h-3zM516.995 19.9961v-6l4 -5v11h-4zM557.995 19.9961v-6l3 -13h2v19h-5zM544.995 16.9961v-3l3 -18h5v21h-8zM570.995 16.9961v-6h-2l5 -12h3l5 4v14h-11z
M589.995 16.9961v-18h5l3 12v6h-8zM701.995 5.99609v-3l3 -10h5l-5 13h-3zM732.995 5.99609l-7 -13v-2l34 -18c-11.333 18.667 -20.333 29.667 -27 33zM387.995 -38.0039v-3.00098h3l39 26l-5 8c-10.667 -3.33301 -23 -13.666 -37 -30.999zM243.995 -46.0049l-2 -2v-3h2l8 3
v2h-8zM301.995 -80.0049l-6 5c-30.667 -26 -60 -39 -88 -39l-6 -5l-10 2l-31 -10v-2c33.333 0 93.333 19 180 57v10l-37 -18h-2zM793.995 -75.0049l8 -8l8 8l-8 3zM926.995 -72.0049l6 -5h2l-5 5h-3zM809.995 -85.0049v-3l13 -8h2c-0.666992 4 -5 7.66699 -13 11h-2z
M832.995 -88.0049c0 -10.667 10.333 -18.333 31 -23c40.667 -19.333 90.667 -34.333 150 -45h2v3l-34 10l-10 -3c0 4 -15 8.66699 -45 14l-47 31l-10 -5c-16 12 -28.333 18 -37 18zM400.995 285.996c22.667 13.333 40.165 19.5 52.498 18.5s27.833 -4.5 46.5 -10.5l32 -2
c4 -25.333 2.16699 -42.666 -5.5 -51.999s-18.167 -16.333 -31.5 -21s-25.166 -6 -35.499 -4s-20.166 5.33301 -29.499 10s-16.5 11.167 -21.5 19.5s-7.5 22.166 -7.5 41.499zM614.993 286.996c8.66699 7.33301 15 12.335 19 15.002s10 4.16699 18 4.5
s13.5 -0.166992 16.5 -1.5s6.83301 -2 11.5 -2s8.83398 0.166992 12.501 0.5s8 -0.166992 13 -1.5s9.66699 -3 14 -5s13.166 -4.33301 26.499 -7c-4.66699 -22.667 -8.66699 -37.5 -12 -44.5s-8.83301 -12.833 -16.5 -17.5s-16.667 -7.83398 -27 -9.50098
s-18.833 -0.833984 -25.5 2.49902s-13.5 6.16602 -20.5 8.49902s-11.833 5.83301 -14.5 10.5s-4.5 9.83398 -5.5 15.501s-4.16699 16.167 -9.5 31.5z" />
    <glyph glyph-name="percent" unicode="%" horiz-adv-x="756" 
d="M38 637c26.667 14 54.333 24.499 83 31.499s57.667 10.667 87 11s58.666 -2.66699 87.999 -9s57.333 -15.833 84 -28.5c29.333 -15.333 59.833 -27.5 91.5 -36.5s63.334 -14 95.001 -15s62.5 2.33301 92.5 10s58.333 19.834 85 36.501v-567
c-25.333 -17.333 -52.5 -29.833 -81.5 -37.5s-58.5 -11.5 -88.5 -11.5s-59.667 3.83301 -89 11.5s-57 18.167 -83 31.5c-30 17.333 -60.667 30.5 -92 39.5s-62.833 13.667 -94.5 14s-62.5 -3.5 -92.5 -11.5s-58.333 -20 -85 -36v567zM187.999 554.999
c-0.666992 -8.66699 0.334961 -16.5 3.00195 -23.5s6.5 -13.333 11.5 -19s11 -10.667 18 -15s14.167 -7.83301 21.5 -10.5c2 -0.666992 4.16699 -1.16699 6.5 -1.5s4.83301 -0.833008 7.5 -1.5c3.33301 -0.666992 6.83301 -0.833984 10.5 -0.500977
s7.16699 -0.166992 10.5 -1.5c-4 -8.66699 -6.83301 -17.667 -8.5 -27s-2.5 -18.666 -2.5 -27.999c0 -14 1.83301 -27.333 5.5 -40s8.66699 -24.834 15 -36.501s13.833 -22.834 22.5 -33.501s18 -20.667 28 -30l24.5 -19.5c8.33301 -6.33301 17.166 -12.166 26.499 -17.499
c2.66699 -0.666992 5.16699 -1.83398 7.5 -3.50098s4.83301 -3.16699 7.5 -4.5c9.33301 -5.33301 19.166 -8.33301 29.499 -9s20.333 0.5 30 3.5s18.667 7.5 27 13.5s15.833 13 22.5 21c6 10.667 10.667 21.667 14 33s5 23 5 35v5v11c0 4 -0.333008 7.83301 -1 11.5
s-1.83398 7.16699 -3.50098 10.5s-4.16699 6 -7.5 8c-6 2 -12 4.66699 -18 8c-2.66699 -4.66699 -4.83398 -9.66699 -6.50098 -15s-3.5 -10.666 -5.5 -15.999c-2.66699 -3.33301 -6.16699 -5.5 -10.5 -6.5s-8.83301 -0.833008 -13.5 0.5
c-7.33301 2.66699 -14.166 6.66699 -20.499 12s-12.166 11.333 -17.499 18c-2.66699 4 -5 8 -7 12s-3 8.66699 -3 14l4 35v2c-8 10.667 -16.333 21.167 -25 31.5s-17.667 20.166 -27 29.499c-2.66699 4.66699 -5.66699 8.83398 -9 12.501s-6.33301 7.83398 -9 12.501
c0.666992 4 1.16699 8 1.5 12s0.833008 8 1.5 12c0 16.667 -4 32.5 -12 47.5s-19.333 27.167 -34 36.5l-12 4c-4 1.33301 -8 3 -12 5c-8.66699 1.33301 -17 1 -25 -1s-15.5 -5.16699 -22.5 -9.5s-13.5 -9.66602 -19.5 -15.999s-11.333 -12.833 -16 -19.5
c-4 -8 -7.33301 -16.333 -10 -25s-3.66699 -17.334 -3 -26.001zM438.001 520.999c0.666992 -4 1.49902 -8.16602 2.49902 -12.499s1.83301 -8.5 2.5 -12.5c0 -0.666992 -0.166992 -1 -0.5 -1s-0.833008 -0.333008 -1.5 -1l-1 1c-7.33301 5.33301 -14.666 10.333 -21.999 15
s-15 9 -23 13c-6 2.66699 -12.167 4.83398 -18.5 6.50098s-12.5 3.5 -18.5 5.5v-2l28 -35c9.33301 -12 19.166 -23.5 29.499 -34.5s21.333 -21.333 33 -31s24.167 -18.167 37.5 -25.5l18.5 -10.5c6.33301 -3.66699 12.833 -6.16699 19.5 -7.5v1
c-1.33301 2 -2.16602 4 -2.49902 6s-1.16602 4 -2.49902 6l2 -1c3.33301 -0.666992 7 -1.5 11 -2.5s7.66699 -1.83301 11 -2.5c7.33301 -0.666992 14.333 -0.166992 21 1.5s12.667 4.66699 18 9s10.166 9.16602 14.499 14.499s7.83301 11 10.5 17c3.33301 8.66699 5 17 5 25
v12c0.666992 9.33301 -0.666016 18.333 -3.99902 27s-8 16.5 -14 23.5s-12.667 13.5 -20 19.5s-14.666 11.667 -21.999 17c-6.66699 2.66699 -13.5 5.16699 -20.5 7.5s-14.167 4.16602 -21.5 5.49902c-6.66699 1.33301 -13.5 1.83301 -20.5 1.5s-13.833 -1.83301 -20.5 -4.5
s-12.334 -6.5 -17.001 -11.5s-8.33398 -11.167 -11.001 -18.5c-0.666992 -2.66699 -1.16699 -6 -1.5 -10s-0.833008 -7.66699 -1.5 -11zM112 432l0.00292969 -1.99512c8 -14.667 17.667 -27.834 29 -39.501l35 -35.5l112.5 -92l109.5 -97
c12 -11.333 24.5 -21.833 37.5 -31.5s26.833 -18.5 41.5 -26.5v3c-11.333 8.66699 -22.5 16.667 -33.5 24s-21.833 15.666 -32.5 24.999l-47.5 45.5c-15.667 15 -30.834 30.5 -45.501 46.5l1.5 1.5l1.5 1.5c2 -3.33301 4.5 -6 7.5 -8s5.83301 -4 8.5 -6l40 -37l41 -37
c9.33301 -8 19 -15.833 29 -23.5s21 -13.834 33 -18.501h1l4 2l1 1c-26 15.333 -50.333 32.666 -73 51.999s-44.834 39.333 -66.501 60l-65 61.5c-21.667 20.333 -44.834 39.166 -69.501 56.499c-16 14 -32.167 27.167 -48.5 39.5s-33.5 23.833 -51.5 34.5zM686.003 362.005
c-17.333 -24.667 -36.498 -47.501 -57.498 -68.501s-44.5 -38.833 -70.5 -53.5c-24.667 -14 -51.334 -24.333 -80.001 -31s-57.334 -8.66699 -86.001 -6c2 -3.33301 4.33301 -6 7 -8s5.66699 -4 9 -6c12 -0.666992 24 -0.666992 36 0s24 1.66699 36 3
c0 -0.666992 0.166992 -1 0.5 -1s0.5 -0.333008 0.5 -1v-1c-10 -2.66699 -20.333 -5.16699 -31 -7.5s-21.334 -2.83301 -32.001 -1.5v-2c2 -2 4 -3.66699 6 -5s4 -2.33301 6 -3c22.667 0 45.334 3.33301 68.001 10s43.667 16.334 63 29.001c28.667 18 54 40.167 76 66.5
s38.667 55.5 50 87.5zM259.005 232.004l0.000976562 -1.00391c3.33301 -1.33301 6.16602 -3.16602 8.49902 -5.49902s4.33301 -5.16602 6 -8.49902l5 -10l4.5 -9l5.5 -5.5c1.66699 -1.66699 3.16699 -3.5 4.5 -5.5v-5c0 -4.66699 0.5 -9.16699 1.5 -13.5
s2.5 -8.66602 4.5 -12.999s4.5 -8 7.5 -11s6.83301 -5.16699 11.5 -6.5c2.66699 -1.33301 5 -2.66602 7 -3.99902h10.5c3.66699 0 6.83398 1.33301 9.50098 4v3c0 0.666992 -0.166992 1.66699 -0.5 3s-0.5 2.66602 -0.5 3.99902h-0.5c-0.333008 0 -0.833008 0.333008 -1.5 1
c-3.33301 0 -6.83301 0.333008 -10.5 1s-7.16699 1 -10.5 1c-5.33301 1.33301 -9 4.33301 -11 9s-3.33301 9.33398 -4 14.001l1 1v14c-6 6 -10.833 12.833 -14.5 20.5s-7.83398 15.167 -12.501 22.5c-1.33301 0.666992 -2.83301 1.66699 -4.5 3s-3.5 2.33301 -5.5 3
s-4.16699 0.5 -6.5 -0.5s-3.83301 -2.83301 -4.5 -5.5zM486.006 114c0 -2 0.165039 -3.66406 0.498047 -4.99707s0.5 -3 0.5 -5v-3c0.666992 -4 -0.166016 -7.83301 -2.49902 -11.5s-5.83301 -5.16699 -10.5 -4.5h-1c-4 1.33301 -7.66699 2.66602 -11 3.99902l-10 4
c-1.33301 0 -3 -0.166992 -5 -0.5s-3 -1.5 -3 -3.5c0.666992 -2.66699 1.83398 -4.83398 3.50098 -6.50098s3.5 -3.16699 5.5 -4.5s4.16699 -2.5 6.5 -3.5s4.83301 -1.83301 7.5 -2.5c4 -2 8.33301 -2.83301 13 -2.5s8.66699 2.16602 12 5.49902
c4 5.33301 6.5 10.5 7.5 15.5s1.5 9.83301 1.5 14.5c5.33301 3.33301 10 7.16602 14 11.499s7.33301 8.5 10 12.5c2 0.666992 4 1.5 6 2.5s4 1.5 6 1.5c-1.33301 3.33301 -3.16602 6.33301 -5.49902 9s-5.5 4.33398 -9.5 5.00098c-2.66699 -0.666992 -5 -2 -7 -4
s-4 -4.33301 -6 -7s-3.5 -5.5 -4.5 -8.5s-2.16699 -5.83301 -3.5 -8.5c-2 -1.33301 -4.33301 -2.5 -7 -3.5s-5.33398 -1.5 -8.00098 -1.5zM306.004 201.003c2 -1.33301 4.00098 -2.83301 6.00098 -4.5s4 -3.16699 6 -4.5c8 -2 16 -2.83301 24 -2.5s15.667 1.5 23 3.5
c-2 1.33301 -4 3 -6 5l-5 5c-8.66699 0 -16.834 -0.166992 -24.501 -0.5s-15.5 -0.5 -23.5 -0.5v-1zM318.005 176.003v-4v-1c12 0 23.833 -0.166992 35.5 -0.5s23.167 -0.5 34.5 -0.5v1c-1.33301 2 -3 3.83301 -5 5.5s-3.66699 3.16699 -5 4.5
c-10 1.33301 -19.833 1.83301 -29.5 1.5s-19.5 -0.833008 -29.5 -1.5c0 -2 -0.333008 -3.66699 -1 -5zM196.005 201.003c0.666992 -5.33301 2.66699 -10.334 6 -15.001s7.66602 -6.66699 12.999 -6c2 0 4.33301 0.666992 7 2s4 3.33301 4 6
c-3.33301 5.33301 -5.33301 11 -6 17l2 3v1c-1.33301 0 -2.66602 0.166992 -3.99902 0.5s-2.33301 0.5 -3 0.5h-5c-2.66699 0 -5.66699 -0.666992 -9 -2s-5 -3.66602 -5 -6.99902zM233.005 207.002l-0.998047 -1.00098v-5c0 -5.33301 1.5 -9.33301 4.5 -12
s6.5 -4.66699 10.5 -6s8.16699 -2.33301 12.5 -3s8.16602 -1.66699 11.499 -3c2.66699 -0.666992 5 -1.16699 7 -1.5s4 -1.16602 6 -2.49902v9c0 0.666992 -0.166992 1 -0.5 1s-0.5 0.333008 -0.5 1v1l0.5 0.5l0.5 0.5l-13 14c-0.666992 0 -1.83398 0.166992 -3.50098 0.5
s-3.16699 0.5 -4.5 0.5c-4.66699 1.33301 -9.5 2.5 -14.5 3.5s-10.167 1.83301 -15.5 2.5zM570.007 85.001c1.33301 -2.66699 3.16895 -4.83398 5.50195 -6.50098s4.83301 -2.5 7.5 -2.5c6 1.33301 10.833 4.33301 14.5 9s5.5 10 5.5 16l-7.5 7.5
c-2.33301 2.33301 -5.5 3.5 -9.5 3.5c-0.666992 0 -1.33398 -0.166992 -2.00098 -0.5s-1.33398 -0.5 -2.00098 -0.5c-2.66699 -1.33301 -4.16699 -3.66602 -4.5 -6.99902s-0.833008 -6.33301 -1.5 -9c-0.666992 -2 -1.66699 -3.83301 -3 -5.5s-2.33301 -3.16699 -3 -4.5z
M521.01 107.001l-3.99902 -4.00098l-4 -4v-10h8c3.33301 -0.666992 7 -1.16699 11 -1.5s7.66699 -0.833008 11 -1.5c6 -0.666992 11.667 0.833008 17 4.5s7.66602 8.83398 6.99902 15.501c-7.33301 -0.666992 -15 -0.5 -23 0.5s-15.667 1.16699 -23 0.5zM223.011 172
l0.000976562 -1.00098h3.5h2.5c3.33301 2 4.66602 4.66699 3.99902 8c-2 -0.666992 -3.66699 -1.66699 -5 -3s-3 -2.66602 -5 -3.99902zM564.012 74.999l-0.000976562 -1.99902c0.666992 -1.33301 1.83398 -2.66602 3.50098 -3.99902s3.5 -2 5.5 -2
c-2 1.33301 -3.5 2.66602 -4.5 3.99902s-2.5 2.66602 -4.5 3.99902zM35.0107 695v-886h-24v886h24z" />
    <glyph glyph-name="ampersand" unicode="&#x26;" horiz-adv-x="610" 
d="M281 444c5.33301 12.667 10.333 25.333 15 38l8 19l-1 20l-2 12l-4 28l-2 11l-5 19v14l-20 18c-23.333 8 -40.666 12 -51.999 12c-14 -6 -23 -10.333 -27 -13c-11.333 -10 -17.833 -17.5 -19.5 -22.5s-4.83398 -11.5 -9.50098 -19.5l-4 -17l1 -20l-2 -16l6 -14l2 -9
l-9 -14l10 -8l11 -12l11 -12l2 -14l22 -16l27 -18zM507 275.999c8.66699 -36.667 10 -63.667 4 -81s-13.667 -41 -23 -71l-44 -64l-49 -24l-57 -11l-41 -9c-77.333 9.33301 -126 14 -146 14s-43.333 9.66699 -70 29l-37 25l7 20l3 18l-3 4l-21 10l3 11l-3 12l-19 8l8 45
l14 53l25 30l36 27c16 11.333 29.667 23 41 35l23 23l-37 12l-17 7l-27 26c-14.667 22.667 -24.667 39.334 -30 50.001s-9 23.5 -11 38.5s-1.5 29.167 1.5 42.5s14.167 32.666 33.5 57.999l37 33l36 18l64 13l31 7l62 -7l27 -6l15 -5l18 -7l3 -9l8 -11l25 -15l6 -14l16 -17
l9 -49l-9 -44c-7.33301 -20 -17 -34 -29 -42c-14 -6 -24 -17.667 -30 -35l-9 -15l-33 -30l34 -23l65 -108l20 -26l76 -90l19 -29l29 -41l17 -8l10 -20c6 -13.333 -0.333008 -22 -19 -26l-27 -5h-47l-9 18l-100 132l-99 132l-30 28l-19 19l-15 8l-31 -16l-37 -40l-14 -34
l-3 -25v-37c2.66699 -23.333 6.16699 -40 10.5 -50s8.5 -17.667 12.5 -23s11 -12.333 21 -21l21 -15l20 2c50.667 -4.66699 78.5 -6.16699 83.5 -4.5s10 3.16699 15 4.5s14.5 7.33301 28.5 18s21 28.667 21 54l3 27l16 23l105 85z" />
    <glyph glyph-name="quotesingle" unicode="'" horiz-adv-x="190" 
d="M72 734l12 22l21 18l31 -18v-22h-4l-8 -23l-61 -64l-17 19z" />
    <glyph glyph-name="parenleft" unicode="(" horiz-adv-x="375" 
d="M318 834c-2.66699 -8 -11 -21 -25 -39c-27.333 -53.333 -54.333 -128.333 -81 -225c-15.333 -76.667 -23.666 -138.667 -24.999 -186c-2.66699 -104 19.666 -213.333 66.999 -328c11.333 -22 16 -33.667 14 -35h-2c-20 4 -33.333 10 -40 18l-2 3
c-48.667 91.333 -72 217 -70 377l-1 1c-12 -75.333 -15.667 -124.333 -11 -147c12 -84 30.667 -159.667 56 -227c11.333 -14 7 -25.333 -13 -34l-8 -3l-4 5l-14 28c-30 72 -53.667 151.667 -71 239c-4.66699 83.333 6.33301 177.666 33 282.999
c22.667 68 44.667 118.333 66 151c48.667 64.667 86 102.334 112 113.001zM229 23c54 -22 91.999 -28.3311 113.999 -18.998c26 0.666992 42.667 -3.33301 50 -12l1 -1c5.33301 -10.667 4 -23.667 -4 -39l-3 -1c-3.33301 -2 -11.333 2.66699 -24 14
c-38.667 1.33301 -70.667 4.66602 -96 9.99902c-53.333 -13.333 -91.333 -19.666 -114 -18.999c-11.333 -4.66699 -29.666 1 -54.999 17l-7 9c-20 25.333 -28 42.666 -24 51.999c17.333 7.33301 29.333 9.66602 36 6.99902l4 -6l9 -26c12.667 -13.333 23 -18.333 31 -15
c4 -6 23 -2 57 12l16 16zM342.999 -105.998c4.66699 2 11.334 -0.333008 20.001 -7c6.66699 -9.33301 10.667 -20.333 12 -33c0 -8 -7 -15 -21 -21l-12 -5c-33.333 3.33301 -51.666 6.33301 -54.999 9c-14.667 2.66699 -26.334 11.667 -35.001 27s8 18.333 50 9l4 2l35 2
l4 2c-6.66699 8 -7.33398 13 -2.00098 15zM330.999 -92.998c5.33301 -8 5.66699 -13 1 -15l-15 -5c-43.333 -0.666992 -62.333 5 -57 17l-31 39c-2 2.66699 2.66699 8 14 16c6.66699 3.33301 21.667 3 45 -1z" />
    <glyph glyph-name="parenright" unicode=")" horiz-adv-x="445" 
d="M170 795c-14 18 -22.001 31 -24.001 39l18 -6c26 -10.667 63.667 -48.334 113 -113.001c20.667 -32.667 42.334 -83 65.001 -151c26.667 -105.333 37.667 -199.666 33 -282.999c-16.667 -87.333 -40.334 -167 -71.001 -239l-14 -28l-4 -5l-8 3
c-19.333 8.66699 -23.666 20 -12.999 34c25.333 67.333 44.333 143 57 227c4 22.667 0.333008 71.667 -11 147l-2 -1c2 -160 -21.333 -285.667 -70 -377l-2 -3c-6 -8 -19.333 -14 -40 -18h-2c-2 1.33301 2.66699 13 14 35c47.333 114.667 70 224 68 328
c-2 47.333 -10.667 109.333 -26 186c-26.667 96.667 -53.667 171.667 -81 225zM242.999 22l15.999 -16.002c34 -14 53 -18 57 -12c8 -3.33301 18.333 1.66699 31 15l9 26l4 6c7.33301 2.66699 19.333 0.333984 36 -6.99902c4 -9.33301 -3.66699 -26.666 -23 -51.999l-8 -9
c-24.667 -16 -42.667 -21.667 -54 -17c-23.333 -0.666992 -61.666 5.66602 -114.999 18.999c-25.333 -5.33301 -57.333 -8.66602 -96 -9.99902c-12 -11.333 -20 -16 -24 -14l-3 1c-8 15.333 -9 28.333 -3 39v1c7.33301 8.66699 24.333 12.667 51 12
c21.333 -9.33301 59 -3 113 19zM99.998 -113.002c8.66699 6.66699 15.666 9 20.999 7c4 -2 3.33301 -7 -2 -15l3 -2l35 -2l4 -2c42.667 9.33301 59.667 6.33301 51 -9s-20.667 -24.333 -36 -27c-4 -2.66699 -22.333 -5.66699 -55 -9l-11 5c-14 6 -21 13 -21 21
c0.666992 12.667 4.33398 23.667 11.001 33zM174.997 -42.002c23.333 4 38.332 4.33301 44.999 1c11.333 -8 16 -13.333 14 -16l-30 -39c4.66699 -12 -14.666 -17.667 -57.999 -17l-15 5c-4 2 -3.66699 7 1 15z" />
    <glyph glyph-name="asterisk" unicode="*" horiz-adv-x="1001" 
d="M448 334c-28.667 34.667 -72.1689 77.667 -130.502 129s-143.833 79.333 -256.5 84l260 215c-16 -100.667 3.33301 -181.834 58 -243.501s95 -108.5 121 -140.5c29.333 28.667 65.833 70 109.5 124s63.5 131.667 59.5 233l232 -243c-112.667 8 -192.334 -10 -239.001 -54
l-119 -112c28.667 -30 76.667 -73.5 144 -130.5s151.666 -83.5 252.999 -79.5l-243 -232c8.66699 112.667 -15.666 198.834 -72.999 258.501l-133 139.5c-35.333 -29.333 -75.666 -70.5 -120.999 -123.5s-70.666 -136.167 -75.999 -249.5l-214 260
c101.333 -16 179.833 1 235.5 51s99.834 88 132.501 114z" />
    <glyph glyph-name="plus" unicode="+" horiz-adv-x="1001" 
d="M474 346c2.66699 24.667 2.66504 58.1689 -0.00195312 100.502s-24.667 86.166 -66 131.499l183 -18c-46 -32.667 -70.167 -71.5 -72.5 -116.5s-4.83301 -78.5 -7.5 -100.5c22.667 -0.666992 52.834 1 90.501 5s75.167 26.667 112.5 68l-4 -185
c-40 47.333 -77.667 71.5 -113 72.5l-89 2.5c-0.666992 -22.667 1 -58 5 -106s26.667 -90.667 68 -128l-184 4c46.667 40.667 70.5 83.5 71.5 128.5s1.83301 80.167 2.5 105.5c-24.667 1.33301 -56.167 0.666016 -94.5 -2.00098s-80.166 -25 -125.499 -67l18 183
c32.667 -45.333 69.5 -69 110.5 -71s72.5 -4.33301 94.5 -7z" />
    <glyph glyph-name="comma" unicode="," horiz-adv-x="212" 
d="M90 29l14 25l24 21l35 -21v-25h-4l-10 -26l-69 -72l-19 21z" />
    <glyph glyph-name="hyphen" unicode="-" horiz-adv-x="257" 
d="M11 324l227 39l6 -33l-84 -18l-103 -39l-43 18z" />
    <glyph glyph-name="period" unicode="." horiz-adv-x="205" 
d="M61 3l14 25l24 21l36 -21v-25h-4l-10 -26l-18 -5l-26 5z" />
    <glyph glyph-name="slash" unicode="/" horiz-adv-x="430" 
d="M59 -72l255 792h57l-257 -792h-55z" />
    <glyph glyph-name="zero" unicode="0" horiz-adv-x="468" 
d="M225 624l-34 -12l-18 -35l-25 -58c-4 -32 -5 -58.667 -3 -80s1 -57.333 -3 -108c2.66699 -54.667 5.66699 -105.667 9 -153l22 -53c14 -24.667 24 -41.5 30 -50.5s17.333 -15.5 34 -19.5c18 4 29.667 7.5 35 10.5s10.5 9.33301 15.5 19s10.5 24.167 16.5 43.5l12 47l3 30
l10 52l-4 77l-6 82l-6 85l-12 67l-12 33c-24.667 15.333 -46 23 -64 23zM336 641c30.667 -20.667 53.002 -41.9971 67.002 -63.9971s26.667 -49 38 -81l12 -65l-9 -40v-40l9 -29v-76l-12 -57l-31 -71c-12.667 -24.667 -22.834 -42.667 -30.501 -54s-20.667 -20.333 -39 -27
s-46.166 -15.667 -83.499 -27c-26.667 2 -51.834 6.16699 -75.501 12.5s-43.167 15.666 -58.5 27.999s-29.333 30.833 -42 55.5l-3 18l-3 14l-29 25l-17 26l-11 102c-6 43.333 -7.5 83.5 -4.5 120.5s8.66699 66.5 17 88.5s21.166 47.333 38.499 76l40 42
c18.667 15.333 50 30.666 94 45.999c20.667 7.33301 39.5 9.16602 56.5 5.49902s42.5 -13.167 76.5 -28.5z" />
    <glyph glyph-name="one" unicode="1" horiz-adv-x="316" 
d="M18 582l107.999 104.002l31 -21l18 14l64 3l-6 -27c0 -5.33301 1 -13.833 3 -25.5s1 -38.834 -3 -81.501v-96l-8 -21h-13l-25 -32l13 -18v-17l21 -10h10v-22l8 -209c2.66699 -30.667 13 -51.667 31 -63l34 -7v-29c-81.333 4.66699 -162.666 4.66699 -243.999 0l-3 36
c20 2 33.167 7.16699 39.5 15.5s10.5 26.833 12.5 55.5l-3 360c0.666992 48.667 -4.33301 72.167 -15 70.5s-37 -8.83398 -79 -21.501z" />
    <glyph glyph-name="two" unicode="2" horiz-adv-x="493" 
d="M213 677l1.99316 -1.99707h2l7 3l2 -2l2 2l18 1l16 -1l2 2h2c31.333 0 67.666 -18 108.999 -54c22 -24.667 40.667 -51 56 -79c4.66699 -64 -7.33301 -114.333 -36 -151c-32 -32.667 -67 -60.667 -105 -84c-26.667 -14.667 -52.667 -33.334 -78 -56.001
c-48.667 -34.667 -72 -64 -70 -88c-7.33301 -15.333 -11.666 -30.666 -12.999 -45.999c4.66699 -10 17.334 -14.333 38.001 -13l94 -10l41 -7l19 7l22 1c32 -4 53.667 4 65 24c13.333 18 25.666 31.333 36.999 40l2 38c18.667 -2 29 -4 31 -6
c-13.333 -106.667 -21.666 -163 -24.999 -169l-9 -2l-9 -1c-7.33301 5.33301 -34.333 7.66602 -81 6.99902c0 5.33301 -22.333 7.66602 -67 6.99902c-52 2.66699 -100.667 -0.333008 -146 -9h-35l-70 -4c-2.66699 -0.666992 -4.66699 1.66602 -6 6.99902
c-1.33301 22 -5.66602 55 -12.999 99l15 13l3 21h-2c-5.33301 1.33301 -9.33301 4.33301 -12 9c-1.33301 29.333 20.334 78.333 65.001 147c26.667 34 58.334 61.333 95.001 82c34 20.667 61 40.667 81 60h8c6 -2 12.333 -6.66699 19 -14h2l8 2v-2
c5.33301 0.666992 9.33301 9.66699 12 27l3 3l-4 14l14 54l1 17c-1.33301 12.667 -10.666 26.667 -27.999 42c-17.333 12 -38.666 17.333 -63.999 16l-5 -1l-7 -2l-3 2c-26.667 -4.66699 -61.667 -24 -105 -58c-29.333 -27.333 -45.666 -53 -48.999 -77l-12 -7l-8 2l-2 -2
c-12 0 -18 1.33301 -18 4c-10 73.333 22.667 132.333 98 177z" />
    <glyph glyph-name="three" unicode="3" horiz-adv-x="450" 
d="M12 84l25 23.999l27 1l17 -11l25 -10l30 -3l30 -3l63 24l56 51l17 38l-9 15c-10 80.667 -29.333 121 -58 121c-10 0 -25.667 -5.33301 -47 -16h-11c-8 0 -18.667 4.66699 -32 14l4 41v5h5c21.333 0 53.333 12.667 96 38c43.333 38 65 69 65 93l12 15
c-8 16 -10.333 31.333 -7 46c-28.667 36.667 -54 56 -76 58c-24.667 0 -65.667 -12.333 -123 -37l-26 -5l-19 -10l-22 40l12 24l19 15l19 15l43 19l84 13c33.333 -2 66.333 -6.33301 99 -13c6 0 9 -5 9 -15h15c0 -4.66699 1.66699 -7 5 -7l2 -3
c12.667 0 28.667 -19.667 48 -59l12 -29l8 -32l-8 -60l-45 -61c-12.667 -16.667 -33 -34 -61 -52v-10c8 0 23.833 -4.66699 47.5 -14s43.167 -35 58.5 -77l9 -30l8 -25l-6 -24l-8 -33l-28 -64c-36.667 -41.333 -105 -66.666 -205 -75.999h-55l-24 9l-33 4l-49 18z" />
    <glyph glyph-name="four" unicode="4" horiz-adv-x="552" 
d="M336 692l3 -0.00195312v-2l2 -7l27 -7l42 2h6l12 2l2 -2l-5 -30l3 -38l-3 -91v-67c-2.66699 -16 -8 -24 -16 -24c-6 0 -15 -11 -27 -33c7.33301 -10.667 11 -17.667 11 -21v-14l30 -10v-62c0 -2.66699 1.66699 -4 5 -4c32.667 0 60 2 82 6l2 -2v-30
c0 -12.667 -11.333 -32 -34 -58h-52l2 -16c0 -76 9 -116.667 27 -122c0 -3.33301 11.333 -7 34 -11l1 -2v-24l-1 -2v-2l-114 4l-114 -4c-2.66699 2.66699 -4.33398 14.334 -5.00098 35.001c22 4.66699 35 10.667 39 18c7.33301 14 11 36.667 11 68v62
c-40 0 -81 1.66699 -123 5c-18.667 -3.33301 -75 -5.66602 -169 -6.99902l-2 2v14c0 8 39.667 67.667 119 179c50.667 76.667 92.334 152 125.001 226c36 36 62.667 59 80 69zM144 292.998c15.333 -6 63.332 -9 143.999 -9h12v128c0 68 -3.33301 102 -10 102l-6 18l-34 -68
c-29.333 -52.667 -64.666 -109.667 -105.999 -171z" />
    <glyph glyph-name="five" unicode="5" horiz-adv-x="469" 
d="M122 672l25.0029 -7.00098h16c17.333 0 43.333 -3.66699 78 -11h12c56.667 7.33301 94 11 112 11s37 7 57 21c2.66699 0 5 -31.667 7 -95l11 -89v-1l-22 -20h-3c-2 0 -10.667 18.333 -26 55c-24.667 39.333 -49.667 54 -75 44l-3 4h-7l-31 9l-7 -7l-9 2h-3l-5 -4h-20
c-32 0 -53 -9 -63 -27l7 -9v-2c-6.66699 -4.66699 -10 -13 -10 -25l-3 -5v-7c4 -7.33301 15.667 -18.666 35 -33.999c4.66699 -0.666992 7 -2.66699 7 -6l-1 -1v-2c2 0 3.33301 -4 4 -12h3v-2l2 2h2l10 -2c0 5.33301 6.33301 10 19 14c16 -20 45.333 -41 88 -63
c30 -23.333 53.333 -49.666 70 -78.999c22 -40 35.667 -70.667 41 -92s1.16602 -45.666 -12.501 -72.999s-30.834 -51 -51.501 -71c-53.333 -48.667 -112.333 -73 -177 -73c-70 0 -123.667 24.333 -161 73c-22.667 22.667 -34 49 -34 79c19.333 22.667 38.666 32 57.999 28
v-17l13 -8l7 -17c4 -11.333 12.667 -23 26 -35l20 -17c26 -24 42.333 -36 49 -36l9 -1h11h10c50.667 0 86.667 22.333 108 67l2 9c1.33301 5.33301 5 10.666 11 15.999l8 7c0 11.333 -4 25.666 -12 42.999v27c0 17.333 -15 36 -45 56l-46 28l-58 29
c-39.333 18.667 -70 29.667 -92 33c-22 4 -33 9.33301 -33 16c36 182 55.333 273 58 273z" />
    <glyph glyph-name="six" unicode="6" horiz-adv-x="477" 
d="M416 637c-22.667 5.33301 -44.332 5.99805 -64.999 1.99805l-46 -17c-26.667 -21.333 -43.667 -35.666 -51 -42.999l-14 -14c-4 -5.33301 -11.667 -20 -23 -44c-6 -13.333 -11.667 -26.666 -17 -39.999l-23 -34l-9 -26l-8 -28v-42l-9 -26l-3 -49l-5 -31
c7.33301 -18.667 10 -36.667 8 -54l3 -34l17 -14l15 -32c9.33301 -11.333 15.833 -18.833 19.5 -22.5s14.167 -7.16699 31.5 -10.5l19 -3l26 11c9.33301 6 17.833 16.5 25.5 31.5s13.5 29.167 17.5 42.5v17l6 23v8l5 17v11l-3 28c-3.33301 6 -8 15.667 -14 29l-6 22l-20 18
l-20 14l-2 8c-13.333 2 -23 3 -29 3l-19 -8c-11.333 -4 -21 -7 -29 -9l-17 -13v14l3 11l3 15l5 11l20 20l20 14l28 14c24 5.33301 49 4.33301 75 -3l5 -3h9c19.333 -0.666992 41 -8 65 -22c11.333 -20.667 21.666 -36 30.999 -46l15 -34l5 -40c2 -18.667 3 -33.167 3 -43.5
s-0.5 -17.5 -1.5 -21.5s-2.5 -14.333 -4.5 -31l-20 -40c-40.667 -64.667 -77 -99.667 -109 -105l-13 -6l-8 -6l-35 -8l-42 -3l-28 -3l-63 20l-57 34l-22 26l-18 25l-22 77l4 8l4 5l9 -1l-6 20c-2 3.33301 -8.33301 15 -19 35l-1 47c2 18.667 3.5 34.167 4.5 46.5
s7.16699 27.833 18.5 46.5l8 17l3 9v11v6l3 9l17 17l3 3v20l9 11l22 31l3 9l14 14c20.667 16.667 34 28 40 34s14.667 13.667 26 23l31 14l43 31l51 20c39.333 10.667 80 12.667 122 6l17 -10l-3 -18l6 -20l-17 -7z" />
    <glyph glyph-name="seven" unicode="7" horiz-adv-x="575" 
d="M122 505l-18 -3.00098l-31 23c13.333 54.667 21 97.334 23 128.001l-6 34l3 17c30.667 -15.333 57.834 -22.5 81.501 -21.5s52.5 2.5 86.5 4.5l46 -12l11 -3l34 -2h3l11 2l31 9c4 2 19.333 2 46 0l20 -3l14 6l23 3h17c-2 -19.333 -3 -40.333 -3 -63l-3 -34l-11 -28v-15
c-4 -30 -12.667 -51.667 -26 -65c-47.333 -68 -82.333 -111.667 -105 -131v-19l-8 -29l-12 -17l-8 -6l-29 -54l-34 -37l-14 -43c-11.333 -22.667 -24.666 -40.667 -39.999 -54l-17 -39l-23 -29v-25l-51 -3h-8h-21l-22 3c5.33301 36 27 83.333 65 142l35 51l-3 23
c26 32 50.333 71 73 117l26 48c11.333 18.667 41.666 61.334 90.999 128.001l51 75c4 9.33301 -8.33301 17.666 -37 24.999l-34 -14l-17 6l-8 5h-12l-14 6l-31 3l-6 -14h-23h-8c-22.667 7.33301 -50.334 -11 -83.001 -55z" />
    <glyph glyph-name="eight" unicode="8" horiz-adv-x="465" 
d="M282 444c5.33301 12.667 10.333 25.333 15 38l8 19l-1 20l-2 12l-4 28l-2 11l-5 19v14l-20 18c-23.333 8 -40.666 12 -51.999 12c-14 -6 -23 -10.333 -27 -13c-11.333 -10 -17.833 -17.5 -19.5 -22.5s-4.83398 -11.5 -9.50098 -19.5l-4 -17l1 -20l-2 -16l6 -14l2 -9
l-9 -14l10 -8l11 -12l11 -12l2 -14l22 -16l27 -18zM224 339.999l-31.001 -15.999l-37 -40l-14 -34l-3 -25v-37c2.66699 -23.333 6.16699 -40 10.5 -50s8.33301 -17.667 12 -23s10.834 -12.333 21.501 -21l21 -15l20 2c14.667 1.33301 24.5 2.66602 29.5 3.99902
s10 2.83301 15 4.5s14.5 7.66699 28.5 18s20.667 28.5 20 54.5l3 26l3 26l-12 29l-2 16l-21 26l-30 28l-19 19zM158.999 380l-37.002 12l-17 7l-27 26c-14.667 22.667 -24.667 39.334 -30 50.001s-9 23.5 -11 38.5s-1.5 29.167 1.5 42.5s14.167 32.666 33.5 57.999l37 33
l36 18l64 13l31 7l62 -7l27 -6l15 -5l18 -7l3 -9l8 -11l25 -15l6 -14l16 -17l9 -49l-9 -44c-7.33301 -20 -17 -34 -29 -42c-14 -6 -24 -17.667 -30 -35l-9 -15l-33 -30l34 -23l33 -22l54 -53c8.66699 -36 12.334 -62.333 11.001 -79s-6.66602 -40 -15.999 -70l-44 -64
l-49 -24l-57 -10l-41 -10c-41.333 4 -72 6 -92 6s-43.333 9.66699 -70 29l-37 25l7 20l3 18l-3 4l-21 10l3 11l-3 12l-19 8l8 45l14 53l25 30l36 27c16 11.333 29.667 23 41 35z" />
    <glyph glyph-name="nine" unicode="9" horiz-adv-x="458" 
d="M59 70l5.00879 -3.00098l27 -14h14l16 6l11 2c12.667 6 23.667 11 33 15l27 22c7.33301 6 14.666 12.667 21.999 20l14 14c3.33301 6 10.666 17.667 21.999 35c5.33301 13.333 10.666 29.666 15.999 48.999l22 34l7 26l9 28v43l8 26l3 48l5 31l-11 28l3 26l-3 34l-16 15
l-14 31c-8.66699 11.333 -14.834 18.833 -18.501 22.5s-13.834 7.5 -30.501 11.5l-19 3l-24 -12l-6 -11l-16 -14l-14 -29l-5 -19v-17l-6 -23v-9l-5 -11v-12l3 -38c3.33301 -6 7.66602 -15.667 12.999 -29l6 -22l19 -17l19 -14l2 -9c13.333 -2 22.666 -5.66699 27.999 -11
l19 8c10.667 4 19.667 7 27 9l14 1l-3 -23l-6 -11l-18 -20l-19 -14l-28 -6c-22.667 -5.33301 -46.334 -4.33301 -71.001 3l-5 3h-8c-18.667 0.666992 -39.667 8 -63 22l-16 32l-14 14l-13 34l-6 40c-2 18.667 -3 33.334 -3 44.001s0.5 17.834 1.5 21.501
s2.5 14.167 4.5 31.5l19 40c2 10.667 8.33301 22.167 19 34.5s30.667 32.833 60 61.5l38 15l8 5l33 9l41 3l27 2l60 -19l54 -35l22 -26l17 -25c14 -51.333 23.333 -99 28 -143l1 -47c-1.33301 -19.333 -2.5 -35.166 -3.5 -47.499s-6.83301 -27.833 -17.5 -46.5l-8 -17l-3 -9
v-11v-6l-3 -8l-16 -17l-3 -3l-14 -6l-14 -17l-21 -31l-3 -9l6 -23c-20 -16.667 -32.833 -27.834 -38.5 -33.501s-13.834 -13.167 -24.501 -22.5l-30 -15l-41 -31l-49 -20c-38 -10.667 -77 -12.667 -117 -6l-16 10l2 19l-5 10l16 26z" />
    <glyph glyph-name="colon" unicode=":" horiz-adv-x="212" 
d="M90 368l14 25l24 21l37 -21v-25h-5l-10 -26l-18 -6l-26 6zM61 3l14 25l24 21l36 -21v-25h-4l-10 -26l-18 -5l-26 5z" />
    <glyph glyph-name="semicolon" unicode=";" horiz-adv-x="212" 
d="M90 29l14 25l24 21l35 -21v-25h-4l-10 -26l-69 -72l-19 21zM90 368l14 25l24 21l36 -21v-25h-4l-10 -26l-18 -6l-26 6z" />
    <glyph glyph-name="less" unicode="&#x3c;" horiz-adv-x="566" 
d="M37 314l0.000976562 12.0029l46 33l6 10c0.666992 -1.33301 10.5 5.5 29.5 20.5s58.833 41.5 119.5 79.5c76 36.667 125 49 147 37l2 4c-10.667 20.667 -21.667 34 -33 40l1 3l16 1l2 -1l1 -5l1 -1l5 2l31 -21l13 -7l21 -21l14 -8c38 -22 60 -38.333 66 -49
c-2 -4 -17.667 -2 -47 6l-5 3l-7 2c-18.667 4.66699 -53.334 -7.33301 -104.001 -36l2 4c12.667 23.333 14.334 35.666 5.00098 36.999c-83.333 -24.667 -155.333 -66.334 -216 -125.001c-3.33301 -2 -6.33301 -4.66699 -9 -8c-0.666992 -1.33301 -1 -3 -1 -5
c0 -6 -0.333008 -12.333 -1 -19c6 -6 12 -11.667 18 -17c60 -41.333 134 -70.666 222 -87.999c2.66699 2 -3.33301 15.667 -18 41l4 3l2 -3c50 -28.667 84 -39.667 102 -33l2 2c16.667 4 31 9.66699 43 17l9 5l4 -6c-6 -4 -14.333 -11.5 -25 -22.5
s-17.334 -18.5 -20.001 -22.5l-10 -7l-8 -3l-14 -13l-100 -54l-2 3c18.667 11.333 32.334 26.666 41.001 45.999l-2 3l-3 -1c-46.667 1.33301 -75.334 4.66602 -86.001 9.99902c-60 20 -123.333 54.333 -190 103z" />
    <glyph glyph-name="equal" unicode="=" horiz-adv-x="287" 
d="M117 306l133 -13l46 6l-15 -48l-73 -11l-86 13l-42 6l-48 -8l-44 3l7 54h104zM185 440h105l6 -54l-44 -3l-48 8l-42 -6l-85 -13l-74 11l-15 48l46 -6l133 12z" />
    <glyph glyph-name="greater" unicode="&#x3e;" horiz-adv-x="566" 
d="M456 265c-67.333 -48.667 -130.669 -83.0029 -190.002 -103.003c-11.333 -5.33301 -40 -8.66602 -86 -9.99902l-3 1l-2 -3c8 -19.333 21.667 -34.666 41 -45.999l-2 -3c-24 12 -57.333 30 -100 54l-14 13l-8 3l-10 7c-3.33301 4 -10.166 11.5 -20.499 22.5
s-18.5 18.5 -24.5 22.5l4 6l9 -5c12 -7.33301 26 -13 42 -17l3 -2c17.333 -6.66699 51 4.33301 101 33l2 3l5 -3c-15.333 -25.333 -21.333 -39 -18 -41c88 17.333 162 46.666 222 87.999c6 5.33301 11.667 11 17 17c0 6.66699 -0.333008 13 -1 19v5
c-3.33301 3.33301 -6.33301 6 -9 8c-60.667 58.667 -132.667 100.334 -216 125.001c-9.33301 -1.33301 -7.66602 -13.666 5.00098 -36.999l2 -4c-51.333 28.667 -86 40.667 -104 36l-7 -2l-5 -3c-30 -8 -45.667 -10 -47 -6c5.33301 10.667 27 27 65 49l15 8l21 21l12 7
l32 21l4 -2l2 1v5l3 1l15 -1l2 -3c-12 -6 -23 -19.333 -33 -40l2 -4c21.333 12 70 -0.333008 146 -37c60.667 -38 100.5 -64.5 119.5 -79.5s29.167 -21.833 30.5 -20.5l5 -10l47 -33l-1 -12z" />
    <glyph glyph-name="question" unicode="?" horiz-adv-x="479" 
d="M79 540c8.66699 63.333 25.5 110.667 50.5 142s62.333 47 112 47s88 -17 115 -51s45.5 -76.833 55.5 -128.5s3.5 -89.334 -19.5 -113.001s-49 -39.334 -78 -47.001s-48.667 -25 -59 -52s-14.666 -48 -12.999 -63s7.83398 -22.5 18.501 -22.5c33.333 0 57 -7.5 71 -22.5
s21 -63.833 21 -146.5l-206 -19l-58 14c4 107.333 26.667 165.333 68 174h14c12.667 0 16.667 25.667 12 77c2.66699 50.667 19.167 86.834 49.5 108.501s54.166 35.334 71.499 41.001s27.166 26 29.499 61s-7.66699 65.167 -30 90.5s-48.5 38.333 -78.5 39
s-53.833 -10 -71.5 -32zM263 380.001c19.333 14.667 38.168 24.167 56.501 28.5s35 13.5 50 27.5s24.667 29.333 29 46s5.5 34.5 3.5 53.5s-7.83301 40.833 -17.5 65.5s-20.834 46.334 -33.501 65.001s-30.667 32 -54 40c11.333 -14 21.5 -25.833 30.5 -35.5
s17.333 -21.834 25 -36.501s16.167 -34.334 25.5 -59.001s12.833 -46 10.5 -64s-8.33301 -34.167 -18 -48.5s-21.667 -24.166 -36 -29.499s-28.333 -11.5 -42 -18.5s-23.5 -18.5 -29.5 -34.5zM141.002 232.001c17.333 -2.66699 37.167 -3.66797 59.5 -3.00098
s40 0.666992 53 0s26 -2.16699 39 -4.5s22.333 -8.5 28 -18.5s12.5 -20 20.5 -30c-0.666992 22.667 -6.66699 38.334 -18 47.001s-27.333 14 -48 16l-85 3c-18.667 -2 -35 -5.33301 -49 -10zM177.003 3l14 25l24 21l36 -21v-25h-4l-10 -26l-18 -5l-26 5z" />
    <glyph glyph-name="at" unicode="@" horiz-adv-x="846" 
d="M469 410c-13.333 0 -26.667 -3.99902 -40 -11.999s-25.333 -18.5 -36 -31.5s-18.5 -25.333 -23.5 -37s-7.5 -25.5 -7.5 -41.5c0 -28 8 -42 24 -42c8.66699 0 18 3.5 28 10.5s20.167 19.167 30.5 36.5s19 35.666 26 54.999s10.5 36.333 10.5 51c0 7.33301 -4 11 -12 11z
M458.999 249.001c-22 -37.333 -41.335 -61.335 -58.002 -72.002s-35.667 -16 -57 -16c-22.667 0 -41.334 8.83301 -56.001 26.5s-22 40.5 -22 68.5l25.5 72.5c7.66699 21.667 23.167 44.167 46.5 67.5s50.166 43.666 80.499 60.999s53 27.833 68 31.5s28.167 5.5 39.5 5.5
c14 0 26.833 -2.5 38.5 -7.5s17.5 -11.833 17.5 -20.5v-6c0 -1.33301 -0.5 -4.66602 -1.5 -9.99902s-5.5 -22.666 -13.5 -51.999c-3.33301 -15.333 -6.66602 -33.166 -9.99902 -53.499l-10 -59c-3.33301 -19 -6 -35.667 -8 -50s-3 -23.5 -3 -27.5c0 -13.333 7 -20 21 -20
c16 0 31.167 5.33301 45.5 16s27 24.834 38 42.501s19.667 38.167 26 61.5s9.5 48 9.5 74c0 32 -5 61 -15 87s-24.333 48.167 -43 66.5s-41.167 32.5 -67.5 42.5s-55.5 15 -87.5 15c-41.333 0 -79.5 -7.83301 -114.5 -23.5s-65.167 -37.5 -90.5 -65.5
s-41.666 -51.333 -48.999 -70l-36 -9l-2 -27l16 -22c-7.33301 -18.667 -11 -50.334 -11 -95.001c0 -79.333 27.667 -142.333 83 -189c23.333 -19.333 49.166 -33.666 77.499 -42.999s61.5 -14 99.5 -14c14 0 26.833 -0.5 38.5 -1.5s23 0.333008 34 4
s22.167 7.16699 33.5 10.5s24 7.66602 38 12.999c4 1.33301 7 2 9 2c4 0 7.83301 -2.83301 11.5 -8.5s5.5 -11.5 5.5 -17.5c0 -2.66699 -1.33301 -5 -4 -7s-8.33398 -4.66699 -17.001 -8c-26.667 -11.333 -53.5 -18.833 -80.5 -22.5s-56.833 -5.5 -89.5 -5.5
c-56.667 2.66699 -107.167 14.167 -151.5 34.5s-80.666 38.333 -108.999 54s-51 41.167 -68 76.5s-25.5 74.666 -25.5 117.999c9.33301 52.667 21.833 101.5 37.5 146.5s43.834 82.333 84.501 112s83.5 55.334 128.5 77.001s96.5 32.5 154.5 32.5
c46.667 0 89.5 -6.33301 128.5 -19s65.5 -24.667 79.5 -36v-10l14 -1l5 -9l8 -5l-3 -12l9 -12l15 1c10.667 -1.33301 23.834 -17.5 39.501 -48.5s23.5 -64.833 23.5 -101.5c0 -36 -6.83301 -69 -20.5 -99s-32.5 -55.833 -56.5 -77.5s-52.667 -38.667 -86 -51
s-69.666 -18.5 -108.999 -18.5c-22 0 -37.833 4 -47.5 12s-14.5 21.333 -14.5 40c0 7.33301 0.5 14.833 1.5 22.5s3.16699 17.167 6.5 28.5z" />
    <glyph glyph-name="A" unicode="A" horiz-adv-x="697" 
d="M419 322c-11.333 32.667 -19 55.666 -23 68.999c2.66699 20.667 1 34.167 -5 40.5s-11.167 15.5 -15.5 27.5l-9.5 26.5c-2 5.66699 -4 10.834 -6 15.501l-68 -192zM447 62.999c18.667 2 31.332 5.32715 37.999 9.99414s10 12 10 22c0 3.33301 -0.5 7.5 -1.5 12.5
s-3 12.667 -6 23s-7.16699 23.833 -12.5 40.5l-25 78l-154 -11l-4 14c-10 -6.66699 -21 -12 -33 -16l-21 -65.5c-5.33301 -16.333 -9.33301 -29.5 -12 -39.5s-4.5 -17.333 -5.5 -22s-1.5 -8.66699 -1.5 -12c0 -22 17 -33.333 51 -34l20 -13v-8c0 -8.66699 -0.5 -14 -1.5 -16
s-3.83301 -3 -8.5 -3h-10c-3.33301 0 -7.33301 0.333008 -12 1l-88 1c-7.33301 -2.66699 -15 -4 -23 -4l-34 1l-9 5l-14 -6l-10 -5l-2 4l-13 -2l-15 -8c-20 -6.66699 -31.333 -7.33398 -34 -2.00098s-1.66699 9 3 11l3 11c-3.33301 2.66699 -4.83301 5.5 -4.5 8.5
s2.83301 5.16699 7.5 6.5c52 14.667 81 24.334 87 29.001s12.667 17.167 20 37.5s16 38.333 26 54s23.667 43.834 41 84.501c14 50 30 96.167 48 138.5s31.5 78.5 40.5 108.5s19 53.5 30 70.5s3.83301 39.167 -21.5 66.5l30 48c40.667 2 65.334 4 74.001 6
c2.66699 0.666992 6 1 10 1c3.33301 0 5.33301 -1 6 -3s2.66699 -7.33301 6 -16c30 -51.333 50 -88.666 60 -111.999s17.333 -42.666 22 -57.999l7 -27l-17 5l-7 -14l12 -23l29 -8l15 -45l15 -45l50 -11l-19 -73l-18 -1c10.667 -36 19.5 -62.833 26.5 -80.5
s7.5 -35.5 1.5 -53.5l42.5 -42.5c7.66699 -7.66699 16.5 -12.667 26.5 -15s15.333 -4.33301 16 -6s1 -7 1 -16s-3 -15.5 -9 -19.5c-118 0.666992 -180.833 0.833984 -188.5 0.500977s-12.5 -0.5 -14.5 -0.5c-22 0 -33.667 1 -35 3s-2 7.33301 -2 16s0.5 13.834 1.5 15.501
s4.16699 2.83398 9.5 3.50098z" />
    <glyph glyph-name="B" unicode="B" horiz-adv-x="572" 
d="M293 708c119.333 0 199.337 -50.3311 240.004 -150.998l5 -11c2.66699 -6.66699 7.66699 -11.334 15 -14.001c0 -8.66699 -8.16699 -27.334 -24.5 -56.001s-34.5 -47.667 -54.5 -57s-33.667 -14 -41 -14v-10c28 -18 48.167 -35.5 60.5 -52.5s27.166 -46.833 44.499 -89.5
l22 -40c-22.667 -42 -34 -68.667 -34 -80c-28.667 -47.333 -49.334 -71 -62.001 -71l-2 -2c-3.33301 0 -5 -2.66699 -5 -8h-15c0 -10 -3 -15 -9 -15c-32.667 -6.66699 -76 -10 -130 -10l-147 17c-28.667 0 -67 -8 -115 -24c0 -3.33301 -5 -5 -15 -5v2l-5 15
c0 20 18 34 54 42c31.333 20 47 38.333 47 55v228h10v3l-3 3v2c7.33301 3.33301 11.666 6.66602 12.999 9.99902v7c-5.33301 0 -8 1.66699 -8 5c4 0 6.66699 4.33301 8 13h-3l-17 -3v85c0 51.333 -9 77 -27 77l-10 5c2.66699 16.667 5 25 7 25c36 -12 65.667 -18 89 -18
l102 8l-5 -30h-5c-30.667 0 -46 -16.667 -46 -50v-281c0 -67.333 9 -101 27 -101c16 -10 36.333 -15 61 -15c43.333 0 79.333 18 108 54c6.66699 22 13.667 41.333 21 58l-11 15c0 42.667 -22 83 -66 121c-42.667 24.667 -74.667 37 -96 37h-5v6c10.667 36 24 54 40 54
c20.667 -10 36 -15 46 -15c29.333 0 49 30.667 59 92l8 16c-5.33301 42.667 -37.333 76.334 -96 101.001c-38 9.33301 -84.5 13.333 -139.5 12s-126.167 -16.333 -213.5 -45c-14 -4.66699 -24 -7 -30 -7s-18.333 1.5 -37 4.5s-28 8.16699 -28 15.5l-35 80h5
c37.333 -20 86.333 -30 147 -30c31.333 0 83.166 6.33301 155.499 19s120.833 18.667 145.5 18z" />
    <glyph glyph-name="C" unicode="C" horiz-adv-x="617" 
d="M534 724c-2.66699 -40.667 -2.66602 -72.166 0.000976562 -94.499s5.5 -41.166 8.5 -56.499s7.5 -27 13.5 -35l-45 -23c-1.33301 21.333 -5.83301 41.666 -13.5 60.999s-18.167 35.333 -31.5 48s-28 22.334 -44 29.001s-34 8.33398 -54 5.00098
s-43.667 -9.66602 -71 -18.999s-42 -17.666 -44 -24.999s-10.667 -11 -26 -11l2 -31c-17.333 -22.667 -30 -44.334 -38 -65.001s-13.167 -41.667 -15.5 -63s-3.5 -48.666 -3.5 -81.999s2.66699 -63.833 8 -91.5s16.5 -52.5 33.5 -74.5s33.667 -42.333 50 -61
s36.833 -33.667 61.5 -45s52.5 -18.833 83.5 -22.5s58.5 -3.66699 82.5 0s43.167 9.33398 57.5 17.001s33.166 24.5 56.499 50.5c0 -28.667 -5.16699 -48.834 -15.5 -60.501s-29 -21.834 -56 -30.501s-55.667 -14.667 -86 -18s-59.5 -4.33301 -87.5 -3
s-55.5 6.33301 -82.5 15s-50 19.167 -69 31.5s-23.833 23.166 -14.5 32.499l-45 11c-38.667 45.333 -62.834 79.333 -72.501 102s-16.667 45.667 -21 69s-6.5 49 -6.5 77l-37 35l33 43c4.66699 23.333 14.667 49.833 30 79.5s36.5 60.167 63.5 91.5s56 54.666 87 69.999
s58.833 24.666 83.5 27.999s55.834 4.16602 93.501 2.49902s81.5 2.83301 131.5 13.5z" />
    <glyph glyph-name="D" unicode="D" horiz-adv-x="627" 
d="M308 704c136 -2 220.999 -42.332 254.999 -120.999c10 -20.667 26.333 -66.667 49 -138c10 -22 21.333 -40.667 34 -56v-3c-12.667 -18 -33.667 -73.667 -63 -167c-47.333 -98.667 -104.666 -160.334 -171.999 -185.001c-36.667 -9.33301 -75.334 -14 -116.001 -14
c-12 0 -37.667 4.66699 -77 14h-44l-123 -10l-8 3v27c2 4 19.333 11.333 52 22c22 12 33 31.667 33 59l3 359c0 46 -8.66699 69 -26 69c0 2.66699 -7 7 -21 13l2 22c52.667 -11.333 100.334 -14.333 143.001 -9s66.667 5 72 -1c0 -19.333 -2 -29 -6 -29
c-24 -2 -36 -13 -36 -33l-3 -2c0 -277.333 5.33301 -416 16 -416c26 -13.333 48.333 -20 67 -20h13c92.667 0 140.667 88.667 144 266c-4 96 -23.667 169.333 -59 220c-38.667 42.667 -111.667 64 -219 64c-72 0 -132.833 -8.66699 -182.5 -26s-84.834 -24.333 -105.501 -21
c-39.333 6 -59 12.333 -59 19l-37 79h6c38.667 -19.333 90.334 -29 155.001 -29c32 0 78.667 6.5 140 19.5s119 21.167 173 24.5z" />
    <glyph glyph-name="E" unicode="E" horiz-adv-x="599" 
d="M344 684l12.0029 0.00195312l20 -12l14 3h6c34 6 80 10 138 12c-4 -48.667 -3.66699 -82.667 1 -102l19 -78l-32 -30c-26.667 46 -49.167 77.333 -67.5 94s-36.333 32.167 -54 46.5s-49.834 24.166 -96.501 29.499l-38 -8h-16l-15 -15v-16l-11 -29l11 -61v-121l126 -2h38
c13.333 10 22.333 19 27 27s10 19 16 33h37l3 -204l-40 4c-2 23.333 -9 44.333 -21 63s-33.667 28 -65 28l-67 -1l-54 -2v-189c6 -34.667 12.833 -53.5 20.5 -56.5s20 -4.5 37 -4.5s44.167 2.33301 81.5 7v-13l-10 -9l24 -7l5 19c44 0 89.333 -3.16699 136 -9.5
s77.167 -9.83301 91.5 -10.5s32.5 3.66602 54.5 12.999s32.5 2.83301 31.5 -19.5s-6.16699 -33.5 -15.5 -33.5s-30.333 -1.83301 -63 -5.5s-58.834 -3.66699 -78.501 0s-49.667 5.5 -90 5.5s-96.5 1.16699 -168.5 3.5s-118.333 2.83301 -139 1.5s-40.5 -2.5 -59.5 -3.5
s-42.833 -1.5 -71.5 -1.5l2 30c27.333 4 45.166 9.5 53.499 16.5s15.5 17 21.5 30s9.66699 44.167 11 93.5l-2 207l11 6v9l8 6l9 3l6 -3h6h8l3 6v13h-11c-8 -2.66699 -19.667 -4 -35 -4l-5 76c-4 41.333 -8.5 68.5 -13.5 81.5s-13.167 23.5 -24.5 31.5s-30.333 13 -57 15
l17 40z" />
    <glyph glyph-name="F" unicode="F" horiz-adv-x="632" 
d="M412 231c0 -5.33301 -0.822266 -8.66309 -2.48926 -9.99609s-6.16699 -2 -13.5 -2c-10.667 0 -16.834 0.666992 -18.501 2s-2.5 5.66602 -2.5 12.999c-1.33301 17.333 -3.33301 31 -6 41s-9 17.333 -19 22s-25.667 7.66699 -47 9s-43.666 2 -66.999 2v-55l1 -36l-5 -21
l-1 -13l-3 -9l4 -10v-13l7 -13c1.33301 -16 3 -28.833 5 -38.5s5.33301 -16.834 10 -21.501s11.667 -7.66699 21 -9s21.666 -2 36.999 -2c7.33301 0 11.666 -0.833008 12.999 -2.5s2 -6.83398 2 -15.501c0 -10.667 -0.5 -17.334 -1.5 -20.001s-3.16699 -4 -6.5 -4h-10l-31 1
c-94 5.33301 -149.333 4.33301 -166 -3s-32.334 -13.5 -47.001 -18.5s-26.667 -11.833 -36 -20.5h-6c-4.66699 0 -7.66699 1 -9 3s-2 8.33301 -2 19c0 7.33301 0.666992 12 2 14s4 3.66699 8 5c17.333 12 29.833 19.667 37.5 23s17.667 13.833 30 31.5
s20.166 42.167 23.499 73.5l1 41l6 14l-5 66l5 208l4 16l8 1l-6 18l-10 9c-2 46 -4.66699 74.833 -8 86.5s-8.66602 19.167 -15.999 22.5s-17 5.33301 -29 6c-10.667 0.666992 -16.834 1.5 -18.501 2.5s-1.83398 5 -0.500977 12s2.5 11.5 3.5 13.5s3.5 6.66699 7.5 14h7
c8.66699 0 24.334 -0.333008 47.001 -1s45.5 -3.5 68.5 -8.5s73.167 -4.5 150.5 1.5s131.666 9 162.999 9l18 -3l19 -9l10 12h62c-6.66699 -52.667 -8.33398 -85.334 -5.00098 -98.001l25 -99l-45 -22c-16 25.333 -31.333 47.833 -46 67.5l-41 54.5
c-12.667 16.667 -30 29.334 -52 38.001h-169.5c-7.66699 0 -13.334 -0.5 -17.001 -1.5s-6.33398 -2.83301 -8.00098 -5.5s-2.83398 -6 -3.50098 -10s-1.16699 -18 -1.5 -42s-0.166016 -72.333 0.500977 -145v-48v-14h15c8.66699 0 14.667 0.166992 18 0.5l20.5 2
c10.333 1 19.666 2 27.999 3s15.166 2.5 20.499 4.5c16 4 26.667 13 32 27c1.33301 4 2.16602 7.66699 2.49902 11s0.833008 12.333 1.5 27c1.33301 4.66699 2.83301 8.16699 4.5 10.5s5.5 3.5 11.5 3.5c8 0 13.333 -0.5 16 -1.5s4 -4.16699 4 -9.5
c0 -2 -0.333008 -9.66699 -1 -23l-1 -71l-8 -9l2 -10l2 -8l5 -6l-4 -36l6 -24v-19z" />
    <glyph glyph-name="G" unicode="G" horiz-adv-x="611" 
d="M554 724c-2.66699 -40.667 -2.83008 -72.1709 -0.49707 -94.5039s5 -41.166 8 -56.499s7.83301 -27 14.5 -35l-45 -23c-1.33301 21.333 -6 41.666 -14 60.999s-18.5 35.333 -31.5 48s-27.5 22.334 -43.5 29.001s-34.167 8.33398 -54.5 5.00098
s-44.833 -8.16602 -73.5 -14.499s-46.5 -14.666 -53.5 -24.999s-18.167 -15.5 -33.5 -15.5l2 -31c-17.333 -22.667 -30 -44.334 -38 -65.001c-2 -4.66699 -4.33301 -8.66699 -7 -12c-2 -17.333 -4.33301 -33 -7 -47c-6 -33.333 -7.33301 -66.166 -4 -98.499
s7.66602 -62.166 12.999 -89.499s15.666 -53.666 30.999 -78.999s37 -48 65 -68s57 -32.833 87 -38.5s51.167 -7 63.5 -4s19.5 11.167 21.5 24.5c1.33301 2.66699 2.5 5.83398 3.5 9.50098s2.16699 26.167 3.5 67.5l20 32l-5 33l5 12l-16 7l-3 8
c-3.33301 28 -7 44.333 -11 49c-1.33301 2 -4.66602 4.33301 -9.99902 7c-44 8.66699 -66 15 -66 19v21c2 6 6.66699 9 14 9l73 -4c39.333 -6.66699 82.666 -5.66699 129.999 3l7 -57l-16 -23c-1.33301 -31.333 -2 -61 -2 -89c0 -26 -3 -55.833 -9 -89.5
s-28.167 -57.167 -66.5 -70.5s-81.833 -20 -130.5 -20c-43.333 0 -76 4.33301 -98 13s-47.333 21.334 -76 38.001l-25 28c-16.667 4 -34.834 17.5 -54.501 40.5s-35 45.5 -46 67.5s-18.5 44.5 -22.5 67.5s-17.667 46.5 -41 70.5l32 58c2.66699 34 11 65.333 25 94
c-0.666992 6 1.33301 13.667 6 23c15.333 29.333 36.5 59.666 63.5 90.999s56 54.666 87 69.999s62.167 24.666 93.5 27.999s65.833 4.16602 103.5 2.49902s81.5 2.83301 131.5 13.5z" />
    <glyph glyph-name="H" unicode="H" horiz-adv-x="765" 
d="M519 399c0 76 -0.171875 127.168 -0.504883 153.501s-2.5 45.5 -6.5 57.5s-9.66699 19.167 -17 21.5s-17.666 3.5 -30.999 3.5c-10 0 -15.833 0.666992 -17.5 2s-2.83398 3.33301 -3.50098 6v16c0 6 0.333008 9.66699 1 11c0.666992 4 1.66699 6.33301 3 7
s5.33301 1 12 1l120 -2c22 0 43.5 0.166992 64.5 0.5s40.833 0.833008 59.5 1.5h9c8 0 12 -4.33301 12 -13v-5v-10c0 -5.33301 -1 -8.83301 -3 -10.5s-7 -3.16699 -15 -4.5c-19.333 -2.66699 -33 -7.33398 -41 -14.001s-13.333 -18.334 -16 -35.001
c-11.333 -22 -15 -34 -11 -36s5.66699 -10.833 5 -26.5s-5.33398 -35.5 -14.001 -59.5c4.66699 -10 3 -20.667 -5 -32c10 -15.333 17 -33 21 -53c-2 -78.667 -2.83301 -127.334 -2.5 -146.001s0.666016 -35.5 0.999023 -50.5s0.833008 -29.167 1.5 -42.5
c0.666992 -14.667 2 -26.5 4 -35.5s5.16699 -16.167 9.5 -21.5s10.333 -9 18 -11s17.5 -3 29.5 -3c11.333 0 17.833 -0.666992 19.5 -2s2.5 -6.33301 2.5 -15c0 -10.667 -0.333008 -17 -1 -19s-3 -3 -7 -3h-11c-5.33301 0 -22.5 1.5 -51.5 4.5s-88.833 1.83301 -179.5 -3.5
l-28 -1h-5c-5.33301 0 -8.5 1 -9.5 3s-1.5 8.66699 -1.5 20c0 7.33301 1 11.833 3 13.5s9.33301 3.5 22 5.5c10.667 1.33301 19.667 3.83301 27 7.5s12.833 8.83398 16.5 15.501s6.83398 15.667 9.50098 27s6.33398 17 11.001 17c-4 24.667 -4.33301 41.334 -1 50.001
s2.66602 20 -2.00098 34c13.333 4.66699 18.833 10.334 16.5 17.001s-8.5 13.667 -18.5 21v71l-269 -20c0.666992 -100.667 1.66699 -160.334 3 -179.001s4.16602 -32.667 8.49902 -42s10.333 -15.166 18 -17.499s18.834 -3.83301 33.501 -4.5c10.667 0 17 -0.666992 19 -2
s3 -6.33301 3 -15c0 -10 -0.5 -16.167 -1.5 -18.5s-3.83301 -3.5 -8.5 -3.5l-96 2l-5 5l-21 3l-11 -1l-5 3l-9 -5l-2 -6h-16l-30 3c-28.667 -2 -62 -10 -100 -24h-5c-5.33301 0 -8.66602 1.16699 -9.99902 3.5s-2 8.5 -2 18.5c0 4.66699 5.16699 10.167 15.5 16.5
s17.833 10.166 22.5 11.499s9.66699 2.33301 15 3c17.333 6.66699 30 15.167 38 25.5s13.667 25.166 17 44.499c1.33301 14 2.5 49.833 3.5 107.5s1.5 132.834 1.5 225.501c0 39.333 -0.5 70.166 -1.5 92.499s-3.16699 39 -6.5 50s-8.66602 18.167 -15.999 21.5
s-17.666 8.33301 -30.999 15c-11.333 0.666992 -17.833 1.5 -19.5 2.5s-2.5 4.16699 -2.5 9.5v10c0 8.66699 0.666992 14.167 2 16.5s6 3.5 14 3.5l131 -11c18.667 0 36.334 0.166992 53.001 0.5s35.334 0.833008 56.001 1.5h11c6.66699 0 10 -4.33301 10 -13v-5v-10
c0 -6 -1.16699 -9.66699 -3.5 -11s-7.83301 -2.66602 -16.5 -3.99902c-28 -2 -45 -18.333 -51 -49c-19.333 -16 -27 -26.667 -23 -32s6.83301 -15.5 8.5 -30.5s4.83398 -29.167 9.50098 -42.5v-102z" />
    <glyph glyph-name="I" unicode="I" horiz-adv-x="287" 
d="M18 687l138 -4l30 -20l18 14l65 3l-7 -28c-22 -4.66699 -36.167 -13 -42.5 -25s-11.5 -39.333 -15.5 -82v-96l-9 -20h-12l-25 -33l13 -18v-16l20 -11h11v-22l8 -208c2.66699 -30.667 13 -52 31 -64l33 -6v-29c-80.667 4.66699 -162 4.66699 -244 0l-3 35
c20.667 2.66699 34.167 8.16699 40.5 16.5s10.5 26.5 12.5 54.5l-3 449c-8.66699 25.333 -16 43 -22 53s-20.333 15 -43 15z" />
    <glyph glyph-name="J" unicode="J" horiz-adv-x="424" 
d="M229 500l-8.00195 13l-1 54c-0.666992 24 -1.33398 39.333 -2.00098 46s-1.66699 11.334 -3 14.001c-2.66699 8.66699 -8 14.167 -16 16.5s-22 4.16602 -42 5.49902c-7.33301 0 -12.166 0.166992 -14.499 0.5s-4.16602 0.833008 -5.49902 1.5s-2 2.33398 -2 5.00098v13
c0 7.33301 0.833008 11.666 2.5 12.999s6.16699 2 13.5 2h32l9 -16l16 14h71c22.667 -6.66699 44 -9 64 -7s35 3.33301 45 4h15c6 0 9 -4 9 -12v-15c0 -4.66699 -1 -7.83398 -3 -9.50098s-7 -2.83398 -15 -3.50098c-16 -2 -27.833 -6.33301 -35.5 -13
s-12.834 -17.334 -15.501 -32.001c-1.33301 -12.667 -2.16602 -30.667 -2.49902 -54s-0.5 -58.333 -0.5 -105v-36l-9 2l1 -14l-6 -6l-7 -13l-2 -24l7 8l9 2l8 -8l-2 -69l-1 -22c-0.666992 -14 -2.33398 -24.667 -5.00098 -32l-10 -12l10 -19
c-1.33301 -9.33301 -3.5 -20.333 -6.5 -33s-7.83301 -25 -14.5 -37c-10 -18.667 -21.167 -36.667 -33.5 -54s-26.333 -33.333 -42 -48s-32.667 -25.667 -51 -33s-34.166 -11.666 -47.499 -12.999l-20 -3l-20 1c-14 0.666992 -28.333 5.33398 -43 14.001
c-15.333 -6 -26.333 -4.33301 -33 5s-8 20 -4 32c4 12.667 11.667 18 23 16l45 -11c18.667 -4.66699 36.334 -7 53.001 -7l16 21l21 10c13.333 6.66699 24 35.334 32 86.001c8 50 11 88.667 9 116l8 71l-4 93z" />
    <glyph glyph-name="K" unicode="K" horiz-adv-x="678" 
d="M216 314c0 -23.333 -0.664062 -53.0029 -1.99707 -89.0029c1.33301 -16.667 -4.33398 -39 -17.001 -67c13.333 -18 20.666 -32.333 21.999 -43s3.66602 -18.834 6.99902 -24.501s8.5 -9.66699 15.5 -12s15.833 -3.83301 26.5 -4.5c11.333 -0.666992 18 -1.66699 20 -3
s3 -6.33301 3 -15c0 -9.33301 -0.5 -15.166 -1.5 -17.499s-3.83301 -3.5 -8.5 -3.5c-66 2 -150 -10.667 -252 -38h-5c-5.33301 0 -8.66602 0.833008 -9.99902 2.5s-2 8.16699 -2 19.5c0 7.33301 0.666992 11.833 2 13.5s4.33301 3.16699 9 4.5
c12 1.33301 21.667 3.66602 29 6.99902s14.833 14.833 22.5 34.5s12.334 35 14.001 46s2.5 25.167 2.5 42.5v22v13l3 68l6 14l-9 16l1 141l7 10l7 11l7 2l-2 17l-9 9l-9 2v49c-2 38 -4.66699 61.833 -8 71.5s-8.33301 16.167 -15 19.5s-16 5.66602 -28 6.99902
c-10 2.66699 -15.333 4.33398 -16 5.00098c-1.33301 1.33301 -2 7.66602 -2 18.999c0 8 1 13 3 15s6.66699 3 14 3h13c5.33301 -0.666992 17 -1 35 -1c18.667 0 44.667 -3 78 -9l33 -14c8.66699 1.33301 11 6.66602 7 15.999c14.667 -1.33301 25.834 -0.5 33.501 2.5
s16.5 4.83301 26.5 5.5h11c7.33301 0 11 -4.66699 11 -14c0 -13.333 -1 -21.333 -3 -24s-8 -4.66699 -18 -6c-16.667 -1.33301 -28.334 -5.33301 -35.001 -12s-11 -18.667 -13 -36c-2 -12 -3.33301 -34.667 -4 -68s-1 -71.333 -1 -114c8.66699 -19.333 21.5 -24 38.5 -14
s29.5 19 37.5 27l34.5 37c12.333 13.333 29.833 31 52.5 53l26 10l-7 18c15.333 18 25.666 31.167 30.999 39.5s8 15.833 8 22.5c0 12 -4.66699 17.667 -14 17c-8.66699 0 -14 1.33301 -16 4s-3 7.66699 -3 15c0 10.667 0.833008 17.334 2.5 20.001s4.83398 4 9.50098 4h4
c16 -1.33301 27.5 -2.16602 34.5 -2.49902s17.167 -4.16602 30.5 -11.499c61.333 3.33301 99.666 8 114.999 14h9c4.66699 0 7.83398 -1.33301 9.50098 -4s2.5 -8 2.5 -16c0 -10 -1 -15.667 -3 -17s-8.33301 -4 -19 -8c-8.66699 -2.66699 -16 -5.16699 -22 -7.5
s-12.5 -5.83301 -19.5 -10.5s-15.333 -11.167 -25 -19.5l-38 -33.5l-47.5 -42.5c-16 -14.333 -37.333 -41.833 -64 -82.5l116 -210l27 -50l15 -25l-6 -18l12 -18l8 -17l33 -10l35 -36c44.667 -49.333 81.167 -77.666 109.5 -84.999s55.666 -8.66602 81.999 -3.99902
s57.5 15.334 93.5 32.001c16 -4.66699 17.667 -26 5 -64l-60.5 -16.5c-13.667 -3.66699 -41.834 -5.83398 -84.501 -6.50098s-74.334 3.83301 -95.001 13.5s-46 25 -76 46s-65 54.5 -105 100.5s-67.5 80.167 -82.5 102.5l-43.5 65.5l-35 52.5
c-9.33301 13.667 -16.666 29.5 -21.999 47.5c-16 16.667 -24.667 26.334 -26 29.001z" />
    <glyph glyph-name="L" unicode="L" horiz-adv-x="564" 
d="M35 663c0 9.33301 0.833008 15.1748 2.5 17.5078s6.16699 3.5 13.5 3.5h10h7l10 -2l19 -1h22h22l26 -4l40 -1l6 -5l9 -1l14 2l5 -2l4 6l34 8h10c6.66699 0 10 -4.66699 10 -14c0 -14 -1 -22.167 -3 -24.5s-7.66699 -3.83301 -17 -4.5
c-16.667 -2.66699 -29 -6.83398 -37 -12.501s-13.333 -16.834 -16 -33.501c-1.33301 -8 -3 -43.667 -5 -107v-90c0 -70.667 0.166992 -126.834 0.5 -168.501s0.833008 -70.167 1.5 -85.5c0.666992 -14 1.5 -24.833 2.5 -32.5s3.5 -13.667 7.5 -18s9.5 -7 16.5 -8
s16.5 -1.5 28.5 -1.5c30.667 0 67.5 1.5 110.5 4.5s69.167 7.5 78.5 13.5c9.33301 5.33301 18.166 31.833 26.499 79.5s15.166 85.167 20.499 112.5c2.66699 12 6.33398 18 11.001 18c18 -10 27 -21.333 27 -34c0 -5.33301 -0.666992 -14 -2 -26s-2.83301 -37.333 -4.5 -76
s-3.83398 -65.334 -6.50098 -80.001s-5 -28.334 -7 -41.001l-4.5 -20c-1 -4.66699 -2.16699 -8.16699 -3.5 -10.5s-2.83301 -3.5 -4.5 -3.5h-8.5h-5c-1.33301 0 -4.66602 4 -9.99902 12l-18 -5l-19 8l-7 -14l-161 1h-75c-28 3.33301 -53.667 3 -77 -1
s-42 -9.16699 -56 -15.5s-30.333 -11.833 -49 -16.5l-11 -1c-4.66699 0 -7.66699 1.16699 -9 3.5s-2 15.833 -2 40.5c0 6 1.66699 10.667 5 14s10.5 5.5 21.5 6.5s20.167 2.83301 27.5 5.5s14.5 8 21.5 16s11.5 18.667 13.5 32c-0.666992 37.333 -0.666992 83.666 0 138.999
l4 104l6 38l13 7l-6 14l1 11l-11 12l-5 73c-1.33301 57.333 -3.33301 92.666 -6 105.999s-7.16699 21.166 -13.5 23.499s-15.166 4.5 -26.499 6.5c-10 0.666992 -16.167 1.5 -18.5 2.5s-3.5 3.5 -3.5 7.5v12z" />
    <glyph glyph-name="M" unicode="M" horiz-adv-x="896" 
d="M12 710c21.333 42.667 42.6572 67.167 63.9902 73.5s49.333 3.16602 84 -9.50098c34.667 -13.333 69 -41.333 103 -84c33.333 -43.333 64 -99 92 -167l10 -37l-23 -20l27 -28l28 -17l-1 -26l21 -25v-26l21 -26c28 -68 44.667 -108 50 -120l99 221l33 74
c17.333 39.333 31 72.333 41 99c10 26 18 51 24 75c1.33301 4.66699 2.5 7.83398 3.5 9.50098s3.5 2.5 7.5 2.5h6h41l1 -8l-5 -2l12 -2l10 2l2 6l14 3h23c30.667 0.666992 50.667 1.66699 60 3h10c4 0 6.5 -1.16699 7.5 -3.5s1.5 -6.5 1.5 -12.5
c0 -8.66699 -0.166992 -14.667 -0.5 -18s-0.833008 -5.33301 -1.5 -6c-0.666992 -1.33301 -2.66699 -2.5 -6 -3.5s-9.66602 -2.16699 -18.999 -3.5c-12.667 -2 -22.167 -4.33301 -28.5 -7s-11 -8.16699 -14 -16.5s-5 -20.333 -6 -36s-5.16699 -31.5 -12.5 -47.5
c7.33301 -18 7.33301 -35.667 0 -53l11 -31l1 -75l-4 -134l-3 -31l4 -19l-10 -35c10.667 -18.667 16.834 -33.834 18.501 -45.501s4.66699 -20.5 9 -26.5s10.333 -10.167 18 -12.5s17.834 -3.83301 30.501 -4.5c9.33301 0 14.666 -0.666992 15.999 -2s2 -7 2 -17
s-0.5 -16 -1.5 -18s-3.16699 -3 -6.5 -3h-16c-6.66699 0 -14.834 0.166992 -24.501 0.5s-20.834 2 -33.501 5s-25 4.5 -37 4.5c-10 -6 -20.667 -5 -32 3c-5.33301 -8 -13.666 -8 -24.999 0c-20 2 -33.667 0.5 -41 -4.5s-16.666 -7.66699 -27.999 -8s-20.333 -0.5 -27 -0.5
h-7c-4.66699 0 -7.5 0.666992 -8.5 2s-1.5 8 -1.5 20c0 8 0.666992 13 2 15s4 3.33301 8 4c18.667 0.666992 33.334 2.5 44.001 5.5s18.167 9.5 22.5 19.5s7.83301 34.333 10.5 73v52v37v100l4 16l12 9l-8 20l-8 8v19l1 80l2 26l-8 -24l-11 -40l-25 -58l-41 -92l-36 -78
c-19.333 -41.333 -35.666 -77.833 -48.999 -109.5s-22.166 -50.834 -26.499 -57.501s-18.166 -7.83398 -41.499 -3.50098s-37 10.5 -41 18.5s-11.167 25.167 -21.5 51.5l-40.5 101.5l-66 160l-10 50l-16 16l-3 35l-12 24l-8 22l1 -23l-4 -16l4 -13l-4 -25v-10v-9l4 -6
l-8 -17l7 -13l1 -38l-3 -43l-7 -61c6 -49.333 9.5 -87.666 10.5 -114.999s4.33301 -47.666 10 -60.999s13.834 -21.666 24.501 -24.999s25.334 -5 44.001 -5c10 -0.666992 15 -5.66699 15 -15c0 -12 -0.666992 -19.5 -2 -22.5s-4.33301 -4.5 -9 -4.5h-11
c-6.66699 0 -14.167 0.166992 -22.5 0.5s-17.166 0.5 -26.499 0.5s-15.333 7 -18 21c-24.667 -4 -37 -8 -37 -12c-3.33301 -6 -10.666 -2 -21.999 12c-11.333 -14 -22.666 -21 -33.999 -21s-21.666 -0.166992 -30.999 -0.5s-16.666 -0.5 -21.999 -0.5
c-2.66699 -1.33301 -5.33398 -2 -8.00098 -2h-6c-3.33301 0 -5.5 1.16699 -6.5 3.5s-1.5 9.16602 -1.5 20.499c0 8 0.666992 12.833 2 14.5s4.66602 2.83398 9.99902 3.50098c23.333 2.66699 39.666 7 48.999 13s16 16.333 20 31c2.66699 7.33301 5.16699 16.5 7.5 27.5
l16.5 79.5l-4 109l2 90l3 82l1 18c0.666992 22 1 37 1 45c0 16 0.166992 29.667 0.5 41s-3.5 26.333 -11.5 45s-28 37.667 -60 57s-62.667 23.333 -92 12z" />
    <glyph glyph-name="N" unicode="N" horiz-adv-x="698" 
d="M-87 723c22 28.667 45.1631 46.5039 69.4961 53.5039s56.166 4.16699 95.499 -8.5s79.833 -39.334 121.5 -80.001s82.167 -93.167 121.5 -157.5s95.333 -164.5 168 -300.5l7 317c-4.66699 41.333 -11.5 65.666 -20.5 72.999s-27.833 15.666 -56.5 24.999v34l36 -5l45 -7
c28 8 82.333 12 163 12l-4 -24c-23.333 -4.66699 -40.5 -11 -51.5 -19s-20.833 -31.667 -29.5 -71l-3 -513c22 -52.667 41.167 -90 57.5 -112s32.166 -34 47.499 -36s28.333 2.16699 39 12.5s20 13.666 28 9.99902s10.333 -11.834 7 -24.501s-11.166 -23.667 -23.499 -33
s-33.166 -12.666 -62.499 -9.99902s-56.666 11.334 -81.999 26.001s-57.666 43.167 -96.999 85.5s-56 73.833 -50 94.5l20 18l-6 24l-20 -4l-6 -10l-8 -7h-16v10l-230 417l9 -379c4.66699 -38.667 9.83398 -60.334 15.501 -65.001s23.5 -8 53.5 -10l-2 -35h-218l3 24
c20 9.33301 33.833 16.333 41.5 21s13.834 27.667 18.501 69l7 236l-9 126l-1 121c-13.333 31.333 -30 52.833 -50 64.5s-38.167 21.5 -54.5 29.5s-40.833 10.667 -73.5 8z" />
    <glyph glyph-name="O" unicode="O" horiz-adv-x="656" 
d="M302 708c34.667 0 85.001 -3.33398 151.001 -10.001v-4c-42 -26.667 -86.667 -40 -134 -40c-53.333 -9.33301 -80 -17 -80 -23c-18 -7.33301 -34.667 -27.666 -50 -60.999c-28.667 -48 -43 -113.667 -43 -197v-9c0 -86 16 -149 48 -189
c33.333 -54.667 67 -86.334 101 -95.001c10.667 -4.66699 21.667 -8 33 -10s25.833 0 43.5 6s40.167 18.333 67.5 37c4 12 12 18 24 18h1v17l-2 8c31.333 43.333 47 98.333 47 165l1 25c0 74.667 -15 132.667 -45 174c-31.333 48.667 -66.333 76.334 -105 83.001l-83 19
c-15.333 -2.66699 -23 0.333008 -23 9c0 9.33301 27.667 14 83 14c63.333 0 116 -15.667 158 -47l2 -9v-3l-3 -4c30 -6 45 -13.333 45 -22c30 -38 49 -69.333 57 -94c7.33301 -24.667 14.666 -56.667 21.999 -96l26 -54c-20.667 -26 -32 -47 -34 -63
c-10.667 -39.333 -36 -84.666 -76 -135.999c-46.667 -57.333 -110 -89 -190 -95c-38 0 -81.667 9.33301 -131 28c-35.333 19.333 -53 34.666 -53 45.999v2l3 9c-28.667 5.33301 -43 12.333 -43 21c-43.333 57.333 -67 108 -71 152l-9 69l-28 47c20 37.333 35 73 45 107
c24 55.333 52 100.333 84 135c42 46.667 95.667 70 161 70z" />
    <glyph glyph-name="P" unicode="P" horiz-adv-x="620" 
d="M-146 702l3.00195 -0.000976562c16.667 -14.667 70.667 -26 162 -34l231 26h80c80 0 148 -27 204 -81c24 -30 40.667 -56.333 50 -79c18 -8.66699 27 -14.667 27 -18l-27 -46c0 -58 -30.667 -110.333 -92 -157c-60 -28.667 -108.667 -43 -146 -43h-19l-85 5l-3 -82v-3
l-8 -9l6 -18c-10.667 -2 -16 -4.66699 -16 -8l3 -12h2l11 7h5c5.33301 -64.667 22 -97 50 -97l14 3h16l5 -28l-26 -2h-96c-32.667 0 -81.334 -8.66699 -146.001 -26c-10.667 14 -16 23.333 -16 28h3c51.333 18 77 39.333 77 64l2 33v391c-22.667 21.333 -42 34 -58 38v13
c3.33301 6.66699 8.66602 10 15.999 10l66 -5h16l143 5l4 -17c-30 0 -52.333 -20.333 -67 -61c-5.33301 -11.333 -8 -23.333 -8 -36v-61c-5.33301 -6 -8 -12 -8 -18c6.66699 -2.66699 10 -8.66699 10 -18v-2c-6.66699 -7.33301 -10 -14.333 -10 -21
c6.66699 0 10 -7.66699 10 -23l3 -2h3l82 -3c49.333 0 89.333 28 120 84c6.66699 34.667 10 62.667 10 84c-8.66699 50.667 -21 79.667 -37 87l-3 5l19 1l12 9l-3 -2l-7 17l-15 7l-5 -11l-14 1l-3 -7h-2c-37.333 36 -80.666 54 -129.999 54c0 2 -13.333 3.33301 -40 4
c-56.667 0 -143.334 -16 -260.001 -48h-16c-42 4.66699 -63 12.334 -63 23.001z" />
    <glyph glyph-name="Q" unicode="Q" horiz-adv-x="656" 
d="M310 704c32.667 2.66699 84.0039 0.999023 154.004 -5.00098v-3c-6.66699 -9.33301 -30 -21.333 -70 -36c-92.667 -10 -139 -20 -139 -30c-13.333 -4 -37 -35.333 -71 -94c-17.333 -47.333 -26 -104.333 -26 -171c0 -88 17 -154.667 51 -200
c26.667 -48.667 64 -81 112 -97l25 -6c24 0 58.333 13.667 103 41c5.33301 10.667 12.666 16 21.999 16h3v27c31.333 44.667 47 116.334 47 215.001c0 67.333 -20.333 127 -61 179c-18 30.667 -50 52.334 -96 65.001c-60.667 11.333 -91 18.333 -91 21v6
c0 8.66699 21.667 13 65 13h6c70.667 0 125 -16.667 163 -50v-6l-2 -7c30.667 -7.33301 46 -15.666 46 -24.999c36.667 -44 57.334 -80.333 62.001 -109c10.667 -60.667 21.667 -97.334 33 -110.001l11 -24c-19.333 -19.333 -33.333 -47 -42 -83
c-14.667 -41.333 -44.334 -87.333 -89.001 -138l-7 -7v-1c1.33301 0 10.666 -13.667 27.999 -41c36.667 -48.667 66.667 -77.667 90 -87l29 -9l95 19c10 -2 15 -4.33301 15 -7v-7c-26 -36.667 -67 -55 -123 -55c-74.667 0 -145 40.667 -211 122l-16 16v0
c-20 -10 -44.333 -15 -73 -15h-7c-42.667 0 -88.334 10.667 -137.001 32c-28 17.333 -42 30.666 -42 39.999l3 12c-24.667 0 -41.334 10.667 -50.001 32c-43.333 56.667 -65 107.667 -65 153c-6.66699 46.667 -12 70 -16 70l-20 36c17.333 33.333 34.333 74.333 51 123
c58 123.333 138 185 240 185z" />
    <glyph glyph-name="R" unicode="R" horiz-adv-x="786" 
d="M435 701c55.333 -8.66699 98.998 -24.667 130.998 -48c14 -13.333 21 -24.333 21 -33l17 2l108 -130v-2c-7.33301 -13.333 -13.666 -43.333 -18.999 -90c-12.667 -42.667 -39.667 -79 -81 -109l-7 -10c5.33301 0 17 -13 35 -39v-5l-2 -17l28 -21l6 10h3
c40 -38.667 70.667 -79.334 92 -122.001c18.667 -47.333 54.334 -99.333 107.001 -156c29.333 -18.667 50 -28 62 -28l90 17h4l12 -3v-9c-26.667 -36 -64.334 -54 -113.001 -54c-62.667 -2.66699 -119 22 -169 74c-65.333 68 -108.333 121 -129 159l-104 155l-51 -2h-58
l-13 2l-7 -2v-94c0 -3.33301 -5.33301 -6 -16 -8v-10c0 -4.66699 4.66699 -7 14 -7c0 -36.667 11.333 -61.334 34 -74.001l30 -3v-25l-95 7c-26 0 -72.667 -12.333 -140 -37v3l-5 29c34.667 0 55.334 26.333 62.001 79v250l3 111c0 30.667 -14.667 46 -44 46h-5
c-4 5.33301 -5 13 -3 23s5.33301 15 10 15c96 -6 164.667 -7 206 -3v-32h-24c-21.333 -17.333 -32 -48.666 -32 -93.999v-31l-2 -89l7 -3c88.667 0 137.334 13.333 146.001 40c26 16.667 39 51.667 39 105c0 76.667 -21 129 -63 157c-34.667 23.333 -78.667 36 -132 38
c-78 -2 -168.667 -14 -272 -36l-18 -3c-36 6.66699 -54 13.334 -54 20.001l-32 82h5c34.667 -20 80.667 -30 138 -30c29.333 0 74.166 6.33301 134.499 19s108.833 18 145.5 16z" />
    <glyph glyph-name="S" unicode="S" horiz-adv-x="544" 
d="M437 705c5.33301 -54.667 20.3281 -114.664 44.9951 -179.997l-43 -3c-9.33301 26.667 -27.833 49 -55.5 67s-54.667 31.167 -81 39.5s-51.833 9.83301 -76.5 4.5s-43.334 -17.5 -56.001 -36.5s-13.167 -37.5 -1.5 -55.5s16.5 -31 14.5 -39l-2 -11l6 -4v-6l4 -4l-1 -5
l8 -7l-1 3l3 1l4 1l2 -5l2 3l4 -1l-1 3l3 4h2l3 4l2 1l3 1l9 5l23 -15c16 -9.33301 45.333 -23.166 88 -41.499s77.334 -43.333 104.001 -75s54.667 -76.167 84 -133.5l-23 -45c-14.667 -36.667 -33.667 -67 -57 -91s-53.166 -44 -89.499 -60
s-71.166 -25.167 -104.499 -27.5s-62.833 -1 -88.5 4s-53.5 18.667 -83.5 41s-49.833 44.666 -59.5 66.999s-10.167 45.166 -1.5 68.499s22.834 43.666 42.501 60.999s39 28.5 58 33.5s35.5 6.5 49.5 4.5c3.33301 -28 8.33301 -54 15 -78c-30 6 -53 6.83301 -69 2.5
s-26.833 -16.666 -32.5 -36.999s-1.16699 -40.666 13.5 -60.999s30.334 -35 47.001 -44s37.834 -15 63.501 -18s51 -1.5 76 4.5s47.833 18.667 68.5 38s34 40.333 40 63l16 17l-6 24c-4.66699 2 -9.33398 12 -14.001 30c-9.33301 25.333 -51 58 -125 98
c-78 32.667 -129.667 59.667 -155 81s-43.333 43.166 -54 65.499l-28 59.5l23 27c6 17.333 15.833 36.666 29.5 57.999s30.834 39.166 51.501 53.499s40 23.333 58 27s41.667 5.5 71 5.5s54.5 -0.833008 75.5 -2.5s42.5 0.5 64.5 6.5z" />
    <glyph glyph-name="T" unicode="T" horiz-adv-x="541" 
d="M42 678c12.667 8 25.3359 7.99902 38.0029 -0.000976562l18 -1l57 -1c13.333 -12.667 88.666 -11 225.999 5l56 1l28 1h28c4 -64 15.667 -130 35 -198l-33 -25c-14 38 -31 68.667 -51 92s-37.667 38.5 -53 45.5s-34 9.16699 -56 6.5l-1 -216v-65l-7 -50l-18 -21l5 -43
l19 -37c5.33301 -49.333 19.666 -84.333 42.999 -105l33 -11v-35c-47.333 -0.666992 -89 1.33301 -125 6s-59.833 4.33398 -71.5 -0.999023s-41.167 -8.33301 -88.5 -9l4 32c22.667 12 46.667 28.333 72 49l-3 440l11 24l-8 46c-49.333 2 -80.833 -4.5 -94.5 -19.5
s-26.834 -30.167 -39.501 -45.5l-18 -11c-0.666992 -20 -1 -40.333 -1 -61l-35 4z" />
    <glyph glyph-name="U" unicode="U" horiz-adv-x="637" 
d="M115 495l5.99805 38.002l-32 38c-1.33301 14.667 -2.66602 24.167 -3.99902 28.5l-4 12.5c-3.33301 7.33301 -10 14.333 -20 21s-23.333 11 -40 13c-4 0 -7 7 -9 21c0 7.33301 0.666992 12.5 2 15.5s4 4.5 8 4.5c40 -2 65.833 -5 77.5 -9s38.334 -5 80.001 -3
s74.834 5.66699 99.501 11c12 0.666992 18 -4.66602 18 -15.999c0 -13.333 -1.16699 -20.833 -3.5 -22.5s-9.83301 -3.16699 -22.5 -4.5c-27.333 -9.33301 -44.666 -19 -51.999 -29s-11 -29.333 -11 -58l-2 -57l-1 -116l-9 -43l9 -36
c-4.66699 -34.667 -7.16699 -59.334 -7.5 -74.001s3 -26.667 10 -36s12.833 -18.333 17.5 -27c8.66699 -28 23.5 -45.5 44.5 -52.5s46.167 -10.5 75.5 -10.5c32 0 60 6.83301 84 20.5s40.667 32.167 50 55.5c7.33301 15.333 12.166 32.666 14.499 51.999s3.5 47 3.5 83
l-2 247c-2.66699 20.667 -7.83398 35 -15.501 43s-23.167 19.667 -46.5 35c-9.33301 1.33301 -18.333 3.33301 -27 6c-1.33301 0.666992 2 12.667 10 36h6c4 -0.666992 24.667 -6 62 -16l37 1l61 -10c15.333 7.33301 27.333 11.666 36 12.999
c4.66699 0 6.66699 -6.83301 6 -20.5s-6 -21.5 -16 -23.5c-29.333 -4 -44.666 -60.333 -45.999 -169l-26 -47l19 -33l4 -66c-2 -37.333 -3.66699 -62 -5 -74s-3.33301 -24 -6 -36c-10.667 -59.333 -36.167 -104.333 -76.5 -135s-93.166 -46 -158.499 -46
c-53.333 0 -96.333 13.667 -129 41c-40.667 16 -67.334 44.333 -80.001 85l-5.5 20.5c-1.66699 6.33301 -3 13.666 -4 21.999s-1.83301 18.833 -2.5 31.5s-1.33398 39.334 -2.00098 80.001l-1 92l3 91z" />
    <glyph glyph-name="V" unicode="V" horiz-adv-x="785" 
d="M431 268l28.999 -88.9941c2.66699 1.33301 34 79 94 233l26 40l20 47l6 43c12 28.667 18 45.667 18 51v8v7v7c0 20.667 -23.333 31 -70 31h-9c-3.33301 1.33301 -5 5.33301 -5 12v22c0 7.33301 3.66699 11 11 11c46 -4.66699 89 -6.33398 129 -5.00098l2 -2l-2 -6l29 -13
l8 11l15 10h35c3.33301 -1.33301 5 -5 5 -11v-12c0 -12.667 -6 -19 -18 -19c-15.333 -4.66699 -31 -20 -47 -46l-77 -163c-51.333 -108.667 -88.333 -190 -111 -244c-23.333 -54.667 -31.666 -89.667 -24.999 -105s22.667 -23.333 48 -24c8 0 12 -5.66699 12 -17
c0 -16.667 -3 -25 -9 -25l-72 3l-55 9l-12 -3h-13l-6 -7l-20 20c-7.33301 -2.66699 -10.666 -8.33398 -9.99902 -17.001l-33 -3l-2 -2h-2v2l-2 -2h-24c-8 0 -12 7.66699 -12 23v6c0 8.66699 7 13 21 13c28 0 44.667 9.66699 50 29c0 16 -20.667 80 -62 192l9 33l-15 16
l-3 28l-18 -3c-42.667 113.333 -75 193.666 -97 240.999c-13.333 41.333 -28.666 69 -45.999 83l-45.5 35.5c-13 9.66699 -34.167 16.167 -63.5 19.5c23.333 31.333 46.166 49.166 68.499 53.499s50.333 -2.33398 84 -20.001s66.667 -49.334 99 -95.001
s88.166 -181.167 167.499 -406.5z" />
    <glyph glyph-name="W" unicode="W" horiz-adv-x="1093" 
d="M345 518l31.9971 -97.999l-12 -53l10 -28l21 11l44 -126h4c60 139.333 95.333 226.666 106 261.999l16 53v1v0l-15 50c-9.33301 33.333 -27 50 -53 50c-5.33301 1.33301 -8 5 -8 11v10c0 13.333 2.66699 20 8 20l180 -5l21 -7l8 -5l8 6l7 11h8
c8.66699 0 13 -3.66699 13 -11v-19c0 -7.33301 -6 -11 -18 -11c-28 -2.66699 -42 -11.334 -42 -26.001v-6v-12c0 -8 10.667 -46.667 32 -116l27 -76l6 -40l54 -138l4 -2l70 174c46.667 115.333 70 180 70 194v20c-2 12 -7.66699 19 -17 21s-16.666 4.33301 -21.999 7
c-3.33301 0 -5.66602 7 -6.99902 21l2 17l11 2h21l20 -4l16 -2l11 5l36 -2c12.667 2 26 3 40 3h20l4 -4v-30c0 -2.66699 -5.33301 -5 -16 -7c-20.667 -12 -33 -33 -37 -63l-45 -102l-45 -101l-28 -62l-30 -61l-35 -122l1 -2c19.333 -42.667 37 -64 53 -64
c3.33301 -1.33301 5 -5.33301 5 -12v-11c0 -9.33301 -2.33301 -15 -7 -17l-142 7l-35 7l-35 -14v2l-2 -2h-19c-9.33301 0 -14 6.33301 -14 19l3 2l-3 2l3 2h-3c0 10.667 6 16 18 16c29.333 2.66699 44 11.667 44 27v6c0 18.667 -34.333 122.334 -103 311.001v3
c0 2 -0.666992 3 -2 3h-2l-58 -125c-38.667 -82.667 -61.334 -135.334 -68.001 -158.001c14.667 -40.667 33.334 -61 56.001 -61c4 -4.66699 6 -9 6 -13v-11c0 -9.33301 -2.66699 -15 -8 -17l-74 6l-67 -10l-44 5l-28 1l-1 -2h-18c-10 0 -15 6.33301 -15 19l3 1l-3 2l3 2h-3
c0 11.333 6.33301 17 19 17c28.667 2.66699 43 11.667 43 27v6c0 18.667 -28 110 -84 274l-41 184c-17.333 22 -30.666 47.333 -39.999 76c-23.333 28 -43.333 49 -60 63l-45 38c-13.333 11.333 -35.333 18.333 -66 21c25.333 30 49.333 46.833 72 50.5
s50.834 -4.16602 84.501 -23.499s66.167 -52.5 97.5 -99.5s57.666 -102.833 78.999 -167.5z" />
    <glyph glyph-name="X" unicode="X" horiz-adv-x="800" 
d="M531 126l-43 91.9941c-18.667 12.667 -38.667 39.667 -60 81c-41.333 -49.333 -71.333 -86.666 -90 -111.999s-32.334 -44.5 -41.001 -57.5s-13.834 -21.833 -15.501 -26.5s-2.5 -9.66699 -2.5 -15c0 -10 3.83301 -16.333 11.5 -19s23.834 -4.66699 48.501 -6
c5.33301 0 8.5 -0.833008 9.5 -2.5s1.5 -6.16699 1.5 -13.5c0 -11.333 -0.5 -18.5 -1.5 -21.5s-4.16699 -4.5 -9.5 -4.5h-17c-3.33301 0 -9.5 0.166992 -18.5 0.5s-16 1.16602 -21 2.49902s-18.5 5.33301 -40.5 12c-9.33301 -9.33301 -17.333 -13.666 -24 -12.999
c-2.66699 6.66699 -5.33398 7.66699 -8.00098 3c-1.33301 -2 -4.33301 -3 -9 -3c-4.66699 6.66699 -10.334 9.83398 -17.001 9.50098s-16 -3.83301 -28 -10.5h-15c-15.333 0 -23.333 0.666992 -24 2c-1.33301 0.666992 -2 7 -2 19c0 10 0.833008 16 2.5 18
s8.16699 4.66699 19.5 8c4 1.33301 8.5 3.16602 13.5 5.49902s11.167 6.83301 18.5 13.5s16.5 16 27.5 28l42.5 48l62 73.5c24 29 58.333 67.833 103 116.5c-33.333 70 -80.666 137.667 -141.999 203l1 33v22l-12 8l-13 13l-9 -1c-16 2 -36 12.833 -60 32.5
s-44.167 30.167 -60.5 31.5s-48.5 -0.666992 -96.5 -6c22 42 43.167 66.167 63.5 72.5s49 5.5 86 -2.5s76.167 -29.833 117.5 -65.5s80.333 -77.167 117 -124.5s63.667 -92 81 -134c3.33301 4.66699 6.5 8.83398 9.5 12.501s7 8.83398 12 15.501l21.5 28l39 51
c16.667 22.667 28.334 39.334 35.001 50.001s10 19 10 25c0 6.66699 -3.5 11.167 -10.5 13.5s-19.5 3.83301 -37.5 4.5c-6 0 -9.66699 1.83301 -11 5.5s-2 10.5 -2 20.5c0 6.66699 0.666992 11.167 2 13.5s5 3.5 11 3.5h10h31l5 -17l13 3l16 -10l9 23
c16.667 -3.33301 33.334 -4 50.001 -2s32.334 3.66699 47.001 5h9c6 0 9.5 -1.33301 10.5 -4s1.5 -9.66699 1.5 -21c0 -6.66699 -1 -11 -3 -13s-8 -5.33301 -18 -10c-5.33301 -0.666992 -13.333 -5.33398 -24 -14.001s-25 -22.5 -43 -41.5s-40.167 -43.833 -66.5 -74.5
l-95.5 -112c50 -86.667 95 -172 135 -256l46 -54c24 -40 44.333 -69.833 61 -89.5s25.167 -29.667 25.5 -30s6.83301 -0.666016 19.5 -0.999023s23.667 5.16699 33 16.5s17.333 15.333 24 12s9.33398 -11.166 8.00098 -23.499s-6.5 -23.833 -15.5 -34.5
s-26.833 -16.667 -53.5 -18s-51.834 3.83398 -75.501 15.501s-48.334 29 -74.001 52s-62.5 71.5 -110.5 145.5z" />
    <glyph glyph-name="Y" unicode="Y" horiz-adv-x="815" 
d="M94 782c82.667 0 160.334 -38.002 233.001 -114.002c17.333 -15.333 46.833 -62.666 88.5 -141.999s70.834 -129.666 87.501 -150.999c97.333 146.667 146 228.667 146 246c0 11.333 -20.667 18.666 -62 21.999l-3 3v29c0 2.66699 3.66699 5.33398 11 8.00098l79 -3
l124 -2l5 -8v-24c-0.666992 -3.33301 -16.334 -11 -47.001 -23c-55.333 -61.333 -128 -160.666 -218 -297.999l-5 -20v-34c0 -129.333 7.33301 -194 22 -194c0 -7.33301 23.333 -12.333 70 -15l2 -3v-7c0 -18.667 -2.66699 -28 -8 -28c-102.667 0 -175.334 -8 -218.001 -24
l-87 -28c-9.33301 2 -14 4.66699 -14 8v24c0 6 13 11.333 39 16c30 16 45 37.333 45 64c6.66699 0 10.667 63 12 189v12c0 15.333 -17.333 51.666 -52 108.999v74l-35 15l-7 29l-46 29c-38.667 74 -77 120.333 -115 139c-37.333 26 -72 37.667 -104 35h-7l-18 -2
c3.33301 28 23 49.667 59 65z" />
    <glyph glyph-name="Z" unicode="Z" horiz-adv-x="558" 
d="M538 654c0 -4 -0.832031 -7.32715 -2.49902 -9.99414s-6.16699 -9.33398 -13.5 -20.001l-25 -36l-146 -222l-44 -22l-28 -33l5 -48l-100 -173c46.667 0.666992 86 1.5 118 2.5s59 3 81 6s39.5 7 52.5 12s23.333 12.167 31 21.5s14 20.833 19 34.5s9.83301 30.5 14.5 50.5
c2 8 4.16699 13 6.5 15s6.5 3 12.5 3c10.667 0 17.667 -0.666992 21 -2s5 -4.33301 5 -9c0 -5.33301 -0.666992 -12.833 -2 -22.5s-3 -21.167 -5 -34.5s-4.16699 -27 -6.5 -41s-4.83301 -26 -7.5 -36c-2.66699 -24.667 -2.66699 -44 0 -58s3.16699 -22.833 1.5 -26.5
s-3.5 -5.66699 -5.5 -6s-5 -0.5 -9 -0.5l-33 20l-131 15l-49 10l-31 -26c-101.333 6.66699 -179.666 7 -234.999 1h-6c-6.66699 0 -10.667 0.5 -12 1.5s-2 5.5 -2 13.5c0 10.667 0.333008 17.167 1 19.5s2.66699 5.16602 6 8.49902
c17.333 35.333 37.833 71.166 61.5 107.499l119.5 182.5l101 142c42 81.333 64.667 124.666 68 129.999c-42 -1.33301 -70.833 -2 -86.5 -2s-30.167 -0.333008 -43.5 -1s-29 -3.83398 -47 -9.50098s-40.333 -17.667 -67 -36s-44.334 -40.166 -53.001 -65.499v0l-40 3
c19.333 42.667 31 75 35 97s7.66699 52.333 11 91c43.333 -10.667 74.666 -16.834 93.999 -18.501s39 -8.83398 59 -21.501c50 12 86.667 18 110 18l82.5 -13.5c23 -3.66699 55.167 1.5 96.5 15.5c8 0 13 -1 15 -3s3 -6.66699 3 -14v-10z" />
    <glyph glyph-name="bracketleft" unicode="[" horiz-adv-x="520" 
d="M179 242c-8.66699 -17.333 -14.334 -35.3311 -17.001 -53.998c-4 -24 -2.66699 -45 4 -63s17.834 -31.333 33.501 -40s33.5 -10.667 53.5 -6c7.33301 1.33301 14.666 3.33301 21.999 6v0c6.66699 6 14.334 11.333 23.001 16c19.333 10 39.666 15 60.999 15
c22 0 43 -5.33301 63 -16s36.167 -25.334 48.5 -44.001s22.166 -37.667 29.499 -57c-7.33301 -20 -17.166 -39.333 -29.499 -58s-28.5 -33.5 -48.5 -44.5s-41 -16.5 -63 -16.5c-21.333 0 -41.666 5.33301 -60.999 16c-7.33301 4 -14 8.33301 -20 13v-3v0
c-12.667 12 -27.334 22 -44.001 30c-17.333 8 -36.333 9.66699 -57 5s-40.667 -14.667 -60 -30c-18.667 -15.333 -35.334 -34.333 -50.001 -57l-47 1v1018l47 1c14.667 -23.333 31.334 -42.333 50.001 -57c19.333 -15.333 39.333 -25.333 60 -30s39.667 -3 57 5
c16.667 8 31.334 18 44.001 30v0v-3c6 4.66699 12.667 9 20 13c19.333 10 39.666 15 60.999 15c22 0 43 -5.33301 63 -16s36.167 -25.334 48.5 -44.001s22.166 -38 29.499 -58c-7.33301 -20 -17.166 -39.333 -29.499 -58s-28.5 -33.167 -48.5 -43.5s-41 -15.5 -63 -15.5
c-21.333 0 -41.666 5 -60.999 15c-8.66699 4.66699 -16.334 9.66699 -23.001 15v0c-7.33301 2.66699 -14.666 5 -21.999 7c-20 4.66699 -37.833 2.5 -53.5 -6.5s-26.834 -22.167 -33.501 -39.5c-6.66699 -18 -8 -39 -4 -63c2.66699 -18.667 8.33398 -37 17.001 -55v-243z
" />
    <glyph glyph-name="backslash" unicode="\" horiz-adv-x="430" 
d="M315 -72l-256 792h56l256 -792h-56z" />
    <glyph glyph-name="bracketright" unicode="]" horiz-adv-x="520" 
d="M340 485c9.33301 18 15 36.3311 17 54.998c4 24 3 45 -3 63c-6.66699 17.333 -17.834 30.5 -33.501 39.5s-33.834 11.167 -54.501 6.5c-7.33301 -2 -14.333 -4.33301 -21 -7h-1c-6.66699 -5.33301 -14 -10.333 -22 -15c-20 -10 -40.667 -15 -62 -15
c-22 0 -42.833 5.16699 -62.5 15.5s-35.834 24.833 -48.501 43.5s-22.334 38 -29.001 58c6.66699 20 16.334 39.333 29.001 58s28.834 33.334 48.501 44.001s40.5 16 62.5 16c21.333 0 42 -5 62 -15c6.66699 -4 13 -8.33301 19 -13v3h1c12.667 -12 27.334 -22 44.001 -30
s35.5 -9.66699 56.5 -5s40.833 14.667 59.5 30c19.333 14.667 36 33.667 50 57l48 -1v-1018l-48 -1c-14 22.667 -30.667 41.667 -50 57c-18.667 15.333 -38.5 25.333 -59.5 30s-39.833 3 -56.5 -5s-31.334 -18 -44.001 -30h-1v3c-6 -4.66699 -12.333 -9 -19 -13
c-20 -10.667 -40.667 -16 -62 -16c-22 0 -42.833 5.5 -62.5 16.5s-35.834 25.833 -48.501 44.5s-22.334 38 -29.001 58c6.66699 19.333 16.334 38.333 29.001 57s28.834 33.334 48.501 44.001s40.5 16 62.5 16c21.333 0 42 -5 62 -15c8 -4.66699 15.333 -10 22 -16h1
c6.66699 -2.66699 13.667 -4.66699 21 -6c20.667 -4.66699 38.834 -2.66699 54.501 6s26.834 22 33.501 40c6 18 7 39 3 63c-2 18.667 -7.66699 36.667 -17 54v243z" />
    <glyph glyph-name="asciicircum" unicode="^" horiz-adv-x="333" 
d="M137 676l127 -117l-22 -3l-107 66l-102 -66l-33 3l128 117h9z" />
    <glyph glyph-name="underscore" unicode="_" horiz-adv-x="1058" 
d="M1038 -1h-1018v42h1018v-42z" />
    <glyph glyph-name="grave" unicode="`" horiz-adv-x="190" 
d="M136 666l-16 -19l-61 64l-9 23h-4v22l32 18l21 -18l12 -22z" />
    <glyph glyph-name="a" unicode="a" horiz-adv-x="387" 
d="M191 410l-14 -4.00098l-5 -12c-6.66699 -6 -11.667 -12.333 -15 -19l-6 -9l-5 -10c-3.33301 -6.66699 -4 -11.667 -2 -15l2 -4l3 -5l3 -5l11 -2l5 -10l11 -1c9.33301 2 18.333 1.66699 27 -1l13 -3l12 -5l13 -4v29l4 28l-4 28v28l-11 1l-10 2h-11
c-7.33301 0.666992 -14.333 -1.66602 -21 -6.99902zM370 450.999l-0.000976562 -10.001v-9h-14h-13l-8 -7c-5.33301 -4.66699 -8.66602 -12.334 -9.99902 -23.001l-2 -16l-4 -2l-6 6l-3 -11l-4 -2l3 -9l2 -14l4 -3c2 -6 2 -10 0 -12l-3 -3l-3 -3l-3 -4l4 -4l3 -9l6 1l4 -5
v-21v-22l-3 -24l3 -20l-3 -29l3 -25l7 -15c3.33301 -9.33301 9.66602 -17.333 18.999 -24l12 -10h7h7l-2 -9l-3 -9l-79 -1h-40l-40 -1l6 4l-6 5v5v4l5 1h5l5 1c3.33301 -2.66699 7.66602 -3.66699 12.999 -3v9l4 3c3.33301 2 5.33301 4.66699 6 8l1 5v5l1 5v24l-1 25v25v24
l-30 7l-31 8l-29 7l-31 7l-1 -10l-6 -8l-3 -14l1 -11l1 -14l-7 -16l-1 -16l-4 -16l-11 -15l-10 -13l-13 -17c-8 -9.33301 -16 -18 -24 -26l-11 -10l-12 -12c-7.33301 -7.33301 -15 -12.666 -23 -15.999l-11 -6l-12 -5c-8 -4 -19.667 -6 -35 -6h-23l12 13l11 1l10 1l11 1
c6.66699 0.666992 13.334 4.66699 20.001 12l10 10l9 10c6.66699 6.66699 12.667 16.667 18 30l8 20l9 19c4.66699 13.333 7.66699 29 9 47l3 27l6 24l-2 29l-1 5l-10 7l-5 6c-3.33301 3.33301 -4.66602 7 -3.99902 11l1 5l1 6c0.666992 3.33301 3.33398 5 8.00098 5l8 -1h7
l7 -1l5 9l5 6l4 11c7.33301 4.66699 12.666 11.334 15.999 20.001l10 13l11 11c6.66699 8 13.667 12.667 21 14l11 14l11 8c7.33301 5.33301 14.333 8 21 8h10h10l14 -5l34 5l35 -5l43 5h39z" />
    <glyph glyph-name="b" unicode="b" horiz-adv-x="324" 
d="M122 391l-1.00195 -59.001l-6 -65l4 -53l-1 -59l6 -5l6 -5l7 -5c4 -3.33301 11.333 -6 22 -8l16 3l15 -1c10 -0.666992 19 3 27 11c8.66699 8 15 16 19 24c3.33301 8 7.33301 16 12 24l1 15l-8 15c-1.33301 9.33301 -7 18.666 -17 27.999
c-10.667 9.33301 -19.667 18.333 -27 27c-15.333 4.66699 -26.666 7.33398 -33.999 8.00098l-12 1l1 9c0.666992 6 3.33398 11.333 8.00098 16l6 6l14 -4c8.66699 -2 16.334 -2.33301 23.001 -1c6 2 12.667 7.33301 20 16c6.66699 8.66699 9.66699 16.334 9 23.001l-1 10
l5 15c-5.33301 6.66699 -13.333 13.334 -24 20.001c-11.333 7.33301 -21.333 12.666 -30 15.999c-6.66699 -1.33301 -14.334 -1.33301 -23.001 0s-17 -2 -25 -10zM25.998 447.999l46.001 -1.00293l21 -4l25 4l45 -1h23l21 -8l11 8h5h6c12.667 0 24.667 -7 36 -21
s19.666 -27.667 24.999 -41c4.66699 -14 6.66699 -26.333 6 -37s-4 -19.667 -10 -27s-12.667 -12 -20 -14l-12 -4v-6l-1 -6l13 -8c8 -5.33301 16.667 -14.666 26 -27.999c8.66699 -13.333 14 -28.666 16 -45.999c2.66699 -18 -0.333008 -31.667 -9 -41
c-3.33301 -17.333 -9 -30 -17 -38s-18.667 -15 -32 -21c-12.667 -6 -28.667 -8.66699 -48 -8l-31 1l-31 3c-22 2 -46 2.66699 -72 2l-40 -2l-4 6l-3 7l10 4c6 2 10 4.66699 12 8c2.66699 2.66699 4.66699 17.334 6 44.001l1 39l-1 24l-1 23l6 2l5 2l2 8l1 9l-3 1l-4 1l-5 3
l-5 2l3 6l2 7l-1 50l-1 50l-3 10c-2 5.33301 -4.66699 9.33301 -8 12l-6 4l-9 1l-10 1l8 10z" />
    <glyph glyph-name="c" unicode="c" horiz-adv-x="352" 
d="M12 261l9.00195 18.001c0 11.333 3.33301 28.333 10 51c6 22.667 17 43 33 61c16.667 18 36 32.667 58 44s37.333 16.333 46 15l25 -3l11 -4c6.66699 2.66699 13 4.33398 19 5.00098c6.66699 1.33301 11 -0.666992 13 -6c6 -1.33301 10.667 0 14 4
c4 -1.33301 6.66699 -2 8 -2h2h2c0.666992 0 2.66699 0.333008 6 1s6.66602 1.66699 9.99902 3c3.33301 0.666992 6.33301 1.66699 9 3c2.66699 0.666992 4.33398 1 5.00098 1v0h2c1.33301 0 3 -0.666992 5 -2c1.33301 -2 2 -4 2 -6v-3v-1v-3
c-0.666992 -2 -3.33398 -6.66699 -8.00098 -14c4.66699 -4.66699 6 -9.33398 4 -14.001l-3 -7l2 -5l2 -5l3 -17c2 -10.667 3.33301 -17.334 4 -20.001v-6v-2l-3 -5c-2 -2.66699 -5.66699 -4.66699 -11 -6l-8 -3h-2c-2.66699 0 -4.66699 2 -6 6
c-1.33301 2.66699 -2.66602 7 -3.99902 13c-2 6 -4.33301 12.333 -7 19s-7 12.667 -13 18c-6.66699 5.33301 -15 10 -25 14c-10.667 4 -20.667 7.33301 -30 10l-26 2l-15 -6c-14 0 -28.333 -9.33301 -43 -28c-16 -19.333 -24 -40.333 -24 -63v-33l-4 -24
c2.66699 -14 7 -30 13 -48c5.33301 -18.667 12.666 -34.667 21.999 -48c10 -13.333 21.333 -22.666 34 -27.999c11.333 -5.33301 22.333 -6.33301 33 -3l16 5h13c7.33301 0 17 2.66699 29 8s22.333 11.333 31 18l36 25l28 19l-11 -23c-6 -12.667 -16 -25.334 -30 -38.001
c-14 -13.333 -27.667 -24 -41 -32c-13.333 -8.66699 -25.333 -13.667 -36 -15c-10 -1.33301 -19 -4.33301 -27 -9c-9.33301 -6 -17 -9 -23 -9h-8h-15c-11.333 0 -26 4.33301 -44 13c-18.667 7.33301 -31.334 15.333 -38.001 24l-10 11l2 11l2 10l-4 11l-3 9l-11 -1l-15 -2
l-7 25c-5.33301 16.667 -6.33301 32 -3 46z" />
    <glyph glyph-name="d" unicode="d" horiz-adv-x="344" 
d="M133 185l2.99902 -18c0 -11.333 2.66699 -18.333 8 -21c6.66699 -3.33301 13.167 -5.66602 19.5 -6.99902s13.5 -2 21.5 -2c25.333 0 44 12 56 36l9 18c6.66699 12 10 30.667 10 56l6 16l-6 20v17v9c0 5.33301 -1.33301 16.666 -4 33.999l-5 11
c-1.33301 7.33301 -6 16.333 -14 27l-5 7c-4 5.33301 -11 10.333 -21 15l-8 3c-5.33301 2 -10.666 3 -15.999 3h-5h-5c-8 0 -15.333 -0.5 -22 -1.5s-11.667 -1.83301 -15 -2.5h-4v-55l-1 -20l1 -35v-27l-3 -33l3 -23zM52.999 378l-0.00195312 12.9951
c0 8 -2.5 15.667 -7.5 23s-10.5 11.333 -16.5 12c-4.66699 0.666992 -8.66699 1 -12 1s-5 2 -5 6c0 0.666992 0.833008 1.83398 2.5 3.50098s3.16699 3.5 4.5 5.5s3 3.66699 5 5s3.66699 2 5 2s2.66602 -0.166992 3.99902 -0.5s3.83301 -0.666016 7.5 -0.999023
s8.66699 -0.666016 15 -0.999023s15.166 -0.5 26.499 -0.5c9.33301 0 17.333 0.166992 24 0.5s12.5 0.5 17.5 0.5s9.16699 0.166992 12.5 0.5s6.66602 0.833008 9.99902 1.5c6.66699 0.666992 13.834 1.33398 21.501 2.00098s17.5 -0.666016 29.5 -3.99902l12 5h8
c6 0 17.667 -3.33301 35 -10l13 -5c8.66699 -3.33301 17.334 -12.333 26.001 -27l14 -8c6 -6.66699 12.667 -19.667 20 -39l5 -15c2.66699 -10 4 -21.667 4 -35v-10v-10v-22l-4 -10c2.66699 -8 -0.333008 -24.333 -9 -49l-7 -18c-4 -12 -14 -26.667 -30 -44l-12 -14
c-8 -8.66699 -22.667 -17.667 -44 -27l-16 -7c-11.333 -5.33301 -23.333 -8 -36 -8h-9h-9c-7.33301 0 -14.166 0.5 -20.499 1.5s-12.833 1.83301 -19.5 2.5l-20.5 2c-7 0.666992 -14.5 1 -22.5 1s-14.333 -0.333008 -19 -1s-8.66699 -1 -12 -1
s-6.16602 -0.166992 -8.49902 -0.5s-4.83301 -0.5 -7.5 -0.5c-6 0 -9 2 -9 6c0 2 1.33301 5 4 9s5.33398 6.66699 8.00098 8c4 0.666992 7.16699 2 9.5 4s4.5 5.33301 6.5 10s3.66699 10.667 5 18l5 12l-4 9l3 17v30l3 37l10 4l7 3l2 14l3 13l-8 11l-11 9l-4 33z" />
    <glyph glyph-name="e" unicode="e" horiz-adv-x="306" 
d="M53 447l22.999 -6.00098l25 6l24 -1l38 1h37l75 1l-4 -27l6 -26l5 -28l5 -28l-5 -1l-5 -2l-7 11l-7 10l-9 17l-8 16l-14 14l-14 13l-10 4l-19 1l-18 1h-18l-7 -2l-8 -3l-3 -6l-3 -6v-57v-58l25 1h24l13 1c8.66699 1.33301 15.334 3.33301 20.001 6s7.66699 7 9 13l2 10
l2 6l1 5l9 -4l8 -5v-54v-55h-9l-10 -1l-2 15c-2 10 -9 17.333 -21 22c-12.667 4.66699 -23.667 8 -33 10l-15 2h-11h-12v-62v-63h29l28 -4l21 3l20 -3l25 -5l25 -6l20 -7l29 1l13 -4l25 -2l21 1c14 0 23.667 1.33301 29 4l8 4l6 -9h5l8 -7l8 -6l-14 -2
c-8.66699 -1.33301 -19.667 -2.33301 -33 -3l-21 -2l-31 3l-31 2l-57 3l-57 2l-48 -1c-32.667 -1.33301 -64.667 -3 -96 -5l-46 -4l1 13l1 11l4 1l4 1l11 7c6.66699 3.33301 10.667 6.33301 12 9l1 3l7 3l-3 3v57l-2 53l7 3l7 13l-2 9l-3 9l6 8l6 9l-9 3l-9 3v11l-1 11v31
c0 21.333 -1 36 -3 44c-2 8.66699 -6 13.334 -12 14.001l-10 2l-9 1h-10l4 7l5 6l3 6l4 6z" />
    <glyph glyph-name="f" unicode="f" horiz-adv-x="281" 
d="M18 96l-3.99902 23.999c10 0 17.667 2.33301 23 7s9.66602 13 12.999 25l2 224l-1 12c-0.666992 7.33301 -2.33398 13 -5.00098 17c-2.66699 3.33301 -8.33398 6.33301 -17.001 9l-15 5l-1 14v7l-1 8l46 -1h42l37 -2l49 1l34 1l34 1l34 1l34 1l31 2
c21.333 0.666992 35 -0.666016 41 -3.99902c6 -4 11 -9 15 -15c4.66699 -6.66699 5.66699 -12.667 3 -18c-3.33301 -6.66699 -8.66602 -8.33398 -15.999 -5.00098c-5.33301 2.66699 -9 5.66699 -11 9s-8 5 -18 5c-11.333 0 -24.666 -0.666992 -39.999 -2
c-16 -1.33301 -34.667 -4.33301 -56 -9l-65 -13c-20.667 -3.33301 -37.667 -5 -51 -5h-18l-1 -51l-1 -51l18 -1l20 -2c14 1.33301 24 3.83301 30 7.5s9.66699 12.5 11 26.5h18v-115l-25 2c-2.66699 16.667 -6 26.334 -10 29.001s-9.33301 6 -16 10l-49 -4v-28l-11 -9l3 -23
l-2 -21l10 -31l10 -6c6 -4 16 -8 30 -12c6 -6.66699 5.66699 -13 -1 -19z" />
    <glyph glyph-name="g" unicode="g" horiz-adv-x="333" 
d="M236 216l0.00195312 9.00195v4c0 2.66699 -2.66699 6.66699 -8 12l-5 4c-2.66699 2 -7 3.66699 -13 5h-4l-5 1h-3l-1 1h-3h-2h-1h-2h-1c-2 0 -3 1 -3 3v1v1v1l2 4l1 1c0.666992 0.666992 2 2.33398 4 5.00098l1 1c1.33301 0.666992 3 1.66699 5 3l2 1
c1.33301 0.666992 2.66602 1 3.99902 1v0h1h2h1l13 -1l6 -1c3.33301 -0.666992 10.333 0.333008 21 3l9 2c6 0.666992 12.667 1.66699 20 3l5 1l12 2h3c2.66699 0 5.33398 0.333008 8.00098 1h2h4v0h1h3h2c2.66699 0 4 -1 4 -3v-2v-1v-2v0c0 -0.666992 -1.33301 -2 -4 -4
l-2 -2c-1.33301 -0.666992 -2.33301 -2.33398 -3 -5.00098l-1 -3l-1 -2v-1h-1l-5 -10l-3 -5c-1.33301 -2.66699 -2 -6 -2 -10v-2v-3l-3 -21l3 -19l-3 -13l3 -5v-3c0 -2 -6.33301 -9.33301 -19 -22l-10 -10c-6.66699 -6.66699 -15 -13 -25 -19l-8 -5
c-4.66699 -2.66699 -13 -6.33398 -25 -11.001l-9 -4c-6.66699 -2.66699 -14.334 -4 -23.001 -4h-6h-7h-17h-8c-6.66699 0 -19.334 4.33301 -38.001 13l-15 6c-9.33301 4 -21 13.667 -35 29l-10 11c-6.66699 7.33301 -13.667 21.333 -21 42l-5 15c-4 10.667 -6 22 -6 34v9v9
v18v10c0 6 4.33301 20.667 13 44l7 18c4.66699 11.333 14.667 26.333 30 45l13 14c7.33301 9.33301 20.333 19.666 39 30.999l14 9c10 5.33301 22 8 36 8l9 -3l9 3h8h3c3.33301 0 8.33301 -1.66699 15 -5l2 3c4.66699 0 9.66699 -0.666992 15 -2h4
c2 -0.666992 5 -1.33398 9 -2.00098l3 -1c2 -0.666992 3.66699 -1 5 -1h2h1h3h1c0.666992 0 3 0.666992 7 2h4c1.33301 0.666992 3.66602 1.33398 6.99902 2.00098l2 1c1.33301 0.666992 3 1.33398 5 2.00098l2 1h3h1h3h1c2.66699 0 4 -1.33301 4 -4v-1v-2v-2v-1
c0 -0.666992 -1.33301 -5.66699 -4 -15l-2 -8c-1.33301 -4.66699 0.333984 -15.667 5.00098 -33l3 -13c2 -8.66699 3 -13.667 3 -15v-1v-1v-2v-1c0 -0.666992 -1.33301 -1.66699 -4 -3h-1l-1 -1v-1l-1 -1v-1v-1l-2 -2l-1 -2c-1.33301 -1.33301 -2.66602 -2 -3.99902 -2h-1
h-1h-1h-1c-2 0 -3.66699 2 -5 6l-2 2c-0.666992 1.33301 -2.33398 5 -5.00098 11l-2 4l-3 4v4l-1 2c0 1.33301 -2.33301 4.66602 -7 9.99902l-3 4c-1.33301 2.66699 -5.66602 6 -12.999 10l-6 2c-4 2 -11.333 4.33301 -22 7l-9 2l-19 5h-5l-5 -3h-10h-5
c-2.66699 0 -7.66699 -2.33301 -15 -7l-6 -3c-4.66699 -2.66699 -11.667 -9.66699 -21 -21l-8 -9c-4.66699 -6 -9.33398 -17 -14.001 -33l-4 -12c-2.66699 -8 -4 -17.333 -4 -28v-9v-8v-18v-9c0 -6 1.33301 -12.667 4 -20l2 -6l2 -5l-5 -2l-3 -1v0l-2 -10l-2 -6l-1 -5h3
l2 -1l3 -1l4 -6l1 -2l-1 1l1 1l1 2l4 7l14 -22l6 -9l5 -8l19 -9l9 -5l9 -4h16h8h8h5h2h2l7 2l8 2l1 -4l5 8l5 4l3 -1l2 9l2 3c1.33301 2.66699 2 5.66699 2 9v3v3v16v7v8z" />
    <glyph glyph-name="h" unicode="h" horiz-adv-x="391" 
d="M14 452l90.999 -2.00195l14 -10c11.333 5.33301 29.333 8 54 8v-3c0 -10 -5 -15 -15 -15c-14.667 -5.33301 -22 -20.666 -22 -45.999l-2 -17v-39c0 -10 -4 -15 -12 -15l-13 -14l143 -6v87c-4 28 -16 42 -36 42l-3 3c0.666992 14 3 21 7 21c54.667 0 93 -2 115 -6l33 2h7
c0 -12 -4.66699 -18 -14 -18c-14.667 -4 -22 -15.667 -22 -35c-1.33301 0 -2.66602 -5.33301 -3.99902 -16l4 -237c2 -11.333 8.33301 -20.666 19 -27.999l20 -2v-18l-45 2h-59l-51 -2v5l-2 15c22 0 33 16 33 48v4l-2 90l-120 6c4 -88 8.33301 -132 13 -132
c6 -8 16.667 -12 32 -12v-18l-65 2h-25l-65 -2v5l-2 15c22 0 33 12 33 36l-2 146v92c-4.66699 26.667 -17.667 40 -39 40v3z" />
    <glyph glyph-name="i" unicode="i" horiz-adv-x="190" 
d="M21 451l82.002 -2l18 -11l10 7l39 2l-4 -14c-13.333 -3.33301 -21.833 -8 -25.5 -14s-6.83398 -20 -9.50098 -42v-50l-5 -11h-7l-15 -17l7 -9v-9l13 -6h6v-11l5 -109c1.33301 -15.333 7.33301 -26.333 18 -33l20 -3v-15c-48 2 -96.333 2 -145 0l-2 18
c12 2 19.833 5 23.5 9s6.16699 13.333 7.5 28l-2 235c-4.66699 13.333 -8.83398 22.333 -12.501 27s-12.167 7 -25.5 7z" />
    <glyph glyph-name="j" unicode="j" horiz-adv-x="236" 
d="M115 321v22.999l1 31l-2 25c-0.666992 8 -1.33398 13 -2.00098 15c-1.33301 4.66699 -4 7.83398 -8 9.50098s-11 2.83398 -21 3.50098c-4.66699 0 -7.66699 0.166992 -9 0.5s-2.66602 0.833008 -3.99902 1.5c-0.666992 0.666992 -1 1.66699 -1 3v8
c0 4.66699 0.5 7.66699 1.5 9s4.16699 2 9.5 2l69 -1h34.5c11 0 19.167 0.333008 24.5 1h8c5.33301 0 8 -3 8 -9v-2v-4c0 -3.33301 -0.833008 -5.5 -2.5 -6.5s-4.83398 -1.83301 -9.50098 -2.5c-8 -1.33301 -14 -3.83301 -18 -7.5s-6.33301 -10.167 -7 -19.5l-1 -72l-8 -7
l-7 -5l3 -12l-6 -12l9 -14l8 -14l-2 -20l-1 -20c0.666992 -36.667 0.5 -60.834 -0.5 -72.501s-2.83301 -21.5 -5.5 -29.5s-5.66699 -15.667 -9 -23c-5.33301 -11.333 -12.333 -22 -21 -32s-18 -18.833 -28 -26.5s-20.5 -13.667 -31.5 -18s-21.833 -6.5 -32.5 -6.5
c-12.667 0 -22.834 2.5 -30.501 7.5s-11.5 8.83301 -11.5 11.5s1.16699 5.83398 3.5 9.50098s5 7.16699 8 10.5s6.66699 6 11 8s8.83301 3 13.5 3c2.66699 0 7.16699 -2 13.5 -6s13.5 -5.16699 21.5 -3.5s14.167 4.66699 18.5 9s7.5 11.166 9.5 20.499
c0.666992 5.33301 1.33398 11.5 2.00098 18.5s1.33398 24.167 2.00098 51.5l3 70l-3 58v36z" />
    <glyph glyph-name="k" unicode="k" horiz-adv-x="370" 
d="M126 255l-0.00390625 -40.002v-12v-25c0 -7.33301 -1.33301 -11.666 -4 -12.999c2.66699 -8 4.33398 -14.833 5.00098 -20.5s2 -10 4 -13s4.66699 -5 8 -6s7.33301 -1.5 12 -1.5c7.33301 -0.666992 11.666 -1.5 12.999 -2.5s3.33301 -3.83301 6 -8.5l-5 -10
c-0.666992 -1.33301 -2.66699 -2 -6 -2c-36 1.33301 -81.333 1.33301 -136 0h-2c-4 0 -6.5 0.666992 -7.5 2s-1.5 5 -1.5 11c0 4 0.5 6.5 1.5 7.5s3.16699 2.16699 6.5 3.5c6 0 10.833 0.833008 14.5 2.5s7.33398 4.33398 11.001 8.00098s6 8.33398 7 14.001
s1.5 13.167 1.5 22.5v13c8 -0.666992 11 9.33301 9 30l-3 11l9 14l-4 9l-10 13v114l-1 30l-6 15l-9 5l-9 1l-9 2l-1 1l-1 2v8v7l3 4h8h7h4h15h15l26 -1h9h7h6h6h5l13 1h8h6h8v-8v-10l-3 -6l-10 -1l-12 -1l-11 -10l-1 -13l-1 -10l-2 -54v-33
c4 -8.66699 14 -8.33398 30 0.999023l6 6l9 9l19 21l19 20l5 7l5 6l12 14l9 13v5v9h-21h-8l-4 4v7v8l2 5h6h2l13 -1l27 -1h23h8h6h5c7.33301 0.666992 12.666 1 15.999 1s8 0.333008 14 1h5c4 0 6.5 -0.833008 7.5 -2.5s1.5 -4.83398 1.5 -9.50098s-0.666992 -7.66699 -2 -9
s-5 -2.66602 -11 -3.99902c-4 -2 -7.66699 -3.5 -11 -4.5s-8.66602 -4.16699 -15.999 -9.5l-15 -12l-25 -23l-26 -23l-21 -32l19 -28l19 -29c8 -16 16.333 -29 25 -39c8.66699 -13.333 17 -24.666 25 -33.999l40 -46l20 -29c12.667 -14.667 22.334 -23.667 29.001 -27l11 -5
l10 -5c6.66699 -3.33301 13.334 -5 20.001 -5h10h11c6.66699 0 11.334 0.333008 14.001 1l4 2l6 2l5 2l6 -4l7 -3l4 -3c4 -2 4.33301 -4.66699 1 -8l-4 -4l-6 -5l-4 -4l-9 -3l-8 -2l-8 -3c-6 -2 -14.667 -3 -26 -3h-18l-17 -1c-12 0 -21 1.33301 -27 4l-8 5l-8 8
c-6 -0.666992 -13 2 -21 8l-12 8l-12 13c-8 2.66699 -17.333 10 -28 22l-17 19l-16 18l-16 19l-6 14l-6 4l-6 14l-6 3l-5 9l-6 9l-6 8l-13 20c-4.66699 7.33301 -8.66699 15.666 -12 24.999l-2 9h-3l-7 4z" />
    <glyph glyph-name="l" unicode="l" horiz-adv-x="342" 
d="M18 442c0 4.66699 0.671875 7.83008 2.00488 9.49707s5 2.5 11 2.5h6c28.667 -6.66699 56.5 -8.5 83.5 -5.5l49.5 5.5h7c6 0 9 -3 9 -9c0 -6.66699 -0.833008 -10.834 -2.5 -12.501s-5.83398 -2.83398 -12.501 -3.50098c-10 -0.666992 -17.167 -2.5 -21.5 -5.5
s-7.5 -8.5 -9.5 -16.5c-0.666992 -4.66699 -1.33398 -15 -2.00098 -31s-1 -39.333 -1 -70c0 -37.333 0.166992 -68.166 0.5 -92.499s0.833008 -40.5 1.5 -48.5c0 -7.33301 0.333008 -13 1 -17s2 -6.83301 4 -8.5s5 -2.83398 9 -3.50098s9.66699 -1 17 -1
c18.667 0 35.167 0.833008 49.5 2.5s24.5 3.83398 30.5 6.50098c4.66699 2.66699 21.667 20 51 52c1.33301 7.33301 4.66602 11 9.99902 11c12.667 0 19 -3.66699 19 -11c0 -3.33301 -5.16699 -11.666 -15.5 -24.999s-16.166 -23.666 -17.499 -30.999s-3 -14.333 -5 -21
c-0.666992 -4 -1.33398 -7.33301 -2.00098 -10s-1.33398 -4.66699 -2.00098 -6s-2 -2 -4 -2h-6h-4h-4c-2.66699 0 -21.667 1 -57 3s-67.333 3 -96 3c-14 0 -25.333 -0.833008 -34 -2.5s-18.667 -2.66699 -30 -3s-21 -0.5 -29 -0.5h-3c-4 0 -6.5 0.5 -7.5 1.5
s-1.5 4.5 -1.5 10.5c0 4.66699 0.666992 7.66699 2 9s5.33301 2.33301 12 3c7.33301 0 12.833 1 16.5 3s6.66699 5.33301 9 10s4.5 15 6.5 31l1 108l1 16l16 -1l2 16l-12 9l6 16l-12 27c-0.666992 30 -1.83398 48.333 -3.50098 55s-4.16699 10.5 -7.5 11.5
s-8.66602 1.83301 -15.999 2.5c-6.66699 0.666992 -10.834 1.33398 -12.501 2.00098s-2.5 2.33398 -2.5 5.00098v6z" />
    <glyph glyph-name="m" unicode="m" horiz-adv-x="474" 
d="M231 215l11 33.9893l15 31l13 53l17 51l5 17l4 16c2.66699 8 4.5 15 5.5 21s3.33301 10.833 7 14.5l9 9c2.33301 2.33301 6.16602 3.5 11.499 3.5c2.66699 0 7.33398 -0.5 14.001 -1.5s17 -1.5 31 -1.5c16 0 26.167 -4 30.5 -12s5.33301 -13 3 -15
s-4.5 -4.83301 -6.5 -8.5s-3 -9.16699 -3 -16.5c0 -4 0.5 -11.333 1.5 -22s2.33301 -22.834 4 -36.501s2 -28 1 -43s-0.666992 -30 1 -45s3.33398 -28.833 5.00098 -41.5s2.83398 -23 3.50098 -31c0.666992 -14.667 2.33398 -26.167 5.00098 -34.5
s5.66699 -14.666 9 -18.999s6.83301 -7.16602 10.5 -8.49902s7.16699 -2.33301 10.5 -3c8 -1.33301 12 -3.66602 12 -6.99902c0 -1.33301 -1 -2.66602 -3 -3.99902s-3.33301 -3.66602 -4 -6.99902c-0.666992 -2 -2.66699 -3.5 -6 -4.5s-6 -1.5 -8 -1.5
c-8 0 -16.833 0.5 -26.5 1.5s-20.5 1.5 -32.5 1.5c-5.33301 0 -11.333 -0.166992 -18 -0.5s-13.334 -0.5 -20.001 -0.5s-13 -0.333008 -19 -1s-11 -1 -15 -1h-2c-2 0 -3.66699 0.666992 -5 2c-2 0.666992 -3 1.66699 -3 3v2v2c0 0.666992 1.33301 2.33398 4 5.00098
c1.33301 1.33301 2.66602 3 3.99902 5l1 2l1 1c0 0.666992 1.66699 1.33398 5 2.00098c2.66699 0.666992 5.66699 2.33398 9 5.00098s6.5 6.5 9.5 11.5s4.5 11.833 4.5 20.5v70l14 16l10 16l-14 3l-8 10l-8 10c-0.666992 38 -1.66699 66.667 -3 86h4l-93 -259h-7h-5l-16 -1
l-18 -1l-9 24l-9 24l-5 30l-14 32l-14 46l-15 44l-15 32l-15 30h4c-1.33301 -8.66699 -2.66602 -19.167 -3.99902 -31.5s-2.5 -25.333 -3.5 -39s-0.666992 -27.5 1 -41.5s2 -27.333 1 -40s-1.83301 -24.167 -2.5 -34.5s-1 -18.5 -1 -24.5c0 -13.333 6.66699 -26 20 -38h5h6
h5h6l4 -1l4 -2v-2v-2v0v-1l-2 -3l-2 -2l-2 -3l-3 -3l-3 -2l-3 -3h-2v0l-19 2l-17 1c-17.333 0 -30.333 -0.5 -39 -1.5s-18.334 -1.5 -29.001 -1.5c-6 0 -9 2 -9 6l1.5 3l3 6c1 2 2.16699 3.83301 3.5 5.5s2.66602 2.83398 3.99902 3.50098c4 2 7.66699 4.66699 11 8
s6.16602 8.66602 8.49902 15.999s4.33301 16.833 6 28.5s3.5 26.5 5.5 44.5c0.666992 58.667 2.5 103.334 5.5 134.001s4.5 50.334 4.5 59.001c0 9.33301 -2.16699 15.833 -6.5 19.5s-6.83301 9.83398 -7.5 18.501s3.83301 12.334 13.5 11.001s20.5 -2 32.5 -2
c8.66699 0 18.167 0.5 28.5 1.5s17.833 1.5 22.5 1.5c3.33301 0 5.83301 -0.666992 7.5 -2s2.83398 -3.33301 3.50098 -6s1.5 -6.5 2.5 -11.5s2.83301 -11.167 5.5 -18.5l7 -23l2 -19l11 -23l7 -24l7 -29l10 -24l10 -30l7 -21l6 -20h-2h-1z" />
    <glyph glyph-name="n" unicode="n" horiz-adv-x="364" 
d="M-69 497l15.001 8c10 6 21.667 10 35 12c12.667 1.33301 28 0.333008 46 -3s35.333 -10 52 -20c16.667 -10.667 26.334 -20 29.001 -28l13 -10v-11l-1 -11l18 -12l17 -11l9 -11c5.33301 -7.33301 13.666 -23 24.999 -47l25 -40l28 -51l27 -52l2 1l3 1l-1 86l-1 85l-3 14
c-2 10 -5 18.667 -9 26c-4.66699 7.33301 -9.66699 12.666 -15 15.999c-6 4 -11 6.33301 -15 7l-6 1v8v8l3 2l2 3l24 -1c15.333 -0.666992 34.666 -1 57.999 -1h34l6 -8l6 -7l-3 -5l-4 -6l-11 3c-6.66699 2.66699 -12.334 -0.666016 -17.001 -9.99902
c-5.33301 -10 -8 -19.667 -8 -29v-14l-3 -128l-3 -128l3 -14c2 -10 8.33301 -22.667 19 -38c10 -15.333 19.333 -26.666 28 -33.999s20.334 -11 35.001 -11c14 0 25 3.33301 33 10l11 10l-3 -17c-2 -12 -6 -21.667 -12 -29c-5.33301 -8 -14.666 -12.333 -27.999 -13
s-27.333 0.333008 -42 3c-15.333 2 -30.666 8.66699 -45.999 20c-15.333 10.667 -29 23 -41 37c-12 14.667 -20 25.334 -24 32.001l-5 11l2 8l5 4l3 8l-3 4l1 3l1 3l1 3l1 2v4v4l-6 3l-5 3h-3h-2h-2h-3l1 -3l1 -3v-2v-2l-1 -3l-1 -3l-2 -1l-2 -2l-3 -2l-3 -3l-23 47
c-14.667 30.667 -28.334 57 -41.001 79l-19 33l-12 21l-12 20l-12 20l-13 20l3 -102l1 -52l2 -51l2 -7l1 -6c2.66699 -8.66699 7 -15 13 -19c6.66699 -3.33301 12.667 -5.33301 18 -6l7 -1l-1 -9l-2 -9h-26c-17.333 0.666992 -37 0.666992 -59 0l-33 -2v5v6l7 4
c4.66699 2 8.66699 5 12 9c3.33301 3.33301 6.66602 6 9.99902 8c2.66699 2 3.66699 6.66699 3 14l-2 10l1 69v68v69l1 68l-5 6l-15 18l-18 21c-6 5.33301 -12 9.66602 -18 12.999c-6.66699 3.33301 -12.667 4.66602 -18 3.99902c-6 -0.666992 -11 -2.66699 -15 -6
s-6 -5.33301 -6 -6l-1 -2l-8 9z" />
    <glyph glyph-name="o" unicode="o" horiz-adv-x="373" 
d="M195 454h2.00098c71.333 0 115.666 -26 132.999 -78l18 -26c8 -26.667 12 -50 12 -70v-29c-7.33301 -48 -22 -84 -44 -108l-45 -29c-26.667 -12.667 -53 -19 -79 -19c-76 0 -130 28.667 -162 86c-12 26.667 -18 46 -18 58l12 6l7 18l6 12l-6 15l-19 -6
c0 78 41.667 132 125 162c18 5.33301 37.333 8 58 8zM160.001 380v-19.002l5 -7c0 -3.33301 -2.66699 -5 -8 -5c-22 6.66699 -33 17.667 -33 33v4c0 6.66699 1.66699 13.334 5 20.001h3c-28.667 -24 -43 -61.667 -43 -113v-11c0 -77.333 26 -127.666 78 -150.999l25 -4
c40.667 0 68.667 25 84 75l7 57c0 59.333 -16.667 106 -50 140c-17.333 13.333 -31 20 -41 20h-5c-18 -10.667 -27 -23.667 -27 -39z" />
    <glyph glyph-name="p" unicode="p" horiz-adv-x="320" 
d="M133 314l-0.000976562 -2c0 -2 1.33301 -4.33301 4 -7c2 -2.66699 4.33301 -5 7 -7c4 -2 8 -3.33301 12 -4c4 -1.33301 7 -2 9 -2h3h17c10 0 20 6 30 18s15 23.333 15 34v15v7c0 4 -1.33301 9.66699 -4 17c-3.33301 6.66699 -6 13.334 -8 20.001l-21 8
c-7.33301 2.66699 -11.666 5 -12.999 7l-7 -3h-8c-4 0 -9.66699 -0.333008 -17 -1c-6.66699 -0.666992 -11.667 -1.33398 -15 -2.00098l-4 -1v-48v-49zM54.999 383l0.00195312 12.9971c0 8.66699 -2.66699 16.334 -8 23.001c-5.33301 7.33301 -9 11.333 -11 12h-6l-4 1
c-2 0 -4.33301 0.333008 -7 1c-4.66699 0 -7 1 -7 3v2v1c0 0.666992 1 2 3 4l5 5c1.33301 2 3 3.66699 5 5s3.66699 2 5 2v0h1c0.666992 0 2 -0.333008 4 -1c1.33301 0 3.66602 -0.333008 6.99902 -1c4 0 8 -1.33301 12 -4c8.66699 2 16.334 3 23.001 3h9h9h8l15 1l15 1
l14 1l29 2c9.33301 0.666992 16.666 1 21.999 1h8h25c17.333 0 28 -2.33301 32 -7l8 -6l3 -6l3 -5l-3 -6l-3 -6l6 -3l4 -2l5 1l7 5l9 -8c4 -4 6 -13 6 -27v-20v-11c0 -7.33301 -4 -17.666 -12 -30.999c-6.66699 -13.333 -16 -25 -28 -35c-12 -10.667 -25.667 -19 -41 -25
c-15.333 -7.33301 -27 -11 -35 -11h-11h-8c-6.66699 0 -14.334 3 -23.001 9c-7.33301 5.33301 -12.666 9.33301 -15.999 12h-1v-47v-50v-16c0 -10.667 3.33301 -20 10 -28s13 -12 19 -12h9h4c3.33301 0 6 -1 8 -3c2 -1.33301 3 -2.66602 3 -3.99902v-1v-2
c0 -0.666992 -1 -1.66699 -3 -3c-0.666992 -1.33301 -1.66699 -2.66602 -3 -3.99902v-1l-1 -1c-0.666992 -0.666992 -2 -1.66699 -4 -3s-4.66699 -2 -8 -2h-4h-7c-4 0 -11.333 0.666992 -22 2c-10 0.666992 -18.667 1 -26 1h-10h-9h-19c-8 -0.666992 -14.667 -1 -20 -1
c-4.66699 -0.666992 -8.33398 -1 -11.001 -1c-3.33301 -0.666992 -5.33301 -1 -6 -1h-1h-3c-2.66699 0 -4.66699 0.333008 -6 1c-2 1.33301 -3 2.66602 -3 3.99902v0v2c0 1.33301 1.33301 4.33301 4 9c2 4 4.66699 6.33301 8 7l2 1l5 1c2 0 5 3.33301 9 10
c4.66699 6.66699 7 13 7 19v9l13 5l5 1l-2 8l-7 7v7l-1 7l-3 6l-5 6v87v87z" />
    <glyph glyph-name="q" unicode="q" horiz-adv-x="377" 
d="M196 458c78.667 0 131.999 -41.666 159.999 -124.999l6 -48v-8c0 -54 -19.667 -101 -59 -141l-11 -1c-7.33301 -12.667 -17.333 -21.334 -30 -26.001v-2c34.667 -54 67.334 -81 98.001 -81h1l39 6c14 -12 14.667 -22.667 2 -32c-18 -6 -34 -9 -48 -9h-13
c-46 0 -84.333 17.333 -115 52c-3.33301 0 -15.333 16 -36 48l-17 2c-72 0 -122.667 36.667 -152 110c-6 24 -5 46 3 66l-12 12c0 81.333 40.667 137 122 167c20 6.66699 40.667 10 62 10zM196.999 420.001c-14 -10.667 -24.001 -20.333 -30.001 -29l9 -24l5 -8
c0 -2.66699 -2.66699 -4 -8 -4c-22.667 7.33301 -34 18.333 -34 33l3 18c-31.333 -19.333 -48.666 -51 -51.999 -95l5 -34c0 -68.667 26.333 -116 79 -142l28 -4c40.667 0 69 22.667 85 68c6 20 9 40.667 9 62c0 79.333 -27.667 131.333 -83 156z" />
    <glyph glyph-name="r" unicode="r" horiz-adv-x="358" 
d="M161 447c41.333 -1.33301 69.998 -4.16602 85.998 -8.49902s28 -9.5 36 -15.5l11 -9l11 -10c7.33301 -6 12.333 -12.333 15 -19l4 -10l4 -9c2.66699 -6.66699 3 -13.667 1 -21l-2 -11l-3 -10c-2 -7.33301 -5.33301 -14.333 -10 -21l-7 -11l-7 -10
c-4.66699 -6.66699 -9.33398 -11.334 -14.001 -14.001l-8 -3l-7 -4l-7 -4v-2v-2v-3l8 -6c6 -4 18.333 -13 37 -27c18 -14.667 33 -30 45 -46s27 -34 45 -54s35 -33.667 51 -41c16.667 -7.33301 31 -11 43 -11c12.667 0 23 1 31 3l12 3l18 6c12 4 18.333 3.66699 19 -1l1 -8
l1 -7c0 -5.33301 -3.33301 -8.66602 -10 -9.99902l-11 -1l-4 -2c-3.33301 -2 -12.666 -4.33301 -27.999 -7c-16 -3.33301 -35 -4.33301 -57 -3c-22 0.666992 -40.333 3.33398 -55 8.00098c-14 4 -38 18.333 -72 43s-60.333 47.667 -79 69l-55 60
c-17.333 18.667 -30.666 32 -39.999 40l-15 12v19l50 -4c14.667 1.33301 24.5 4.5 29.5 9.5s8.83301 14.667 11.5 29s2.5 30.5 -0.5 48.5s-10.167 30.667 -21.5 38s-26.666 11.666 -45.999 12.999c-26 -2.66699 -41.667 -12.667 -47 -30l2 -232
c5.33301 -16.667 11.5 -26.834 18.5 -30.501s16.5 -7.83398 28.5 -12.501v-15l-160 -4l-2 26c13.333 0 21.833 3.16699 25.5 9.5s6.5 12.833 8.5 19.5s3 54 3 142l14 6l-16 15l-2 33l-2 34c-0.666992 20 -10.334 33 -29.001 39l4 28
c54.667 -5.33301 102.334 -6.66602 143.001 -3.99902z" />
    <glyph glyph-name="s" unicode="s" horiz-adv-x="345" 
d="M283 474c4 -32.667 13.665 -68.3301 28.998 -106.997l-27 -2c-6 16 -17.833 29.333 -35.5 40s-35 18.5 -52 23.5s-33.333 6 -49 3s-27.5 -10.167 -35.5 -21.5s-8.33301 -22.5 -1 -33.5s21 -22.333 41 -34s43.667 -23 71 -34s49.5 -25.833 66.5 -44.5
s28.333 -38.667 34 -60s5.5 -39.833 -0.5 -55.5s-16.333 -30.834 -31 -45.501s-33.667 -26.834 -57 -36.501s-45.5 -15.167 -66.5 -16.5s-39.833 -0.333008 -56.5 3s-34.667 11.666 -54 24.999s-32 26.666 -38 39.999s-6.33301 27 -1 41s14.333 26 27 36
s25.167 16.667 37.5 20s24.833 4.33301 37.5 3c-1.33301 -17.333 -2.33301 -33 -3 -47c-14.667 3.33301 -27.167 3.66602 -37.5 0.999023s-17.333 -10 -21 -22s-1.66699 -24.333 6 -37s17.834 -21.334 30.501 -26.001s27.167 -8 43.5 -10s32.333 -1.16699 48 2.5
s30.167 11.334 43.5 23.001s21.833 24 25.5 37s2.83398 27.167 -2.49902 42.5s-14 26 -26 32l-8 14l-1 13l-9 14c-10 -6 -13.333 -13 -10 -21l-25 7c-50 20 -83.167 36.333 -99.5 49s-27.833 25.667 -34.5 39s-7.83398 27.833 -3.50098 43.5s10.833 29.834 19.5 42.501
s19.5 23.334 32.5 32.001s25.333 14.167 37 16.5s26.834 3.5 45.501 3.5s34.667 -0.666992 48 -2s34 1.66699 62 9z" />
    <glyph glyph-name="t" unicode="t" horiz-adv-x="351" 
d="M23 453l64.0039 -6.00293l80 3l79 2l35 -8l42 9c-2 -20 -2.5 -35.5 -1.5 -46.5s2.83301 -21.167 5.5 -30.5s6.66699 -17.666 12 -24.999l-22 -17l-25.5 40c-7 11.333 -15 19.333 -24 24s-18.333 9.83398 -28 15.501s-15.5 10.167 -17.5 13.5l-12 3h-1l-1 -2v-1l1 -62v-7
l-1 -3l1 -11h-1v-6l2 -4v-46l-5 -29l-2 -5l-7 -4v-6l4 -3l5 -3h1l2 -5l1 -9l-9 -9l1 -4v-1c-2 -6.66699 -3 -10.167 -3 -10.5s1 -3.16602 3 -8.49902l2 -2l11 -13l-6 -9c1.33301 -18.667 5.16602 -30.5 11.499 -35.5s11 -7.83301 14 -8.5s12.5 -2 28.5 -4v-18h-100.5h-18
h-58.5v18c11.333 0 20.166 1 26.499 3s10.833 5.83301 13.5 11.5s3.33398 14.834 2.00098 27.501l3 64v36l2 34l-2 5v5l4 4l-10 17l5 18l-3 22l1 54h-21c-12.667 0 -22.667 -1.33301 -30 -4s-14.333 -8 -21 -16s-12.834 -17 -18.501 -27s-11.834 -22.667 -18.501 -38l-14 12
c9.33301 33.333 15.666 68.666 18.999 105.999z" />
    <glyph glyph-name="u" unicode="u" horiz-adv-x="381" 
d="M130 233c0 -26 6.66309 -46.6611 19.9961 -61.9941s32 -23 56 -23c21.333 0 39.666 7.83301 54.999 23.5s23 40.834 23 75.501v113c0 13.333 -0.666992 24.333 -2 33s-3.5 15.334 -6.5 20.001s-7.16699 8.16699 -12.5 10.5s-11.666 4.16602 -18.999 5.49902l-9 1.5
c-2 0.333008 -3 1.5 -3 3.5s0.666992 3.66699 2 5s3 2.66602 5 3.99902l5 6.5c1.33301 1.66699 4 2.5 8 2.5c14.667 -6.66699 36.334 -7.66699 65.001 -3c7.33301 0 13.333 0.166992 18 0.5s8.5 0.666016 11.5 0.999023s5.33301 0.666016 7 0.999023s3.16699 0.5 4.5 0.5
c2.66699 0 5.16699 -0.5 7.5 -1.5s3.5 -2.83301 3.5 -5.5c0 -0.666992 -0.5 -1.83398 -1.5 -3.50098s-2 -3.16699 -3 -4.5s-2.33301 -2.83301 -4 -4.5s-3.5 -2.83398 -5.5 -3.50098c-3.33301 -1.33301 -6.66602 -3.16602 -9.99902 -5.49902s-6.16602 -6 -8.49902 -11
s-4 -11.5 -5 -19.5s-1.5 -18.333 -1.5 -31l-6 -122c4 -19.333 3.33301 -37.5 -2 -54.5s-13.833 -31.833 -25.5 -44.5s-27 -22.667 -46 -30s-41.833 -11 -68.5 -11c-17.333 0 -32.833 4.33301 -46.5 13s-26.834 15.667 -39.501 21s-22.5 14.5 -29.5 27.5
s-10.5 27.5 -10.5 43.5l5 25l-5 142c0 18.667 -2.16699 32.5 -6.5 41.5s-11.833 14.167 -22.5 15.5c-4.66699 0.666992 -8.33398 1.16699 -11.001 1.5s-4 2.16602 -4 5.49902c0 0.666992 0.666992 1.83398 2 3.50098l4.5 5.5c1.66699 2 3.5 3.66699 5.5 5s4 2 6 2
c2.66699 0 7.33398 -0.5 14.001 -1.5s18.334 -1.5 35.001 -1.5l33 -5c8 4 15 6.16699 21 6.5s10.833 0.666016 14.5 0.999023s6.83398 0.5 9.50098 0.5c4.66699 0 8 -0.666992 10 -2s3 -3 3 -5c0 -0.666992 -0.5 -1.66699 -1.5 -3s-2 -2.83301 -3 -4.5
s-2.33301 -3.33398 -4 -5.00098l-3.5 -3.5c-6.66699 -2 -11.667 -4.33301 -15 -7s-6 -5.83398 -8 -9.50098s-3.33301 -8.5 -4 -14.5s-1 -13.667 -1 -23v-37l-18 3l7 -9l-10 -19l7 -12l14 5v-73z" />
    <glyph glyph-name="v" unicode="v" horiz-adv-x="399" 
d="M20 452l69.999 -7.00488l7 -4l7 3l11 -5l32 12l9 1v3l-3 -3h14c6 0 9 -4.66699 9 -14v-1c0 -6 -3.66699 -9 -11 -9c-18.667 -1.33301 -28 -6 -28 -14c0 -9.33301 21 -70.666 63 -183.999l15 -39c-1.33301 -0.666992 13 37.666 43 114.999
c24.667 60.667 37 96.334 37 107.001c0 10 -11.667 15 -35 15h-5c-3.33301 0.666992 -5 3 -5 7v9c0 4.66699 3 7 9 7c30.667 -3.33301 71.667 -3.33301 123 0c3.33301 -1.33301 5 -3.66602 5 -6.99902v-7c0 -6.66699 -4 -10 -12 -10c-7.33301 -2 -15.333 -10 -24 -24
c-56 -113.333 -90.333 -184.166 -103 -212.499s-17.334 -46.5 -14.001 -54.5c3.33301 -7.33301 11.333 -11.333 24 -12c6.66699 0 10 -3.33301 10 -10c0 -9.33301 -2.66699 -14 -8 -14l-42 1v0l-1 -1l-1 1l-1 -1l-1 1l-1 -1l-1 1v0l-22 5l-6 -1
c-4 0 -6.33301 -0.666992 -7 -2l-3 -3l-13 11c-1.33301 0 -0.666016 -1.33301 2.00098 -4c-0.666992 -6 -2.16699 -8.16699 -4.5 -6.5s-4.16602 2.83398 -5.49902 3.50098l-13 -3l-1 -1h-5v-3l3 3h-14c-6.66699 0 -10 4.33301 -10 13v3c0 5.33301 4.66699 8 14 8
c14 0 22.333 4.66699 25 14c0 8.66699 -12.667 44.334 -38 107.001l10 30l-33 31c-15.333 40 -29 72.333 -41 97c-7.33301 16.667 -18 25 -32 25c-4 2 -6 6 -6 12c1.33301 8 4 12 8 12z" />
    <glyph glyph-name="w" unicode="w" horiz-adv-x="572" 
d="M19 452l56.999 -5.00098l78 5c4.66699 0 7.33398 -4 8.00098 -12c0 -8 -3.66699 -12 -11 -12c-15.333 -1.33301 -23 -4.66602 -23 -9.99902l-2 -3v-3c0 -8 16 -58.667 48 -152l18 -70h-2c34 86.667 57 148.334 69 185.001v1c-7.33301 34.667 -18.666 52 -33.999 52
c-4 1.33301 -6 3.66602 -6 6.99902v5c0 8 2.33301 12 7 12l76 -10l13 9h28l1 1h5v3l-3 -3h12c6 0 9 -2.33301 9 -7v-10c0 -4.66699 -4.33301 -7 -13 -7c-14 -1.33301 -21 -5.66602 -21 -12.999v-3c0 -8.66699 4.66699 -26.667 14 -54l-9 -25l26 -31l25 -66l14 -46h-1
c52.667 135.333 79 210 79 224c0 9.33301 -11.333 14 -34 14h-2c-3.33301 0 -5.33301 4 -6 12l1 9l8 2c20.667 2.66699 57 2.66699 109 0l3 -3v-16c0 -1.33301 -3.33301 -2.66602 -10 -3.99902c-8 -8.66699 -14.667 -21 -20 -37c-34.667 -71.333 -69.667 -150 -105 -236
l1 -1c6.66699 -18.667 16 -28 28 -28c3.33301 -0.666992 5 -3 5 -7v-6c0 -5.33301 -2 -8.66602 -6 -9.99902l-53 2l-19 8l-30 -9l-20 -1h-11c-6.66699 0 -10 3.66699 -10 11l1 1l-1 1c0 7.33301 4.33301 11 13 11c14.667 1.33301 22 5.66602 22 12.999v3
c0 10 -18.667 70.667 -56 182c0 1.33301 0.666992 2 2 2c-44 -98.667 -68 -154 -72 -166c5.33301 -20.667 15 -31 29 -31c2.66699 -3.33301 4 -6 4 -8v-6c0 -6.66699 -1.33301 -9.33398 -4 -8.00098l-1 -2c-58.667 3.33301 -103.334 3.33301 -134.001 0
c-6.66699 0 -10 3.66699 -10 11l1 1l-1 1c0 7.33301 4 11 12 11c15.333 1.33301 23 5.66602 23 12.999v3v47l-10 18l-12 8c-32.667 116 -60 184 -82 204c-2.66699 2.66699 -9 5 -19 7l-3 6v3c0 8.66699 2.33301 13 7 13z" />
    <glyph glyph-name="x" unicode="x" horiz-adv-x="411" 
d="M224 103c-4.66699 0 -7.33398 0.84375 -8.00098 2.51074s-1 5.16699 -1 10.5v6c0 1.33301 0.666992 2.5 2 3.5s3.5 1.66699 6.5 2s6.16699 0.5 9.5 0.5c14.667 0 22 4 22 12c0 1.33301 -0.166992 2.83301 -0.5 4.5s-1.83301 4.5 -4.5 8.5l-26.5 40.5
c-15 23 -25.5 37.833 -31.5 44.5c0 2 -0.333008 3.33301 -1 4s-1.66699 2 -3 4l-43.5 -54c-11 -13.333 -18.833 -23.333 -23.5 -30s-7.5 -11.334 -8.5 -14.001s-1.5 -5.33398 -1.5 -8.00098c0 -4.66699 1.83301 -7.66699 5.5 -9s12.5 -2.33301 26.5 -3
c4 0 6.33301 -0.666992 7 -2s1 -4 1 -8c0 -6 -0.333008 -9.83301 -1 -11.5s-3 -2.5 -7 -2.5h-10c-2 0 -6.66699 0.5 -14 1.5s-14 1.66699 -20 2s-12 0.5 -18 0.5l-51 -4c-10 0 -15.333 0.666992 -16 2c-1.33301 0.666992 -2 4 -2 10c0 5.33301 0.666992 8.66602 2 9.99902
s5.33301 3 12 5c2 0.666992 4.5 1.66699 7.5 3s6.5 3.5 10.5 6.5s9.16699 7.66699 15.5 14s14.333 14.833 24 25.5l35.5 39l49 55c-14 18.667 -30 47.334 -48 86.001l-2 26l-14 4l-15 6c-16 13.333 -24.5 20.666 -25.5 21.999s-1.83301 2 -2.5 2
c-3.33301 4 -9.33301 6.66699 -18 8c-6.66699 0.666992 -10.5 1.66699 -11.5 3s-1.5 5.33301 -1.5 12c0 4.66699 0.5 7.5 1.5 8.5s3.83301 1.5 8.5 1.5l99 -6c20 3.33301 33 5.16602 39 5.49902s9.66699 0.5 11 0.5h5c4 0 6.5 -0.833008 7.5 -2.5s1.5 -4.83398 1.5 -9.50098
c0 -5.33301 -0.833008 -8.66602 -2.5 -9.99902s-6.16699 -2.33301 -13.5 -3c-13.333 -0.666992 -20 -4.33398 -20 -11.001c0 -2.66699 0.166992 -5.33398 0.5 -8.00098s4.5 -10 12.5 -22l15 -31l27 -29l6 6l9 11l24 16l8 11c8 17.333 13.833 29 17.5 35s5.5 10.333 5.5 13
c0 3.33301 -1.5 5.66602 -4.5 6.99902s-9.83301 2 -20.5 2c-4.66699 0 -7.5 1.16699 -8.5 3.5s-1.5 5.83301 -1.5 10.5c0 4 0.666992 6.66699 2 8s4 2 8 2l23 -5c26 3.33301 43.833 5 53.5 5s18.834 0.333008 27.501 1h5c4.66699 0 7.33398 -0.666992 8.00098 -2
s1 -5.33301 1 -12c0 -3.33301 -0.666992 -5.66602 -2 -6.99902s-5 -3 -11 -5c-3.33301 -0.666992 -7.83301 -3.16699 -13.5 -7.5s-18.834 -16.5 -39.501 -36.5l-45 -49l-32 -34c2 -2.66699 15.667 -28.334 41 -77.001l29 -33c10.667 -14 18.667 -23.167 24 -27.5
s11.333 -10.5 18 -18.5c3.33301 -4.66699 7 -8.33398 11 -11.001s9.33301 -4.33398 16 -5.00098c4 0 6.66699 -0.833008 8 -2.5s2 -4.83398 2 -9.50098s-0.5 -7.83398 -1.5 -9.50098s-3.5 -2.5 -7.5 -2.5h-55h-52c-16 0 -28.667 -0.333008 -38 -1h-13z" />
    <glyph glyph-name="y" unicode="y" horiz-adv-x="352" 
d="M215 164c0 -14.667 2.49609 -24.4961 7.49609 -29.4961s11.5 -7.83301 19.5 -8.5c5.33301 -0.666992 9.33301 -1.33398 12 -2.00098s4 -2.33398 4 -5.00098c0 -0.666992 -0.5 -1.83398 -1.5 -3.50098s-2.16699 -3.33398 -3.5 -5.00098s-2.83301 -3.33398 -4.5 -5.00098
s-4.16699 -2.5 -7.5 -2.5c-4 0 -8 0.166992 -12 0.5s-10.5 0.833008 -19.5 1.5s-16.5 1 -22.5 1c-31.333 -1.33301 -49.833 -2.16602 -55.5 -2.49902s-10.5 -0.5 -14.5 -0.5c-6 0 -9 2 -9 6c0 2 1 4.83301 3 8.5s5 6.16699 9 7.5c4.66699 2.66699 8.5 5.16699 11.5 7.5
s5.33301 6.33301 7 12s3.16699 28.834 4.5 69.501c0 4.66699 -0.333008 9 -1 13s-2 8.5 -4 13.5s-15.667 33.167 -41 84.5l9 7l6 2l2 2l-6 2l-3 3l2 2l2 4l-2 6l-3 -2l-8 -2l-13 2l-9 16l-9 16c-6 10 -11.167 18.167 -15.5 24.5s-7.83301 11 -10.5 14s-5.33398 5 -8.00098 6
s-5.66699 1.5 -9 1.5c-3.33301 0.666992 -5.83301 1.66699 -7.5 3s-2.5 2.33301 -2.5 3s0.5 2 1.5 4s2.5 4 4.5 6s4.16699 3.66699 6.5 5s4.83301 2 7.5 2c4.66699 0 10.334 -2.66699 17.001 -8l17 4c8.66699 0.666992 18 1 28 1c14.667 0 28.167 0.5 40.5 1.5
s20.833 1.5 25.5 1.5s7.5 -0.666992 8.5 -2s1.5 -3.33301 1.5 -6c0 -2 -1.16699 -4.16699 -3.5 -6.5s-3.83301 -4.83301 -4.5 -7.5c-1.33301 -1.33301 -3.5 -2.33301 -6.5 -3s-5.66699 -1.5 -8 -2.5s-4.66602 -2.83301 -6.99902 -5.5s-3.5 -6.66699 -3.5 -12
c0 -3.33301 0.833008 -7.33301 2.5 -12s4.5 -11.667 8.5 -21s9.66699 -21.5 17 -36.5l27 -54.5l16 31l22 43c9.33301 17.333 14.833 28.5 16.5 33.5s2.5 10.167 2.5 15.5c0 8 -2 13.833 -6 17.5s-11 5.5 -21 5.5c-2 0 -4.33301 0.333008 -7 1s-4 2 -4 4
c0 0.666992 0.666992 1.83398 2 3.50098l5 6c2 2.33301 4 4.33301 6 6s4 2.5 6 2.5s3.83301 -0.166992 5.5 -0.5s6.5 -0.833008 14.5 -1.5s16 -1 24 -1c24.667 0.666992 39.334 1.33398 44.001 2.00098s8 1 10 1c3.33301 0 6 -0.833008 8 -2.5s3 -3.16699 3 -4.5
s-1.16699 -3.83301 -3.5 -7.5s-5.5 -6.16699 -9.5 -7.5c-5.33301 -2.66699 -9.66602 -5.33398 -12.999 -8.00098s-7.16602 -6.83398 -11.499 -12.501s-11.833 -18.5 -22.5 -38.5l-26 -29l-4 -28c-13.333 -24.667 -21.833 -40.834 -25.5 -48.501s-6 -13.5 -7 -17.5
s-1.5 -8.66699 -1.5 -14v-70z" />
    <glyph glyph-name="z" unicode="z" horiz-adv-x="309" 
d="M288 436c0 -2 -0.5 -3.83203 -1.5 -5.49902s-3.5 -5.16699 -7.5 -10.5c-8 -12.667 -20.667 -28.334 -38 -47.001l-30 -40l-7 -30l-28 -40l-34 -58c-18 -29.333 -30 -49.333 -36 -60c22 0.666992 50 -1.33301 84 -6c20.667 8 34.167 13.333 40.5 16
s11.5 6.33398 15.5 11.001s11.667 19.334 23 44.001c0.666992 4 1.66699 6.66699 3 8s4 2 8 2c6.66699 0 11 -0.5 13 -1.5s3 -2.83301 3 -5.5s-1.66699 -10 -5 -22s-5.5 -21.5 -6.5 -28.5s-2.16699 -13.167 -3.5 -18.5c-2 -12.667 -2.16699 -22.667 -0.5 -30
s1.83398 -12 0.500977 -14s-2.66602 -3.16699 -3.99902 -3.5s-3.33301 -0.5 -6 -0.5l-18 10l-138 1l-44 8l-23 -9h-24h-2c-4.66699 0 -7.5 0.5 -8.5 1.5s-1.5 3.5 -1.5 7.5c0 5.33301 0.166992 8.66602 0.5 9.99902s1.16602 2.66602 2.49902 3.99902l14 28l37 57l17 2l12 10
l4 13l-13 4c71.333 115.333 107.666 174 108.999 176c-19.333 -0.666992 -33 -1 -41 -1s-15.333 -0.166992 -22 -0.5s-14.5 -1.83301 -23.5 -4.5s-20.167 -8.66699 -33.5 -18s-22.333 -20.666 -27 -33.999v-1l-26 1l15 50c2.66699 9.33301 5 24.666 7 45.999
c24.667 -6.66699 48.334 -12 71.001 -16c33.333 6 56.333 9 69 9l27 -3l23 3c18.667 0.666992 31 1 37 1h5c5.33301 0 8.66602 -0.666992 9.99902 -2s2 -4.33301 2 -9v-4z" />
    <glyph glyph-name="braceleft" unicode="{" horiz-adv-x="560" 
d="M186 132c37.333 -71.333 97.6719 -138.998 181.005 -202.998c4 0 6 16.333 6 49h6v-5c36 -54 65.333 -82.667 88 -86h4c20 -4.66699 38.667 -7 56 -7h13v-8c-8.66699 0 -22 -2.5 -40 -7.5s-29.667 -8.5 -35 -10.5h-16l-10 1l-23 -4
c-61.333 1.33301 -108.333 2.66602 -141 3.99902v4c27.333 0 51.333 7 72 21v4h-3c-48.667 26.667 -77.334 45.667 -86.001 57c-50.667 51.333 -96.334 117.666 -137.001 198.999c-14.667 48.667 -48.334 103 -101.001 163l3 12c25.333 27.333 48 57 68 89
c20.667 56.667 60 128.667 118 216c61.333 73.333 107.333 110 138 110v4c-23.333 13.333 -43 20 -59 20v4l16 9h4l3 -4h3l3 4l46 -4h18l36 -9h20c53.333 -0.666992 86.666 -4.66699 99.999 -12c0 -4.66699 -18.667 -10.667 -56 -18h-6l-10 -1
c-22.667 -4.66699 -53.334 -33.667 -92.001 -87v5c0 28 -5.33301 40 -16 36c-76.667 -64.667 -131 -140 -163 -226c-14 -27.333 -23.833 -74.333 -29.5 -141s1.5 -126 21.5 -178z" />
    <glyph glyph-name="bar" unicode="|" 
 />
    <glyph glyph-name="braceright" unicode="}" horiz-adv-x="560" 
d="M366 451c-32.667 86 -86.998 161.331 -162.998 225.998c-10.667 4 -16 -8 -16 -36v-5c-39.333 53.333 -70.333 82.333 -93 87l-9 1h-6c-37.333 7.33301 -56 13.333 -56 18c12.667 7.33301 46 11.333 100 12h20l35 9h18l46 4l4 -4h3l3 4h3l16 -9v-4
c-16 0 -35.333 -6.66699 -58 -20v-4c30 0 75.667 -36.667 137 -110c58 -87.333 97.333 -159.333 118 -216c20.667 -32 43.667 -61.667 69 -89l3 -12c-53.333 -60 -87.333 -114.333 -102 -163c-40 -81.333 -85.667 -147.666 -137 -198.999
c-8 -11.333 -36.333 -30.333 -85 -57h-3v-4c20.667 -14 44.667 -21 72 -21v-4c-33.333 -1.33301 -80.333 -2.66602 -141 -3.99902l-24 4l-10 -1h-15c-6 2 -17.833 5.5 -35.5 10.5s-30.834 7.5 -39.501 7.5v8h13c17.333 0 36 2.33301 56 7h3
c23.333 3.33301 52.666 32 87.999 86v5h7c0 -32.667 2 -49 6 -49c82.667 64 143 131.667 181 203c19.333 52 26.333 111.333 21 178s-15 113.667 -29 141z" />
    <glyph glyph-name="asciitilde" unicode="~" horiz-adv-x="551" 
d="M12 359l24.999 18.999c63.333 -29.333 112.333 -46.833 147 -52.5s66.667 4 96 29s70.833 32.167 124.5 21.5s100.5 -48 140.5 -112l-35 12c-48.667 16.667 -89.167 27.167 -121.5 31.5s-65.666 -5.5 -99.999 -29.5s-70.5 -31.667 -108.5 -23s-94 43.334 -168 104.001z
" />
    <glyph glyph-name="uni00A0" unicode="&#xa0;" horiz-adv-x="0" 
 />
    <glyph glyph-name="currency" unicode="&#xa4;" 
 />
    <glyph glyph-name="brokenbar" unicode="&#xa6;" 
 />
    <glyph glyph-name="section" unicode="&#xa7;" horiz-adv-x="401" 
d="M461 576c3.33301 -32.667 12.9961 -68.3301 28.9961 -106.997l-27 -2c-6 16 -17.833 29.333 -35.5 40s-35 18.5 -52 23.5s-33.333 6 -49 3s-27.5 -10.167 -35.5 -21.5s-8.33301 -22.5 -1 -33.5s21 -22.333 41 -34s43.667 -22.834 71 -33.501s49.5 -25.5 66.5 -44.5
s28.167 -39.167 33.5 -60.5s5.16602 -39.833 -0.500977 -55.5s-16 -30.834 -31 -45.501s-34 -26.834 -57 -36.501s-45.167 -15.167 -66.5 -16.5c-6.66699 -0.666992 -14 -0.666992 -22 0c0 -1.33301 -0.333008 -2.66602 -1 -3.99902c-6 -15.333 -16.333 -30.333 -31 -45
s-33.667 -26.834 -57 -36.501s-45.5 -15.167 -66.5 -16.5s-39.833 -0.333008 -56.5 3s-34.667 11.666 -54 24.999s-32 26.666 -38 39.999s-6.33301 27 -1 41s14.333 26 27 36s25.167 16.667 37.5 20s24.833 4.33301 37.5 3c-1.33301 -17.333 -2.33301 -33 -3 -47
c-14.667 3.33301 -27.167 3.66602 -37.5 0.999023s-17.333 -10 -21 -22s-1.66699 -24.333 6 -37s17.834 -21.334 30.501 -26.001s27.167 -8 43.5 -10s32.333 -1.16699 48 2.5s30.167 11.334 43.5 23.001s21.833 24 25.5 37s2.83398 27.167 -2.49902 42.5s-14 26 -26 32
l-8 14l-1 13l-9 14c-10 -6 -13.333 -13 -10 -21l-25 7c-50 20 -83.167 36.333 -99.5 49s-27.833 25.667 -34.5 39s-7.83398 27.833 -3.50098 43.5s10.833 29.834 19.5 42.501s19.5 23.334 32.5 32.001s25.333 14.167 37 16.5s26.834 3.5 45.501 3.5
c15.333 0 29 -0.666992 41 -2c0.666992 3.33301 1.33398 6.33301 2.00098 9c4.66699 16 11.334 30.333 20.001 43s19.5 23.334 32.5 32.001s25.333 14.167 37 16.5s26.834 3.5 45.501 3.5s34.667 -0.666992 48 -2s34 1.66699 62 9zM197.996 429.004
c-17.333 4.66699 -33.833 5.5 -49.5 2.5s-27.5 -10.167 -35.5 -21.5s-8.33301 -22.5 -1 -33.5s21 -22.333 41 -34s43.667 -23 71 -34s49.5 -25.833 66.5 -44.5s28.167 -38.667 33.5 -60c2.66699 -9.33301 4 -17.666 4 -24.999c16 -0.666992 28.667 0 38 2
c16 4 30.667 11.833 44 23.5s21.833 24 25.5 37s2.66699 27.167 -3 42.5s-14.167 26 -25.5 32l-9 14c-16 12 -22.667 14 -20 6l-24 7l-32 27c-28.667 2 -47 6 -55 12l-13 10c-10 8 -18.333 16 -25 24c-10.667 5.33301 -21 9.66602 -31 12.999z" />
    <glyph glyph-name="copyright" unicode="&#xa9;" horiz-adv-x="869" 
d="M592 718c-2 -36 -1.83301 -63.835 0.5 -83.502s4.83301 -36.167 7.5 -49.5s6.66699 -23.666 12 -30.999l-40 -20c-0.666992 18.667 -4.5 36.5 -11.5 53.5s-16.333 31 -28 42s-24.5 19.5 -38.5 25.5s-29.833 7.66699 -47.5 5s-38.5 -8.33398 -62.5 -17.001
s-36.833 -16.167 -38.5 -22.5s-9.16699 -9.5 -22.5 -9.5l1 -27c-14.667 -20 -25.5 -39 -32.5 -57s-11.667 -36.333 -14 -55s-3.5 -42.667 -3.5 -72s2.5 -56.166 7.5 -80.499s14.833 -46.166 29.5 -65.499s29.167 -37.166 43.5 -53.499s32.333 -29.5 54 -39.5
s46.167 -16.5 73.5 -19.5s51.5 -3 72.5 0s37.833 8 50.5 15s29.334 21.833 50.001 44.5c0 -25.333 -4.66699 -43.166 -14 -53.499s-25.833 -19.333 -49.5 -27s-48.667 -12.834 -75 -15.501s-51.833 -3.5 -76.5 -2.5s-48.834 5.33301 -72.501 13s-44 17 -61 28
s-21.167 20.5 -12.5 28.5l-39 10c-34 39.333 -55.333 68.833 -64 88.5s-14.834 40 -18.501 61s-5.5 43.5 -5.5 67.5l-33 31l29 38c4 20.667 12.833 44 26.5 70s32.334 52.667 56.001 80s49.167 47.666 76.5 60.999s51.833 21.5 73.5 24.5s49 3.83301 82 2.5
s71.167 2.66699 114.5 12zM434 829.998c70 0 138 -17.833 204 -53.5s117.667 -86.834 155 -153.501s56 -136 56 -208s-18.167 -140.833 -54.5 -206.5s-87.5 -116.667 -153.5 -153s-135 -54.5 -207 -54.5c-71.333 0 -140 18.167 -206 54.5s-117.167 87.333 -153.5 153
s-54.5 134.5 -54.5 206.5s18.5 141.333 55.5 208s88.5 117.834 154.5 153.501s134 53.5 204 53.5zM61 414.998c0 -64.667 16.5029 -126.5 49.5029 -185.5s79 -105 138 -138s120.833 -49.5 185.5 -49.5s126.667 16.5 186 49.5s105.5 79 138.5 138s49.5 120.833 49.5 185.5
c0 65.333 -16.833 127.833 -50.5 187.5s-80.334 105.5 -140.001 137.5s-120.834 48 -183.501 48s-123.834 -16 -183.501 -48s-106.167 -77.833 -139.5 -137.5s-50 -122.167 -50 -187.5z" />
    <glyph glyph-name="guillemotleft" unicode="&#xab;" 
 />
    <glyph glyph-name="logicalnot" unicode="&#xac;" 
 />
    <glyph glyph-name="uni00AD" unicode="&#xad;" horiz-adv-x="257" 
d="M11 324l227 39l6 -33l-84 -18l-103 -39l-43 18z" />
    <glyph glyph-name="registered" unicode="&#xae;" horiz-adv-x="869" 
d="M401 622c30 -4.66699 53.333 -13.334 70 -26.001c7.33301 -7.33301 11 -13 11 -17l9 1l58 -69v-2c-4.66699 -6.66699 -8 -22.334 -10 -47.001c-7.33301 -22.667 -21.666 -42 -42.999 -58l-4 -6c2.66699 0 9 -6.66699 19 -20v-3l-2 -9l15 -11l4 5h1
c21.333 -20 37.666 -41.667 48.999 -65c10 -24.667 29 -52.334 57 -83.001c15.333 -10 26 -15 32 -15l48 10h3l6 -2v-5c-14 -19.333 -34 -29 -60 -29c-33.333 -1.33301 -63.333 12 -90 40c-34.667 36 -57.667 64 -69 84l-54 83l-28 -2h-30l-8 2l-3 -2v-49
c0 -2 -3 -3.33301 -9 -4v-6c0 -2.66699 2.33301 -4 7 -4c0 -19.333 6.33301 -32.333 19 -39l16 -1v-14l-51 4c-14 0 -38.667 -6.66699 -74 -20v2l-3 16c18.667 0 29.667 13.667 33 41v133l2 59c0 16.667 -8 25 -24 25h-2c-2 2.66699 -2.5 6.66699 -1.5 12s2.5 8 4.5 8
c51.333 -3.33301 88 -3.66602 110 -0.999023v-18h-13c-11.333 -9.33301 -17 -26 -17 -50v-16l-1 -48l4 -1c46.667 0 72.334 7 77.001 21c14 8.66699 21 27.334 21 56.001c0 40.667 -11 68.334 -33 83.001c-18.667 12.667 -42.334 19.334 -71.001 20.001
c-41.333 -0.666992 -89.333 -7 -144 -19l-10 -1c-18.667 3.33301 -28 6.66602 -28 9.99902l-17 44h2c18.667 -10.667 43.334 -16 74.001 -16c15.333 0 39.166 3.33301 71.499 10s57.833 9.66699 76.5 9zM434 830c70 0 138 -17.833 204 -53.5s117.667 -86.834 155 -153.501
s56 -136 56 -208s-18.167 -140.833 -54.5 -206.5s-87.5 -116.667 -153.5 -153s-135 -54.5 -207 -54.5c-71.333 0 -140 18.167 -206 54.5s-117.167 87.333 -153.5 153s-54.5 134.5 -54.5 206.5s18.5 141.333 55.5 208s88.5 117.834 154.5 153.501s134 53.5 204 53.5zM61 415
c0 -64.667 16.5029 -126.5 49.5029 -185.5s79 -105 138 -138s120.833 -49.5 185.5 -49.5s126.667 16.5 186 49.5s105.5 79 138.5 138s49.5 120.833 49.5 185.5c0 65.333 -16.833 127.833 -50.5 187.5s-80.334 105.5 -140.001 137.5s-120.834 48 -183.501 48
s-123.834 -16 -183.501 -48s-106.167 -77.833 -139.5 -137.5s-50 -122.167 -50 -187.5z" />
    <glyph glyph-name="degree" unicode="&#xb0;" horiz-adv-x="215" 
d="M114 803c14 0 27.665 -3.66699 40.998 -11s23.833 -17.666 31.5 -30.999s11.5 -27.333 11.5 -42s-3.66699 -28.667 -11 -42s-17.666 -23.666 -30.999 -30.999s-27.333 -11 -42 -11s-28.667 3.66699 -42 11s-23.666 17.666 -30.999 30.999s-11 27.333 -11 42
s3.83301 28.667 11.5 42s18.167 23.666 31.5 30.999s27 11 41 11zM50.998 719c0 -10.667 2.83301 -21.167 8.5 -31.5s13.5 -18.166 23.5 -23.499s20.333 -8 31 -8c11.333 0 22 2.66699 32 8s17.667 13.166 23 23.499s8 20.833 8 31.5s-2.83301 21.167 -8.5 31.5
s-13.5 18.166 -23.5 23.499s-20.333 8 -31 8s-21 -2.66699 -31 -8s-17.833 -13.166 -23.5 -23.499s-8.5 -20.833 -8.5 -31.5z" />
    <glyph glyph-name="plusminus" unicode="&#xb1;" 
 />
    <glyph glyph-name="mu" unicode="&#xb5;" 
 />
    <glyph glyph-name="paragraph" unicode="&#xb6;" 
 />
    <glyph glyph-name="periodcentered" unicode="&#xb7;" 
 />
    <glyph glyph-name="guillemotright" unicode="&#xbb;" 
 />
    <glyph glyph-name="afii10023" unicode="&#x401;" horiz-adv-x="599" 
d="M29 687l-17.0029 -40.002c26.667 -2 45.667 -7 57 -15s19.5 -18.5 24.5 -31.5s9.5 -40.167 13.5 -81.5l5 -207c15.333 0 27 1 35 3h11v-13l-3 -6h-8h-6l-6 3l-9 -3l-8 -5v-10l-11 -6l2 -75c-1.33301 -49.333 -5 -80.5 -11 -93.5s-13.167 -23 -21.5 -30
s-26.166 -12.5 -53.499 -16.5l-2 -30c28.667 0 52.5 0.5 71.5 1.5s38.833 2.16699 59.5 3.5s67 0.833008 139 -1.5s128.167 -3.5 168.5 -3.5s70.333 -1.83301 90 -5.5s45.834 -3.66699 78.501 0s53.667 5.5 63 5.5s14.5 11.167 15.5 33.5s-9.5 28.833 -31.5 19.5
s-40.167 -13.666 -54.5 -12.999s-31.833 4.16699 -52.5 10.5s-49.667 9.5 -87 9.5l-5 -19l-24 7l9 9l-80 6h-88.5c-17 0 -29.333 1.5 -37 4.5s-14.5 21.833 -20.5 56.5v189l54 2l67 1c31.333 0 53 -9.33301 65 -28s19 -39.667 21 -63l40 -4l-3 204h-37
c-6 -14 -11.333 -25 -16 -33s-13.667 -17 -27 -27h-38l-126 2v121l-11 61l11 29v16l15 15h16l38 8c46.667 -5.33301 78.834 -15.166 96.501 -29.499s35.667 -29.833 54 -46.5s40.833 -48 67.5 -94l32 30l-19 78c-4.66699 19.333 -5 53.333 -1 102c-58 -2 -104 -6 -138 -12
h-6l-14 -3l-20 12h-12zM176.997 768.998c8 16 18.332 26.333 30.999 31c14 -0.666992 26 -7.66699 36 -21c0 -16.667 -1.66699 -26 -5 -28l-9 -23c-9.33301 -3.33301 -17.333 -5 -24 -5s-13 1.66699 -19 5c-11.333 17.333 -14.666 31 -9.99902 41zM349.996 768.998
c8.66699 16 19.002 26.332 31.002 30.999c14 -1.33301 26 -8.33301 36 -21c0 -17.333 -1.66699 -27 -5 -29l-9 -22c-8.66699 -3.33301 -16.334 -5 -23.001 -5s-13.334 1.66699 -20.001 5c-10.667 16.667 -14 30.334 -10 41.001z" />
    <glyph glyph-name="afii10051" unicode="&#x402;" horiz-adv-x="765" 
d="M257 318c4 -84.667 5.16406 -137.995 3.49707 -159.995s-0.5 -39 3.5 -51s9.66699 -19.167 17 -21.5s17.666 -3.5 30.999 -3.5c10 0 15.833 -0.666992 17.5 -2s2.83398 -3.33301 3.50098 -6v-16c0 -6.66699 -0.333008 -10.667 -1 -12
c-0.666992 -3.33301 -1.66699 -5.33301 -3 -6s-5.66602 -1 -12.999 -1l-119 2c-22 0 -43.5 -0.166992 -64.5 -0.5s-40.833 -0.833008 -59.5 -1.5h-9c-8 0 -12 4.33301 -12 13v5v9c0 6 1 9.83301 3 11.5s7 3.16699 15 4.5c19.333 2.66699 33 7.33398 41 14.001
s13.333 18.334 16 35.001c11.333 22 15 33.833 11 35.5s-5.66699 21.834 -5 60.501s5 70 13 94c-4 10 -2 21 6 33c-10 14.667 -17 32 -21 52c2 33.333 2.83301 53.666 2.5 60.999s-0.666016 18.5 -0.999023 33.5s-0.833008 29.167 -1.5 42.5c-0.666992 14 -2 25.667 -4 35
s-5.16699 16.5 -9.5 21.5s-10.333 8.5 -18 10.5s-20.167 7.33301 -37.5 16c-80.667 14 -121.834 21.667 -123.501 23s-2.5 6.66602 -2.5 15.999c0 10.667 0.333008 17 1 19s40.334 3 119.001 3h11c5.33301 0 22.5 -1.5 51.5 -4.5s88.833 -1.83301 179.5 3.5l120 1h5
c6 0 9.5 -1 10.5 -3s1.5 -8.66699 1.5 -20c0 -8 -1 -12.833 -3 -14.5s-39.333 -10.167 -112 -25.5c-12.667 -7.33301 -22.667 -12.666 -30 -15.999s-12.833 -8.33301 -16.5 -15s-6.83398 -15.667 -9.50098 -27s-6.66699 -17.333 -12 -18
c4.66699 -24.667 5.33398 -41.167 2.00098 -49.5s-2.66602 -19.833 2.00098 -34.5l2 -8v-71c26.667 20 51.667 35.167 75 45.5s45.666 16.666 66.999 18.999s42.166 1.16602 62.499 -3.50098s41.166 -11.334 62.499 -20.001c2.66699 2 8 1.16699 16 -2.5
s16.333 -8.16699 25 -13.5c10 -6 20.667 -13 32 -21l41 -56l8 -117c-17.333 -102 -32 -157.167 -44 -165.5s-18.833 -18.166 -20.5 -29.499s0 -20.166 5 -26.499l21.5 -26.5c10 -6 15.333 -9.83301 16 -11.5s0 -4.83398 -2 -9.50098l-4 -8
c-4 -8 -7.16699 -12.833 -9.5 -14.5s-7.16602 -0.5 -14.499 3.5l-112 68l-47.5 22.5l-51.5 23.5l-10 4c-6 3.33301 -7 8.66602 -3 15.999l2 5l4 9c2.66699 5.33301 5.33398 8.16602 8.00098 8.49902s8.33398 -1.16699 17.001 -4.5c26 -10 48.667 -2.66699 68 22
c7.33301 16.667 14.5 25.667 21.5 27s13.167 9 18.5 23s11 41.667 17 83c7.33301 40.667 2.66602 72 -14.001 94c-7.33301 16.667 -18.5 29.167 -33.5 37.5s-31.667 13.166 -50 14.499s-37.166 0.166016 -56.499 -3.50098s-37.333 -8.83398 -54 -15.501s-30.667 -14 -42 -22
s-18 -15.333 -20 -22z" />
    <glyph glyph-name="afii10052" unicode="&#x403;" horiz-adv-x="429" 
d="M237 217l-4.99219 -20.999l-1 -13l-3 -9l4 -10v-13l7 -13c1.33301 -16 3 -28.833 5 -38.5s5.33301 -16.834 10 -21.501s11.667 -7.66699 21 -9s21.666 -2 36.999 -2c7.33301 0 11.666 -0.833008 12.999 -2.5s2 -6.83398 2 -15.501c0 -10.667 -0.5 -17.334 -1.5 -20.001
s-3.16699 -4 -6.5 -4h-10l-31 1c-94 5.33301 -149.333 4.33301 -166 -3s-32.334 -13.5 -47.001 -18.5s-26.667 -11.833 -36 -20.5h-6c-4.66699 0 -7.66699 1 -9 3s-2 8.33301 -2 19c0 7.33301 0.666992 12 2 14s4 3.66699 8 5c17.333 12 29.833 19.667 37.5 23
s17.667 13.833 30 31.5s20.166 42.167 23.499 73.5l1 41l6 14l-5 66l5 208l4 16l8 1l-6 18l-10 9c-2 46 -4.66699 74.833 -8 86.5s-8.66602 19.167 -15.999 22.5s-17 5.33301 -29 6c-10.667 0.666992 -16.834 1.5 -18.501 2.5s-1.83398 5 -0.500977 12s2.5 11.5 3.5 13.5
s3.5 6.66699 7.5 14h7c8.66699 0 24.334 -0.333008 47.001 -1s45.5 -3.5 68.5 -8.5s73.167 -4.5 150.5 1.5s131.666 9 162.999 9l18 -3l19 -9l10 12h62c-10 -59.333 -14.167 -97.166 -12.5 -113.499s-7.16602 -48.166 -26.499 -95.499h-50
c-3.33301 30 -7.33301 56.833 -12 80.5s-10.834 39 -18.501 46s-22.5 14.833 -44.5 23.5h-169.5c-7.66699 0 -13.334 -0.5 -17.001 -1.5s-6.33398 -2.83301 -8.00098 -5.5s-2.83398 -6 -3.50098 -10s-1 -134.333 -1 -391zM337.008 812.001l12 21l21 19l31 -19v-21h-4l-8 -23
l-61 -64c-10.667 -5.33301 -16 0.666992 -16 18z" />
    <glyph glyph-name="afii10053" unicode="&#x404;" horiz-adv-x="617" 
d="M534 724c-2.66699 -40.667 -2.66602 -72.165 0.000976562 -94.498s5.5 -41.166 8.5 -56.499s7.5 -27 13.5 -35l-45 -23c-1.33301 21.333 -5.83301 41.666 -13.5 60.999s-18.167 35.333 -31.5 48s-28 22.334 -44 29.001s-34 8.33398 -54 5.00098
s-43.667 -9.66602 -71 -18.999s-42 -17.666 -44 -24.999s-10.667 -11 -26 -11l2 -31c-17.333 -22.667 -30 -44.334 -38 -65.001s-13 -41.667 -15 -63c-2 -13.333 -3.33301 -29 -4 -47l121 -2h38c13.333 10 22.333 19 27 27s10 19 16 33h37l3 -204l-40 4
c-2 23.333 -9.16699 44.333 -21.5 63s-33.833 28 -64.5 28l-68 -1l-48 -9c1.33301 -23.333 4 -45.333 8 -66c5.33301 -27.333 16.5 -52 33.5 -74s33.667 -42.333 50 -61s36.833 -33.667 61.5 -45s52.5 -18.833 83.5 -22.5s58.5 -3.66699 82.5 0s43.167 9.33398 57.5 17.001
s33.166 24.5 56.499 50.5c0 -28.667 -5.16699 -48.834 -15.5 -60.501s-29 -21.834 -56 -30.501s-55.667 -14.667 -86 -18s-59.5 -4.33301 -87.5 -3s-55.5 6.33301 -82.5 15s-50 19.167 -69 31.5s-23.833 23.166 -14.5 32.499l-45 11
c-38.667 45.333 -62.834 79.333 -72.501 102s-16.667 45.667 -21 69s-6.5 49 -6.5 77l-37 35l33 43c4.66699 23.333 14.667 49.833 30 79.5s36.5 60.167 63.5 91.5s56 54.666 87 69.999s58.833 24.666 83.5 27.999s55.834 4.16602 93.501 2.49902s81.5 2.83301 131.5 13.5z
" />
    <glyph glyph-name="afii10054" unicode="&#x405;" horiz-adv-x="544" 
d="M437 705c5.33301 -54.667 20.3281 -114.664 44.9951 -179.997l-43 -3c-9.33301 26.667 -27.833 49 -55.5 67s-54.667 31.167 -81 39.5s-51.833 9.83301 -76.5 4.5s-43.334 -17.5 -56.001 -36.5s-13.167 -37.5 -1.5 -55.5s16.5 -31 14.5 -39l-2 -11l6 -4v-6l4 -4l-1 -5
l8 -7l-1 3l3 1l4 1l2 -5l2 3l4 -1l-1 3l3 4h2l3 4l2 1l3 1l9 5l23 -15c16 -9.33301 45.333 -23.166 88 -41.499s77.334 -43.333 104.001 -75s54.667 -76.167 84 -133.5l-23 -45c-14.667 -36.667 -33.667 -67 -57 -91s-53.166 -44 -89.499 -60
s-71.166 -25.167 -104.499 -27.5s-62.833 -1 -88.5 4s-53.5 18.667 -83.5 41s-49.833 44.666 -59.5 66.999s-10.167 45.166 -1.5 68.499s22.834 43.666 42.501 60.999s39 28.5 58 33.5s35.5 6.5 49.5 4.5c3.33301 -28 8.33301 -54 15 -78c-30 6 -53 6.83301 -69 2.5
s-26.833 -16.666 -32.5 -36.999s-1.16699 -40.666 13.5 -60.999s30.334 -35 47.001 -44s37.834 -15 63.501 -18s51 -1.5 76 4.5s47.833 18.667 68.5 38s34 40.333 40 63l16 17l-6 24c-4.66699 2 -9.33398 12 -14.001 30c-9.33301 25.333 -51 58 -125 98
c-78 32.667 -129.667 59.667 -155 81s-43.333 43.166 -54 65.499l-28 59.5l23 27c6 17.333 15.833 36.666 29.5 57.999s30.834 39.166 51.501 53.499s40 23.333 58 27s41.667 5.5 71 5.5s54.5 -0.833008 75.5 -2.5s42.5 0.5 64.5 6.5z" />
    <glyph glyph-name="afii10055" unicode="&#x406;" horiz-adv-x="287" 
d="M18 687l138 -4l30 -20l18 14l65 3l-7 -28c-22 -4.66699 -36.167 -13 -42.5 -25s-11.5 -39.333 -15.5 -82v-96l-9 -20h-12l-25 -33l13 -18v-16l20 -11h11v-22l8 -208c2.66699 -30.667 13 -52 31 -64l33 -6v-29c-80.667 4.66699 -162 4.66699 -244 0l-3 35
c20.667 2.66699 34.167 8.16699 40.5 16.5s10.5 26.5 12.5 54.5l-3 449c-8.66699 25.333 -16 43 -22 53s-20.333 15 -43 15zM137 812l12 21l21 19l31 -19v-21h-4l-8 -23l-61 -64c-11.333 -5.33301 -17 0.666992 -17 18z" />
    <glyph glyph-name="afii10056" unicode="&#x407;" horiz-adv-x="287" 
d="M18 687l138 -4l30 -20l18 14l65 3l-7 -28c-22 -4.66699 -36.167 -13 -42.5 -25s-11.5 -39.333 -15.5 -82v-96l-9 -20h-12l-25 -33l13 -18v-16l20 -11h11v-22l8 -208c2.66699 -30.667 13 -52 31 -64l33 -6v-29c-80.667 4.66699 -162 4.66699 -244 0l-3 35
c20.667 2.66699 34.167 8.16699 40.5 16.5s10.5 26.5 12.5 54.5l-3 449c-8.66699 25.333 -16 43 -22 53s-20.333 15 -43 15zM23 769c8.66699 16 19 26.333 31 31c14 -0.666992 26 -7.66699 36 -21c0 -16.667 -1.66699 -26 -5 -28l-9 -23
c-9.33301 -3.33301 -17.333 -5 -24 -5s-13 1.66699 -19 5c-10.667 17.333 -14 31 -10 41zM196 769c8.66699 16 19.334 26.332 32.001 30.999c14 -1.33301 26 -8.33301 36 -21c0 -17.333 -2 -27 -6 -29l-8 -22c-9.33301 -3.33301 -17.333 -5 -24 -5
s-13.334 1.66699 -20.001 5c-10.667 16.667 -14 30.334 -10 41.001z" />
    <glyph glyph-name="afii10057" unicode="&#x408;" horiz-adv-x="424" 
d="M229 500l-8.00195 13l-1 54c-0.666992 24 -1.33398 39.333 -2.00098 46s-1.66699 11.334 -3 14.001c-2.66699 8.66699 -8 14.167 -16 16.5s-22 4.16602 -42 5.49902c-7.33301 0 -12.166 0.166992 -14.499 0.5s-4.16602 0.833008 -5.49902 1.5s-2 2.33398 -2 5.00098v13
c0 7.33301 0.833008 11.666 2.5 12.999s6.16699 2 13.5 2h32l9 -16l16 14h71c22.667 -6.66699 44 -9 64 -7s35 3.33301 45 4h15c6 0 9 -4 9 -12v-15c0 -4.66699 -1 -7.83398 -3 -9.50098s-7 -2.83398 -15 -3.50098c-16 -2 -27.833 -6.33301 -35.5 -13
s-12.834 -17.334 -15.501 -32.001c-1.33301 -12.667 -2.16602 -30.667 -2.49902 -54s-0.5 -58.333 -0.5 -105v-36l-9 2l1 -14l-6 -6l-7 -13l-2 -24l7 8l9 2l8 -8l-2 -69l-1 -22c-0.666992 -14 -2.33398 -24.667 -5.00098 -32l-10 -12l10 -19
c-1.33301 -9.33301 -3.5 -20.333 -6.5 -33s-7.83301 -25 -14.5 -37c-10 -18.667 -21.167 -36.667 -33.5 -54s-26.333 -33.333 -42 -48s-32.667 -25.667 -51 -33s-34.166 -11.666 -47.499 -12.999l-20 -3l-20 1c-14 0.666992 -28.333 5.33398 -43 14.001
c-15.333 -6 -26.333 -4.33301 -33 5s-8 20 -4 32c4 12.667 11.667 18 23 16l45 -11c18.667 -4.66699 36.334 -7 53.001 -7l16 21l21 10c13.333 6.66699 24 35.334 32 86.001c8 50 11 88.667 9 116l8 71l-4 93z" />
    <glyph glyph-name="afii10058" unicode="&#x409;" horiz-adv-x="699" 
d="M784 366c28 -24.667 48.3379 -45.5039 61.0049 -62.5039s27.667 -46.833 45 -89.5l22 -40c-22.667 -42 -34 -68.667 -34 -80c-3.33301 -10 -7.83301 -20.5 -13.5 -31.5s-12.334 -20.833 -20.001 -29.5s-15.834 -15.167 -24.501 -19.5s-17.334 -4.5 -26.001 -0.5
c0 -10 -3.33301 -15 -10 -15c-32 -6.66699 -75 -10 -129 -10l-74 9h-31l-26 4l-39 1l-6 4l-10 1l-14 -1l-5 1l-4 -6l-33 -7h-11c-6.66699 0 -10 4.33301 -10 13c0 14 1 22.333 3 25s7.66699 4.33398 17 5.00098c16.667 2.66699 29 6.83398 37 12.501
s13.667 16.834 17 33.501c1.33301 8 2.66602 42 3.99902 102v89c0 71.333 -0.166992 127.833 -0.5 169.5s-0.833008 70.167 -1.5 85.5c0 30 -0.666992 50.5 -2 61.5s-3.83301 18.667 -7.5 23s-9.16699 7 -16.5 8s-16.666 1.5 -27.999 1.5c-6 6 -21.833 6.83301 -47.5 2.5
s-38.834 -14.666 -39.501 -30.999s-1 -36.166 -1 -59.499c-0.666992 -23.333 -8 -68.666 -22 -135.999l-9 -11l9 -19c-21.333 -115.333 -34.333 -180.833 -39 -196.5s-10 -29.5 -16 -41.5c-7.33301 -18 -14.666 -37.5 -21.999 -58.5s-16.333 -37.167 -27 -48.5
s-25.334 -20.5 -44.001 -27.5s-34.334 -11.5 -47.001 -13.5l-20 -3l-21 2c-13.333 0.666992 -27 0.666992 -41 0c-16 3.33301 -27.333 9.66602 -34 18.999s-8 28.333 -4 57c4 12 14.667 19.333 32 22c7.33301 0 19.333 -6 36 -18c13.333 -18 30.666 -28.333 51.999 -31
l17 21l20 10c14 6.66699 28 35 42 85c20 44 36.667 100 50 168l17 170l16 140c-18 10 -39 17 -63 21c-6 5.33301 -10.167 8.16602 -12.5 8.49902s-4.16602 0.833008 -5.49902 1.5c-0.666992 0.666992 -1 2.33398 -1 5.00098v13c0 7.33301 3 13.333 9 18s17 5 33 1l77 -6
c13.333 -6.66699 69 -9.33398 167 -8.00098c28.667 -3.33301 54.667 -3.83301 78 -1.5s41.833 6.66602 55.5 12.999s30.167 11.833 49.5 16.5l10 1c5.33301 0 8.5 -1.16699 9.5 -3.5s1.5 -15.5 1.5 -39.5c0 -6.66699 -1.66699 -11.667 -5 -15s-10.333 -5.33301 -21 -6
s-19.834 -2.5 -27.501 -5.5s-14.834 -8.5 -21.501 -16.5s-11 -18.667 -13 -32c0 -53.333 -0.333008 -107.666 -1 -162.999l-4 -104l-5 -38l-13 -7l6 -14l-1 -12l10 -11l5 -73c1.33301 -45.333 3 -76.333 5 -93c4.66699 2 8.66699 3 12 3
c16.667 -10.667 37.334 -16 62.001 -16c43.333 0 79 18.333 107 55c6.66699 22 13.667 41.333 21 58l-11 14c0 43.333 -22 84 -66 122c-42 24.667 -73.667 37 -95 37h-5v6c10 36 23 54 39 54c20.667 -10 36.334 -15 47.001 -15z" />
    <glyph glyph-name="afii10059" unicode="&#x40a;" horiz-adv-x="765" 
d="M838 410c28 -24.667 48.1631 -45.499 60.4961 -62.499s27.166 -46.833 44.499 -89.5l22 -40c-22 -42 -33 -68.667 -33 -80c-28.667 -47.333 -49.334 -71 -62.001 -71l-3 -3c-3.33301 0 -5 -2.33301 -5 -7h-14c0 -10 -3.33301 -15 -10 -15c-20 -4 -56.667 -6 -110 -6
c-0.666992 -1.33301 -1 -2.33301 -1 -3c-0.666992 -2 -3 -3 -7 -3h-11c-5.33301 0 -22.5 1.5 -51.5 4.5s-88.833 1.83301 -179.5 -3.5l-28 -1h-5c-5.33301 0 -8.5 1 -9.5 3s-1.5 8.66699 -1.5 20c0 7.33301 1 11.833 3 13.5s9.33301 3.5 22 5.5
c10.667 1.33301 19.667 3.83301 27 7.5s12.833 8.83398 16.5 15.501s6.83398 15.667 9.50098 27s6.33398 17 11.001 17c-4 24.667 -4.33301 41.334 -1 50.001s2.66602 20 -2.00098 34c13.333 4.66699 18.833 10.334 16.5 17.001s-8.5 13.667 -18.5 21v71l-269 -20
c0.666992 -100.667 1.66699 -160.334 3 -179.001s4.16602 -32.667 8.49902 -42s10.333 -15.166 18 -17.499s18.834 -3.83301 33.501 -4.5c10.667 0 17 -0.666992 19 -2s3 -6.33301 3 -15c0 -10 -0.5 -16.167 -1.5 -18.5s-3.83301 -3.5 -8.5 -3.5l-96 2l-5 5l-21 3l-11 -1
l-5 3l-9 -5l-2 -6h-16l-30 3c-28.667 -2 -62 -10 -100 -24h-5c-5.33301 0 -8.66602 1.16699 -9.99902 3.5s-2 8.5 -2 18.5c0 4.66699 5.16699 10.167 15.5 16.5s17.833 10.166 22.5 11.499s9.66699 2.33301 15 3c17.333 6.66699 30 15.167 38 25.5s13.667 25.166 17 44.499
c1.33301 14 2.5 49.833 3.5 107.5s1.5 132.834 1.5 225.501c0 39.333 -0.5 70.166 -1.5 92.499s-3.16699 39 -6.5 50s-8.66602 18.167 -15.999 21.5s-17.666 8.33301 -30.999 15c-11.333 0.666992 -17.833 1.5 -19.5 2.5s-2.5 4.16699 -2.5 9.5v10
c0 8.66699 0.666992 14.167 2 16.5s6 3.5 14 3.5l131 -11c18.667 0 36.334 0.166992 53.001 0.5s35.334 0.833008 56.001 1.5h11c6.66699 0 10 -4.33301 10 -13v-15c0 -6 -1.16699 -9.66699 -3.5 -11s-7.83301 -2.66602 -16.5 -3.99902c-28 -2 -45 -18.333 -51 -49
c-19.333 -16 -27 -26.667 -23 -32s6.83301 -15.5 8.5 -30.5s4.83398 -29.167 9.50098 -42.5v-102l270 20c0 76 -0.166992 127.167 -0.5 153.5s-2.5 45.5 -6.5 57.5s-9.66699 19.167 -17 21.5s-17.666 3.5 -30.999 3.5c-10 0 -15.833 0.666992 -17.5 2
s-2.83398 3.33301 -3.50098 6v16c0 6 0.333008 9.66699 1 11c0.666992 4 1.66699 6.33301 3 7s5.33301 1 12 1l120 -2c22 0 43.5 0.166992 64.5 0.5s40.833 0.833008 59.5 1.5h9c8 0 12 -4.33301 12 -13v-15c0 -5.33301 -1 -8.83301 -3 -10.5s-7 -3.16699 -15 -4.5
c-19.333 -2.66699 -33 -7.33398 -41 -14.001s-13.333 -18.334 -16 -35.001c-11.333 -22 -15 -34 -11 -36s5.66699 -10.833 5 -26.5s-5.33398 -35.5 -14.001 -59.5c4.66699 -10 3 -20.667 -5 -32c10 -15.333 17 -33 21 -53c-2 -78.667 -2.83301 -127.334 -2.5 -146.001
s0.666016 -35.5 0.999023 -50.5s0.833008 -29.167 1.5 -42.5c0 -9.33301 0.333008 -17 1 -23c4 3.33301 10.333 -5.66699 19 -27c12.667 10.667 31.334 16 56.001 16c43.333 0 79 18.333 107 55c6.66699 22 13.667 41.333 21 58l-11 14c0 43.333 -22 84 -66 122
c-42.667 24.667 -74.667 37 -96 37h-5v5c10.667 36.667 24 55 40 55c20.667 -10 36 -15 46 -15z" />
    <glyph glyph-name="afii10060" unicode="&#x40b;" horiz-adv-x="765" 
d="M257 318c4 -84.667 5.1709 -137.995 3.50391 -159.995s-0.5 -39 3.5 -51s9.66699 -19.167 17 -21.5s17.666 -3.5 30.999 -3.5c10 0 15.833 -0.666992 17.5 -2s2.83398 -3.33301 3.50098 -6v-16c0 -6.66699 -0.333008 -10.667 -1 -12
c-0.666992 -3.33301 -1.66699 -5.33301 -3 -6s-5.66602 -1 -12.999 -1l-119 2c-22 0 -43.5 -0.166992 -64.5 -0.5s-40.833 -0.833008 -59.5 -1.5h-9c-8 0 -12 4.33301 -12 13v5v9c0 6 1 9.83301 3 11.5s7 3.16699 15 4.5c19.333 2.66699 33 7.33398 41 14.001
s13.333 18.334 16 35.001c11.333 22 15 33.833 11 35.5s-5.66699 21.834 -5 60.501s5 70 13 94c-4 10 -2 21 6 33c-10 14.667 -17 32 -21 52c2 33.333 2.83301 55.333 2.5 66s-0.666016 23.5 -0.999023 38.5s-0.833008 29.167 -1.5 42.5c-0.666992 14 -2 25.667 -4 35
s-5.16699 16.5 -9.5 21.5s-10.333 8.5 -18 10.5s-29.834 7.33301 -66.501 16c-48 4 -72.167 7.5 -72.5 10.5s0.166992 12.833 1.5 29.5c-1.33301 3.33301 13 6 43 8s47 3 51 3h11c5.33301 0 22.5 -1.5 51.5 -4.5s88.833 -1.83301 179.5 3.5l28 1h5
c77.333 0 116.5 -1 117.5 -3s1.5 -8.66699 1.5 -20c0.666992 -14 -18.166 -20.333 -56.499 -19s-64.166 -3.66699 -77.499 -15c-10 -8 -18.667 -13.833 -26 -17.5s-12.833 -8.83398 -16.5 -15.501s-6.83398 -15.5 -9.50098 -26.5s-6.66699 -16.833 -12 -17.5
c4.66699 -24.667 5.33398 -41.167 2.00098 -49.5s-2.66602 -19.833 2.00098 -34.5l2 -13v-71c26.667 20 51.667 35.167 75 45.5s45.666 16.666 66.999 18.999s42.166 1.16602 62.499 -3.50098s41.166 -11.334 62.499 -20.001c2.66699 2 8 1.16699 16 -2.5
s16.333 -8.16699 25 -13.5c10 -6 20.667 -13 32 -21l41 -56l12 -83c0 -39.333 0.5 -70 1.5 -92s3.16699 -38.667 6.5 -50s8.66602 -18.5 15.999 -21.5s17.666 -7.83301 30.999 -14.5c11.333 -1.33301 17.833 -2.5 19.5 -3.5s2.5 -3.83301 2.5 -8.5v-10
c0 -8.66699 -0.666992 -14.167 -2 -16.5s-6.33301 -3.5 -15 -3.5l-130 11c-18.667 0 -36.334 -0.166992 -53.001 -0.5s-35.334 -0.833008 -56.001 -1.5h-11c-6.66699 0 -10 4.33301 -10 13v5v9c0 6.66699 1.16699 10.667 3.5 12s7.83301 2.66602 16.5 3.99902
c28 2 45 18.333 51 49c-0.666992 18.667 2 30 8 34s8.16699 13.5 6.5 28.5s-4.83398 28.833 -9.50098 41.5c7.33301 40.667 2.66602 72 -14.001 94c-7.33301 16.667 -18.5 29.167 -33.5 37.5s-31.667 13.166 -50 14.499s-37.166 0.166016 -56.499 -3.50098
s-37.333 -8.83398 -54 -15.501s-30.667 -14 -42 -22s-18 -15.333 -20 -22z" />
    <glyph glyph-name="afii10061" unicode="&#x40c;" horiz-adv-x="678" 
d="M216 314c0 -23.333 -0.663086 -52.999 -1.99609 -88.999c1.33301 -16.667 -4.33398 -39 -17.001 -67c13.333 -18 20.666 -32.333 21.999 -43s3.66602 -18.834 6.99902 -24.501s8.5 -9.66699 15.5 -12s15.833 -3.83301 26.5 -4.5c11.333 -0.666992 18 -1.66699 20 -3
s3 -6.33301 3 -15c0 -9.33301 -0.5 -15.166 -1.5 -17.499s-3.83301 -3.5 -8.5 -3.5c-66 2 -150 -10.667 -252 -38h-5c-5.33301 0 -8.66602 0.833008 -9.99902 2.5s-2 8.16699 -2 19.5c0 7.33301 0.666992 11.833 2 13.5s4.33301 3.16699 9 4.5
c12 1.33301 21.667 3.66602 29 6.99902s14.833 14.833 22.5 34.5s12.334 35 14.001 46s2.5 25.167 2.5 42.5v22v13l3 68l6 14l-9 16l1 141l7 10l7 11l7 2l-2 17l-9 9l-9 2v49c-2 38 -4.66699 61.833 -8 71.5s-8.33301 16.167 -15 19.5s-16 5.66602 -28 6.99902
c-10 2.66699 -15.333 4.33398 -16 5.00098c-1.33301 1.33301 -2 7.66602 -2 18.999c0 8 1 13 3 15s6.66699 3 14 3h13c5.33301 -0.666992 17 -1 35 -1c18.667 0 44.667 -3 78 -9l33 -14c8.66699 1.33301 11 6.66602 7 15.999c14.667 -1.33301 25.834 -0.5 33.501 2.5
s16.5 4.83301 26.5 5.5h11c7.33301 0 11 -4.66699 11 -14c0 -13.333 -1 -21.333 -3 -24s-8 -4.66699 -18 -6c-16.667 -1.33301 -28.334 -5.33301 -35.001 -12s-11 -18.667 -13 -36c-2 -12 -3.33301 -34.667 -4 -68s-1 -71.333 -1 -114c8.66699 -19.333 21.5 -24 38.5 -14
s29.5 19 37.5 27l34.5 37c12.333 13.333 29.833 31 52.5 53l26 10l-7 18c23.333 32 37.5 52 42.5 60s7.5 15.667 7.5 23c0 12 -4.66699 17.667 -14 17c-8.66699 0 -13.834 1.16699 -15.501 3.5s-2.5 7.5 -2.5 15.5c0 10 0.666992 16.5 2 19.5s4.33301 4.5 9 4.5h4
c16.667 -2 28.5 -3.16699 35.5 -3.5s17.167 -3.83301 30.5 -10.5c60.667 3.33301 98.667 8 114 14h9c4.66699 0 7.83398 -1.5 9.50098 -4.5s2.5 -8.5 2.5 -16.5c0 -9.33301 -1 -14.833 -3 -16.5s-8.33301 -4.16699 -19 -7.5
c-8.66699 -2.66699 -15.834 -5.16699 -21.501 -7.5s-12.167 -6 -19.5 -11s-15.833 -11.5 -25.5 -19.5s-24.167 -22.5 -43.5 -43.5s-37 -38.667 -53 -53s-67.333 -56.833 -154 -127.5c100 -42.667 168.667 -97.667 206 -165l27 -50l15 -25l-6 -18l12 -18l8 -17l33 -10l35 -36
c44.667 -49.333 81.167 -77.666 109.5 -84.999s55.666 -8.66602 81.999 -3.99902s57.5 15.334 93.5 32.001c16 -4.66699 17.667 -26 5 -64l-60.5 -16.5c-13.667 -3.66699 -41.834 -5.83398 -84.501 -6.50098s-74.334 3.83301 -95.001 13.5s-46 25 -76 46
s-65 54.5 -105 100.5s-67.5 80.167 -82.5 102.5l-43.5 65.5l-35 52.5c-9.33301 13.667 -33.333 38.167 -72 73.5c-25.333 2 -39.666 -2.66699 -42.999 -14zM342.004 812.001l12 21l21 19l31 -19v-21h-4l-8 -23l-61 -64c-11.333 -5.33301 -17 0.666992 -17 18z" />
    <glyph glyph-name="afii10062" unicode="&#x40e;" horiz-adv-x="673" 
d="M565 546l-11.9951 -24.002l-22 -36l-5 -32c-8 -17.333 -9 -32.333 -3 -45l-9 -34l-18 -15c-11.333 -18.667 -17 -34.334 -17 -47.001l-14 -35c-24 -47.333 -42 -92.666 -54 -135.999c-15.333 -32 -34.333 -61.333 -57 -88c-20.667 -25.333 -44.667 -40.333 -72 -45
c-55.333 -4.66699 -98.666 -3 -129.999 5s-55.333 19.333 -72 34l-34 62c7.33301 52 24.666 76 51.999 72l57 -22c0 -71.333 19.667 -108 59 -110c12 -1.33301 21 2.66699 27 12c20 8.66699 40 26.334 60 53.001c1.33301 22 -8.33398 54.667 -29.001 98l-23 36l4 32
c-26 40.667 -48.333 74.334 -67 101.001c1.33301 27.333 -3.66699 50 -15 68c-36.667 55.333 -66.334 119.333 -89.001 192c-32 1.33301 -48.333 3.33301 -49 6v25l5 8l158 4l79 2c6.66699 -2 10 -4.33301 10 -7v-30l-2 -2c-41.333 -3.33301 -62 -11 -62 -23l40 -97
c-16.667 -21.333 -13.334 -41.666 9.99902 -60.999c46 -66 82.667 -141 110 -225c41.333 80 65 138.667 71 176c0.666992 1.33301 1 2.66602 1 3.99902l-1 1c6.66699 34.667 10.667 54.334 12 59.001c6 9.33301 11 18 15 26l-2 7l12 53
c5.33301 22.667 9.66602 37.167 12.999 43.5s4.33301 10.833 3 13.5c-2.66699 8.66699 -8.16699 14.167 -16.5 16.5s-22.5 3.83301 -42.5 4.5h-14c-2.66699 0 -4.66699 0.666992 -6 2c-0.666992 0.666992 -1 2 -1 4l-1 14c0 6.66699 0.833008 10.834 2.5 12.501
s6.16699 2.5 13.5 2.5h32l9 -14l16 13l22 2c22.667 -6 44 -7.83301 64 -5.5s35 3.83301 45 4.5h15c6 0.666992 9 -3 9 -11l1 -16c0 -4.66699 -1 -7.83398 -3 -9.50098s-7 -2.83398 -15 -3.50098c-16 -2 -27.833 -6.5 -35.5 -13.5s-18.834 -28.5 -33.501 -64.5
c-2 -4.66699 -3.66699 -10 -5 -16zM566.005 855.998c0 -12.667 -13.999 -36.999 -41.999 -72.999c-39.333 -48 -93 -74.333 -161 -79c-31.333 0 -68 7.66699 -110 23c-30 16 -45 29 -45 39v1l3 8c-24 4.66699 -36 10.667 -36 18c-8 10.667 -13.333 18 -16 22
s-3.83398 7.16699 -3.50098 9.5s1 4.83301 2 7.5s0.833008 8.33398 -0.5 17.001c0.666992 3.33301 4.5 9 11.5 17s15.833 14.167 26.5 18.5s21.834 5 33.501 2s22.5 -13.833 32.5 -32.5c1.33301 -13.333 7 -31.666 17 -54.999c0.666992 -24 15.334 -39.667 44.001 -47
c9.33301 -4 18.666 -6.83301 27.999 -8.5s21.5 0.166016 36.5 5.49902s34.167 15.666 57.5 30.999c-7.33301 10 -6 15 4 15v15l-1 6c7.33301 25.333 9.66602 38.333 6.99902 39c6 10 14.5 17.167 25.5 21.5s22.5 6.5 34.5 6.5s22.833 -2.33301 32.5 -7
s16.167 -11.334 19.5 -20.001z" />
    <glyph glyph-name="afii10145" unicode="&#x40f;" horiz-adv-x="765" 
d="M523 229c10 7.33301 12.502 12 7.50195 14s-8.5 84.667 -10.5 248c4.66699 14.667 5.33398 26.167 2.00098 34.5s-3 24.833 1 49.5c-4.66699 0.666992 -8.33398 6.5 -11.001 17.5s-5.83398 19.833 -9.50098 26.5s-9.16699 11.834 -16.5 15.501s-16.333 6.5 -27 8.5
c-12.667 1.33301 -20 2.83301 -22 4.5s-3 6.16699 -3 13.5c0 12 0.5 19 1.5 21s4.16699 3 9.5 3h5l28 -1c90.667 -6 150.5 -7.33301 179.5 -4s46.167 5 51.5 5h11c4 0 6.33301 -1 7 -3s1 -8.33301 1 -19c0 -9.33301 -0.833008 -14.666 -2.5 -15.999s-8.16699 -2 -19.5 -2
c-12 0 -21.833 -1 -29.5 -3s-13.667 -5.5 -18 -10.5s-7.5 -12.167 -9.5 -21.5s-3.33301 -21 -4 -35c-0.666992 -13.333 -1.16699 -27.5 -1.5 -42.5s-0.666016 -31.833 -0.999023 -50.5s0.5 -67.667 2.5 -147c-4 -19.333 -3.66699 -36 1 -50c4 -25.333 5 -39 3 -41
c-4.66699 -20 -6.66699 -37.833 -6 -53.5s1.83398 -26.167 3.50098 -31.5s2.5 -15.666 2.5 -30.999c2.66699 -16 8 -27.5 16 -34.5s21.667 -11.833 41 -14.5c8 -0.666992 13 -2 15 -4s3 -5.66699 3 -11v-15c0 -8.66699 -4 -13 -12 -13h-9
c-18.667 1.33301 -38.5 2.16602 -59.5 2.49902s-42.5 0.5 -64.5 0.5l-30 -1l-98 -2c-5.33301 -38.667 -8 -71.334 -8 -98.001s2 -49.667 6 -69c-36.667 -22.667 -70.334 -27 -101.001 -13l6 39.5c2 13 3.5 26.5 4.5 40.5s1.33301 28.833 1 44.5s-1.83301 32.5 -4.5 50.5
h-128l-32 8l-131 -12c-8 0 -12.667 1.16699 -14 3.5s-2 8.16602 -2 17.499v9c0 5.33301 0.833008 8.5 2.5 9.5s8.16699 1.83301 19.5 2.5c13.333 6.66699 23.666 11.667 30.999 15s12.666 10.5 15.999 21.5s5.33301 26.5 6 46.5s1.33398 52 2.00098 96
c0 93.333 -0.5 168.833 -1.5 226.5s-2.16699 93.167 -3.5 106.5c-3.33301 20 -9 35 -17 45s-17.667 10.333 -29 1c-6 1.33301 -11.167 2.66602 -15.5 3.99902s-11.666 5.16602 -21.999 11.499s-15.5 11.833 -15.5 16.5c0 10 0.5 16.167 1.5 18.5s4.16699 3.5 9.5 3.5h6
c32 2 62.333 1.66699 91 -1l30 3h16l2 -5l9 -6l13 15l21 -12l3 3l5 4l96 3c4.66699 0 7.5 -1.16699 8.5 -3.5s1.5 -8.5 1.5 -18.5c0 -9.33301 -1 -14.666 -3 -15.999s-8.33301 -2 -19 -2c-14.667 -0.666992 -25.834 -2.16699 -33.501 -4.5s-13.667 -8.16602 -18 -17.499
s-7.83301 -32.333 -10.5 -69c-0.666992 -102 -1 -163.333 -1 -184c3.33301 -121.333 4.16602 -183.666 2.49902 -186.999s-2.5 -9.5 -2.5 -18.5s1.66699 -21.167 5 -36.5c1.33301 -8.66699 4 -21.334 8 -38.001l72 -7l180 13z" />
    <glyph glyph-name="afii10017" unicode="&#x410;" horiz-adv-x="697" 
d="M419 322c-11.333 32.667 -19 55.666 -23 68.999c2.66699 20.667 1 34.167 -5 40.5s-11.167 15.5 -15.5 27.5l-9.5 26.5c-2 5.66699 -4 10.834 -6 15.501l-68 -192zM447 62.999c18.667 2 31.332 5.32715 37.999 9.99414s10 12 10 22c0 3.33301 -0.5 7.5 -1.5 12.5
s-3 12.667 -6 23s-7.16699 23.833 -12.5 40.5l-25 78l-154 -11l-4 14c-10 -6.66699 -21 -12 -33 -16l-21 -65.5c-5.33301 -16.333 -9.33301 -29.5 -12 -39.5s-4.5 -17.333 -5.5 -22s-1.5 -8.66699 -1.5 -12c0 -22 17 -33.333 51 -34l20 -13v-8c0 -8.66699 -0.5 -14 -1.5 -16
s-3.83301 -3 -8.5 -3h-10c-3.33301 0 -7.33301 0.333008 -12 1l-88 1c-7.33301 -2.66699 -15 -4 -23 -4l-34 1l-9 5l-14 -6l-10 -5l-2 4l-13 -2l-15 -8c-20 -6.66699 -31.333 -7.33398 -34 -2.00098s-1.66699 9 3 11l3 11c-3.33301 2.66699 -4.83301 5.5 -4.5 8.5
s2.83301 5.16699 7.5 6.5c52 14.667 81 24.334 87 29.001s12.667 17.167 20 37.5s16 38.333 26 54s23.667 43.834 41 84.501c14 50 30 96.167 48 138.5s31.5 78.5 40.5 108.5s19 53.5 30 70.5s3.83301 39.167 -21.5 66.5l30 48c40.667 2 65.334 4 74.001 6
c2.66699 0.666992 6 1 10 1c3.33301 0 5.33301 -1 6 -3s2.66699 -7.33301 6 -16c30 -51.333 50 -88.666 60 -111.999s17.333 -42.666 22 -57.999l7 -27l-17 5l-7 -14l12 -23l29 -8l15 -45l15 -45l50 -11l-19 -73l-18 -1c10.667 -36 19.5 -62.833 26.5 -80.5
s7.5 -35.5 1.5 -53.5l42.5 -42.5c7.66699 -7.66699 16.5 -12.667 26.5 -15s15.333 -4.33301 16 -6s1 -7 1 -16s-3 -15.5 -9 -19.5c-118 0.666992 -180.833 0.833984 -188.5 0.500977s-12.5 -0.5 -14.5 -0.5c-22 0 -33.667 1 -35 3s-2 7.33301 -2 16s0.5 13.834 1.5 15.501
s4.16699 2.83398 9.5 3.50098z" />
    <glyph glyph-name="afii10018" unicode="&#x411;" horiz-adv-x="572" 
d="M101 585c-2 13.333 -6.49316 23.999 -13.4932 31.999s-14.167 13.5 -21.5 16.5s-16.5 4.83301 -27.5 5.5s-18.167 2.66699 -21.5 6s-5 8.33301 -5 15c0 24 0.666992 37.167 2 39.5s4.33301 3.5 9 3.5l11 -1c18.667 -4.66699 35 -10.167 49 -16.5s32.667 -11.333 56 -15
s49 -4.16699 77 -1.5h75l119 9l1 -25l25 19l18 -5c5.33301 8.66699 16.333 15.334 33 20.001h5c3.33301 0 6 -0.166992 8 -0.5s3.5 -1.5 4.5 -3.5s2.16699 -5.5 3.5 -10.5s2.66602 -11.5 3.99902 -19.5c-12.667 -18 -17.667 -34.167 -15 -48.5s2.5 -24 -0.5 -29
s-4 -9.83301 -3 -14.5s3.5 -8.66699 7.5 -12c-3.33301 -29.333 -14.333 -49 -33 -59c-4.66699 0 -8.33398 6 -11.001 18c-4.66699 27.333 -8.83398 47.833 -12.501 61.5s-10.167 23.167 -19.5 28.5c-9.33301 6 -28.5 9.16699 -57.5 9.5s-58.833 0.5 -89.5 0.5
c-12 0 -21.333 -0.333008 -28 -1c-0.666992 0 -1.33398 -0.333008 -2.00098 -1c-18.667 -2 -25.667 -31 -21 -87v-301c0 -67.333 9 -101 27 -101c16 -10 36.333 -15 61 -15c43.333 0 82.666 24.667 117.999 74c0 8.66699 15 18 45 28l-45 4c0 56.667 -22 104 -66 142
c-42.667 24.667 -74.667 37 -96 37h-5v6c10.667 36 24 54 40 54c20.667 -10 36 -15 46 -15c29.333 0 60 -9 92 -27h-11v-10c28 -18 48.167 -35.5 60.5 -52.5s27.166 -46.833 44.499 -89.5l22 -40c-22.667 -42 -34 -68.667 -34 -80c-28.667 -47.333 -49.334 -71 -62.001 -71
l-2 -2c-3.33301 0 -5 -2.66699 -5 -8h-15c0 -10 -3 -15 -9 -15c-32.667 -6.66699 -76 -10 -130 -10l-147 17c-28.667 0 -67 -8 -115 -24c0 -3.33301 -5 -5 -15 -5v2l-5 15c0 20 18 34 54 42c31.333 20 45.333 80.333 42 181l20 60l-15 49v137c0 34 -1.33301 61.333 -4 82
c-6 0 -11.667 0.666992 -17 2z" />
    <glyph glyph-name="afii10019" unicode="&#x412;" horiz-adv-x="572" 
d="M293 708c119.333 0 199.337 -50.3311 240.004 -150.998l5 -11c2.66699 -6.66699 7.66699 -11.334 15 -14.001c0 -8.66699 -8.16699 -27.334 -24.5 -56.001s-34.5 -47.667 -54.5 -57s-33.667 -14 -41 -14v-10c28 -18 48.167 -35.5 60.5 -52.5s27.166 -46.833 44.499 -89.5
l22 -40c-22.667 -42 -34 -68.667 -34 -80c-28.667 -47.333 -49.334 -71 -62.001 -71l-2 -2c-3.33301 0 -5 -2.66699 -5 -8h-15c0 -10 -3 -15 -9 -15c-32.667 -6.66699 -76 -10 -130 -10l-147 17c-28.667 0 -67 -8 -115 -24c0 -3.33301 -5 -5 -15 -5v2l-5 15
c0 20 18 34 54 42c31.333 20 47 38.333 47 55v228h10v3l-3 3v2c7.33301 3.33301 11.666 6.66602 12.999 9.99902v7c-5.33301 0 -8 1.66699 -8 5c4 0 6.66699 4.33301 8 13h-3l-17 -3v85c0 51.333 -9 77 -27 77l-10 5c2.66699 16.667 5 25 7 25c36 -12 65.667 -18 89 -18
l102 8l-5 -30h-5c-30.667 0 -46 -16.667 -46 -50v-281c0 -67.333 9 -101 27 -101c16 -10 36.333 -15 61 -15c43.333 0 79.333 18 108 54c6.66699 22 13.667 41.333 21 58l-11 15c0 42.667 -22 83 -66 121c-42.667 24.667 -74.667 37 -96 37h-5v6c10.667 36 24 54 40 54
c20.667 -10 36 -15 46 -15c29.333 0 49 30.667 59 92l8 16c-5.33301 42.667 -37.333 76.334 -96 101.001c-38 9.33301 -84.5 13.333 -139.5 12s-126.167 -16.333 -213.5 -45c-14 -4.66699 -24 -7 -30 -7s-18.333 1.5 -37 4.5s-28 8.16699 -28 15.5l-35 80h5
c37.333 -20 86.333 -30 147 -30c31.333 0 83.166 6.33301 155.499 19s120.833 18.667 145.5 18z" />
    <glyph glyph-name="afii10020" unicode="&#x413;" horiz-adv-x="429" 
d="M237 217l-4.99219 -20.999l-1 -13l-3 -9l4 -10v-13l7 -13c1.33301 -16 3 -28.833 5 -38.5s5.33301 -16.834 10 -21.501s11.667 -7.66699 21 -9s21.666 -2 36.999 -2c7.33301 0 11.666 -0.833008 12.999 -2.5s2 -6.83398 2 -15.501c0 -10.667 -0.5 -17.334 -1.5 -20.001
s-3.16699 -4 -6.5 -4h-10l-31 1c-94 5.33301 -149.333 4.33301 -166 -3s-32.334 -13.5 -47.001 -18.5s-26.667 -11.833 -36 -20.5h-6c-4.66699 0 -7.66699 1 -9 3s-2 8.33301 -2 19c0 7.33301 0.666992 12 2 14s4 3.66699 8 5c17.333 12 29.833 19.667 37.5 23
s17.667 13.833 30 31.5s20.166 42.167 23.499 73.5l1 41l6 14l-5 66l5 208l4 16l8 1l-6 18l-10 9c-2 46 -4.66699 74.833 -8 86.5s-8.66602 19.167 -15.999 22.5s-17 5.33301 -29 6c-10.667 0.666992 -16.834 1.5 -18.501 2.5s-1.83398 5 -0.500977 12s2.5 11.5 3.5 13.5
s3.5 6.66699 7.5 14h7c8.66699 0 24.334 -0.333008 47.001 -1s45.5 -3.5 68.5 -8.5s73.167 -4.5 150.5 1.5s131.666 9 162.999 9l18 -3l19 -9l10 12h62c-10 -59.333 -14.167 -97.166 -12.5 -113.499s-7.16602 -48.166 -26.499 -95.499h-50
c-3.33301 30 -7.33301 56.833 -12 80.5s-10.834 39 -18.501 46s-22.5 14.833 -44.5 23.5h-169.5c-7.66699 0 -13.334 -0.5 -17.001 -1.5s-6.33398 -2.83301 -8.00098 -5.5s-2.83398 -6 -3.50098 -10s-1 -134.333 -1 -391z" />
    <glyph glyph-name="afii10021" unicode="&#x414;" horiz-adv-x="795" 
d="M276 563c-0.666992 24 -1.3291 39.332 -1.99609 45.999s-1.66699 11.334 -3 14.001c-2.66699 8.66699 -8 14.334 -16 17.001s-22 4.66699 -42 6h-14.5c-2.33301 0 -4.16602 0.333008 -5.49902 1s-2 2.33398 -2 5.00098v14c0 6.66699 0.833008 10.667 2.5 12s6.5 2 14.5 2
h31l9 -15l12 9c-0.666992 2 -1 4 -1 6h9l1 -2h12l11 -3l4 2l18 3c31.333 0 79.166 -2.33301 143.499 -7s108 -4.5 131 0.5s45.833 7.83301 68.5 8.5s38.334 1 47.001 1h7c4 -7.33301 6.5 -12 7.5 -14s2.33301 -6.5 4 -13.5s1.5 -11 -0.5 -12s-8.33301 -1.83301 -19 -2.5
c-12 -0.666992 -21.5 -2.66699 -28.5 -6s-12.333 -10.833 -16 -22.5s-6.5 -40.5 -8.5 -86.5l-10 -9l-6 -18l-25 -34l37 17l5 -208l-5 -66l6 -14l1 -41c3.33301 -31.333 11.166 -55.833 23.499 -73.5s22.5 -28.167 30.5 -31.5c0.666992 0 1 -0.333008 1 -1l7 9l62 -1
c-6.66699 -52 -8.33398 -84.5 -5.00098 -97.5l25 -99.5l-45 -22c-15.333 26 -30.5 48.833 -45.5 68.5l-41.5 54.5c-12.667 16.667 -30 29.334 -52 38.001c-120 -2 -186.333 -3.16699 -199 -3.5s-21 -1.16602 -25 -2.49902c-1.33301 0 -10.333 0.333008 -27 1
c-15.333 -0.666992 -24 -1 -26 -1c-3.33301 1.33301 -8.83301 2.16602 -16.5 2.49902s-55.834 0.166016 -144.501 -0.500977c-22 -8.66699 -37 -21.334 -45 -38.001s-19.333 -34.667 -34 -54s-30 -42 -46 -68l-45 22l25 100c1.33301 5.33301 2 14.666 2 27.999l10 56
c-0.666992 4 -1.33398 8.33301 -2.00098 13h47l10 -11c22.667 7.33301 39.667 11 51 11h1c16.667 12.667 30.167 27 40.5 43s17.166 34.667 20.499 56c8 45.333 25 136 51 272zM529.005 216.999c0 256.667 -0.328125 387.004 -0.995117 391.004
s-1.83398 7.33301 -3.50098 10s-4.33398 4.5 -8.00098 5.5s-9.33398 1.5 -17.001 1.5s-44.5 -1.33301 -110.5 -4c-4 -1.33301 -8.66699 -3 -14 -5c-4.66699 -6.66699 -11.667 -16 -21 -28c6 -11.333 1.33301 -49.333 -14 -114c-22.667 -156 -35.667 -237.667 -39 -245
l-21 -13l21 -18c-1.33301 -9.33301 -3.5 -20.333 -6.5 -33s-7.83301 -25.334 -14.5 -38.001c3.33301 -18 -1.33398 -35.667 -14.001 -53l-13 -23c8.66699 -0.666992 20.334 -1 35.001 -1c22.667 -0.666992 45.334 -3.33398 68.001 -8.00098l29 -3
c30.667 2.66699 53.667 6.16699 69 10.5s27.666 7.16602 36.999 8.49902s19.666 0.333008 30.999 -3s14.666 5.66699 9.99902 27s3 28.666 23 21.999l-21 47v13l5 10l-4 9l-1 13z" />
    <glyph glyph-name="afii10022" unicode="&#x415;" horiz-adv-x="599" 
d="M344 684l12.0029 0.00195312l20 -12l14 3h6c34 6 80 10 138 12c-4 -48.667 -3.66699 -82.667 1 -102l19 -78l-32 -30c-26.667 46 -49.167 77.333 -67.5 94s-36.333 32.167 -54 46.5s-49.834 24.166 -96.501 29.499l-38 -8h-16l-15 -15v-16l-11 -29l11 -61v-121l126 -2h38
c13.333 10 22.333 19 27 27s10 19 16 33h37l3 -204l-40 4c-2 23.333 -9 44.333 -21 63s-33.667 28 -65 28l-67 -1l-54 -2v-189c6 -34.667 12.833 -53.5 20.5 -56.5s20 -4.5 37 -4.5s44.167 2.33301 81.5 7v-13l-10 -9l24 -7l5 19c44 0 89.333 -3.16699 136 -9.5
s77.167 -9.83301 91.5 -10.5s32.5 3.66602 54.5 12.999s32.5 2.83301 31.5 -19.5s-6.16699 -33.5 -15.5 -33.5s-30.333 -1.83301 -63 -5.5s-58.834 -3.66699 -78.501 0s-49.667 5.5 -90 5.5s-96.5 1.16699 -168.5 3.5s-118.333 2.83301 -139 1.5s-40.5 -2.5 -59.5 -3.5
s-42.833 -1.5 -71.5 -1.5l2 30c27.333 4 45.166 9.5 53.499 16.5s15.5 17 21.5 30s9.66699 44.167 11 93.5l-2 207l11 6v9l8 6l9 3l6 -3h6h8l3 6v13h-11c-8 -2.66699 -19.667 -4 -35 -4l-5 76c-4 41.333 -8.5 68.5 -13.5 81.5s-13.167 23.5 -24.5 31.5s-30.333 13 -57 15
l17 40z" />
    <glyph glyph-name="afii10024" unicode="&#x416;" horiz-adv-x="1046" 
d="M583 314c0 -23.333 -0.335938 -52.9941 -1.00293 -88.9941c0.666992 -16.667 0.333984 -38.667 -0.999023 -66c2 -18.667 4.33301 -38.5 7 -59.5s5.83398 -34.333 9.50098 -40s9 -9.66699 16 -12s15.833 -3.83301 26.5 -4.5s17 -1.66699 19 -3s3 -6.66602 3 -15.999
s-0.5 -15.166 -1.5 -17.499s-3.5 -3.5 -7.5 -3.5c-66 2 -151.333 0 -256 -6h-5c-5.33301 0 -8.66602 0.833008 -9.99902 2.5s-2 8.16699 -2 19.5c0 7.33301 0.666992 11.833 2 13.5s4.33301 3.16699 9 4.5c11.333 1.33301 20.833 3.66602 28.5 6.99902
s15.334 14.833 23.001 34.5s12.167 35 13.5 46s2 25.167 2 42.5l9 36l-5 67l6 14l-10 16v44c-44 0 -66 -8 -66 -24c-21.333 -18.667 -36.5 -34.834 -45.5 -48.501l-34.5 -52.5l-43.5 -65.5c-15 -22.333 -42.667 -56.5 -83 -102.5s-75.333 -79.5 -105 -100.5
s-55 -36.333 -76 -46s-52.833 -14.167 -95.5 -13.5s-70.667 2.83398 -84 6.50098l-60 16.5c-13.333 38 -11.666 59.333 5.00098 64c35.333 -16.667 66.166 -27.334 92.499 -32.001s53.666 -3.33398 81.999 3.99902s65.166 35.666 110.499 84.999l34 36l26 31l22 32l14 25
l28 50c36.667 67.333 107.667 123.666 213 168.999c-74 46 -123.5 81.667 -148.5 107s-42.5 44.5 -52.5 57.5s-23.667 26.667 -41 41s-29.666 24 -36.999 29s-13.166 7 -17.499 6s-10.833 -0.166992 -19.5 2.5c-10.667 3.33301 -17 5.83301 -19 7.5s-3 7.5 -3 17.5
c0 8 0.833008 13.333 2.5 16s4.83398 4 9.50098 4h9c12 0.666992 44.333 2.66699 97 6c22 0 36.5 0.166992 43.5 0.5s18.5 1.16602 34.5 2.49902h5c4.66699 0 7.66699 -1.33301 9 -4s2 -9.33398 2 -20.001c0 -7.33301 -1 -12.333 -3 -15s-7 -4 -15 -4
c-10 0.666992 -15 -5 -15 -17c0 -6.66699 3.83301 -16.667 11.5 -30s19.167 -29 34.5 -47l2 -18l17 -10c23.333 -22 41 -39.667 53 -53s25.667 -23.666 41 -30.999c-2 -8 2.66699 -14 14 -18c11.333 -3.33301 26 -2 44 4l24 8l-7 31l7 11l6 2l-1 17l-10 9l-9 2v49
c-1.33301 38 -3.83301 61.833 -7.5 71.5s-8.83398 16.167 -15.501 19.5s-15.667 5.66602 -27 6.99902c-10 2.66699 -15.333 4.33398 -16 5.00098c-1.33301 1.33301 -2 7.66602 -2 18.999c0 8 0.833008 13 2.5 15s6.5 3 14.5 3h12c5.33301 -0.666992 17.333 -1 36 -1
s44.334 -3 77.001 -9c12 -4.66699 23 -9.33398 33 -14.001c9.33301 1.33301 12 6.66602 8 15.999c14 -1.33301 25 -0.5 33 2.5s17 4.83301 27 5.5h11c6.66699 0 10 -4.66699 10 -14c0 -13.333 -0.833008 -21.333 -2.5 -24s-7.5 -4.66699 -17.5 -6
c-17.333 -1.33301 -29.333 -5.33301 -36 -12s-19 -18.334 -37 -35.001c14.667 -12.667 21.667 -35.667 21 -69s-1 -71.333 -1 -114c18.667 -7.33301 33.834 -9 45.501 -5s21.5 10 29.5 18c11.333 11.333 23 23.666 35 36.999s29.667 31 53 53l26 10l-7 38
c15.333 18 25.666 31 30.999 39s8 15.667 8 23c0 12 -4.66699 17.667 -14 17c-8.66699 0 -14 1.16699 -16 3.5s-3 7.5 -3 15.5c0 10 0.666992 16.5 2 19.5s4.33301 4.5 9 4.5h5c16 -2 27.5 -3.16699 34.5 -3.5s17.167 -3.83301 30.5 -10.5c61.333 3.33301 99.333 8 114 14
h10c4.66699 0 7.66699 -1.5 9 -4.5s2 -8.5 2 -16.5c0 -9.33301 -0.833008 -14.833 -2.5 -16.5s-8.16699 -4.16699 -19.5 -7.5c-8 -2.66699 -15 -5.16699 -21 -7.5s-12.5 -6 -19.5 -11s-15.5 -11.5 -25.5 -19.5s-22.667 -22.333 -38 -43s-31 -38.167 -47 -52.5
s-62 -58.833 -138 -133.5c89.333 -38.667 152.333 -91.667 189 -159l28 -50l14 -25l-6 -18l13 -18l8 -17l33 -10l34 -36c45.333 -49.333 82.166 -77.666 110.499 -84.999s55.666 -8.66602 81.999 -3.99902s57.166 15.334 92.499 32.001
c16.667 -4.66699 18.334 -26 5.00098 -64l-60 -16.5c-13.333 -3.66699 -41.333 -5.83398 -84 -6.50098s-74.5 3.83301 -95.5 13.5s-46.333 25 -76 46s-64.667 54.5 -105 100.5s-68 80.167 -83 102.5l-43.5 65.5l-34.5 52.5c-9 13.667 -24.167 29.834 -45.5 48.501
c0 16 -22.333 24 -67 24z" />
    <glyph glyph-name="afii10025" unicode="&#x417;" horiz-adv-x="617" 
d="M350 653c-6.66699 3.33301 -14.9951 6.66699 -24.9951 10c-27.333 10 -51.833 12.5 -73.5 7.5s-40.5 -10.833 -56.5 -17.5s-30.667 -16.334 -44 -29.001s-23.833 -28.667 -31.5 -48s-12.167 -39.666 -13.5 -60.999l-45 23c6 8 10.667 19.667 14 35
s6.16602 34.166 8.49902 56.499s2.16602 53.833 -0.500977 94.5c50 -10.667 126.333 -8 229 8c127.333 0 202.666 -50.333 225.999 -151l4 -10c0 -23.333 3.66699 -36.333 11 -39c0 -8.66699 -8.16699 -27.334 -24.5 -56.001s-34.5 -47.667 -54.5 -57s-33.667 -14 -41 -14
v-10c28 -18 48.167 -35.5 60.5 -52.5s27.166 -46.833 44.499 -89.5l22 -40c-22.667 -42 -34 -68.667 -34 -80c-28.667 -47.333 -49.334 -71 -62.001 -71l-2 -2c-3.33301 0 -18.333 8 -45 24l25 -32c0 -10 -3 -15 -9 -15c-32.667 -6.66699 -76 -10 -130 -10h-7
c-12.667 -2 -25.667 -3.33301 -39 -4c-28 -1.33301 -57 -0.333008 -87 3s-58.667 9.33301 -86 18s-46.166 18.834 -56.499 30.501s-15.5 31.834 -15.5 60.501c23.333 -26 42.166 -42.833 56.499 -50.5s33.5 -13.5 57.5 -17.5c14 -2 29.333 -3 46 -3
c7.33301 2.66699 29.333 3.66699 66 3l74 15c45.333 13.333 82.333 38 111 74c6.66699 22 13.667 41.333 21 58l-11 15c0 42.667 -22 83 -66 121c-46 15.333 -79.667 23 -101 23h-5v5c10.667 36.667 24 55 40 55c20.667 -10.667 37.667 -11 51 -1c29.333 0 49 30.667 59 92
l13 40c-4.66699 36.667 -28.667 66.667 -72 90z" />
    <glyph glyph-name="afii10026" unicode="&#x418;" horiz-adv-x="765" 
d="M519 575c-0.666992 11.333 -3.00488 23.001 -7.00488 35.001s-9.66699 19.167 -17 21.5s-17.666 3.5 -30.999 3.5c-10 0 -15.833 0.666992 -17.5 2s-2.83398 3.33301 -3.50098 6v16c0 6 0.333008 9.66699 1 11c0.666992 4 1.66699 6.33301 3 7s5.33301 1 12 1l120 -2
c22 0 43.5 0.166992 64.5 0.5s40.833 0.833008 59.5 1.5h9c8 0 12 -4.33301 12 -13v-5v-10c0 -5.33301 -1 -8.83301 -3 -10.5s-7 -3.16699 -15 -4.5c-19.333 -2.66699 -33 -7.33398 -41 -14.001s-13.333 -18.334 -16 -35.001c-11.333 -22 -15 -34 -11 -36
s5.66699 -10.833 5 -26.5s-1 -43.834 -1 -84.501c-2 -20 -0.666992 -31 4 -33c-2.66699 -96.667 -3.83398 -154.334 -3.50098 -173.001s0.666016 -35.5 0.999023 -50.5s0.833008 -29.167 1.5 -42.5c0.666992 -14.667 2 -26.5 4 -35.5s5.16699 -16.167 9.5 -21.5
s10.333 -9 18 -11s17.5 -3 29.5 -3c11.333 0 17.833 -0.666992 19.5 -2s2.5 -6.33301 2.5 -15c0 -10.667 -0.333008 -17 -1 -19s-3 -3 -7 -3h-11c-5.33301 0 -22.5 1.5 -51.5 4.5s-88.833 1.83301 -179.5 -3.5l-28 -1h-5c-5.33301 0 -8.5 1 -9.5 3s-1.5 8.66699 -1.5 20
c0 7.33301 1 11.833 3 13.5s9.33301 3.5 22 5.5c10.667 1.33301 19.667 3.83301 27 7.5s12.833 8.83398 16.5 15.501s6.83398 15.667 9.50098 27s6.33398 17 11.001 17c-4 24.667 -4.33301 41.334 -1 50.001s2.66602 51 -2.00098 127
c13.333 4.66699 18.833 10.167 16.5 16.5s-8.5 13.5 -18.5 21.5v105l-64 -78l-18 4l-18 -41l-134 -159l-35 -54c3.33301 -17.333 7.16602 -30.666 11.499 -39.999s10.333 -15.166 18 -17.499s18.834 -3.83301 33.501 -4.5c10.667 0 17 -0.666992 19 -2s3 -6.33301 3 -15
c0 -10 -0.5 -16.167 -1.5 -18.5s-3.83301 -3.5 -8.5 -3.5l-96 2l-5 5l-21 3l-11 -1l-5 3l-9 -5l-2 -6h-16l-30 3c-28.667 -2 -62 -10 -100 -24h-5c-5.33301 0 -8.66602 1.16699 -9.99902 3.5s-2 8.5 -2 18.5c0 4.66699 5.16699 10.167 15.5 16.5s17.833 10.166 22.5 11.499
s9.66699 2.33301 15 3c17.333 6.66699 30 15.167 38 25.5s13.667 25.166 17 44.499c1.33301 14 2.5 49.833 3.5 107.5s1.5 132.834 1.5 225.501c0 39.333 -0.5 70.166 -1.5 92.499s-3.16699 39 -6.5 50s-8.66602 18.167 -15.999 21.5s-17.666 8.33301 -30.999 15
c-11.333 0.666992 -17.833 1.5 -19.5 2.5s-2.5 4.16699 -2.5 9.5v10c0 8.66699 0.666992 14.167 2 16.5s6 3.5 14 3.5l131 -11c18.667 0 36.334 0.166992 53.001 0.5s35.334 0.833008 56.001 1.5h11c6.66699 0 10 -4.33301 10 -13v-5v-10c0 -6 -1.16699 -9.66699 -3.5 -11
s-7.83301 -2.66602 -16.5 -3.99902c-28 -2 -45 -18.333 -51 -49c-19.333 -16 -27 -26.667 -23 -32s6.83301 -15.5 8.5 -30.5s4.83398 -29.167 9.50098 -42.5v-229l68 71l44 48l44 67z" />
    <glyph glyph-name="afii10027" unicode="&#x419;" horiz-adv-x="765" 
d="M431 500l60.9971 74.001l-6 12c-5.33301 30.667 -22 47 -50 49c-9.33301 1.33301 -15.166 2.66602 -17.499 3.99902s-3.5 5 -3.5 11v10v5c0 8.66699 3.33301 13 10 13h11c20.667 -0.666992 39.334 -1.16699 56.001 -1.5s34.334 -0.5 53.001 -0.5l131 11
c8 0 12.667 -1.16699 14 -3.5s2 -7.83301 2 -16.5v-10c0 -5.33301 -0.833008 -8.5 -2.5 -9.5s-8.16699 -1.83301 -19.5 -2.5c-13.333 -6.66699 -23.666 -11.667 -30.999 -15s-12.5 -10.5 -15.5 -21.5s-5.16699 -27.667 -6.5 -50s-2 -53.166 -2 -92.499
c0 -92.667 0.666992 -167.834 2 -225.501s2.66602 -93.5 3.99902 -107.5c2.66699 -19.333 8 -34.166 16 -44.499s20.667 -15.5 38 -15.5c5.33301 -0.666992 10.333 -1.83398 15 -3.50098s12.167 -4 22.5 -7s15.5 -6.5 15.5 -10.5c0 -10.667 -0.5 -17 -1.5 -19
s-4.5 -3 -10.5 -3h-5c-38 7.33301 -71.333 8.66602 -100 3.99902l-29 -3h-17l-2 6l-8 5l-6 -3l-11 1l-21 -3l-5 -5l-96 -2c-4.66699 0 -7.5 1.16699 -8.5 3.5s-1.5 8.5 -1.5 18.5c0 8.66699 1.16699 13.667 3.5 15s8.83301 2 19.5 2c14 0.666992 25 2.16699 33 4.5
s14 8.16602 18 17.499s6.33301 20.166 7 32.499s1.66699 38.833 3 79.5v40c0 18.667 4 37.667 12 57c-7.33301 30.667 -11 61.667 -11 93c0.666992 20.667 1 42.334 1 65.001l-61 -68l-28 -16l-157 -198l-24 -20l-5 -17c5.33301 0 9.16602 -5.66699 11.499 -17
s5.5 -20.333 9.5 -27s9.5 -11.834 16.5 -15.501s15.833 -6.16699 26.5 -7.5c12.667 -2 20.167 -3.83301 22.5 -5.5s3.5 -6.16699 3.5 -13.5c0 -11.333 -0.5 -18 -1.5 -20s-4.5 -3 -10.5 -3h-5l-27 1c-91.333 5.33301 -151.333 6.5 -180 3.5s-46 -4.5 -52 -4.5h-10
c-4 0 -6.5 1 -7.5 3s-1.5 8.33301 -1.5 19c0 8.66699 1 13.667 3 15s8.33301 2 19 2c12 0 21.833 1 29.5 3s13.667 5.66699 18 11s7.83301 9.33301 10.5 12s3.66699 17.667 3 45c0.666992 13.333 1.33398 27.5 2.00098 42.5s1.16699 31.833 1.5 50.5s-0.5 46 -2.5 82
c3.33301 20 10.333 37.667 21 53c-8.66699 11.333 -10.667 22 -6 32c-8 24.667 -12.5 55.334 -13.5 92.001s0.5 56 4.5 58s0.333008 14 -11 36c-2.66699 16.667 -8 28.334 -16 35.001s-21.667 11.334 -41 14.001c-8 1.33301 -12.833 2.83301 -14.5 4.5
s-2.5 5.16699 -2.5 10.5v10v5c0 8.66699 3.66699 13 11 13h10c18 -0.666992 37.5 -1.16699 58.5 -1.5s42.833 -0.5 65.5 -0.5l119 2c6.66699 0 10.667 -0.333008 12 -1s2.33301 -3 3 -7c0.666992 -1.33301 1 -5 1 -11v-16c-0.666992 -2.66699 -1.83398 -4.66699 -3.50098 -6
s-7.5 -2 -17.5 -2c-13.333 0 -23.666 -1.16699 -30.999 -3.5s-12.833 -9.5 -16.5 -21.5s-5.66699 -26.333 -6 -43s-8.5 -35.667 -24.5 -57c16 -16 19.333 -39 10 -69c8.66699 -25.333 13 -56.333 13 -93v-91l15 9l160 196l26 10zM565.997 856.001
c0 -12.667 -13.999 -36.999 -41.999 -72.999c-39.333 -48 -93 -74.333 -161 -79c-31.333 0 -68 7.66699 -110 23c-30 16 -45 29 -45 39v1l3 8c-24 4.66699 -36 10.667 -36 18c-8 10.667 -13.333 18 -16 22s-3.83398 7.16699 -3.50098 9.5s1 4.83301 2 7.5
s0.833008 8.33398 -0.5 17.001c0.666992 3.33301 4.5 9 11.5 17s15.833 14.167 26.5 18.5s21.834 5 33.501 2s22.5 -13.833 32.5 -32.5c1.33301 -13.333 7 -31.666 17 -54.999c0.666992 -24 15.334 -39.667 44.001 -47c9.33301 -4 18.666 -6.83301 27.999 -8.5
s21.5 0.166016 36.5 5.49902s34.167 15.666 57.5 30.999c-7.33301 10 -6 15 4 15v15l-1 6c7.33301 25.333 9.66602 38.333 6.99902 39c6 10 14.5 17.167 25.5 21.5s22.5 6.5 34.5 6.5s22.833 -2.33301 32.5 -7s16.167 -11.334 19.5 -20.001z" />
    <glyph glyph-name="afii10028" unicode="&#x41a;" horiz-adv-x="678" 
d="M216 314c0 -23.333 -0.663086 -52.999 -1.99609 -88.999c1.33301 -16.667 -4.33398 -39 -17.001 -67c13.333 -18 20.666 -32.333 21.999 -43s3.66602 -18.834 6.99902 -24.501s8.5 -9.66699 15.5 -12s15.833 -3.83301 26.5 -4.5c11.333 -0.666992 18 -1.66699 20 -3
s3 -6.33301 3 -15c0 -9.33301 -0.5 -15.166 -1.5 -17.499s-3.83301 -3.5 -8.5 -3.5c-66 2 -150 -10.667 -252 -38h-5c-5.33301 0 -8.66602 0.833008 -9.99902 2.5s-2 8.16699 -2 19.5c0 7.33301 0.666992 11.833 2 13.5s4.33301 3.16699 9 4.5
c12 1.33301 21.667 3.66602 29 6.99902s14.833 14.833 22.5 34.5s12.334 35 14.001 46s2.5 25.167 2.5 42.5v22v13l3 68l6 14l-9 16l1 141l7 10l7 11l7 2l-2 17l-9 9l-9 2v49c-2 38 -4.66699 61.833 -8 71.5s-8.33301 16.167 -15 19.5s-16 5.66602 -28 6.99902
c-10 2.66699 -15.333 4.33398 -16 5.00098c-1.33301 1.33301 -2 7.66602 -2 18.999c0 8 1 13 3 15s6.66699 3 14 3h13c5.33301 -0.666992 17 -1 35 -1c18.667 0 44.667 -3 78 -9l33 -14c8.66699 1.33301 11 6.66602 7 15.999c14.667 -1.33301 25.834 -0.5 33.501 2.5
s16.5 4.83301 26.5 5.5h11c7.33301 0 11 -4.66699 11 -14c0 -13.333 -1 -21.333 -3 -24s-8 -4.66699 -18 -6c-16.667 -1.33301 -28.334 -5.33301 -35.001 -12s-11 -18.667 -13 -36c-2 -12 -3.33301 -34.667 -4 -68s-1 -71.333 -1 -114c8.66699 -19.333 21.5 -24 38.5 -14
s29.5 19 37.5 27l34.5 37c12.333 13.333 29.833 31 52.5 53l26 10l-7 18c23.333 32 37.5 52 42.5 60s7.5 15.667 7.5 23c0 12 -4.66699 17.667 -14 17c-8.66699 0 -13.834 1.16699 -15.501 3.5s-2.5 7.5 -2.5 15.5c0 10 0.666992 16.5 2 19.5s4.33301 4.5 9 4.5h4
c16.667 -2 28.5 -3.16699 35.5 -3.5s17.167 -3.83301 30.5 -10.5c60.667 3.33301 98.667 8 114 14h9c4.66699 0 7.83398 -1.5 9.50098 -4.5s2.5 -8.5 2.5 -16.5c0 -9.33301 -1 -14.833 -3 -16.5s-8.33301 -4.16699 -19 -7.5
c-8.66699 -2.66699 -15.834 -5.16699 -21.501 -7.5s-12.167 -6 -19.5 -11s-15.833 -11.5 -25.5 -19.5s-24.167 -22.5 -43.5 -43.5s-37 -38.667 -53 -53s-67.333 -56.833 -154 -127.5c100 -42.667 168.667 -97.667 206 -165l27 -50l15 -25l-6 -18l12 -18l8 -17l33 -10l35 -36
c44.667 -49.333 81.167 -77.666 109.5 -84.999s55.666 -8.66602 81.999 -3.99902s57.5 15.334 93.5 32.001c16 -4.66699 17.667 -26 5 -64l-60.5 -16.5c-13.667 -3.66699 -41.834 -5.83398 -84.501 -6.50098s-74.334 3.83301 -95.001 13.5s-46 25 -76 46
s-65 54.5 -105 100.5s-67.5 80.167 -82.5 102.5l-43.5 65.5l-35 52.5c-9.33301 13.667 -33.333 38.167 -72 73.5c-25.333 2 -39.666 -2.66699 -42.999 -14z" />
    <glyph glyph-name="afii10029" unicode="&#x41b;" horiz-adv-x="699" 
d="M657 15c0 -9.33301 -0.829102 -15.1709 -2.49609 -17.5039s-6.5 -3.5 -14.5 -3.5h-17l-9 2l-20 1h-44l-26 4l-39 1l-6 4l-10 1l-14 -1l-5 1l-4 -6l-33 -7h-11c-6.66699 0 -10 4.33301 -10 13c0 14 1 22.333 3 25s7.66699 4.33398 17 5.00098
c16.667 2.66699 29 6.83398 37 12.501s13.667 16.834 17 33.501c1.33301 8 2.66602 42 3.99902 102v89c0 71.333 -0.166992 127.833 -0.5 169.5s-0.833008 70.167 -1.5 85.5c0 30 -0.666992 50.5 -2 61.5s-3.83301 18.667 -7.5 23s-9.16699 7 -16.5 8
s-16.666 1.5 -27.999 1.5c-6 6 -21.833 6.83301 -47.5 2.5s-38.834 -14.666 -39.501 -30.999s-1 -36.166 -1 -59.499c-0.666992 -23.333 -8 -68.666 -22 -135.999l-9 -11l9 -19c-21.333 -115.333 -34.333 -180.833 -39 -196.5s-10 -29.5 -16 -41.5
c-7.33301 -18 -14.666 -37.5 -21.999 -58.5s-16.333 -37.167 -27 -48.5s-25.334 -20.5 -44.001 -27.5s-34.334 -11.5 -47.001 -13.5l-20 -3l-21 2c-13.333 0.666992 -27 0.666992 -41 0c-16 3.33301 -27.333 9.66602 -34 18.999s-8 28.333 -4 57c4 12 14.667 19.333 32 22
c7.33301 0 19.333 -6 36 -18c13.333 -18 30.666 -28.333 51.999 -31l17 21l20 10c14 6.66699 28 35 42 85c20 44 36.667 100 50 168l17 170l16 140c-18 10 -39 17 -63 21c-6 5.33301 -10.167 8.16602 -12.5 8.49902s-4.16602 0.833008 -5.49902 1.5
c-0.666992 0.666992 -1 2.33398 -1 5.00098v13c0 7.33301 3 13.333 9 18s17 5 33 1l77 -6c13.333 -6.66699 69 -9.33398 167 -8.00098c28.667 -3.33301 54.667 -3.83301 78 -1.5s41.833 6.66602 55.5 12.999s30.167 11.833 49.5 16.5l10 1c5.33301 0 8.5 -1.16699 9.5 -3.5
s1.5 -15.5 1.5 -39.5c0 -6.66699 -1.66699 -11.667 -5 -15s-10.333 -5.33301 -21 -6s-19.834 -2.5 -27.501 -5.5s-14.834 -8.5 -21.501 -16.5s-11 -18.667 -13 -32c0 -53.333 -0.333008 -107.666 -1 -162.999l-4 -104l-5 -38l-13 -7l6 -14l-1 -12l10 -11l5 -73
c1.33301 -54 3.5 -87.833 6.5 -101.5s7.5 -21.5 13.5 -23.5s15 -4 27 -6c10 -0.666992 16.167 -1.5 18.5 -2.5s3.5 -3.83301 3.5 -8.5v-11z" />
    <glyph glyph-name="afii10030" unicode="&#x41c;" horiz-adv-x="896" 
d="M12 710c21.333 42.667 42.6572 67.167 63.9902 73.5s49.333 3.16602 84 -9.50098c34.667 -13.333 69 -41.333 103 -84c33.333 -43.333 64 -99 92 -167l10 -37l-23 -20l27 -28l28 -17l-1 -26l21 -25v-26l21 -26c28 -68 44.667 -108 50 -120l99 221l33 74
c17.333 39.333 31 72.333 41 99c10 26 18 51 24 75c1.33301 4.66699 2.5 7.83398 3.5 9.50098s3.5 2.5 7.5 2.5h6h41l1 -8l-5 -2l12 -2l10 2l2 6l14 3h23c30.667 0.666992 50.667 1.66699 60 3h10c4 0 6.5 -1.16699 7.5 -3.5s1.5 -6.5 1.5 -12.5
c0 -8.66699 -0.166992 -14.667 -0.5 -18s-0.833008 -5.33301 -1.5 -6c-0.666992 -1.33301 -2.66699 -2.5 -6 -3.5s-9.66602 -2.16699 -18.999 -3.5c-12.667 -2 -22.167 -4.33301 -28.5 -7s-11 -8.16699 -14 -16.5s-5 -20.333 -6 -36s-5.16699 -31.5 -12.5 -47.5
c7.33301 -18 7.33301 -35.667 0 -53l11 -31l1 -75l-4 -134l-3 -31l4 -19l-10 -35c10.667 -18.667 16.834 -33.834 18.501 -45.501s4.66699 -20.5 9 -26.5s10.333 -10.167 18 -12.5s17.834 -3.83301 30.501 -4.5c9.33301 0 14.666 -0.666992 15.999 -2s2 -7 2 -17
s-0.5 -16 -1.5 -18s-3.16699 -3 -6.5 -3h-16c-6.66699 0 -14.834 0.166992 -24.501 0.5s-20.834 2 -33.501 5s-25 4.5 -37 4.5c-10 -6 -20.667 -5 -32 3c-5.33301 -8 -13.666 -8 -24.999 0c-20 2 -33.667 0.5 -41 -4.5s-16.666 -7.66699 -27.999 -8s-20.333 -0.5 -27 -0.5
h-7c-4.66699 0 -7.5 0.666992 -8.5 2s-1.5 8 -1.5 20c0 8 0.666992 13 2 15s4 3.33301 8 4c18.667 0.666992 33.334 2.5 44.001 5.5s18.167 9.5 22.5 19.5s7.83301 34.333 10.5 73v52v37v100l4 16l12 9l-8 20l-8 8v19l1 80l2 26l-8 -24l-11 -40l-25 -58l-41 -92l-36 -78
c-19.333 -41.333 -35.666 -77.833 -48.999 -109.5s-22.166 -50.834 -26.499 -57.501s-18.166 -7.83398 -41.499 -3.50098s-37 10.5 -41 18.5s-11.167 25.167 -21.5 51.5l-40.5 101.5l-66 160l-10 50l-16 16l-3 35l-12 24l-8 22l1 -23l-4 -16l4 -13l-4 -25v-10v-9l4 -6
l-8 -17l7 -13l1 -38l-3 -43l-7 -61c6 -49.333 9.5 -87.666 10.5 -114.999s4.33301 -47.666 10 -60.999s13.834 -21.666 24.501 -24.999s25.334 -5 44.001 -5c10 -0.666992 15 -5.66699 15 -15c0 -12 -0.666992 -19.5 -2 -22.5s-4.33301 -4.5 -9 -4.5h-11
c-6.66699 0 -14.167 0.166992 -22.5 0.5s-17.166 0.5 -26.499 0.5s-15.333 7 -18 21c-24.667 -4 -37 -8 -37 -12c-3.33301 -6 -10.666 -2 -21.999 12c-11.333 -14 -22.666 -21 -33.999 -21s-21.666 -0.166992 -30.999 -0.5s-16.666 -0.5 -21.999 -0.5
c-2.66699 -1.33301 -5.33398 -2 -8.00098 -2h-6c-3.33301 0 -5.5 1.16699 -6.5 3.5s-1.5 9.16602 -1.5 20.499c0 8 0.666992 12.833 2 14.5s4.66602 2.83398 9.99902 3.50098c23.333 2.66699 39.666 7 48.999 13s16 16.333 20 31c2.66699 7.33301 5.16699 16.5 7.5 27.5
l16.5 79.5l-4 109l2 90l3 82l1 18c0.666992 22 1 37 1 45c0 16 0.166992 29.667 0.5 41s-3.5 26.333 -11.5 45s-28 37.667 -60 57s-62.667 23.333 -92 12z" />
    <glyph glyph-name="afii10031" unicode="&#x41d;" horiz-adv-x="765" 
d="M519 399c0 76 -0.171875 127.168 -0.504883 153.501s-2.5 45.5 -6.5 57.5s-9.66699 19.167 -17 21.5s-17.666 3.5 -30.999 3.5c-10 0 -15.833 0.666992 -17.5 2s-2.83398 3.33301 -3.50098 6v16c0 6 0.333008 9.66699 1 11c0.666992 4 1.66699 6.33301 3 7
s5.33301 1 12 1l120 -2c22 0 43.5 0.166992 64.5 0.5s40.833 0.833008 59.5 1.5h9c8 0 12 -4.33301 12 -13v-5v-10c0 -5.33301 -1 -8.83301 -3 -10.5s-7 -3.16699 -15 -4.5c-19.333 -2.66699 -33 -7.33398 -41 -14.001s-13.333 -18.334 -16 -35.001
c-11.333 -22 -15 -34 -11 -36s5.66699 -10.833 5 -26.5s-5.33398 -35.5 -14.001 -59.5c4.66699 -10 3 -20.667 -5 -32c10 -15.333 17 -33 21 -53c-2 -78.667 -2.83301 -127.334 -2.5 -146.001s0.666016 -35.5 0.999023 -50.5s0.833008 -29.167 1.5 -42.5
c0.666992 -14.667 2 -26.5 4 -35.5s5.16699 -16.167 9.5 -21.5s10.333 -9 18 -11s17.5 -3 29.5 -3c11.333 0 17.833 -0.666992 19.5 -2s2.5 -6.33301 2.5 -15c0 -10.667 -0.333008 -17 -1 -19s-3 -3 -7 -3h-11c-5.33301 0 -22.5 1.5 -51.5 4.5s-88.833 1.83301 -179.5 -3.5
l-28 -1h-5c-5.33301 0 -8.5 1 -9.5 3s-1.5 8.66699 -1.5 20c0 7.33301 1 11.833 3 13.5s9.33301 3.5 22 5.5c10.667 1.33301 19.667 3.83301 27 7.5s12.833 8.83398 16.5 15.501s6.83398 15.667 9.50098 27s6.33398 17 11.001 17c-4 24.667 -4.33301 41.334 -1 50.001
s2.66602 20 -2.00098 34c13.333 4.66699 18.833 10.334 16.5 17.001s-8.5 13.667 -18.5 21v71l-269 -20c0.666992 -100.667 1.66699 -160.334 3 -179.001s4.16602 -32.667 8.49902 -42s10.333 -15.166 18 -17.499s18.834 -3.83301 33.501 -4.5c10.667 0 17 -0.666992 19 -2
s3 -6.33301 3 -15c0 -10 -0.5 -16.167 -1.5 -18.5s-3.83301 -3.5 -8.5 -3.5l-96 2l-5 5l-21 3l-11 -1l-5 3l-9 -5l-2 -6h-16l-30 3c-28.667 -2 -62 -10 -100 -24h-5c-5.33301 0 -8.66602 1.16699 -9.99902 3.5s-2 8.5 -2 18.5c0 4.66699 5.16699 10.167 15.5 16.5
s17.833 10.166 22.5 11.499s9.66699 2.33301 15 3c17.333 6.66699 30 15.167 38 25.5s13.667 25.166 17 44.499c1.33301 14 2.5 49.833 3.5 107.5s1.5 132.834 1.5 225.501c0 39.333 -0.5 70.166 -1.5 92.499s-3.16699 39 -6.5 50s-8.66602 18.167 -15.999 21.5
s-17.666 8.33301 -30.999 15c-11.333 0.666992 -17.833 1.5 -19.5 2.5s-2.5 4.16699 -2.5 9.5v10c0 8.66699 0.666992 14.167 2 16.5s6 3.5 14 3.5l131 -11c18.667 0 36.334 0.166992 53.001 0.5s35.334 0.833008 56.001 1.5h11c6.66699 0 10 -4.33301 10 -13v-5v-10
c0 -6 -1.16699 -9.66699 -3.5 -11s-7.83301 -2.66602 -16.5 -3.99902c-28 -2 -45 -18.333 -51 -49c-19.333 -16 -27 -26.667 -23 -32s6.83301 -15.5 8.5 -30.5s4.83398 -29.167 9.50098 -42.5v-102z" />
    <glyph glyph-name="afii10032" unicode="&#x41e;" horiz-adv-x="656" 
d="M302 708c34.667 0 85.001 -3.33398 151.001 -10.001v-4c-42 -26.667 -86.667 -40 -134 -40c-53.333 -9.33301 -80 -17 -80 -23c-18 -7.33301 -34.667 -27.666 -50 -60.999c-28.667 -48 -43 -113.667 -43 -197v-9c0 -86 16 -149 48 -189
c33.333 -54.667 67 -86.334 101 -95.001c10.667 -4.66699 21.667 -8 33 -10s25.833 0 43.5 6s40.167 18.333 67.5 37c4 12 12 18 24 18h1v17l-2 8c31.333 43.333 47 98.333 47 165l1 25c0 74.667 -15 132.667 -45 174c-31.333 48.667 -66.333 76.334 -105 83.001l-83 19
c-15.333 -2.66699 -23 0.333008 -23 9c0 9.33301 27.667 14 83 14c63.333 0 116 -15.667 158 -47l2 -9v-3l-3 -4c30 -6 45 -13.333 45 -22c30 -38 49 -69.333 57 -94c7.33301 -24.667 14.666 -56.667 21.999 -96l26 -54c-20.667 -26 -32 -47 -34 -63
c-10.667 -39.333 -36 -84.666 -76 -135.999c-46.667 -57.333 -110 -89 -190 -95c-38 0 -81.667 9.33301 -131 28c-35.333 19.333 -53 34.666 -53 45.999v2l3 9c-28.667 5.33301 -43 12.333 -43 21c-43.333 57.333 -67 108 -71 152l-9 69l-28 47c20 37.333 35 73 45 107
c24 55.333 52 100.333 84 135c42 46.667 95.667 70 161 70z" />
    <glyph glyph-name="afii10033" unicode="&#x41f;" horiz-adv-x="765" 
d="M514 619l-180.001 11.999l-72 -7c-4 -16 -6.66699 -28.667 -8 -38c-3.33301 -15.333 -5 -27.5 -5 -36.5s0.833008 -15.167 2.5 -18.5s0.833984 -65.333 -2.49902 -186c0 -21.333 0.333008 -82.666 1 -183.999c2.66699 -37.333 6.16699 -60.666 10.5 -69.999
s10.333 -15.166 18 -17.499s18.834 -3.83301 33.501 -4.5c10.667 0 17 -0.666992 19 -2s3 -6.33301 3 -15c0 -10 -0.5 -16.167 -1.5 -18.5s-3.83301 -3.5 -8.5 -3.5l-96 2l-5 5l-3 2l-21 -12l-13 15l-9 -5l-2 -6h-16l-30 3c-28.667 -2 -59 -2 -91 0h-6
c-5.33301 0 -8.5 1 -9.5 3s-1.5 8.33301 -1.5 19c0 4 5.16699 9.16699 15.5 15.5s17.666 10.166 21.999 11.499s9.5 2.66602 15.5 3.99902c11.333 -9.33301 21 -8.83301 29 1.5s13.667 25.166 17 44.499c1.33301 14 2.5 49.833 3.5 107.5s1.5 132.834 1.5 225.501
c-0.666992 44.667 -1.33398 76.834 -2.00098 96.501s-2.66699 35 -6 46s-8.66602 18.167 -15.999 21.5s-17.666 5 -30.999 5c-11.333 0.666992 -17.833 1.5 -19.5 2.5s-2.5 4.16699 -2.5 9.5v10c0 8.66699 0.666992 14.167 2 16.5s6 3.5 14 3.5l131 -1l32 8l225 -6
c2 0 15 -2.66699 39 -8l58 7l30 -1c22 0 43.5 0.166992 64.5 0.5s40.833 0.833008 59.5 1.5h9c8 0 12 -4.33301 12 -13v-15c0 -5.33301 -1 -8.83301 -3 -10.5s-7 -3.16699 -15 -4.5c-19.333 -2.66699 -33 -7.33398 -41 -14.001s-13.333 -18.334 -16 -35.001
c0 -15.333 -0.833008 -25.666 -2.5 -30.999s-2.83398 -15.833 -3.50098 -31.5s1.33301 -33.167 6 -52.5c2 -2.66699 1 -16.334 -3 -41.001c-4.66699 -14 -5 -31 -1 -51c-2 -78.667 -2.83301 -127.334 -2.5 -146.001s0.666016 -35.5 0.999023 -50.5
s0.833008 -29.167 1.5 -42.5c0.666992 -14.667 2 -26.5 4 -35.5s5.16699 -16.167 9.5 -21.5s10.333 -9 18 -11s17.5 -3 29.5 -3c11.333 0 17.833 -0.666992 19.5 -2s2.5 -6.33301 2.5 -15c0 -10.667 -0.333008 -17 -1 -19s-3 -3 -7 -3h-11c-5.33301 0 -22.5 1.5 -51.5 4.5
s-88.833 1.83301 -179.5 -3.5l-28 -1h-5c-5.33301 0 -8.5 1 -9.5 3s-1.5 8.66699 -1.5 20c0 7.33301 1 11.833 3 13.5s9.33301 3.5 22 5.5c10.667 1.33301 19.667 3.83301 27 7.5s12.833 8.83398 16.5 15.501s6.83398 15.667 9.50098 27s6.33398 17 11.001 17
c-4 24.667 -4.33301 41.334 -1 50.001s2.66602 20 -2.00098 34c2 164 5.5 246.833 10.5 248.5s2.5 6.16699 -7.5 13.5z" />
    <glyph glyph-name="afii10034" unicode="&#x420;" horiz-adv-x="620" 
d="M-146 702l3.00195 -0.000976562c16.667 -14.667 70.667 -26 162 -34l231 26h80c80 0 148 -27 204 -81c24 -30 40.667 -56.333 50 -79c18 -8.66699 27 -14.667 27 -18l-27 -46c0 -58 -30.667 -110.333 -92 -157c-60 -28.667 -108.667 -43 -146 -43h-19l-85 5l-3 -82v-3
l-8 -9l6 -18c-10.667 -2 -16 -4.66699 -16 -8l3 -12h2l11 7h5c5.33301 -64.667 22 -97 50 -97l14 3h16l5 -28l-26 -2h-96c-32.667 0 -81.334 -8.66699 -146.001 -26c-10.667 14 -16 23.333 -16 28h3c51.333 18 77 39.333 77 64l2 33v391c-22.667 21.333 -42 34 -58 38v13
c3.33301 6.66699 8.66602 10 15.999 10l66 -5h16l143 5l4 -17c-30 0 -52.333 -20.333 -67 -61c-5.33301 -11.333 -8 -23.333 -8 -36v-61c-5.33301 -6 -8 -12 -8 -18c6.66699 -2.66699 10 -8.66699 10 -18v-2c-6.66699 -7.33301 -10 -14.333 -10 -21
c6.66699 0 10 -7.66699 10 -23l3 -2h3l82 -3c49.333 0 89.333 28 120 84c6.66699 34.667 10 62.667 10 84c-8.66699 50.667 -21 79.667 -37 87l-3 5l19 1l12 9l-3 -2l-7 17l-15 7l-5 -11l-14 1l-3 -7h-2c-37.333 36 -80.666 54 -129.999 54c0 2 -13.333 3.33301 -40 4
c-56.667 0 -143.334 -16 -260.001 -48h-16c-42 4.66699 -63 12.334 -63 23.001z" />
    <glyph glyph-name="afii10035" unicode="&#x421;" horiz-adv-x="617" 
d="M534 724c-2.66699 -40.667 -2.66602 -72.166 0.000976562 -94.499s5.5 -41.166 8.5 -56.499s7.5 -27 13.5 -35l-45 -23c-1.33301 21.333 -5.83301 41.666 -13.5 60.999s-18.167 35.333 -31.5 48s-28 22.334 -44 29.001s-34 8.33398 -54 5.00098
s-43.667 -9.66602 -71 -18.999s-42 -17.666 -44 -24.999s-10.667 -11 -26 -11l2 -31c-17.333 -22.667 -30 -44.334 -38 -65.001s-13.167 -41.667 -15.5 -63s-3.5 -48.666 -3.5 -81.999s2.66699 -63.833 8 -91.5s16.5 -52.5 33.5 -74.5s33.667 -42.333 50 -61
s36.833 -33.667 61.5 -45s52.5 -18.833 83.5 -22.5s58.5 -3.66699 82.5 0s43.167 9.33398 57.5 17.001s33.166 24.5 56.499 50.5c0 -28.667 -5.16699 -48.834 -15.5 -60.501s-29 -21.834 -56 -30.501s-55.667 -14.667 -86 -18s-59.5 -4.33301 -87.5 -3
s-55.5 6.33301 -82.5 15s-50 19.167 -69 31.5s-23.833 23.166 -14.5 32.499l-45 11c-38.667 45.333 -62.834 79.333 -72.501 102s-16.667 45.667 -21 69s-6.5 49 -6.5 77l-37 35l33 43c4.66699 23.333 14.667 49.833 30 79.5s36.5 60.167 63.5 91.5s56 54.666 87 69.999
s58.833 24.666 83.5 27.999s55.834 4.16602 93.501 2.49902s81.5 2.83301 131.5 13.5z" />
    <glyph glyph-name="afii10036" unicode="&#x422;" horiz-adv-x="541" 
d="M42 678c12.667 8 25.3359 7.99902 38.0029 -0.000976562l18 -1l57 -1c13.333 -12.667 88.666 -11 225.999 5l56 1l28 1h28c4 -64 15.667 -130 35 -198l-33 -25c-14 38 -31 68.667 -51 92s-37.667 38.5 -53 45.5s-34 9.16699 -56 6.5l-1 -216v-65l-7 -50l-18 -21l5 -43
l19 -37c5.33301 -49.333 19.666 -84.333 42.999 -105l33 -11v-35c-47.333 -0.666992 -89 1.33301 -125 6s-59.833 4.33398 -71.5 -0.999023s-41.167 -8.33301 -88.5 -9l4 32c22.667 12 46.667 28.333 72 49l-3 440l11 24l-8 46c-49.333 2 -80.833 -4.5 -94.5 -19.5
s-26.834 -30.167 -39.501 -45.5l-18 -11c-0.666992 -20 -1 -40.333 -1 -61l-35 4z" />
    <glyph glyph-name="afii10037" unicode="&#x423;" horiz-adv-x="673" 
d="M565 546l-11.999 -24.0049l-22 -36l-5 -32c-8 -17.333 -9 -32.333 -3 -45l-9 -34l-18 -15c-11.333 -18.667 -17 -34.334 -17 -47.001l-14 -35c-24 -47.333 -42 -92.666 -54 -135.999c-15.333 -32 -34.333 -61.333 -57 -88c-20.667 -25.333 -42.667 -40.666 -66 -45.999
c-20.667 -7.33301 -41.167 -11 -61.5 -11s-39.666 2.33301 -57.999 7s-35.166 10.834 -50.499 18.501s-28 16.167 -38 25.5l-34 62c7.33301 52 24.666 76 51.999 72l57 -22c0 -71.333 19.667 -108 59 -110c12 -1.33301 21 2.66699 27 12c24 2.66699 44 20.334 60 53.001
c1.33301 22 -8.33398 54.667 -29.001 98l-23 36l4 32c-26 40.667 -48.333 74.334 -67 101.001c1.33301 27.333 -3.66699 50 -15 68c-36.667 55.333 -73 119.333 -109 192c-32 1.33301 -48.333 3.33301 -49 6v25l5 8l158 4l79 2c6.66699 -2 10 -4.33301 10 -7v-30l-2 -2
c-41.333 -3.33301 -62 -11 -62 -23c13.333 -33.333 33.333 -65.666 60 -96.999c-16.667 -21.333 -13.334 -41.666 9.99902 -60.999c46 -66 82.667 -141 110 -225c41.333 80 65 138.667 71 176c0.666992 1.33301 1 2.66602 1 3.99902l-1 1
c6.66699 34.667 10.667 54.334 12 59.001c6 9.33301 11 18 15 26l-2 7l12 53l23 43.5c3.33301 6.33301 4.33301 10.833 3 13.5c-2.66699 8.66699 -8.16699 14.167 -16.5 16.5s-22.5 3.83301 -42.5 4.5h-14c-2.66699 0 -4.66699 0.666992 -6 2c-0.666992 0.666992 -1 2 -1 4
l-1 14c0 6.66699 0.833008 10.834 2.5 12.501s6.16699 2.5 13.5 2.5h32l9 -14l16 13l22 2c22.667 -6 44 -7.83301 64 -5.5s35 3.83301 45 4.5h15c6 0.666992 9 -3 9 -11l1 -16c0 -4.66699 -1 -7.83398 -3 -9.50098s-7 -2.83398 -15 -3.50098
c-16 -2 -27.833 -6.5 -35.5 -13.5s-22.167 -28.5 -43.5 -64.5c-2 -4.66699 -3.66699 -10 -5 -16z" />
    <glyph glyph-name="afii10038" unicode="&#x424;" horiz-adv-x="698" 
d="M498 598c110.667 8.66699 188.996 -15.999 234.996 -73.999c24 -30 40.667 -56.333 50 -79l-3 -44l3 -29c0 -58.667 -31 -111.334 -93 -158.001c-59.333 -28.667 -115.666 -46 -168.999 -52h-20c-12.667 -1.33301 -25.5 -1.5 -38.5 -0.5s-26.5 3.5 -40.5 7.5l3 -68
c2.66699 -30.667 13 -51.667 31 -63l34 -7v-29c-81.333 4.66699 -162.666 4.66699 -243.999 0l-3 36c20 2.66699 33.167 8 39.5 16s10.5 26.333 12.5 55l-1 59c-14.667 -3.33301 -29.667 -5.5 -45 -6.5s-31 -0.833008 -47 0.5h-19c-53.333 6 -110 23.333 -170 52
c-62 46.667 -93 99.334 -93 158.001l8 48l-8 25c10 22.667 27 49 51 79c56 54 124 81 204 81h60c16.667 -2.66699 30.667 -5.33398 42 -8.00098c8.66699 6.66699 11.334 15.667 8.00098 27c-2.66699 32 -21.667 52 -57 60l5 42l119 -19l25 -7l35 9l72 10l-6 -28
c-22.667 -14.667 -37.667 -28.667 -45 -42l-14 -51c13.333 2.66699 26.333 6 39 10s30.334 6 53.001 6zM287.996 568.001c-8 -3.33301 -18.668 -6.00098 -32.001 -8.00098c-26 -1.33301 -39 -3 -39 -5c-39.333 6 -82.333 -17 -129 -69l-3 -5
c-16 -7.33301 -28.333 -39.666 -37 -96.999c0 -21.333 3.33301 -49 10 -83c30.667 -56 78.667 -87 144 -93c20 -1.33301 38 -2 54 -2s28.667 1.66699 38 5l-2 346c-1.33301 3.33301 -2.66602 7 -3.99902 11zM418.995 526l0.000976562 -46.9971l-8 -21h-13l18 -35v-61
l-30 -34l21 -11h10v-22l4 -83c25.333 -6 52 -7.33301 80 -4c66 6 114.333 37 145 93c6.66699 34 10 61.667 10 83c-8.66699 57.333 -21 89.666 -37 96.999l-3 5l19 1l-18 20l-14 1l-3 -7h-2c-26 37.333 -50 59 -72 65s-46 7 -72 3
c-12.667 -4.66699 -22.334 -6.33398 -29.001 -5.00098c-1.33301 -10.667 -3.33301 -23.334 -6 -38.001z" />
    <glyph glyph-name="afii10039" unicode="&#x425;" horiz-adv-x="800" 
d="M531 126l-43 91.9941c-18.667 12.667 -38.667 39.667 -60 81c-41.333 -49.333 -71.333 -86.666 -90 -111.999s-32.334 -44.5 -41.001 -57.5s-13.834 -21.833 -15.501 -26.5s-2.5 -9.66699 -2.5 -15c0 -10 3.83301 -16.333 11.5 -19s23.834 -4.66699 48.501 -6
c5.33301 0 8.5 -0.833008 9.5 -2.5s1.5 -6.16699 1.5 -13.5c0 -11.333 -0.5 -18.5 -1.5 -21.5s-4.16699 -4.5 -9.5 -4.5h-17c-3.33301 0 -9.5 0.166992 -18.5 0.5s-16 1.16602 -21 2.49902s-18.5 5.33301 -40.5 12c-9.33301 -9.33301 -17.333 -13.666 -24 -12.999
c-2.66699 6.66699 -5.33398 7.66699 -8.00098 3c-1.33301 -2 -4.33301 -3 -9 -3c-4.66699 6.66699 -10.334 9.83398 -17.001 9.50098s-16 -3.83301 -28 -10.5h-15c-15.333 0 -23.333 0.666992 -24 2c-1.33301 0.666992 -2 7 -2 19c0 10 0.833008 16 2.5 18
s8.16699 4.66699 19.5 8c4 1.33301 8.5 3.16602 13.5 5.49902s11.167 6.83301 18.5 13.5s16.5 16 27.5 28l42.5 48l62 73.5c24 29 58.333 67.833 103 116.5c-33.333 70 -80.666 137.667 -141.999 203l1 33v22l-12 8l-13 13l-9 -1c-16 2 -36 12.833 -60 32.5
s-44.167 30.167 -60.5 31.5s-48.5 -0.666992 -96.5 -6c22 42 43.167 66.167 63.5 72.5s49 5.5 86 -2.5s76.167 -29.833 117.5 -65.5s80.333 -77.167 117 -124.5s63.667 -92 81 -134c3.33301 4.66699 6.5 8.83398 9.5 12.501s7 8.83398 12 15.501l21.5 28l39 51
c16.667 22.667 28.334 39.334 35.001 50.001s10 19 10 25c0 6.66699 -3.5 11.167 -10.5 13.5s-19.5 3.83301 -37.5 4.5c-6 0 -9.66699 1.83301 -11 5.5s-2 10.5 -2 20.5c0 6.66699 0.666992 11.167 2 13.5s5 3.5 11 3.5h10h31l5 -17l13 3l16 -10l9 23
c16.667 -3.33301 33.334 -4 50.001 -2s32.334 3.66699 47.001 5h9c6 0 9.5 -1.33301 10.5 -4s1.5 -9.66699 1.5 -21c0 -6.66699 -1 -11 -3 -13s-8 -5.33301 -18 -10c-5.33301 -0.666992 -13.333 -5.33398 -24 -14.001s-25 -22.5 -43 -41.5s-40.167 -43.833 -66.5 -74.5
l-95.5 -112c50 -86.667 95 -172 135 -256l46 -54c24 -40 44.333 -69.833 61 -89.5s25.167 -29.667 25.5 -30s6.83301 -0.666016 19.5 -0.999023s23.667 5.16699 33 16.5s17.333 15.333 24 12s9.33398 -11.166 8.00098 -23.499s-6.5 -23.833 -15.5 -34.5
s-26.833 -16.667 -53.5 -18s-51.834 3.83398 -75.501 15.501s-48.334 29 -74.001 52s-62.5 71.5 -110.5 145.5z" />
    <glyph glyph-name="afii10040" unicode="&#x426;" horiz-adv-x="765" 
d="M693 82l59.001 8.99902c3.33301 -51.333 14.333 -115.333 33 -192l-34 -25c-12.667 46.667 -29 81.667 -49 105s-36.333 41 -49 53l-124 3l-25 -4l-38 4l-239 -4l-32 8l-131 -12c-8 0 -12.667 1.16699 -14 3.5s-2 8.16602 -2 17.499v9c0 5.33301 0.833008 8.5 2.5 9.5
s8.16699 1.83301 19.5 2.5c13.333 6.66699 23.666 11.667 30.999 15s12.666 10.5 15.999 21.5s5.33301 26.5 6 46.5s1.33398 85.333 2.00098 196c10.667 10.667 10.667 21 0 31c4 12.667 4.5 46.167 1.5 100.5s-5.16699 88.166 -6.5 101.499c-3.33301 20 -9 35 -17 45
s-17.667 10.333 -29 1c-6 1.33301 -11.167 2.66602 -15.5 3.99902s-11.666 5.16602 -21.999 11.499s-15.5 11.833 -15.5 16.5c0 10 0.5 16.167 1.5 18.5s4.16699 3.5 9.5 3.5h6c32 2 62.333 1.66699 91 -1l30 3h16l2 -5l9 -6l13 15l21 -12l3 3l5 4l96 3
c4.66699 0 7.5 -1.16699 8.5 -3.5s1.5 -8.5 1.5 -18.5c0 -9.33301 -1 -14.666 -3 -15.999s-8.33301 -2 -19 -2c-14.667 -0.666992 -25.834 -2.16699 -33.501 -4.5s-13.667 -8.16602 -18 -17.499s-7.83301 -32.333 -10.5 -69c-0.666992 -102 -1 -163.333 -1 -184
c3.33301 -121.333 4.16602 -183.666 2.49902 -186.999s-2.5 -9.5 -2.5 -18.5s1.66699 -21.167 5 -36.5c1.33301 -8.66699 4 -21.334 8 -38.001l72 -7l180 13l9 133c10 7.33301 12.5 12 7.5 14s-8.5 84.667 -10.5 248c4.66699 14.667 5.33398 26.167 2.00098 34.5
s-3 24.833 1 49.5c-4.66699 0.666992 -8.33398 6.5 -11.001 17.5s-5.83398 19.833 -9.50098 26.5s-9.16699 11.834 -16.5 15.501s-16.333 6.5 -27 8.5c-12.667 1.33301 -20 2.83301 -22 4.5s-3 6.16699 -3 13.5c0 12 0.5 19 1.5 21s4.16699 3 9.5 3h5l28 -1
c90.667 -6 150.5 -7.33301 179.5 -4s46.167 5 51.5 5h11c4 0 6.33301 -1 7 -3s1 -8.33301 1 -19c0 -9.33301 -0.833008 -14.666 -2.5 -15.999s-8.16699 -2 -19.5 -2c-12 0 -21.833 -1 -29.5 -3s-13.667 -5.5 -18 -10.5s-7.5 -12.167 -9.5 -21.5s-3.33301 -21 -4 -35
c-0.666992 -13.333 -1.16699 -27.5 -1.5 -42.5s-0.666016 -31.833 -0.999023 -50.5s0.5 -67.667 2.5 -147c-4 -19.333 -3.66699 -36 1 -50c4 -25.333 5 -39 3 -41c-4.66699 -20 -6.66699 -37.833 -6 -53.5s1.83398 -26.167 3.50098 -31.5s2.5 -15.666 2.5 -30.999
c0.666992 -20 2 -32.667 4 -38z" />
    <glyph glyph-name="afii10041" unicode="&#x427;" horiz-adv-x="765" 
d="M519 379c-4 97.333 -5.16992 157.166 -3.50293 179.499s0.5 39.5 -3.5 51.5s-9.66699 19.167 -17 21.5s-17.666 3.5 -30.999 3.5c-10 0 -15.833 0.666992 -17.5 2s-2.83398 3.33301 -3.50098 6v16c0 6 0.333008 9.66699 1 11c0.666992 4 1.66699 6.33301 3 7
s5.33301 1 12 1l120 -2c22 0 43.5 0.166992 64.5 0.5s40.833 0.833008 59.5 1.5h9c8 0 12 -4.33301 12 -13v-5v-10c0 -5.33301 -1 -8.83301 -3 -10.5s-7 -3.16699 -15 -4.5c-19.333 -2.66699 -33 -7.33398 -41 -14.001s-13.333 -18.334 -16 -35.001
c-11.333 -22 -15 -34 -11 -36s5.66699 -22.167 5 -60.5s-5.33398 -69.5 -14.001 -93.5c4.66699 -10.667 3 -21.667 -5 -33c10 -15.333 17 -32.666 21 -51.999c-2 -33.333 -2.83301 -59.333 -2.5 -78s0.666016 -35.5 0.999023 -50.5s0.833008 -29.167 1.5 -42.5
c0.666992 -14.667 2 -26.5 4 -35.5s5.16699 -16.167 9.5 -21.5s10.333 -9 18 -11s17.5 -3 29.5 -3c11.333 0 17.833 -0.666992 19.5 -2s2.5 -6.33301 2.5 -15c0 -10.667 -0.333008 -17 -1 -19s-3 -3 -7 -3h-11c-5.33301 0 -22.5 1.5 -51.5 4.5s-88.833 1.83301 -179.5 -3.5
l-28 -1h-5c-5.33301 0 -8.5 1 -9.5 3s-1.5 8.66699 -1.5 20c0 7.33301 1 11.833 3 13.5s9.33301 3.5 22 5.5c10.667 1.33301 19.667 3.83301 27 7.5s12.833 8.83398 16.5 15.501s6.83398 15.667 9.50098 27s6.33398 17 11.001 17c-4 24.667 -4.33301 41.334 -1 50.001
s2.66602 20 -2.00098 34l-2 38v51c-27.333 -20.667 -52.5 -36 -75.5 -46s-45.333 -16.167 -67 -18.5s-42.667 -1.33301 -63 3s-41.166 11.166 -62.499 20.499c-2.66699 -2 -7.83398 -1.33301 -15.501 2s-15.834 7.66602 -24.501 12.999c-10 6 -20.667 13.333 -32 22l-41 56
l-12 82c0 52.667 -0.5 90.167 -1.5 112.5s-3.16699 39 -6.5 50s-8.66602 18.167 -15.999 21.5s-17.666 8.33301 -30.999 15c-11.333 0.666992 -17.833 1.5 -19.5 2.5s-2.5 4.16699 -2.5 9.5v10c0 8.66699 0.666992 14.167 2 16.5s6 3.5 14 3.5l131 -11
c18.667 0 36.334 0.166992 53.001 0.5s35.334 0.833008 56.001 1.5h11c6.66699 0 10 -4.33301 10 -13v-5v-10c0 -6 -1.16699 -9.66699 -3.5 -11s-7.83301 -2.66602 -16.5 -3.99902c-28 -2 -45 -18.333 -51 -49c0.666992 -18.667 -2 -30 -8 -34s-8.16699 -16.833 -6.5 -38.5
s4.83398 -39.167 9.50098 -52.5c-7.33301 -40.667 -2.66602 -71.667 14.001 -93c7.33301 -17.333 18.5 -30 33.5 -38s31.667 -12.667 50 -14s37.166 -0.166016 56.499 3.50098s37.333 8.66699 54 15s30.667 13.5 42 21.5s18 15.667 20 23z" />
    </font>
</defs>
</svg>
